<?xml version="1.0" standalone="no"?><!-- Generator: Gravit.io --><svg xmlns="http://www.w3.org/2000/svg" xmlns:xlink="http://www.w3.org/1999/xlink" style="isolation:isolate" viewBox="0 0 105 120" width="105" height="120"><defs><clipPath id="_clipPath_H81Z84PViymjwAXoK1rggwU0u6ZTBx69"><rect width="105" height="120"/></clipPath></defs><g clip-path="url(#_clipPath_H81Z84PViymjwAXoK1rggwU0u6ZTBx69)"><path d=" M 52.5 0 L 105 30 L 105 90 L 52.5 120 L 0 90 L 0 30 L 52.5 0 Z " fill="rgb(46,46,46)"/><g><path d=" M 66.768 69.651 L 55.687 69.616 L 50.176 59.91 L 55.746 50.238 L 66.828 50.273 L 72.339 59.979 L 66.768 69.651 Z " fill="rgb(193,39,102)"/><path d=" M 49.254 79.796 L 38.172 79.761 L 32.661 70.055 L 38.232 60.383 L 49.313 60.418 L 54.824 70.124 L 49.254 79.796 Z " fill="rgb(62,72,159)"/><path d=" M 66.659 89.99 L 55.578 89.956 L 50.067 80.249 L 55.638 70.578 L 66.719 70.612 L 72.23 80.319 L 66.659 89.99 Z " fill="rgb(113,64,153)"/><path d=" M 49.346 59.581 L 38.264 59.546 L 32.754 49.84 L 38.324 40.169 L 49.405 40.203 L 54.916 49.91 L 49.346 59.581 Z " fill="rgb(120,147,44)"/><path d=" M 66.76 49.422 L 55.679 49.388 L 50.168 39.681 L 55.738 30.01 L 66.819 30.044 L 72.33 39.751 L 66.76 49.422 Z " fill="rgb(207,36,42)"/><ellipse vector-effect="non-scaling-stroke" cx="0" cy="0" rx="1" ry="1" transform="matrix(1.679,0,0,1.695,61.249,39.716)" fill="rgb(255,255,255)"/><ellipse vector-effect="non-scaling-stroke" cx="0" cy="0" rx="1" ry="1" transform="matrix(1.679,0,0,1.695,43.835,49.875)" fill="rgb(255,255,255)"/><ellipse vector-effect="non-scaling-stroke" cx="0" cy="0" rx="1" ry="1" transform="matrix(1.679,0,0,1.695,43.743,70.09)" fill="rgb(255,255,255)"/><ellipse vector-effect="non-scaling-stroke" cx="0" cy="0" rx="1" ry="1" transform="matrix(1.679,0,0,1.695,61.148,80.284)" fill="rgb(255,255,255)"/><line x1="60.188" y1="40.189" x2="44.94" y2="49.009" vector-effect="non-scaling-stroke" stroke-width="0.565" stroke="rgb(255,255,255)" stroke-linejoin="miter" stroke-linecap="butt" stroke-miterlimit="4"/><line x1="43.771" y1="51.199" x2="43.823" y2="68.941" vector-effect="non-scaling-stroke" stroke-width="0.565" stroke="rgb(255,255,255)" stroke-linejoin="miter" stroke-linecap="butt" stroke-miterlimit="4"/><line x1="44.979" y1="70.828" x2="60.088" y2="79.889" vector-effect="non-scaling-stroke" stroke-width="0.565" stroke="rgb(255,255,255)" stroke-linejoin="miter" stroke-linecap="butt" stroke-miterlimit="4"/><ellipse vector-effect="non-scaling-stroke" cx="0" cy="0" rx="1" ry="1" transform="matrix(1.679,0,0,1.695,61.257,59.945)" fill="rgb(255,255,255)"/><line x1="61.195" y1="40.909" x2="61.247" y2="58.651" vector-effect="non-scaling-stroke" stroke-width="0.565" stroke="rgb(255,255,255)" stroke-linejoin="miter" stroke-linecap="butt" stroke-miterlimit="4"/><line x1="61.292" y1="61.245" x2="61.344" y2="78.987" vector-effect="non-scaling-stroke" stroke-width="0.565" stroke="rgb(255,255,255)" stroke-linejoin="miter" stroke-linecap="butt" stroke-miterlimit="4"/><line x1="60.214" y1="60.58" x2="44.966" y2="69.399" vector-effect="non-scaling-stroke" stroke-width="0.565" stroke="rgb(255,255,255)" stroke-linejoin="miter" stroke-linecap="butt" stroke-miterlimit="4"/><line x1="45.036" y1="50.619" x2="60.144" y2="59.68" vector-effect="non-scaling-stroke" stroke-width="0.565" stroke="rgb(255,255,255)" stroke-linejoin="miter" stroke-linecap="butt" stroke-miterlimit="4"/></g></g></svg>