<?xml version="1.0" standalone="no"?><!-- Generator: Gravit.io --><svg xmlns="http://www.w3.org/2000/svg" xmlns:xlink="http://www.w3.org/1999/xlink" style="isolation:isolate" viewBox="0 0 105 120" width="105" height="120"><defs><clipPath id="_clipPath_ECpQSBjgTajn31KVjzApjhINQRvjSrYz"><rect width="105" height="120"/></clipPath></defs><g clip-path="url(#_clipPath_ECpQSBjgTajn31KVjzApjhINQRvjSrYz)"><path d=" M 52.5 0 L 105 30 L 105 90 L 52.5 120 L 0 90 L 0 30 L 52.5 0 Z " fill="rgb(109,139,146)"/><g><path d=" M 78.976 87.875 C 90.624 98.148 98.086 67.471 79.527 61.815 C 63.953 57.054 48.282 65.216 32.578 84.259 C 32.578 84.259 61.585 72.554 78.976 87.875 Z " fill="rgb(11,85,103)"/><path d=" M 32.838 84.009 C 43.999 71.23 62.558 56.983 79.852 62.245 C 83.875 63.498 86.73 66.075 88.58 69.153 L 72.227 32.749 C 69.891 28.632 63.921 29.491 60.547 32.641 L 17.329 72.59 C 13.403 76.313 13.176 82.935 16.81 86.944 C 20.022 90.488 25.116 90.81 28.652 87.66 L 32.838 84.009 Z " fill="rgb(21,169,206)"/></g></g></svg>