<?xml version="1.0" standalone="no"?><!-- Generator: Gravit.io --><svg xmlns="http://www.w3.org/2000/svg" xmlns:xlink="http://www.w3.org/1999/xlink" style="isolation:isolate" viewBox="0 0 105 120" width="105" height="120"><defs><clipPath id="_clipPath_hJBtFgzJoL2j0pW15OjoTosq0qzxWt4c"><rect width="105" height="120"/></clipPath></defs><g clip-path="url(#_clipPath_hJBtFgzJoL2j0pW15OjoTosq0qzxWt4c)"><path d=" M 52.5 0 L 105 30 L 105 90 L 52.5 120 L 0 90 L 0 30 L 52.5 0 Z " fill="rgb(164,198,57)"/><g><path d=" M 30.849 49.473 C 28.781 49.473 27.136 51.118 27.136 53.186 L 27.136 68.651 C 27.136 70.719 28.781 72.364 30.849 72.364 C 32.916 72.364 34.561 70.719 34.561 68.651 L 34.561 53.186 C 34.561 51.118 32.916 49.473 30.849 49.473 L 30.849 49.473 Z  M 74.151 49.473 C 72.084 49.473 70.439 51.118 70.439 53.186 L 70.439 68.651 C 70.439 70.719 72.084 72.364 74.151 72.364 C 76.219 72.364 77.864 70.719 77.864 68.651 L 77.864 53.186 C 77.864 51.118 76.219 49.473 74.151 49.473 L 74.151 49.473 Z " fill="rgb(255,255,255)"/><path d=" M 46.314 67.121 C 44.246 67.121 42.601 68.767 42.601 70.834 L 42.601 86.3 C 42.601 88.367 44.246 90.012 46.314 90.012 C 48.381 90.012 50.027 88.367 50.027 86.3 L 50.027 70.834 C 50.027 68.767 48.381 67.121 46.314 67.121 Z  M 58.686 67.121 C 56.618 67.121 54.973 68.767 54.973 70.834 L 54.973 86.3 C 54.973 88.367 56.618 90.012 58.686 90.012 C 60.754 90.012 62.399 88.367 62.399 86.3 L 62.399 70.834 C 62.399 68.767 60.754 67.121 58.686 67.121 Z " fill="rgb(255,255,255)"/><path d=" M 42.22 29.988 C 42.132 29.989 42.05 30.011 41.97 30.056 C 41.705 30.203 41.618 30.507 41.765 30.772 L 44.381 35.497 C 39.349 38.115 35.95 43.091 35.943 48.802 L 69.057 48.802 C 69.05 43.091 65.651 38.115 60.619 35.497 L 63.235 30.772 C 63.382 30.507 63.295 30.203 63.03 30.056 C 62.949 30.011 62.868 29.988 62.78 29.988 C 62.592 29.986 62.414 30.08 62.314 30.261 L 59.664 35.037 C 57.497 34.075 55.065 33.536 52.5 33.536 C 49.934 33.536 47.503 34.075 45.336 35.037 L 42.686 30.261 C 42.586 30.08 42.408 29.986 42.22 29.988 Z  M 44.858 39.978 C 45.614 39.978 46.24 40.603 46.24 41.359 C 46.24 42.115 45.614 42.741 44.858 42.741 C 44.102 42.741 43.477 42.115 43.477 41.359 C 43.477 40.603 44.102 39.978 44.858 39.978 Z  M 60.141 39.978 C 60.897 39.978 61.523 40.603 61.523 41.359 C 61.523 42.115 60.897 42.741 60.141 42.741 C 59.386 42.741 58.76 42.115 58.76 41.359 C 58.76 40.603 59.386 39.978 60.141 39.978 Z  M 35.943 50.11 L 35.943 74.109 C 35.943 76.327 37.728 78.112 39.946 78.112 L 65.054 78.112 C 67.272 78.112 69.057 76.327 69.057 74.109 L 69.057 50.11 L 35.943 50.11 Z " fill="rgb(255,255,255)"/></g></g></svg>