<?xml version="1.0" standalone="no"?><!-- Generator: Gravit.io --><svg xmlns="http://www.w3.org/2000/svg" xmlns:xlink="http://www.w3.org/1999/xlink" style="isolation:isolate" viewBox="0 0 105 120" width="105" height="120"><defs><clipPath id="_clipPath_ohi4oqZ2tep8i96xtutJkHw1TKDekWtx"><rect width="105" height="120"/></clipPath></defs><g clip-path="url(#_clipPath_ohi4oqZ2tep8i96xtutJkHw1TKDekWtx)"><path d=" M 52.5 0 L 105 30 L 105 90 L 52.5 120 L 0 90 L 0 30 L 52.5 0 Z " fill="rgb(216,99,103)"/><g><path d=" M 24.18 39.943 L 52.126 30 L 80.823 39.77 L 76.174 76.698 L 52.122 90 L 28.448 76.871 L 24.18 39.943 Z " fill="rgb(226,50,55)"/><path d=" M 80.823 39.77 L 52.126 30 L 52.122 90 L 76.174 76.72 L 80.823 39.77 L 80.823 39.77 Z " fill="rgb(181,46,49)"/><path d=" M 52.17 37.006 L 52.17 37.006 L 34.754 75.7 L 41.259 75.59 L 44.755 66.861 L 52.19 66.862 L 52.212 66.862 L 60.376 66.862 L 64.204 75.703 L 70.421 75.813 L 52.17 37.006 L 52.17 37.006 Z  M 52.213 49.403 L 58.098 61.691 L 52.456 61.691 L 52.168 61.691 L 47.035 61.69 L 52.213 49.403 L 52.213 49.403 Z " fill="rgb(255,255,255)"/></g></g></svg>