<?xml version="1.0" standalone="no"?><!-- Generator: Gravit.io --><svg xmlns="http://www.w3.org/2000/svg" xmlns:xlink="http://www.w3.org/1999/xlink" style="isolation:isolate" viewBox="0 0 105 120" width="105" height="120"><defs><clipPath id="_clipPath_dlHXuqPfJMIRzz0njkq1rZAr3W8GWDB5"><rect width="105" height="120"/></clipPath></defs><g clip-path="url(#_clipPath_dlHXuqPfJMIRzz0njkq1rZAr3W8GWDB5)"><path d=" M 52.5 0 L 105 30 L 105 90 L 52.5 120 L 0 90 L 0 30 L 52.5 0 Z " fill="rgb(46,46,46)"/><path d=" M 53.419 41.682 L 67.519 76.483 L 46.221 59.706 L 53.419 41.682 Z  M 78.468 84.5 L 56.779 32.304 C 56.159 30.798 54.921 30.002 53.419 30.002 C 51.913 30.002 50.585 30.798 49.966 32.304 L 26.161 89.556 L 34.304 89.556 L 43.728 65.951 L 71.85 88.67 C 72.981 89.585 73.797 89.998 74.858 89.998 C 76.982 89.998 78.839 88.405 78.839 86.107 C 78.839 85.732 78.707 85.139 78.468 84.5 L 78.468 84.5 Z " fill="rgb(255,255,255)"/></g></svg>