<?xml version="1.0" standalone="no"?><!-- Generator: Gravit.io --><svg xmlns="http://www.w3.org/2000/svg" xmlns:xlink="http://www.w3.org/1999/xlink" style="isolation:isolate" viewBox="0 0 105 120" width="105" height="120"><defs><clipPath id="_clipPath_WaUiGOthMvRnCPoZqFcTTocCaZ40I7x0"><rect width="105" height="120"/></clipPath></defs><g clip-path="url(#_clipPath_WaUiGOthMvRnCPoZqFcTTocCaZ40I7x0)"><path d=" M 52.5 0.015 L 105 30.015 L 105 90.015 L 52.5 120.015 L 0 90.015 L 0 30.015 L 52.5 0.015 Z " fill="rgb(220,223,114)"/><g><g><path d=" M 93.526 57.192 C 91.892 51.745 88.241 47.55 84.973 43.083 C 78.762 34.693 70.7 30.063 63.291 30.008 C 49.072 29.736 39.049 36.219 34.745 46.406 C 34.201 47.713 33.492 48.258 32.185 48.531 C 27.445 49.62 22.706 50.71 18.293 52.943 C 15.297 54.469 12.246 55.885 10.339 58.827 C 7.942 62.531 8.215 66.453 9.141 70.54 C 11.538 80.672 17.694 86.937 27.881 89.225 C 34.146 90.587 40.247 90.424 45.967 87.155 C 49.563 85.139 52.45 82.253 55.283 79.31 C 55.991 78.547 56.536 78.384 57.462 78.82 C 59.205 79.692 60.949 80.509 62.692 81.381 C 68.248 84.159 73.914 86.446 80.288 86.066 C 90.421 85.466 96.468 78.657 95.814 68.741 C 95.596 64.82 94.67 61.006 93.526 57.192 Z  M 55.991 70.975 C 49.89 75.06 43.571 78.602 36.271 80.072 C 33.928 80.563 31.586 80.727 30.006 80.617 C 24.122 80.617 19.165 80.019 14.806 77.022 C 9.686 73.426 7.507 65.582 10.448 60.08 C 11.374 58.282 12.954 56.974 14.698 55.939 C 20.745 52.18 27.5 50.437 34.364 49.021 C 41.5 47.496 48.746 45.861 56.21 45.916 C 59.805 45.916 63.019 47.332 65.307 50.219 C 67.323 52.834 66.724 55.776 65.743 58.554 C 63.836 63.784 60.567 67.924 55.991 70.975 Z  M 93.09 75.443 C 90.802 81.163 85.953 83.069 80.452 83.886 C 74.568 84.758 69.72 81.979 64.708 79.637 C 63.073 78.875 61.493 77.894 59.805 77.241 C 58.334 76.696 58.116 76.151 59.315 75.116 C 61.167 72.774 63.019 70.431 64.49 67.815 L 64.49 67.815 L 64.49 67.815 C 66.288 63.948 67.377 59.862 67.377 55.559 C 67.377 48.912 63.836 45.971 57.136 45.208 C 55.828 45.045 54.466 45.153 53.104 45.153 C 48.582 45.48 44.061 46.189 39.594 47.006 L 39.594 47.006 L 39.594 47.006 C 38.668 46.951 37.524 48.041 36.924 47.06 C 36.489 46.352 37.578 45.48 38.068 44.718 C 41.337 39.052 46.24 35.566 52.396 33.604 C 57.789 31.916 63.128 31.534 68.684 33.005 C 73.26 34.204 76.529 36.982 79.525 40.305 C 83.23 44.391 86.607 48.64 89.331 53.38 C 92 58.011 93.362 62.968 93.744 68.252 C 93.853 70.702 94.071 73.1 93.09 75.443 Z " fill="rgb(87,113,56)"/><path d=" M 72.716 80.999 C 76.747 82.742 80.778 82.415 84.755 80.945 C 89.604 79.147 91.892 75.443 92.219 70.485 C 92.654 63.512 90.475 57.302 86.499 51.69 C 83.992 48.149 81.432 44.554 78.49 41.34 C 74.459 36.982 69.665 34.258 63.563 34.094 C 57.244 33.931 51.36 35.402 46.076 38.834 C 43.134 40.74 40.683 43.356 39.594 46.897 L 39.594 46.897 C 44.061 46.079 48.582 45.371 53.104 45.044 C 53.376 44.935 53.649 44.717 53.921 44.772 C 56.264 44.935 58.443 44.445 60.676 43.682 C 63.291 42.756 65.743 43.791 67.813 45.316 C 72.28 48.64 75.385 52.834 75.385 58.663 C 75.385 62.858 71.735 67.706 66.56 67.379 C 65.852 67.325 65.089 67.271 64.435 67.761 L 64.435 67.761 C 63.019 70.431 61.112 72.718 59.26 75.06 C 61.003 76.858 63.455 77.131 65.579 78.111 C 67.867 79.31 70.374 80.019 72.716 80.999 Z " fill="rgb(220,223,114)"/><path d=" M 89.331 53.379 C 86.553 48.64 83.175 44.336 79.525 40.305 C 76.529 36.981 73.26 34.203 68.684 33.005 C 63.128 31.534 57.789 31.915 52.396 33.604 C 46.24 35.511 41.337 39.052 38.068 44.717 C 37.633 45.48 36.489 46.352 36.925 47.06 C 37.524 47.986 38.668 46.951 39.594 47.005 L 39.594 47.005 C 40.684 43.464 43.081 40.849 46.077 38.943 C 51.361 35.511 57.245 34.094 63.564 34.203 C 69.666 34.367 74.459 37.036 78.491 41.448 C 81.433 44.663 83.993 48.258 86.499 51.799 C 90.476 57.41 92.655 63.621 92.219 70.593 C 91.892 75.551 89.604 79.256 84.756 81.053 C 80.779 82.524 76.747 82.851 72.717 81.108 C 70.374 80.126 67.922 79.418 65.634 78.275 C 63.51 77.24 61.058 76.967 59.315 75.224 C 58.062 76.259 58.334 76.804 59.805 77.349 C 61.494 78.002 63.074 78.983 64.708 79.745 C 69.72 82.087 74.623 84.866 80.452 83.994 C 85.954 83.177 90.802 81.216 93.09 75.55 C 94.016 73.208 93.853 70.811 93.69 68.415 C 93.363 62.967 92.001 58.01 89.331 53.379 Z " fill="rgb(162,178,79)"/><path d=" M 65.688 58.554 C 66.669 55.776 67.268 52.834 65.252 50.219 C 62.964 47.278 59.805 45.916 56.155 45.916 C 48.746 45.861 41.5 47.496 34.255 49.021 C 27.391 50.492 20.636 52.181 14.589 55.939 C 12.845 57.029 11.265 58.336 10.34 60.08 C 7.453 65.582 9.577 73.427 14.698 77.022 C 19.056 80.072 24.013 80.617 29.897 80.617 C 31.477 80.727 33.874 80.508 36.162 80.072 C 43.462 78.602 49.781 75.06 55.882 70.975 C 60.567 67.924 63.836 63.784 65.688 58.554 Z  M 53.104 71.357 C 47.929 74.462 42.699 77.459 36.652 78.547 C 31.749 79.418 26.737 79.692 21.834 78.438 C 16.114 77.076 11.701 71.901 11.483 66.018 C 11.374 62.803 12.954 60.189 15.406 58.118 C 19.22 54.904 23.741 53.215 28.535 52.18 C 28.644 52.18 28.807 52.344 28.971 52.453 C 33.002 49.347 37.578 48.748 42.481 49.129 C 42.917 48.095 43.952 48.421 44.715 48.204 C 48.909 47.168 53.158 46.733 57.353 47.604 C 65.252 49.184 66.233 53.597 63.672 60.025 C 61.657 65.2 57.68 68.578 53.104 71.357 Z " fill="rgb(162,178,79)"/><path d=" M 66.56 67.434 C 71.735 67.762 75.385 62.912 75.385 58.718 C 75.385 52.889 72.28 48.694 67.813 45.371 C 65.688 43.846 63.291 42.811 60.676 43.737 C 58.443 44.499 56.264 44.99 53.921 44.827 C 53.649 44.827 53.376 45.045 53.104 45.099 C 54.466 45.099 55.773 44.99 57.135 45.153 C 63.836 45.916 67.377 48.857 67.377 55.504 C 67.377 59.808 66.288 63.893 64.49 67.762 L 64.49 67.762 C 65.089 67.379 65.797 67.379 66.56 67.434 Z " fill="rgb(162,178,79)"/><path d=" M 57.353 47.659 C 53.158 46.787 48.855 47.278 44.715 48.258 C 43.952 48.422 42.917 48.149 42.481 49.184 C 47.275 50.11 50.979 52.725 53.485 56.92 C 55.555 60.352 55.011 63.675 51.852 66.344 C 48.528 69.232 44.551 70.593 40.194 71.084 C 34.365 71.738 29.134 69.995 24.231 66.998 C 22.87 66.181 22.488 65.091 22.652 63.621 C 23.196 58.99 25.539 55.394 28.971 52.453 L 28.971 52.453 C 28.808 52.344 28.644 52.18 28.536 52.18 C 23.741 53.215 19.22 54.904 15.406 58.118 C 12.955 60.188 11.375 62.803 11.484 66.018 C 11.702 71.847 16.169 77.022 21.834 78.438 C 26.792 79.636 31.749 79.418 36.652 78.547 C 42.644 77.459 47.929 74.462 53.05 71.357 C 57.626 68.578 61.603 65.201 63.618 60.134 C 66.233 53.651 65.252 49.239 57.353 47.659 Z " fill="rgb(220,223,114)"/><path d=" M 22.651 63.621 C 22.488 65.037 22.869 66.181 24.231 66.999 C 29.134 69.995 34.364 71.738 40.193 71.084 C 44.497 70.594 48.528 69.232 51.851 66.344 C 54.956 63.675 55.555 60.352 53.485 56.92 C 50.925 52.725 47.274 50.11 42.481 49.185 C 37.632 48.803 33.002 49.403 28.97 52.507 L 28.97 52.507 C 25.484 55.449 23.142 59.045 22.651 63.621 Z " fill="rgb(94,49,8)"/></g></g></g></svg>