<?xml version="1.0" standalone="no"?><!-- Generator: Gravit.io --><svg xmlns="http://www.w3.org/2000/svg" xmlns:xlink="http://www.w3.org/1999/xlink" style="isolation:isolate" viewBox="0 0 105 120" width="105" height="120"><defs><clipPath id="_clipPath_wiGoH2IxuXDlPaUVWiw8VbwqgUZr28t3"><rect width="105" height="120"/></clipPath></defs><g clip-path="url(#_clipPath_wiGoH2IxuXDlPaUVWiw8VbwqgUZr28t3)"><polygon points="52.5,120,0,90,0,30,52.5,0,105,30,105,90" fill="rgb(24,150,155)"/><g><path d=" M 76.765 82.719 C 75.569 82.719 74.344 82.633 73.139 82.453 C 63.042 81.012 56.29 73.76 52.508 68.185 C 48.714 73.76 41.963 81.019 31.87 82.458 C 30.669 82.63 29.457 82.717 28.244 82.716 C 21.966 82.716 16.073 80.38 11.64 76.138 C 7.165 71.86 4.695 66.12 4.695 60 C 4.695 53.871 7.165 48.139 11.646 43.854 C 16.075 39.611 21.973 37.281 28.253 37.281 C 29.45 37.281 30.668 37.367 31.869 37.539 C 41.962 38.979 48.713 46.232 52.507 51.807 C 56.29 46.232 63.041 38.981 73.138 37.539 C 74.343 37.367 75.561 37.281 76.758 37.281 C 83.035 37.281 88.933 39.617 93.361 43.854 C 97.841 48.139 100.305 53.871 100.305 60 C 100.305 66.12 97.847 71.86 93.368 76.138 C 88.931 80.38 83.043 82.719 76.765 82.719 M 56.979 60.002 C 58.951 63.758 64.768 73.129 74.277 74.491 C 75.11 74.606 75.948 74.669 76.764 74.669 C 85.305 74.669 92.258 68.09 92.258 60 C 92.258 51.909 85.307 45.33 76.758 45.33 C 75.941 45.33 75.104 45.389 74.279 45.508 C 64.768 46.867 58.951 56.238 56.979 60.002 Z  M 28.253 45.332 C 19.7 45.332 12.746 51.911 12.746 60.002 C 12.746 68.091 19.697 74.671 28.242 74.671 C 29.063 74.671 29.901 74.608 30.733 74.493 C 40.242 73.131 46.058 63.765 48.031 60.004 C 46.063 56.248 40.242 46.869 30.733 45.515 C 29.91 45.391 29.07 45.332 28.253 45.332" fill="rgb(255,255,255)"/><path d=" M 21.765 57.781 L 35.907 57.781 L 35.907 62.338 L 21.765 62.338 L 21.765 57.781 Z  M 83.114 57.781 L 78.326 57.781 L 78.326 52.986 L 73.754 52.986 L 73.754 57.781 L 68.968 57.781 L 68.968 62.338 L 73.754 62.338 L 73.754 67.131 L 78.326 67.131 L 78.326 62.338 L 83.114 62.338 L 83.114 57.781 Z " fill="rgb(255,255,255)"/></g></g></svg>