<?xml version="1.0" standalone="no"?><!-- Generator: Gravit.io --><svg xmlns="http://www.w3.org/2000/svg" xmlns:xlink="http://www.w3.org/1999/xlink" style="isolation:isolate" viewBox="0 0 105 120" width="105" height="120"><defs><clipPath id="_clipPath_sGKqe8QdMmRpgoE7tvZeaoHH5IYbm8RA"><rect width="105" height="120"/></clipPath></defs><g clip-path="url(#_clipPath_sGKqe8QdMmRpgoE7tvZeaoHH5IYbm8RA)"><path d=" M 52.5 0.015 L 105 30.015 L 105 90.015 L 52.5 120.015 L 0 90.015 L 0 30.015 L 52.5 0.015 Z " fill="rgb(35,47,62)"/><g><path d=" M 30.599 51.787 C 30.599 53.023 30.732 54.024 30.966 54.759 C 31.233 55.493 31.567 56.294 32.034 57.162 C 32.201 57.429 32.268 57.696 32.268 57.93 C 32.268 58.264 32.068 58.598 31.634 58.932 L 29.53 60.334 C 29.23 60.534 28.929 60.634 28.662 60.634 C 28.328 60.634 27.995 60.467 27.661 60.167 C 27.193 59.666 26.793 59.132 26.459 58.598 C 26.125 58.03 25.791 57.396 25.424 56.628 C 22.82 59.7 19.548 61.235 15.609 61.235 C 12.805 61.235 10.568 60.434 8.932 58.832 C 7.296 57.229 6.462 55.092 6.462 52.422 C 6.462 49.584 7.463 47.281 9.5 45.545 C 11.536 43.809 14.24 42.941 17.679 42.941 C 18.814 42.941 19.982 43.041 21.218 43.208 C 22.453 43.375 23.721 43.642 25.057 43.942 L 25.057 41.505 C 25.057 38.968 24.523 37.198 23.488 36.163 C 22.419 35.129 20.617 34.628 18.046 34.628 C 16.878 34.628 15.676 34.761 14.441 35.062 C 13.205 35.362 12.003 35.729 10.835 36.197 C 10.301 36.431 9.9 36.564 9.667 36.631 C 9.433 36.698 9.266 36.731 9.132 36.731 C 8.665 36.731 8.431 36.397 8.431 35.696 L 8.431 34.06 C 8.431 33.526 8.498 33.125 8.665 32.892 C 8.832 32.658 9.132 32.424 9.6 32.191 C 10.768 31.59 12.17 31.089 13.806 30.688 C 15.442 30.254 17.178 30.054 19.014 30.054 C 22.987 30.054 25.891 30.955 27.761 32.758 C 29.597 34.561 30.532 37.299 30.532 40.971 L 30.532 51.787 L 30.599 51.787 Z  M 17.045 56.862 C 18.146 56.862 19.281 56.662 20.483 56.261 C 21.685 55.86 22.753 55.126 23.655 54.124 C 24.189 53.49 24.589 52.789 24.79 51.988 C 24.99 51.186 25.124 50.218 25.124 49.083 L 25.124 47.681 C 24.155 47.447 23.12 47.247 22.052 47.114 C 20.984 46.98 19.949 46.913 18.914 46.913 C 16.677 46.913 15.041 47.347 13.94 48.249 C 12.838 49.15 12.304 50.419 12.304 52.088 C 12.304 53.657 12.705 54.825 13.539 55.627 C 14.34 56.461 15.509 56.862 17.045 56.862 Z  M 43.852 60.467 C 43.251 60.467 42.851 60.367 42.584 60.134 C 42.317 59.933 42.083 59.466 41.883 58.832 L 34.037 33.025 C 33.837 32.358 33.737 31.924 33.737 31.69 C 33.737 31.156 34.004 30.855 34.538 30.855 L 37.81 30.855 C 38.444 30.855 38.878 30.955 39.112 31.189 C 39.379 31.389 39.579 31.857 39.779 32.491 L 45.388 54.592 L 50.596 32.491 C 50.763 31.823 50.963 31.389 51.23 31.189 C 51.497 30.989 51.965 30.855 52.566 30.855 L 55.236 30.855 C 55.871 30.855 56.305 30.955 56.572 31.189 C 56.839 31.389 57.073 31.857 57.206 32.491 L 62.481 54.859 L 68.256 32.491 C 68.457 31.823 68.69 31.389 68.924 31.189 C 69.191 30.989 69.625 30.855 70.226 30.855 L 73.331 30.855 C 73.865 30.855 74.165 31.122 74.165 31.69 C 74.165 31.857 74.132 32.024 74.099 32.224 C 74.065 32.424 73.998 32.691 73.865 33.059 L 65.819 58.865 C 65.619 59.533 65.385 59.967 65.118 60.167 C 64.851 60.367 64.417 60.501 63.85 60.501 L 60.979 60.501 C 60.344 60.501 59.91 60.401 59.643 60.167 C 59.376 59.933 59.142 59.499 59.009 58.832 L 53.834 37.299 L 48.693 58.798 C 48.526 59.466 48.326 59.9 48.059 60.134 C 47.792 60.367 47.324 60.467 46.723 60.467 L 43.852 60.467 Z  M 86.751 61.369 C 85.015 61.369 83.279 61.168 81.61 60.768 C 79.941 60.367 78.639 59.933 77.771 59.432 C 77.237 59.132 76.87 58.798 76.736 58.498 C 76.602 58.197 76.536 57.863 76.536 57.563 L 76.536 55.86 C 76.536 55.159 76.803 54.825 77.304 54.825 C 77.504 54.825 77.704 54.859 77.904 54.926 C 78.105 54.992 78.405 55.126 78.739 55.259 C 79.874 55.76 81.109 56.161 82.411 56.428 C 83.747 56.695 85.049 56.828 86.384 56.828 C 88.487 56.828 90.123 56.461 91.258 55.727 C 92.393 54.992 92.994 53.924 92.994 52.555 C 92.994 51.62 92.694 50.853 92.093 50.218 C 91.492 49.584 90.357 49.017 88.721 48.482 L 83.88 46.98 C 81.443 46.212 79.64 45.077 78.539 43.575 C 77.437 42.106 76.87 40.47 76.87 38.734 C 76.87 37.332 77.17 36.097 77.771 35.028 C 78.372 33.96 79.173 33.025 80.175 32.291 C 81.176 31.523 82.311 30.955 83.647 30.555 C 84.982 30.154 86.384 29.987 87.853 29.987 C 88.587 29.987 89.355 30.021 90.09 30.121 C 90.858 30.221 91.559 30.355 92.26 30.488 C 92.927 30.655 93.562 30.822 94.163 31.022 C 94.764 31.223 95.231 31.423 95.565 31.623 C 96.032 31.89 96.366 32.157 96.566 32.458 C 96.767 32.725 96.867 33.092 96.867 33.559 L 96.867 35.129 C 96.867 35.83 96.6 36.197 96.099 36.197 C 95.832 36.197 95.398 36.063 94.83 35.796 C 92.927 34.928 90.791 34.494 88.421 34.494 C 86.518 34.494 85.015 34.795 83.98 35.429 C 82.946 36.063 82.411 37.031 82.411 38.4 C 82.411 39.335 82.745 40.136 83.413 40.771 C 84.081 41.405 85.316 42.039 87.085 42.607 L 91.826 44.109 C 94.229 44.877 95.965 45.945 97 47.314 C 98.035 48.683 98.536 50.252 98.536 51.988 C 98.536 53.423 98.236 54.725 97.668 55.86 C 97.067 56.995 96.266 57.997 95.231 58.798 C 94.196 59.633 92.961 60.234 91.525 60.668 C 90.023 61.135 88.454 61.369 86.751 61.369 Z " fill="rgb(255,255,255)"/><g><path d=" M 93.061 77.594 C 82.078 85.706 66.12 90.013 52.399 90.013 C 33.169 90.013 15.843 82.902 2.756 71.084 C 1.721 70.149 2.656 68.88 3.891 69.615 C 18.046 77.827 35.506 82.802 53.567 82.802 C 65.752 82.802 79.14 80.264 91.459 75.056 C 93.295 74.222 94.864 76.258 93.061 77.594 Z " fill-rule="evenodd" fill="rgb(255,153,0)"/><path d=" M 97.635 72.386 C 96.233 70.583 88.354 71.518 84.782 71.952 C 83.713 72.085 83.546 71.15 84.515 70.449 C 90.791 66.043 101.107 67.311 102.309 68.78 C 103.51 70.282 101.975 80.598 96.099 85.539 C 95.198 86.307 94.33 85.906 94.73 84.905 C 96.066 81.6 99.037 74.155 97.635 72.386 Z " fill-rule="evenodd" fill="rgb(255,153,0)"/></g></g></g></svg>