<?xml version="1.0" standalone="no"?><!-- Generator: Gravit.io --><svg xmlns="http://www.w3.org/2000/svg" xmlns:xlink="http://www.w3.org/1999/xlink" style="isolation:isolate" viewBox="0 0 105 120" width="105" height="120"><defs><clipPath id="_clipPath_WxLjhDMT40BBJno5vfc0ycyIkRBPa3XI"><rect width="105" height="120"/></clipPath></defs><g clip-path="url(#_clipPath_WxLjhDMT40BBJno5vfc0ycyIkRBPa3XI)"><path d=" M 52.5 1.15 L 104 30.575 L 104 89.425 L 52.5 118.85 L 1 89.425 L 1 30.575 L 52.5 1.15 Z " fill="rgb(23,23,23)" vector-effect="non-scaling-stroke" stroke-width="2" stroke="rgb(62,190,176)" stroke-linejoin="miter" stroke-linecap="butt" stroke-miterlimit="4"/><g><path d=" M 51.6 63.824 L 35.555 63.824 L 35.555 37.882 L 51.6 37.882 C 58.798 37.882 64.571 43.655 64.571 50.853 C 64.571 58.051 58.798 63.824 51.6 63.824 Z " fill="rgb(7,165,222)"/><path d=" M 56.474 82.118 L 35.555 82.118 L 35.555 56.176 L 56.474 56.176 C 63.672 56.176 69.445 61.949 69.445 69.147 C 69.445 76.345 63.672 82.118 56.474 82.118 Z " fill="rgb(62,190,176)"/><g opacity="0.26"><path d=" M 66.296 60.675 C 63.897 57.901 60.373 56.176 56.474 56.176 L 35.555 56.176 L 35.555 68.173 L 54.974 68.173 C 61.872 68.173 66.671 61.05 66.296 60.675 Z " fill="rgb(53,53,53)"/></g><path d=" M 51.6 63.824 C 56.249 63.824 60.298 61.35 62.622 57.676 C 62.322 57.526 62.022 57.376 61.647 57.226 C 61.572 57.226 61.497 57.151 61.422 57.151 C 61.122 57.001 60.823 56.926 60.448 56.776 L 60.373 56.776 C 60.298 56.776 60.298 56.776 60.223 56.701 L 59.323 56.476 L 59.173 56.476 C 59.098 56.476 59.023 56.476 59.023 56.401 C 58.723 56.326 58.423 56.326 58.123 56.251 L 57.673 56.251 C 57.299 56.251 56.999 56.176 56.624 56.176 L 35.555 56.176 L 35.555 63.824 L 51.6 63.824 Z " fill="rgb(53,53,53)"/><path d=" M 22.509 30.009 L 82.491 30.009 L 82.491 89.991 L 22.509 89.991 L 22.509 30.009 Z " fill="none"/></g></g></svg>