<?xml version="1.0" standalone="no"?><!-- Generator: Gravit.io --><svg xmlns="http://www.w3.org/2000/svg" xmlns:xlink="http://www.w3.org/1999/xlink" style="isolation:isolate" viewBox="0 0 105 120" width="105" height="120"><defs><clipPath id="_clipPath_TYMr7ruc5H0DhfjSRzjbdEFl8k4Rjj17"><rect width="105" height="120"/></clipPath></defs><g clip-path="url(#_clipPath_TYMr7ruc5H0DhfjSRzjbdEFl8k4Rjj17)"><path d=" M 52.5 0 L 105 30 L 105 90 L 52.5 120 L 0 90 L 0 30 L 52.5 0 Z " fill="rgb(18,135,177)"/><clipPath id="_clipPath_Oovvy23lzRpSRfZaVXyDoN8AFpiinPGb"><rect x="2.5" y="29.994" width="100" height="60.013" transform="matrix(1,0,0,1,0,0)" fill="rgb(255,255,255)"/></clipPath><g clip-path="url(#_clipPath_Oovvy23lzRpSRfZaVXyDoN8AFpiinPGb)"><g><g><g><g><g><clipPath id="_clipPath_6M8frZ1STqpaoMNzl6X04yQ1hecwSdIy"><path d=" M -15.962 -4.097 L 269.269 -4.097 L 269.269 422.031 L -15.962 422.031 L -15.962 -4.097 Z " fill="rgb(255,255,255)"/></clipPath><g clip-path="url(#_clipPath_6M8frZ1STqpaoMNzl6X04yQ1hecwSdIy)"><g><g><g><path d=" M 82.322 50.522 C 83.06 60.451 69.525 69.9 52.094 71.626 C 34.66 73.352 19.931 66.704 19.192 56.776 C 18.454 46.847 31.989 37.397 49.42 35.672 C 66.854 33.946 81.583 40.593 82.322 50.522 Z " fill="rgb(187,230,251)"/></g></g></g></g></g><g><clipPath id="_clipPath_yJCIRI5lEJvaBnwNGKIs3xxgb8C6caDj"><path d=" M -15.962 -4.097 L 269.269 -4.097 L 269.269 422.031 L -15.962 422.031 L -15.962 -4.097 Z " fill="rgb(255,255,255)"/></clipPath><g clip-path="url(#_clipPath_yJCIRI5lEJvaBnwNGKIs3xxgb8C6caDj)"><g><g><g><g><clipPath id="_clipPath_x7khG1Zzss5jFjcjlJkrh5gLs3YlPm6l"><path d=" M 28.783 36.833 L 69.934 36.833 L 69.934 70.284 L 28.783 70.284 L 28.783 36.833 Z " fill="rgb(255,255,255)"/></clipPath><g clip-path="url(#_clipPath_x7khG1Zzss5jFjcjlJkrh5gLs3YlPm6l)"><g><g style="opacity:0.35000604;"><g style="opacity:0.35000604;"><g style="opacity:0.35000604;"><g opacity="0.35000604"><path d=" M 49.934 36.836 C 43.282 36.712 35.5 39.759 29.712 42.614 C 29.109 44.617 28.783 46.751 28.783 48.96 C 28.783 60.739 37.995 70.284 49.358 70.284 C 60.722 70.284 69.934 60.739 69.934 48.96 C 69.934 45.235 69.008 41.733 67.386 38.683 C 62.755 37.852 56.383 36.957 49.934 36.836 Z " fill="rgb(255,255,255)"/></g></g></g></g></g></g></g></g></g></g></g></g><g><clipPath id="_clipPath_uCSAETfbgzpn6DCPOnuZ4bAfJKE2ecsT"><path d=" M -15.962 -4.097 L 269.269 -4.097 L 269.269 422.031 L -15.962 422.031 L -15.962 -4.097 Z " fill="rgb(255,255,255)"/></clipPath><g clip-path="url(#_clipPath_uCSAETfbgzpn6DCPOnuZ4bAfJKE2ecsT)"><g><g><g><path d=" M 49.358 36.833 C 45.678 36.574 39.331 38.79 34.042 41.002 C 33.235 43.193 32.789 45.59 32.789 48.107 C 32.789 58.423 40.894 66.79 49.466 66.79 C 57.983 66.79 65.518 58.409 66.143 48.107 C 66.346 44.752 65.346 41.588 63.955 38.861 C 58.472 37.746 52.651 37.064 49.358 36.833 Z " fill="rgb(255,255,255)"/></g></g></g></g></g><g><clipPath id="_clipPath_oll3SPjCCfnIsiiyJCdfQ6U0yKYaG9RM"><path d=" M -15.962 -4.097 L 269.269 -4.097 L 269.269 422.031 L -15.962 422.031 L -15.962 -4.097 Z " fill="rgb(255,255,255)"/></clipPath><g clip-path="url(#_clipPath_oll3SPjCCfnIsiiyJCdfQ6U0yKYaG9RM)"><g><g><g><path d=" M 39.912 46.751 C 40.362 45.597 41.048 45.032 41.709 44.063 C 41.635 43.832 41.475 43.083 41.475 42.824 C 41.475 41.666 42.291 40.721 43.294 40.721 C 43.531 40.721 43.758 40.778 43.968 40.874 C 46.98 38.221 50.946 37.067 54.931 38.094 C 55.297 38.189 55.654 38.303 56.005 38.431 C 52.063 37.799 47.623 39.411 44.602 42.223 C 44.694 42.476 44.952 43.193 44.952 43.484 C 44.952 44.645 44.3 44.926 43.294 44.926 C 43.066 44.926 42.848 44.876 42.648 44.787 C 41.965 45.845 41.128 47.859 40.718 49.12 C 42.389 50.845 43.9 51.47 45.866 52.319 C 45.86 52.209 45.934 52.11 45.934 51.999 C 45.934 48.502 48.602 45.657 51.632 45.657 C 54.349 45.657 56.598 47.937 57.038 50.927 C 58.392 49.933 59.703 49.169 60.703 47.696 C 60.469 47.365 60.217 46.438 60.217 45.98 C 60.217 44.926 60.958 44.073 61.869 44.073 C 61.998 44.073 62.122 44.095 62.245 44.127 C 62.749 42.923 63.134 41.648 63.377 40.334 C 58.638 36.282 49.466 36.836 49.466 36.836 C 49.466 36.836 42.171 36.396 37.229 39.177 C 37.558 41.925 38.509 44.539 39.912 46.751 Z " fill="rgb(55,53,53)"/></g><g><path d=" M 62.565 45.174 C 62.9 45.522 63.085 45.828 63.226 46.126 C 63.672 47.046 62.783 47.887 61.869 47.887 C 61.777 47.887 61.688 47.873 61.598 47.855 C 60.571 49.709 58.771 52.088 57.171 53.285 C 59.623 53.747 61.937 54.883 63.777 56.634 C 65.115 53.86 66.143 49.862 66.143 46.46 C 66.143 43.875 65.155 41.978 63.66 40.586 C 63.583 41.971 62.94 43.91 62.565 45.174 Z " fill="rgb(55,53,53)"/></g><g><path d=" M 42.663 62.727 C 43.478 60.121 45.488 58.104 47.389 56.328 C 47.112 55.888 46.694 54.801 46.522 54.283 C 44.202 53.47 42.149 51.946 40.558 49.929 C 40.546 49.99 40.534 50.046 40.522 50.103 C 40.22 51.655 40.165 53.207 40.315 54.723 C 41.426 54.961 42.266 56.083 42.266 57.436 C 42.266 58.235 41.657 59.396 41.186 59.904 C 41.7 61.183 42.048 61.797 42.663 62.727 Z " fill="rgb(55,53,53)"/></g><g><path d=" M 42.518 64.911 C 41.543 63.793 40.869 61.562 40.238 60.163 C 40.118 60.181 39.998 60.199 39.872 60.199 C 38.552 60.199 37.168 58.917 37.482 57.436 C 37.654 56.616 38.143 56.08 38.943 55.632 C 38.762 53.931 38.712 51.492 39.054 49.723 C 39.149 49.219 39.358 48.985 39.497 48.502 C 38.038 46.037 37.094 42.806 37.094 39.596 C 37.094 39.478 37.1 39.365 37.103 39.248 C 34.638 40.675 32.789 42.923 32.789 46.46 C 32.789 54.286 36.694 61.967 42.506 64.975 C 42.509 64.954 42.512 64.932 42.518 64.911 Z " fill="rgb(55,53,53)"/></g><g><path d=" M 56.805 54.091 C 56.054 56.555 54.023 58.327 51.632 58.327 C 50.352 58.327 49.177 57.82 48.245 56.971 C 46.322 58.7 44.577 61.74 43.691 64.375 C 44.088 64.869 44.365 65.273 44.811 65.714 C 46.158 66.118 48.011 65.714 49.466 65.714 C 55.325 65.714 60.515 62.706 63.488 57.429 C 61.512 55.849 59.177 54.343 56.805 54.091 Z " fill="rgb(55,53,53)"/></g></g></g></g></g><g><clipPath id="_clipPath_HtUgwI8uSyWDEHrutV4AmH3A9v69nI8h"><path d=" M -15.962 -4.097 L 269.269 -4.097 L 269.269 422.031 L -15.962 422.031 L -15.962 -4.097 Z " fill="rgb(255,255,255)"/></clipPath><g clip-path="url(#_clipPath_HtUgwI8uSyWDEHrutV4AmH3A9v69nI8h)"><g><g><g><path d=" M 39.762 47.667 C 40.214 46.51 40.78 45.444 41.442 44.475 C 41.368 44.247 41.325 43.999 41.325 43.74 C 41.325 42.578 42.14 41.637 43.146 41.637 C 43.383 41.637 43.608 41.691 43.817 41.787 C 46.829 39.138 50.795 37.98 54.783 39.01 C 55.146 39.106 55.503 39.219 55.854 39.343 C 51.915 38.715 47.845 40.107 44.823 42.923 C 44.915 43.175 44.965 43.449 44.965 43.74 C 44.965 44.901 44.149 45.842 43.146 45.842 C 42.915 45.842 42.697 45.789 42.497 45.7 C 41.814 46.758 41.257 47.926 40.848 49.187 C 42.282 50.973 44.042 52.383 46.008 53.232 C 46.005 53.125 45.995 53.019 45.995 52.909 C 45.995 49.407 48.451 46.57 51.482 46.57 C 54.198 46.57 56.448 48.853 56.888 51.843 C 58.242 50.849 59.448 49.571 60.445 48.093 C 60.211 47.767 60.066 47.351 60.066 46.893 C 60.066 45.842 60.808 44.99 61.718 44.99 C 61.848 44.99 61.974 45.011 62.094 45.043 C 62.602 43.839 62.983 42.564 63.226 41.247 C 58.488 37.199 49.318 37.749 49.318 37.749 C 49.318 37.749 42.02 37.312 37.078 40.089 C 37.408 42.841 38.358 45.455 39.762 47.667 Z " fill="rgb(18,135,177)"/></g><g><path d=" M 62.823 45.483 C 63.155 45.835 63.371 46.332 63.371 46.897 C 63.371 47.948 62.632 48.804 61.718 48.804 C 61.626 48.804 61.537 48.789 61.448 48.772 C 60.42 50.625 59.06 52.205 57.46 53.402 C 59.823 53.828 62.048 54.986 63.888 56.737 C 65.226 53.967 65.992 50.774 65.992 47.376 C 65.992 44.787 65.005 42.891 63.509 41.499 C 63.432 42.887 63.195 44.223 62.823 45.483 Z " fill="rgb(18,135,177)"/></g><g><path d=" M 42.915 63.352 C 43.731 60.746 45.149 58.409 47.051 56.634 C 46.774 56.193 46.543 55.714 46.371 55.199 C 44.051 54.386 42.002 52.862 40.408 50.845 C 40.398 50.902 40.383 50.959 40.371 51.019 C 40.069 52.568 40.017 54.123 40.165 55.636 C 41.275 55.877 42.115 56.999 42.115 58.349 C 42.115 59.151 41.817 59.872 41.346 60.376 C 41.774 61.424 42.3 62.422 42.915 63.352 Z " fill="rgb(18,135,177)"/></g><g><path d=" M 42.512 64.883 C 41.537 63.764 40.718 62.479 40.088 61.076 C 39.968 61.097 39.848 61.111 39.725 61.111 C 38.402 61.111 37.331 59.876 37.331 58.349 C 37.331 57.255 37.882 56.314 38.682 55.867 C 38.5 54.169 38.562 52.404 38.903 50.639 C 39.002 50.135 39.122 49.642 39.257 49.162 C 37.798 46.698 36.946 43.718 36.946 40.512 C 36.946 40.395 36.949 40.277 36.952 40.164 C 34.488 41.588 32.638 43.836 32.638 47.376 C 32.638 55.203 36.688 61.935 42.5 64.943 C 42.503 64.922 42.506 64.9 42.512 64.883 Z " fill="rgb(18,135,177)"/></g><g><path d=" M 56.654 55.007 C 55.903 57.472 53.875 59.244 51.482 59.244 C 50.202 59.244 49.029 58.732 48.094 57.887 C 46.171 59.616 44.718 61.971 43.832 64.609 C 44.232 65.103 44.657 65.568 45.103 66.008 C 46.448 66.41 47.86 66.63 49.315 66.63 C 55.174 66.63 60.325 63.136 63.3 57.862 C 61.322 56.278 59.026 55.256 56.654 55.007 Z " fill="rgb(18,135,177)"/></g></g></g></g></g><g><clipPath id="_clipPath_FU6JohlmlYyX9bxtPMFemarfWZhWK3UM"><path d=" M -15.962 -4.097 L 269.269 -4.097 L 269.269 422.031 L -15.962 422.031 L -15.962 -4.097 Z " fill="rgb(255,255,255)"/></clipPath><g clip-path="url(#_clipPath_FU6JohlmlYyX9bxtPMFemarfWZhWK3UM)"><g><g><g><g><clipPath id="_clipPath_T4G04j1WEotXBnvBFiKVIShpyHNZNBks"><path d=" M 40.528 40.895 L 61.918 40.895 L 61.918 65.568 L 40.528 65.568 L 40.528 40.895 Z " fill="rgb(255,255,255)"/></clipPath><g clip-path="url(#_clipPath_T4G04j1WEotXBnvBFiKVIShpyHNZNBks)"><g><g><g><path d=" M 56.848 53.374 L 61.918 51.978 L 56.829 51.676 L 60.971 48.022 L 56.272 49.968 L 59.466 44.858 L 55.054 48.242 L 56.595 42.262 L 53.568 47.191 L 53.497 40.963 L 51.503 46.51 L 49.842 40.895 L 49.931 47.511 L 47.06 41.581 L 48.614 47.877 L 43.955 43.967 L 47.605 49.258 L 41.82 46.804 L 46.386 50.703 L 40.531 50.909 L 46.515 52.695 L 40.528 54.19 L 46.438 54.684 L 41.454 58.37 L 46.586 56.222 L 43.026 61.431 L 47.528 57.237 L 45.906 64.229 L 49.38 58.541 L 48.894 65.259 L 50.866 59.169 L 52.546 65.568 L 52.955 59.148 L 55.448 64.627 L 53.974 58.359 L 58.537 62.443 L 55.592 57.237 L 60.598 59.492 L 56.771 55.146 L 61.906 55.614 L 56.848 53.374 Z " fill="rgb(255,255,255)"/></g></g></g></g></g></g></g></g></g></g><g><clipPath id="_clipPath_dOXyV0L4I0oxuVSDO2OHiwsJAFK4f8jM"><path d=" M -15.962 -4.097 L 269.269 -4.097 L 269.269 422.031 L -15.962 422.031 L -15.962 -4.097 Z " fill="rgb(255,255,255)"/></clipPath><g clip-path="url(#_clipPath_dOXyV0L4I0oxuVSDO2OHiwsJAFK4f8jM)"><g><g><g><g><clipPath id="_clipPath_ByvzFKOwq1yB6Q7wlYshSMyJq6sqei53"><path d=" M 2.869 31.315 L 101.863 31.315 L 101.863 64.574 L 2.869 64.574 L 2.869 31.315 Z " fill="rgb(255,255,255)"/></clipPath><g clip-path="url(#_clipPath_ByvzFKOwq1yB6Q7wlYshSMyJq6sqei53)"><g><g style="opacity:0.35000604;"><g style="opacity:0.35000604;"><g style="opacity:0.35000604;"><g opacity="0.35000604"><path d=" M 2.869 64.574 C 18.595 46.421 31.152 40.817 42.552 38.257 C 44.06 37.92 44.343 34.116 44.343 34.116 C 44.343 34.116 44.555 36.918 45.611 37.284 C 46.666 37.65 48.038 32.895 48.038 32.895 C 48.038 32.895 46.771 37.16 48.038 37.405 C 49.306 37.65 51.626 33.261 51.626 33.261 C 51.626 33.261 50.675 37.039 51.309 37.284 C 51.943 37.525 55.109 31.801 55.109 31.801 C 55.109 31.801 53.208 35.576 55.005 35.942 C 56.798 36.307 59.417 33.363 59.417 33.363 C 59.417 33.363 57.358 36.059 58.275 36.428 C 62.18 38.015 65.34 32.156 65.34 32.156 C 65.34 32.156 64.608 34.724 62.709 37.525 C 66.823 38.743 69.882 31.588 69.882 31.588 L 66.823 38.743 C 68.408 39.72 74.74 31.315 74.74 31.315 C 74.74 31.315 71.466 37.891 69.568 39.233 C 70.623 40.206 74.423 36.307 74.423 36.307 C 74.423 36.307 71.362 40.693 72.522 40.938 C 74.211 42.522 80.438 32.774 80.438 32.774 C 80.438 32.774 78.011 38.502 74.423 43.008 C 77.42 44.741 84.869 33.626 84.869 33.626 C 84.869 33.626 84.66 37.16 79.275 42.767 C 83.288 42.156 88.46 33.385 88.46 33.385 C 88.46 33.385 86.558 39.961 82.02 44.592 C 85.958 44.12 92.257 32.895 92.257 32.895 C 92.257 32.895 89.829 40.693 84.869 45.203 C 90.358 46.602 98.272 37.16 98.272 37.16 C 98.272 37.16 95.162 43.86 91.097 46.602 C 95.635 48.612 101.863 40.327 101.863 40.327 C 101.863 40.327 95.635 51.417 85.715 50.927 C 82.46 50.767 72.614 39.528 51.522 40.451 C 23.66 41.669 17.749 55.313 2.869 64.574 Z " fill="rgb(55,53,53)"/></g></g></g></g></g></g></g></g><g><path d=" M 3.512 63.196 C 19.238 45.043 31.798 39.439 43.195 36.879 C 44.703 36.542 44.989 32.735 44.989 32.735 C 44.989 32.735 45.198 35.54 46.257 35.903 C 47.312 36.268 48.682 31.517 48.682 31.517 C 48.682 31.517 47.417 35.782 48.682 36.027 C 49.949 36.268 52.269 31.883 52.269 31.883 C 52.269 31.883 51.322 35.661 51.952 35.903 C 52.586 36.148 55.752 30.423 55.752 30.423 C 55.752 30.423 53.854 34.198 55.648 34.564 C 57.442 34.93 60.06 31.986 60.06 31.986 C 60.06 31.986 58.002 34.681 58.918 35.05 C 62.823 36.634 65.983 30.778 65.983 30.778 C 65.983 30.778 65.251 33.346 63.352 36.148 C 67.466 37.366 70.525 30.207 70.525 30.207 L 67.466 37.366 C 69.051 38.342 75.383 29.937 75.383 29.937 C 75.383 29.937 72.112 36.513 70.211 37.852 C 71.266 38.829 75.066 34.93 75.066 34.93 C 75.066 34.93 72.005 39.315 73.168 39.56 C 74.857 41.144 81.082 31.396 81.082 31.396 C 81.082 31.396 78.654 37.124 75.066 41.63 C 78.066 43.363 85.515 32.248 85.515 32.248 C 85.515 32.248 85.303 35.782 79.922 41.389 C 83.931 40.778 89.103 32.007 89.103 32.007 C 89.103 32.007 87.205 38.584 82.666 43.214 C 86.602 42.742 92.903 31.517 92.903 31.517 C 92.903 31.517 90.475 39.315 85.515 43.825 C 91.002 45.224 98.918 35.782 98.918 35.782 C 98.918 35.782 95.805 42.483 91.74 45.224 C 96.278 47.234 102.506 38.949 102.506 38.949 C 102.506 38.949 96.278 50.036 86.358 49.549 C 83.103 49.389 73.26 38.15 52.165 39.074 C 24.303 40.292 18.395 53.935 3.512 63.196 Z " fill="rgb(55,53,53)"/></g></g></g></g></g><g><clipPath id="_clipPath_I9PsKEZOVGlMnnpl3KtJOwbxRULkfSpu"><path d=" M -15.962 -4.097 L 269.269 -4.097 L 269.269 422.031 L -15.962 422.031 L -15.962 -4.097 Z " fill="rgb(255,255,255)"/></clipPath><g clip-path="url(#_clipPath_I9PsKEZOVGlMnnpl3KtJOwbxRULkfSpu)"><g><g><g><g><clipPath id="_clipPath_NZqcfitoZpJixMWSOrQmEIIPQeMcq55C"><path d=" M 2.457 51.513 L 95.38 51.513 L 95.38 91.232 L 2.457 91.232 L 2.457 51.513 Z " fill="rgb(255,255,255)"/></clipPath><g clip-path="url(#_clipPath_NZqcfitoZpJixMWSOrQmEIIPQeMcq55C)"><g><g style="opacity:0.35000604;"><g style="opacity:0.35000604;"><g style="opacity:0.35000604;"><g opacity="0.35000604"><path d=" M 2.457 66.559 C 10.768 71.37 18.368 65.827 27.943 68.945 C 35.226 71.314 44.091 74.233 56.122 72.223 C 68.152 70.213 78.442 64.183 83.349 53.399 C 84.882 48.587 91.106 54.496 91.106 54.496 C 91.106 54.496 86.571 52.305 86.675 53.342 C 86.78 54.375 93.482 57.969 93.482 57.969 C 93.482 57.969 87.414 55.778 87.783 57.422 C 88.152 59.066 95.38 65.646 95.38 65.646 C 95.38 65.646 87.202 58.455 86.515 59.432 C 85.829 60.405 89.998 64.368 89.998 64.368 C 89.998 64.368 83.088 59.432 80.66 60.888 C 78.912 61.932 87.835 68.693 87.835 68.693 C 87.835 68.693 82.032 63.572 80.66 64.915 C 79.288 66.253 87.202 77.219 87.202 77.219 C 87.202 77.219 78.232 66.012 77.334 66.559 C 76.438 67.106 79.814 72.468 79.814 72.468 C 79.814 72.468 75.383 66.864 74.168 67.837 C 72.955 68.814 80.5 83.373 80.5 83.373 C 80.5 83.373 72.322 68.448 68.946 70.944 C 74.248 84.378 72.269 86.296 72.269 86.296 C 72.269 86.296 71.592 72.592 64.986 72.954 C 61.663 73.139 66.571 83.188 66.571 83.188 C 66.571 83.188 62.054 74.009 59.045 74.19 C 64.589 86.303 62.614 91.232 62.614 91.232 C 62.614 91.232 63.531 80.884 56.011 75.128 C 58.86 78.054 54.223 91.232 54.223 91.232 C 54.223 91.232 58.303 71.811 51.214 75.515 C 50.094 76.097 51.134 85.198 51.134 85.198 C 51.134 85.198 49.709 74.783 47.574 75.33 C 46.328 75.65 39.657 89.769 39.657 89.769 C 39.657 89.769 45.122 74.51 43.457 75.149 C 42.248 75.614 39.974 81.91 39.974 81.91 C 39.974 81.91 41.082 75.696 39.974 75.33 C 38.866 74.964 32.694 81.91 32.694 81.91 C 32.694 81.91 37.285 75.696 36.491 74.417 C 35.294 72.478 33.888 72.386 32.217 73.139 C 29.789 74.229 26.518 79.35 26.518 79.35 C 26.518 79.35 29.78 74.165 29.211 72.223 C 28.294 69.101 18.922 78.256 18.922 78.256 C 18.922 78.256 24.46 72.223 23.195 70.944 C 21.928 69.666 15.054 70.06 12.906 70.053 C 6.574 70.032 4.38 68.317 2.457 66.559 Z " fill="rgb(55,53,53)"/></g></g></g></g></g></g></g></g><g><path d=" M 2.14 65.462 C 10.451 70.273 18.051 64.73 27.626 67.848 C 34.909 70.216 43.774 73.139 55.805 71.125 C 67.835 69.116 78.125 63.086 83.035 52.305 C 84.565 47.493 90.789 53.399 90.789 53.399 C 90.789 53.399 86.254 51.208 86.358 52.244 C 86.463 53.278 93.165 56.872 93.165 56.872 C 93.165 56.872 87.097 54.681 87.466 56.325 C 87.835 57.969 95.066 64.549 95.066 64.549 C 95.066 64.549 86.885 57.358 86.198 58.335 C 85.515 59.311 89.682 63.271 89.682 63.271 C 89.682 63.271 82.771 58.335 80.343 59.79 C 78.595 60.835 87.518 67.596 87.518 67.596 C 87.518 67.596 81.715 62.479 80.343 63.817 C 78.971 65.16 86.888 76.122 86.888 76.122 C 86.888 76.122 77.915 64.915 77.017 65.462 C 76.122 66.012 79.497 71.37 79.497 71.37 C 79.497 71.37 75.066 65.767 73.851 66.74 C 72.638 67.716 80.183 82.276 80.183 82.276 C 80.183 82.276 72.005 67.351 68.629 69.847 C 73.931 83.281 71.952 85.198 71.952 85.198 C 71.952 85.198 71.275 71.495 64.669 71.861 C 61.346 72.042 66.254 82.091 66.254 82.091 C 66.254 82.091 61.737 72.912 58.728 73.096 C 64.272 85.205 62.297 90.134 62.297 90.134 C 62.297 90.134 63.214 79.79 55.694 74.03 C 58.543 76.956 53.906 90.134 53.906 90.134 C 53.906 90.134 57.986 70.714 50.897 74.417 C 49.78 75.003 50.82 84.105 50.82 84.105 C 50.82 84.105 49.392 73.686 47.257 74.233 C 46.011 74.552 39.34 88.671 39.34 88.671 C 39.34 88.671 44.805 73.412 43.14 74.052 C 41.931 74.517 39.657 80.813 39.657 80.813 C 39.657 80.813 40.768 74.598 39.657 74.233 C 38.549 73.87 32.377 80.813 32.377 80.813 C 32.377 80.813 36.968 74.598 36.177 73.32 C 34.977 71.381 33.571 71.292 31.903 72.042 C 29.472 73.132 26.202 78.256 26.202 78.256 C 26.202 78.256 29.463 73.068 28.894 71.125 C 27.977 68.008 18.605 77.159 18.605 77.159 C 18.605 77.159 24.146 71.125 22.878 69.847 C 21.611 68.569 14.737 68.966 12.589 68.956 C 6.257 68.934 4.063 67.219 2.14 65.462 Z " fill="rgb(55,53,53)"/></g></g></g></g></g></g></g></g></g></g></g></svg>