<?xml version="1.0" standalone="no"?><!-- Generator: Gravit.io --><svg xmlns="http://www.w3.org/2000/svg" xmlns:xlink="http://www.w3.org/1999/xlink" style="isolation:isolate" viewBox="0 0 105 120" width="105" height="120"><defs><clipPath id="_clipPath_LD4zc3AruocXdAG7hBxSQEuVdKbcOQJL"><rect width="105" height="120"/></clipPath></defs><g clip-path="url(#_clipPath_LD4zc3AruocXdAG7hBxSQEuVdKbcOQJL)"><path d=" M 52.5 -0.002 L 105 29.998 L 105 89.998 L 52.5 119.998 L 0 89.998 L 0 29.998 L 52.5 -0.002 Z " fill="rgb(147,34,121)"/><g><g><g><g><path d=" M 47.595 57.723 L 49.8 59.946 L 47.565 62.138 L 31.935 62.031 L 31.885 69.387 L 22.419 59.758 L 32.015 50.421 L 31.965 57.616 L 47.595 57.723 L 47.595 57.723 Z " fill-rule="evenodd" fill="rgb(147,34,121)"/></g><g/></g></g><g><g><g><path d=" M 54.69 55.177 L 52.467 57.383 L 50.275 55.147 L 50.382 39.517 L 43.026 39.467 L 52.655 30.001 L 61.992 39.597 L 54.797 39.547 L 54.69 55.177 L 54.69 55.177 Z " fill-rule="evenodd" fill="rgb(239,167,36)"/></g><g/></g></g><g><g><path d=" M 57.236 62.272 L 55.031 60.05 L 57.266 57.857 L 72.896 57.964 L 72.946 50.608 L 82.412 60.237 L 72.816 69.574 L 72.866 62.38 L 57.236 62.272 L 57.236 62.272 Z " fill-rule="evenodd" fill="rgb(38,37,119)"/></g><g/></g><g><g><g><path d=" M 50.141 64.818 L 52.364 62.613 L 54.556 64.849 L 54.449 80.478 L 61.805 80.529 L 52.176 89.995 L 42.839 80.399 L 50.034 80.448 L 50.141 64.818 L 50.141 64.818 Z " fill-rule="evenodd" fill="rgb(156,205,42)"/></g><g/></g></g><g><path d=" M 31.534 38.828 L 50.525 38.958 L 50.395 57.949 L 31.404 57.819 L 31.534 38.828 Z " fill="rgb(156,205,42)" vector-effect="non-scaling-stroke" stroke-width="1.357" stroke="rgb(255,255,255)" stroke-linejoin="miter" stroke-linecap="butt" stroke-miterlimit="4"/><path d=" M 54.594 38.986 L 73.585 39.116 L 73.455 58.107 L 54.464 57.977 L 54.594 38.986 Z " fill="rgb(147,34,121)" vector-effect="non-scaling-stroke" stroke-width="1.357" stroke="rgb(255,255,255)" stroke-linejoin="miter" stroke-linecap="butt" stroke-miterlimit="4"/><path d=" M 54.436 62.046 L 73.427 62.177 L 73.297 81.168 L 54.306 81.038 L 54.436 62.046 Z " fill="rgb(239,167,36)" vector-effect="non-scaling-stroke" stroke-width="1.357" stroke="rgb(255,255,255)" stroke-linejoin="miter" stroke-linecap="butt" stroke-miterlimit="4"/><path d=" M 31.376 61.889 L 50.367 62.019 L 50.237 81.01 L 31.246 80.88 L 31.376 61.889 Z " fill="rgb(38,37,119)" vector-effect="non-scaling-stroke" stroke-width="1.357" stroke="rgb(255,255,255)" stroke-linejoin="miter" stroke-linecap="butt" stroke-miterlimit="4"/></g><path d=" M 22.681 59.794 L 36.201 46.457 L 49.538 59.978 L 36.017 73.315 L 22.681 59.794 Z " fill="none" vector-effect="non-scaling-stroke" stroke-width="1.357" stroke="rgb(255,255,255)" stroke-linejoin="miter" stroke-linecap="butt" stroke-miterlimit="4"/><path d=" M 39.098 43.6 L 52.619 30.263 L 65.956 43.783 L 52.435 57.12 L 39.098 43.6 Z " fill="none" vector-effect="non-scaling-stroke" stroke-width="1.356" stroke="rgb(255,255,255)" stroke-linejoin="miter" stroke-linecap="butt" stroke-miterlimit="4"/><path d=" M 55.293 60.017 L 68.814 46.681 L 82.15 60.201 L 68.63 73.538 L 55.293 60.017 Z " fill="none" vector-effect="non-scaling-stroke" stroke-width="1.357" stroke="rgb(255,255,255)" stroke-linejoin="miter" stroke-linecap="butt" stroke-miterlimit="4"/><path d=" M 38.875 76.212 L 52.396 62.875 L 65.732 76.396 L 52.212 89.733 L 38.875 76.212 Z " fill="none" vector-effect="non-scaling-stroke" stroke-width="1.357" stroke="rgb(255,255,255)" stroke-linejoin="miter" stroke-linecap="butt" stroke-miterlimit="4"/></g></g></svg>