<?xml version="1.0" standalone="no"?><!-- Generator: Gravit.io --><svg xmlns="http://www.w3.org/2000/svg" xmlns:xlink="http://www.w3.org/1999/xlink" style="isolation:isolate" viewBox="0 0 105 120" width="105" height="120"><defs><clipPath id="_clipPath_He2bHQot4L8K1Iwje61eDNm8befBKYnl"><rect width="105" height="120"/></clipPath></defs><g clip-path="url(#_clipPath_He2bHQot4L8K1Iwje61eDNm8befBKYnl)"><path d=" M 52.5 -0.002 L 105 29.998 L 105 89.998 L 52.5 119.998 L 0 89.998 L 0 29.998 L 52.5 -0.002 Z " fill="rgb(198,42,113)"/><g><g><g><path d=" M 51.62 66.428 C 48.047 66.432 45.145 63.545 45.135 59.975 C 45.125 56.406 48.011 53.502 51.584 53.487 C 55.157 53.471 58.068 56.349 58.09 59.919 C 58.105 61.641 57.429 63.297 56.214 64.522 C 54.998 65.744 53.344 66.43 51.62 66.428 Z " fill="rgb(238,191,212)"/><path d=" M 64.226 62.91 C 62.576 62.91 61.239 61.574 61.239 59.926 C 61.239 58.279 62.576 56.943 64.226 56.943 C 65.875 56.943 67.212 58.279 67.212 59.926 C 67.214 60.718 66.9 61.479 66.339 62.038 C 65.779 62.598 65.018 62.912 64.226 62.91 Z  M 75.156 65.723 C 74.692 67.207 73.123 68.05 71.628 67.617 C 70.132 67.185 69.256 65.637 69.657 64.133 C 70.059 62.63 71.589 61.723 73.101 62.09 C 74.616 62.46 75.555 63.969 75.218 65.488 C 75.218 65.565 75.218 65.635 75.156 65.72 M 73.046 58.033 C 71.866 58.328 70.627 57.882 69.907 56.904 C 69.187 55.928 69.13 54.613 69.761 53.577 C 70.393 52.54 71.59 51.988 72.79 52.178 C 73.989 52.37 74.954 53.266 75.233 54.447 C 75.308 54.834 75.308 55.23 75.233 55.617 C 75.07 56.818 74.17 57.789 72.984 58.043 M 83.673 65.396 C 83.387 67.018 81.839 68.102 80.216 67.818 C 78.591 67.533 77.506 65.988 77.79 64.365 C 78.074 62.741 79.621 61.656 81.245 61.94 C 82.786 62.184 83.882 63.568 83.766 65.124 C 83.73 65.207 83.709 65.296 83.704 65.388 M 81.237 57.904 C 79.614 58.173 78.08 57.076 77.812 55.455 C 77.542 53.836 78.639 52.303 80.261 52.033 C 81.883 51.764 83.418 52.858 83.688 54.479 C 83.719 54.736 83.719 54.996 83.688 55.254 C 83.567 56.59 82.561 57.678 81.237 57.904 Z  M 79.158 75.727 C 78.406 77.075 76.756 77.641 75.334 77.038 C 73.91 76.433 73.171 74.856 73.62 73.377 C 74.07 71.899 75.563 70.998 77.082 71.287 C 78.6 71.579 79.657 72.965 79.531 74.503 C 79.507 74.937 79.379 75.356 79.158 75.727 M 78.08 48.311 C 76.639 49.122 74.814 48.612 74.003 47.172 C 73.191 45.733 73.702 43.91 75.143 43.099 C 76.583 42.289 78.409 42.797 79.22 44.236 C 79.528 44.758 79.659 45.364 79.593 45.964 C 79.502 46.939 78.939 47.807 78.088 48.289" fill="rgb(255,255,255)"/><path d=" M 51.737 89.993 C 40.895 90.167 30.801 84.489 25.329 75.138 C 19.858 65.786 19.858 54.214 25.329 44.862 C 30.801 35.512 40.895 29.834 51.737 30.007 C 58.333 29.996 64.745 32.177 69.966 36.207 L 66.297 40.988 C 59.052 35.447 49.287 34.494 41.105 38.53 C 32.924 42.565 27.744 50.889 27.744 60.004 C 27.748 69.119 32.927 77.443 41.106 81.484 C 49.285 85.521 59.052 84.58 66.305 79.051 L 69.966 83.84 C 64.739 87.851 58.327 90.014 51.737 89.993 L 51.737 89.993 Z " fill="rgb(255,255,255)"/></g></g></g></g></svg>