<?xml version="1.0" standalone="no"?><!-- Generator: Gravit.io --><svg xmlns="http://www.w3.org/2000/svg" xmlns:xlink="http://www.w3.org/1999/xlink" style="isolation:isolate" viewBox="0 0 105 120" width="105" height="120"><defs><clipPath id="_clipPath_V02onlCiNfoLWHPuyRvwbMrXMQ318mqB"><rect width="105" height="120"/></clipPath></defs><g clip-path="url(#_clipPath_V02onlCiNfoLWHPuyRvwbMrXMQ318mqB)"><path d=" M 52.5 1.15 L 104 30.575 L 104 89.425 L 52.5 118.85 L 1 89.425 L 1 30.575 L 52.5 1.15 Z " fill="rgb(232,232,232)" vector-effect="non-scaling-stroke" stroke-width="2" stroke="rgb(60,110,180)" stroke-linejoin="miter" stroke-linecap="butt" stroke-miterlimit="4"/><g><path d=" M 52.614 90.024 L 27.925 78.212 L 21.759 51.527 L 38.756 30.061 L 66.12 29.976 L 83.241 51.34 L 77.234 78.064 L 52.614 90.024 Z " fill="rgb(255,255,255)" vector-effect="non-scaling-stroke" stroke-width="1.353" stroke="rgb(60,110,180)" stroke-linejoin="round" stroke-linecap="round" stroke-miterlimit="4"/><path d=" M 50.038 39.598 L 46.837 46.751 L 50.038 39.598 Z  M 66.203 45.171 L 58.545 46.842 L 66.203 45.171 Z  M 36.125 49.205 L 39.812 56.121 L 36.125 49.205 Z  M 65.378 56.062 L 71.372 61.11 L 65.378 56.062 Z  M 35.87 65.656 L 43.591 67.038 L 35.87 65.656 Z  M 62.336 66.989 L 62.075 74.823 L 62.336 66.989 Z  M 52.472 71.375 L 46.377 76.305 L 52.472 71.375 Z " fill="none" vector-effect="non-scaling-stroke" stroke-width="1.353" stroke="rgb(60,110,180)" stroke-linejoin="miter" stroke-linecap="butt" stroke-miterlimit="4"/><path d=" M 41.861 35.473 L 40.653 36.087 L 45.562 45.748 L 39.366 44.426 L 39.085 45.75 L 46.351 47.298 L 48.518 51.561 L 48.979 50.979 L 49.739 50.975 L 41.861 35.473 Z  M 63.458 35.537 L 58.596 45.221 L 55.983 39.452 L 54.748 40.011 L 57.815 46.778 L 55.714 50.961 L 55.99 50.961 L 56.749 51.912 L 64.665 36.144 L 63.458 35.537 Z  M 68.477 48.885 L 64.985 55.441 L 60.308 56.343 L 60.378 56.43 L 60.074 57.766 L 77.587 54.388 L 77.331 53.058 L 66.688 55.111 L 69.668 49.521 L 68.477 48.885 Z  M 27.866 53.058 L 27.61 54.388 L 38.307 56.452 L 33.392 60.592 L 34.265 61.628 L 40.018 56.786 L 44.912 57.73 L 44.62 56.483 L 44.748 56.321 L 27.866 53.058 Z  M 58.878 63.096 L 58.839 63.267 L 57.665 63.835 L 71.2 75.553 L 72.086 74.525 L 63.895 67.433 L 70.13 66.32 L 69.894 64.986 L 62.579 66.296 L 58.878 63.096 Z  M 46.184 63.214 L 33.116 74.527 L 34.002 75.55 L 42.241 68.419 L 42.458 74.841 L 43.811 74.798 L 43.559 67.282 L 47.46 63.905 L 46.207 63.308 L 46.184 63.214 Z  M 51.794 65.977 L 51.794 83.681 L 53.145 83.681 L 53.145 72.846 L 58.071 76.829 L 58.921 75.778 L 53.147 71.105 L 53.147 66.026 L 52.528 66.327 L 51.794 65.977 Z " fill="rgb(41,65,114)"/><path d=" M 52.53 66.33 L 46.204 63.308 L 44.62 56.476 L 48.981 50.983 L 55.992 50.961 L 60.38 56.43 L 58.838 63.27 L 52.53 66.33 Z " fill="none" vector-effect="non-scaling-stroke" stroke-width="1.353" stroke="rgb(41,65,114)" stroke-linejoin="round" stroke-linecap="round" stroke-miterlimit="4"/></g></g></svg>