<?xml version="1.0" standalone="no"?><!-- Generator: Gravit.io --><svg xmlns="http://www.w3.org/2000/svg" xmlns:xlink="http://www.w3.org/1999/xlink" style="isolation:isolate" viewBox="0 0 105 120" width="105" height="120"><defs><clipPath id="_clipPath_xaMpO4C0cHHcfz71ipHv3kbz8ytw0PYA"><rect width="105" height="120"/></clipPath></defs><g clip-path="url(#_clipPath_xaMpO4C0cHHcfz71ipHv3kbz8ytw0PYA)"><path d=" M 52.5 0 L 105 30 L 105 90 L 52.5 120 L 0 90 L 0 30 L 52.5 0 Z " fill="rgb(169,156,139)"/><g><linearGradient id="_lgradient_0" x1="0" y1="0.5" x2="0.6885826747500434" y2="1.2251578449096967" gradientTransform="matrix(20.47,0,0,20.155,63.749,53.365)" gradientUnits="userSpaceOnUse"><stop offset="0%" stop-opacity="1" style="stop-color:rgb(248,156,68)"/><stop offset="100%" stop-opacity="1" style="stop-color:rgb(248,155,69)"/></linearGradient><path d=" M 84.155 73.468 C 84.183 73.192 84.204 72.914 84.22 72.634 C 84.239 72.302 64.228 53.365 64.228 53.365 L 63.749 53.365 C 63.749 53.365 84.033 74.704 84.155 73.468 L 84.155 73.468 L 84.155 73.468 Z " fill="url(#_lgradient_0)"/><linearGradient id="_lgradient_1" x1="0" y1="0.5" x2="0.7141435622990794" y2="1.1999992660187444" gradientTransform="matrix(9.978,0,0,10.003,41.263,66.87)" gradientUnits="userSpaceOnUse"><stop offset="0%" stop-opacity="1" style="stop-color:rgb(248,153,73)"/><stop offset="98.78798607160562%" stop-opacity="1" style="stop-color:rgb(247,151,78)"/></linearGradient><path d=" M 41.46 66.899 C 41.434 66.957 41.407 67.015 41.38 67.073 C 41.352 67.134 41.323 67.194 41.294 67.254 C 40.656 68.581 50.224 77.911 50.994 76.777 C 51.029 76.727 51.064 76.675 51.099 76.624 C 51.138 76.565 51.176 76.508 51.215 76.449 C 51.83 75.517 41.734 66.293 41.46 66.899 L 41.46 66.899 L 41.46 66.899 Z " fill="url(#_lgradient_1)"/><linearGradient id="_lgradient_2" x1="0" y1="0.5" x2="0.6674821396029916" y2="1.2446258075778815" gradientTransform="matrix(10.184,0,0,9.884,54.585,80.018)" gradientUnits="userSpaceOnUse"><stop offset="0%" stop-opacity="1" style="stop-color:rgb(248,154,73)"/><stop offset="100%" stop-opacity="1" style="stop-color:rgb(248,158,65)"/></linearGradient><path d=" M 54.981 80.018 C 54.954 80.078 54.762 80.402 54.585 80.574 C 54.556 80.633 63.926 89.902 63.926 89.902 L 64.77 89.902 C 64.77 89.902 55.974 80.41 54.981 80.018 L 54.981 80.018 L 54.981 80.018 Z " fill="url(#_lgradient_2)"/><linearGradient id="_lgradient_3" x1="0" y1="0.5" x2="0.6250886085441063" y2="1.2805537979334884" gradientTransform="matrix(63.487,0,0,59.902,20.746,30)" gradientUnits="userSpaceOnUse"><stop offset="0%" stop-opacity="1" style="stop-color:rgb(242,110,88)"/><stop offset="92.41483815976275%" stop-opacity="1" style="stop-color:rgb(249,160,60)"/></linearGradient><path d=" M 84.233 72.465 C 83.795 82.155 75.758 89.902 65.939 89.902 L 64.612 89.902 L 54.806 80.267 C 55.613 79.132 56.362 77.957 57.03 76.731 L 65.939 76.731 C 68.757 76.731 71.05 74.446 71.05 71.634 C 71.05 68.823 68.757 66.536 65.939 66.536 L 60.667 66.536 C 61.069 64.418 61.288 62.234 61.288 60 C 61.288 57.731 61.065 55.516 60.648 53.365 L 63.923 53.365 L 84.175 73.268 C 84.199 73.001 84.218 72.735 84.233 72.465 L 84.233 72.465 L 84.233 72.465 Z  M 26.074 30 L 20.746 30 L 20.746 43.171 L 26.074 43.171 C 35.378 43.171 42.948 50.72 42.948 60 C 42.948 62.525 42.384 64.921 41.38 67.073 L 51.099 76.624 C 54.29 71.862 56.155 66.145 56.155 60 C 56.155 43.458 42.66 30 26.074 30 L 26.074 30 L 26.074 30 Z " fill="url(#_lgradient_3)"/><linearGradient id="_lgradient_4" x1="0" y1="0.5" x2="0.8135915714697222" y2="1.081436802097552" gradientTransform="matrix(39.886,0,0,43.269,44.367,30)" gradientUnits="userSpaceOnUse"><stop offset="3.6508334665544373%" stop-opacity="1" style="stop-color:rgb(184,78,81)"/><stop offset="100%" stop-opacity="1" style="stop-color:rgb(243,139,72)"/></linearGradient><path d=" M 65.939 30 L 44.367 30 C 49.636 33.208 53.999 37.758 56.972 43.171 L 65.939 43.171 C 68.757 43.171 71.05 45.457 71.05 48.269 C 71.05 51.08 68.757 53.365 65.939 53.365 L 63.924 53.365 L 84.176 73.269 C 84.224 72.729 84.254 72.186 84.254 71.634 C 84.254 67.194 82.656 63.121 80.004 59.95 C 82.656 56.782 84.254 52.708 84.254 48.269 C 84.254 38.196 76.039 30 65.939 30 L 65.939 30 L 65.939 30 Z " fill="url(#_lgradient_4)"/><linearGradient id="_lgradient_5" x1="0" y1="0.5" x2="0.0751925041575447" y2="1.4971690364820387" gradientTransform="matrix(43.865,0,0,22.927,20.746,67.073)" gradientUnits="userSpaceOnUse"><stop offset="23.184933216118246%" stop-opacity="1" style="stop-color:rgb(249,160,60)"/><stop offset="100%" stop-opacity="1" style="stop-color:rgb(247,153,75)"/></linearGradient><path d=" M 64.612 89.902 L 44.522 89.902 C 48.566 87.411 52.062 84.123 54.806 80.267 L 64.612 89.902 L 64.612 89.902 Z  M 51.099 76.624 L 41.381 67.073 C 38.696 72.828 32.846 76.83 26.074 76.83 L 20.746 76.83 L 20.746 90 L 26.074 90 C 36.499 90 45.7 84.681 51.099 76.624 L 51.099 76.624 L 51.099 76.624 Z " fill="url(#_lgradient_5)"/></g></g></svg>