<?xml version="1.0" standalone="no"?><!-- Generator: Gravit.io --><svg xmlns="http://www.w3.org/2000/svg" xmlns:xlink="http://www.w3.org/1999/xlink" style="isolation:isolate" viewBox="0 0 105 120" width="105" height="120"><defs><clipPath id="_clipPath_7hntA4ZUK6swfZD8c9FJSm7FelkB6ZLM"><rect width="105" height="120"/></clipPath></defs><g clip-path="url(#_clipPath_7hntA4ZUK6swfZD8c9FJSm7FelkB6ZLM)"><g style="opacity:0.98999999;"><g opacity="0.98999999"><path d=" M 52.5 0 L 105 30 L 105 90 L 52.5 120 L 0 90 L 0 30 L 52.5 0 Z " fill="rgb(0,0,0)"/></g><g style="opacity:0.98999999;"><g style="opacity:0.98999999;"><g opacity="0.98999999"><path d=" M 58.142 62.017 C 56.95 62.033 58.367 62.625 59.923 62.862 C 60.353 62.53 60.743 62.194 61.09 61.867 C 60.121 62.102 59.135 62.107 58.142 62.017 Z " fill="rgb(168,0,48)"/></g><g opacity="0.98999999"><path d=" M 64.539 60.439 C 65.249 59.469 65.766 58.408 65.948 57.31 C 65.789 58.093 65.36 58.768 64.956 59.481 C 62.728 60.869 64.746 58.657 64.955 57.816 C 62.559 60.8 64.626 59.605 64.539 60.439 Z " fill="rgb(168,0,48)"/></g><g opacity="0.98999999"><path d=" M 66.9 54.357 C 67.044 52.233 66.478 52.905 66.287 53.715 C 66.509 53.829 66.685 55.213 66.9 54.357 Z " fill="rgb(168,0,48)"/></g><g opacity="0.98999999"><path d=" M 53.622 25.322 C 54.258 25.434 54.996 25.521 54.893 25.671 C 55.589 25.52 55.746 25.381 53.622 25.322 Z " fill="rgb(168,0,48)"/></g><g opacity="0.98999999"><path d=" M 54.893 25.671 L 54.443 25.763 L 54.862 25.727 L 54.893 25.671 Z " fill="rgb(168,0,48)"/></g><g opacity="0.98999999"><path d=" M 74.727 55.163 C 74.798 57.07 74.164 57.996 73.591 59.635 L 72.561 60.144 C 71.718 61.764 72.643 61.173 72.039 62.461 C 70.723 63.619 68.046 66.085 67.189 66.31 C 66.563 66.297 67.612 65.58 67.75 65.299 C 65.988 66.496 66.336 67.096 63.642 67.824 L 63.563 67.65 C 56.918 70.744 47.688 64.613 47.81 56.247 C 47.739 56.778 47.608 56.645 47.461 56.86 C 47.118 52.555 49.469 48.232 53.435 46.466 C 57.314 44.566 61.861 45.346 64.64 47.909 C 63.113 45.93 60.076 43.833 56.475 44.029 C 52.949 44.084 49.65 46.302 48.549 48.71 C 46.742 49.836 46.532 53.05 45.745 53.638 C 44.686 61.343 47.737 64.672 52.9 68.588 C 53.712 69.131 53.128 69.213 53.239 69.626 C 51.523 68.831 49.953 67.631 48.661 66.161 C 49.346 67.154 50.086 68.119 51.042 68.877 C 49.425 68.335 47.264 64.999 46.634 64.863 C 49.421 69.803 57.944 73.526 62.406 71.679 C 60.342 71.754 57.718 71.721 55.398 70.872 C 54.424 70.376 53.099 69.348 53.335 69.155 C 59.426 71.407 65.717 70.861 70.987 66.68 C 72.327 65.647 73.792 63.889 74.215 63.864 C 73.577 64.813 74.323 64.321 73.834 65.158 C 75.17 63.026 73.254 64.29 75.215 61.476 L 75.939 62.463 C 75.67 60.694 78.16 58.544 77.907 55.745 C 78.478 54.889 78.545 56.666 77.938 58.636 C 78.779 56.451 78.16 56.1 78.376 54.297 C 78.61 54.903 78.916 55.547 79.073 56.186 C 78.525 54.075 79.636 52.631 79.91 51.404 C 79.64 51.285 79.065 52.337 78.933 49.843 C 78.952 48.76 79.238 49.276 79.348 49.009 C 79.133 48.887 78.569 48.056 78.226 46.464 C 78.475 46.09 78.891 47.434 79.229 47.489 C 79.011 46.223 78.637 45.257 78.621 44.286 C 77.633 42.241 78.272 44.558 77.47 43.408 C 76.418 40.16 78.343 42.654 78.473 41.179 C 80.067 43.465 80.977 47.009 81.394 48.477 C 81.076 46.687 80.561 44.953 79.933 43.276 C 80.417 43.478 79.153 39.594 80.562 42.166 C 79.057 36.683 74.119 31.56 69.576 29.156 C 70.132 29.659 70.833 30.292 70.581 30.391 C 68.322 29.059 68.719 28.956 68.396 28.393 C 66.555 27.652 66.434 28.453 65.215 28.394 C 61.746 26.573 61.078 26.767 57.886 25.626 L 58.031 26.298 C 55.733 25.54 55.353 26.585 52.869 26.3 C 52.718 26.183 53.665 25.878 54.444 25.765 C 52.222 26.055 52.327 25.332 50.152 25.845 C 50.688 25.473 51.255 25.227 51.826 24.911 C 50.014 25.02 47.501 25.954 48.277 25.104 C 45.321 26.409 40.072 28.241 37.126 30.975 L 37.033 30.363 C 35.684 31.966 31.148 35.152 30.786 37.229 L 30.425 37.313 C 29.723 38.49 29.268 39.824 28.711 41.035 C 27.793 42.584 27.365 41.631 27.496 41.874 C 25.689 45.5 24.791 48.546 24.016 51.045 C 24.569 51.862 24.029 55.965 24.238 59.249 C 23.331 75.466 35.738 91.212 49.3 94.848 C 51.288 95.552 54.244 95.525 56.759 95.597 C 53.792 94.757 53.408 95.152 50.519 94.155 C 48.434 93.183 47.977 92.074 46.5 90.805 L 47.085 91.827 C 44.189 90.813 45.401 90.572 43.045 89.834 L 43.669 89.027 C 42.73 88.957 41.183 87.461 40.76 86.633 L 39.733 86.673 C 38.499 85.167 37.842 84.081 37.89 83.24 L 37.558 83.825 C 37.182 83.186 33.019 78.175 35.179 79.341 C 34.778 78.978 34.244 78.751 33.666 77.711 L 34.106 77.213 C 33.066 75.89 32.193 74.193 32.259 73.628 C 32.814 74.369 33.198 74.508 33.579 74.634 C 30.955 68.189 30.807 74.279 28.819 68.074 L 29.24 68.04 C 28.918 67.56 28.722 67.038 28.463 66.526 L 28.646 64.72 C 26.756 62.558 28.117 55.526 28.39 51.669 C 28.579 50.101 29.967 48.431 31.023 45.813 L 30.379 45.704 C 31.609 43.581 37.401 37.177 40.083 37.507 C 41.383 35.891 39.825 37.501 39.571 37.094 C 42.425 34.171 43.323 35.029 45.249 34.503 C 47.326 33.283 43.466 34.979 44.451 34.037 C 48.042 33.13 46.996 31.974 51.681 31.513 C 52.175 31.791 50.534 31.943 50.122 32.304 C 53.114 30.855 59.59 31.184 63.797 33.108 C 68.678 35.366 74.162 42.039 74.378 48.318 L 74.624 48.384 C 74.499 50.88 75.01 53.766 74.125 56.418 L 74.727 55.163 Z " fill="rgb(168,0,48)"/></g><g opacity="0.98999999"><path d=" M 45.132 63.637 L 44.965 64.464 C 45.748 65.517 46.37 66.658 47.37 67.481 C 46.65 66.09 46.116 65.516 45.132 63.637 Z " fill="rgb(168,0,48)"/></g><g opacity="0.98999999"><path d=" M 46.984 63.564 C 46.569 63.111 46.324 62.565 46.049 62.02 C 46.312 62.977 46.85 63.799 47.351 64.634 L 46.984 63.564 Z " fill="rgb(168,0,48)"/></g><g opacity="0.98999999"><path d=" M 79.752 56.515 L 79.577 56.95 C 79.256 59.207 78.563 61.44 77.501 63.51 C 78.675 61.326 79.434 58.936 79.752 56.515 Z " fill="rgb(168,0,48)"/></g><g opacity="0.98999999"><path d=" M 53.857 24.756 C 54.663 24.463 55.839 24.595 56.694 24.403 C 55.579 24.496 54.47 24.551 53.375 24.691 L 53.857 24.756 Z " fill="rgb(168,0,48)"/></g><g opacity="0.98999999"><path d=" M 25.565 39.646 C 25.751 41.347 24.272 42.008 25.893 40.886 C 26.762 38.949 25.553 40.351 25.565 39.646 Z " fill="rgb(168,0,48)"/></g><g opacity="0.98999999"><path d=" M 23.66 47.521 C 24.034 46.386 24.102 45.705 24.244 45.049 C 23.212 46.354 23.769 46.633 23.66 47.521 Z " fill="rgb(168,0,48)"/></g></g></g></g></g></svg>