<?xml version="1.0" standalone="no"?><!-- Generator: Gravit.io --><svg xmlns="http://www.w3.org/2000/svg" xmlns:xlink="http://www.w3.org/1999/xlink" style="isolation:isolate" viewBox="0 0 105 120" width="105" height="120"><defs><clipPath id="_clipPath_5OHZEx21JXGUEuRWcCfiMTVrpqgRRoEh"><rect width="105" height="120"/></clipPath></defs><g clip-path="url(#_clipPath_5OHZEx21JXGUEuRWcCfiMTVrpqgRRoEh)"><path d=" M 52.5 -0.002 L 105 29.998 L 105 89.998 L 52.5 119.998 L 0 89.998 L 0 29.998 L 52.5 -0.002 Z " fill="rgb(1,14,40)"/><path d=" M 15.996 83.994 L 15.996 74.355 L 25.635 74.355 L 25.635 95.684 L 37.324 95.684 L 37.324 69.023 L 52.5 69.023 L 52.5 99.17 C 74.133 99.17 91.67 81.633 91.67 60 C 91.67 38.367 74.133 20.83 52.5 20.83 C 30.867 20.83 13.33 38.367 13.33 60 L 28.506 60 C 28.506 46.748 39.248 36.006 52.5 36.006 C 65.752 36.006 76.494 46.748 76.494 60 C 76.494 73.252 65.752 83.994 52.5 83.994" fill="rgb(0,128,255)"/></g></svg>