<?xml version="1.0" standalone="no"?><!-- Generator: Gravit.io --><svg xmlns="http://www.w3.org/2000/svg" xmlns:xlink="http://www.w3.org/1999/xlink" style="isolation:isolate" viewBox="0 0 105 120" width="105" height="120"><defs><clipPath id="_clipPath_vBfh9QhAUPaB5GKoovxGTaR60GBFWbHU"><rect width="105" height="120"/></clipPath></defs><g clip-path="url(#_clipPath_vBfh9QhAUPaB5GKoovxGTaR60GBFWbHU)"><path d=" M 52.5 -0.002 L 105 29.998 L 105 89.998 L 52.5 119.998 L 0 89.998 L 0 29.998 L 52.5 -0.002 Z " fill="rgb(16,62,46)"/><g><path d=" M 50.137 29.989 L 59.965 29.989 L 59.965 75.033 C 54.931 75.985 51.225 76.36 47.215 76.36 C 35.212 76.348 28.964 70.985 28.964 60.686 C 28.964 50.763 35.591 44.322 45.862 44.322 C 47.456 44.322 48.67 44.448 50.137 44.824 L 50.137 29.989 Z  M 50.482 52.941 C 49.33 52.565 48.382 52.44 47.168 52.44 C 42.197 52.44 39.326 55.472 39.326 60.786 C 39.326 65.959 42.07 68.816 47.105 68.816 C 48.192 68.816 49.078 68.754 50.482 68.567 L 50.482 52.941 L 50.482 52.941 Z " fill="rgb(255,255,255)"/><path d=" M 76.036 45.532 L 76.036 68.085 C 76.036 75.852 75.455 79.587 73.747 82.807 C 72.153 85.903 70.054 87.855 65.715 90.011 L 56.596 85.714 C 60.934 83.698 63.034 81.916 64.375 79.197 C 65.778 76.417 66.221 73.197 66.221 64.727 L 66.221 45.532 L 76.036 45.532 L 76.036 45.532 Z  M 65.231 29.989 L 75.059 29.989 L 75.059 39.975 L 65.231 39.975 L 65.231 29.989 Z " fill="rgb(255,255,255)"/></g></g></svg>