<?xml version="1.0" standalone="no"?><!-- Generator: Gravit.io --><svg xmlns="http://www.w3.org/2000/svg" xmlns:xlink="http://www.w3.org/1999/xlink" style="isolation:isolate" viewBox="0 0 105 120" width="105" height="120"><defs><clipPath id="_clipPath_NnT4s3dOrQOBiOS9vd5p8k0EPJ7NeJxV"><rect width="105" height="120"/></clipPath></defs><g clip-path="url(#_clipPath_NnT4s3dOrQOBiOS9vd5p8k0EPJ7NeJxV)"><path d=" M 52.5 -0.002 L 105 29.998 L 105 89.998 L 52.5 119.998 L 0 89.998 L 0 29.998 L 52.5 -0.002 Z " fill="rgb(38,50,55)"/><g><path d=" M 60.779 48.947 L 70.263 48.947 L 70.263 58.632 L 75.059 58.632 C 77.274 58.632 79.552 58.238 81.649 57.528 C 82.679 57.179 83.836 56.693 84.853 56.082 C 83.514 54.336 82.83 52.131 82.629 49.958 C 82.356 47.002 82.953 43.155 84.956 40.842 L 85.953 39.69 L 87.141 40.644 C 90.132 43.044 92.648 46.398 93.091 50.222 C 96.693 49.164 100.921 49.414 104.096 51.244 L 105.399 51.995 L 104.713 53.331 C 102.028 58.565 96.415 60.186 90.927 59.899 C 82.715 80.328 64.838 90 43.161 90 C 31.962 90 21.687 85.819 15.836 75.894 L 15.74 75.732 L 14.887 74 C 12.91 69.631 12.253 64.846 12.698 60.064 L 12.832 58.632 L 20.943 58.632 L 20.943 48.947 L 30.427 48.947 L 30.427 39.474 L 49.397 39.474 L 49.397 30 L 60.779 30 L 60.779 48.947 Z " fill-rule="evenodd" fill="rgb(54,69,72)"/><path d=" M 91.508 52.53 C 92.144 47.593 88.445 43.716 86.151 41.875 C 83.508 44.927 83.097 52.927 87.244 56.296 C 84.93 58.349 80.053 60.21 75.059 60.21 L 14.273 60.21 C 13.787 65.417 14.703 70.211 16.793 74.315 L 17.484 75.579 C 17.922 76.321 18.4 77.037 18.917 77.727 L 18.917 77.727 C 21.416 77.887 23.72 77.942 25.828 77.896 L 25.829 77.896 C 29.972 77.804 33.352 77.316 35.914 76.429 C 36.295 76.297 36.711 76.499 36.843 76.88 C 36.975 77.26 36.773 77.675 36.392 77.807 C 36.051 77.925 35.696 78.036 35.329 78.14 C 35.329 78.14 35.328 78.14 35.328 78.141 C 33.311 78.716 31.148 79.103 28.357 79.275 C 28.523 79.278 28.185 79.3 28.184 79.3 C 28.089 79.306 27.969 79.319 27.874 79.325 C 26.776 79.386 25.59 79.399 24.378 79.399 C 23.052 79.399 21.747 79.374 20.287 79.3 L 20.25 79.325 C 25.315 85.011 33.234 88.421 43.161 88.421 C 64.169 88.421 81.989 79.119 89.88 58.235 C 95.478 58.809 100.858 57.383 103.306 52.611 C 99.407 50.364 94.394 51.081 91.508 52.53 Z " fill-rule="evenodd" fill="rgb(34,160,200)"/><path d=" M 91.508 52.53 C 92.144 47.593 88.445 43.716 86.151 41.875 C 83.508 44.927 83.097 52.927 87.244 56.296 C 84.93 58.349 80.053 60.21 75.059 60.21 L 17.872 60.21 C 17.624 68.184 20.587 74.237 25.828 77.896 L 25.829 77.896 C 29.972 77.804 33.352 77.316 35.914 76.429 C 36.295 76.297 36.711 76.499 36.843 76.88 C 36.975 77.26 36.773 77.675 36.392 77.807 C 36.051 77.925 35.696 78.036 35.329 78.14 C 35.329 78.14 35.328 78.14 35.328 78.141 C 33.311 78.716 30.962 79.153 28.171 79.325 C 28.171 79.325 28.104 79.26 28.103 79.26 C 35.253 82.924 45.62 82.91 57.506 78.35 C 70.833 73.236 83.235 63.493 91.888 52.349 C 91.758 52.408 91.631 52.468 91.508 52.53 Z " fill-rule="evenodd" fill="rgb(55,177,217)"/><path d=" M 14.387 66.536 C 14.765 69.325 15.581 71.936 16.793 74.315 L 17.484 75.579 C 17.922 76.321 18.4 77.037 18.917 77.727 C 21.417 77.887 23.721 77.942 25.829 77.896 C 29.972 77.804 33.352 77.316 35.914 76.429 C 36.295 76.297 36.711 76.499 36.843 76.88 C 36.975 77.26 36.773 77.675 36.392 77.807 C 36.051 77.925 35.696 78.036 35.329 78.14 C 35.329 78.14 35.328 78.14 35.328 78.141 C 33.311 78.716 30.975 79.128 28.184 79.3 C 28.088 79.306 27.921 79.307 27.824 79.312 C 26.726 79.374 25.553 79.411 24.341 79.411 C 23.015 79.411 21.66 79.386 20.201 79.312 C 25.265 84.998 33.234 88.421 43.161 88.421 C 61.146 88.421 76.794 81.602 85.876 66.536 L 14.387 66.536 Z " fill-rule="evenodd" fill="rgb(27,129,165)"/><path d=" M 18.42 66.536 C 19.495 71.433 22.079 75.277 25.829 77.896 C 29.972 77.804 33.352 77.316 35.914 76.429 C 36.295 76.297 36.711 76.499 36.843 76.88 C 36.975 77.26 36.773 77.675 36.392 77.807 C 36.051 77.925 35.696 78.036 35.329 78.14 C 35.329 78.14 35.328 78.14 35.328 78.141 C 33.311 78.716 30.925 79.128 28.134 79.3 C 35.283 82.963 45.621 82.91 57.506 78.35 C 64.696 75.591 71.616 71.483 77.824 66.536 L 18.42 66.536 Z " fill-rule="evenodd" fill="rgb(29,145,180)"/><path d=" M 22.523 50.526 L 30.743 50.526 L 30.743 58.737 L 22.523 58.737 L 22.523 50.526 Z  M 23.208 51.21 L 23.857 51.21 L 23.857 58.053 L 23.208 58.053 L 23.208 51.21 Z  M 24.428 51.21 L 25.102 51.21 L 25.102 58.053 L 24.428 58.053 L 24.428 51.21 Z  M 25.673 51.21 L 26.347 51.21 L 26.347 58.053 L 25.673 58.053 L 25.673 51.21 Z  M 26.919 51.21 L 27.593 51.21 L 27.593 58.053 L 26.919 58.053 L 26.919 51.21 Z  M 28.164 51.21 L 28.839 51.21 L 28.839 58.053 L 28.164 58.053 L 28.164 51.21 Z  M 29.41 51.21 L 30.059 51.21 L 30.059 58.053 L 29.41 58.053 L 29.41 51.21 Z " fill-rule="evenodd" fill="rgb(35,163,194)"/><path d=" M 32.008 41.052 L 40.228 41.052 L 40.228 49.263 L 32.008 49.263 L 32.008 41.052 Z  M 32.693 41.737 L 33.341 41.737 L 33.341 48.579 L 32.693 48.579 L 32.693 41.737 Z  M 33.913 41.737 L 34.587 41.737 L 34.587 48.579 L 33.913 48.579 L 33.913 41.737 Z  M 35.158 41.737 L 35.832 41.737 L 35.832 48.579 L 35.158 48.579 L 35.158 41.737 Z  M 36.403 41.737 L 37.078 41.737 L 37.078 48.579 L 36.403 48.579 L 36.403 41.737 Z  M 37.649 41.737 L 38.324 41.737 L 38.324 48.579 L 37.649 48.579 L 37.649 41.737 Z  M 38.894 41.737 L 39.544 41.737 L 39.544 48.579 L 38.894 48.579 L 38.894 41.737 Z " fill-rule="evenodd" fill="rgb(35,163,194)"/><path d=" M 32.008 50.526 L 40.228 50.526 L 40.228 58.737 L 32.008 58.737 L 32.008 50.526 Z  M 32.693 51.21 L 33.341 51.21 L 33.341 58.053 L 32.693 58.053 L 32.693 51.21 Z  M 33.913 51.21 L 34.587 51.21 L 34.587 58.053 L 33.913 58.053 L 33.913 51.21 Z  M 35.158 51.21 L 35.832 51.21 L 35.832 58.053 L 35.158 58.053 L 35.158 51.21 Z  M 36.403 51.21 L 37.078 51.21 L 37.078 58.053 L 36.403 58.053 L 36.403 51.21 Z  M 37.649 51.21 L 38.324 51.21 L 38.324 58.053 L 37.649 58.053 L 37.649 51.21 Z  M 38.894 51.21 L 39.544 51.21 L 39.544 58.053 L 38.894 58.053 L 38.894 51.21 Z " fill-rule="evenodd" fill="rgb(52,187,222)"/><path d=" M 41.493 50.526 L 49.713 50.526 L 49.713 58.737 L 41.493 58.737 L 41.493 50.526 Z  M 42.178 51.21 L 42.826 51.21 L 42.826 58.053 L 42.178 58.053 L 42.178 51.21 Z  M 43.397 51.21 L 44.072 51.21 L 44.072 58.053 L 43.397 58.053 L 43.397 51.21 Z  M 44.643 51.21 L 45.317 51.21 L 45.317 58.053 L 44.643 58.053 L 44.643 51.21 Z  M 45.888 51.21 L 46.563 51.21 L 46.563 58.053 L 45.888 58.053 L 45.888 51.21 Z  M 47.134 51.21 L 47.809 51.21 L 47.809 58.053 L 47.134 58.053 L 47.134 51.21 Z  M 48.379 51.21 L 49.028 51.21 L 49.028 58.053 L 48.379 58.053 L 48.379 51.21 Z " fill-rule="evenodd" fill="rgb(35,163,194)"/><path d=" M 41.493 41.052 L 49.713 41.052 L 49.713 49.263 L 41.493 49.263 L 41.493 41.052 Z  M 42.178 41.737 L 42.826 41.737 L 42.826 48.579 L 42.178 48.579 L 42.178 41.737 Z  M 43.397 41.737 L 44.072 41.737 L 44.072 48.579 L 43.397 48.579 L 43.397 41.737 Z  M 44.643 41.737 L 45.317 41.737 L 45.317 48.579 L 44.643 48.579 L 44.643 41.737 Z  M 45.888 41.737 L 46.563 41.737 L 46.563 48.579 L 45.888 48.579 L 45.888 41.737 Z  M 47.134 41.737 L 47.809 41.737 L 47.809 48.579 L 47.134 48.579 L 47.134 41.737 Z  M 48.379 41.737 L 49.028 41.737 L 49.028 48.579 L 48.379 48.579 L 48.379 41.737 Z " fill-rule="evenodd" fill="rgb(52,187,222)"/><path d=" M 50.978 50.526 L 59.198 50.526 L 59.198 58.737 L 50.978 58.737 L 50.978 50.526 Z  M 51.663 51.21 L 52.311 51.21 L 52.311 58.053 L 51.663 58.053 L 51.663 51.21 Z  M 52.882 51.21 L 53.557 51.21 L 53.557 58.053 L 52.882 58.053 L 52.882 51.21 Z  M 54.127 51.21 L 54.802 51.21 L 54.802 58.053 L 54.127 58.053 L 54.127 51.21 Z  M 55.373 51.21 L 56.048 51.21 L 56.048 58.053 L 55.373 58.053 L 55.373 51.21 Z  M 56.619 51.21 L 57.294 51.21 L 57.294 58.053 L 56.619 58.053 L 56.619 51.21 Z  M 57.864 51.21 L 58.513 51.21 L 58.513 58.053 L 57.864 58.053 L 57.864 51.21 Z " fill-rule="evenodd" fill="rgb(52,187,222)"/><path d=" M 50.978 41.052 L 59.198 41.052 L 59.198 49.263 L 50.978 49.263 L 50.978 41.052 Z  M 51.663 41.737 L 52.311 41.737 L 52.311 48.579 L 51.663 48.579 L 51.663 41.737 Z  M 52.882 41.737 L 53.557 41.737 L 53.557 48.579 L 52.882 48.579 L 52.882 41.737 Z  M 54.127 41.737 L 54.802 41.737 L 54.802 48.579 L 54.127 48.579 L 54.127 41.737 Z  M 55.373 41.737 L 56.048 41.737 L 56.048 48.579 L 55.373 48.579 L 55.373 41.737 Z  M 56.619 41.737 L 57.294 41.737 L 57.294 48.579 L 56.619 48.579 L 56.619 41.737 Z  M 57.864 41.737 L 58.513 41.737 L 58.513 48.579 L 57.864 48.579 L 57.864 41.737 Z " fill-rule="evenodd" fill="rgb(35,163,194)"/><path d=" M 50.978 31.579 L 59.198 31.579 L 59.198 39.79 L 50.978 39.79 L 50.978 31.579 Z  M 51.663 32.263 L 52.311 32.263 L 52.311 39.105 L 51.663 39.105 L 51.663 32.263 Z  M 52.882 32.263 L 53.557 32.263 L 53.557 39.105 L 52.882 39.105 L 52.882 32.263 Z  M 54.127 32.263 L 54.802 32.263 L 54.802 39.105 L 54.127 39.105 L 54.127 32.263 Z  M 55.373 32.263 L 56.048 32.263 L 56.048 39.105 L 55.373 39.105 L 55.373 32.263 Z  M 56.619 32.263 L 57.294 32.263 L 57.294 39.105 L 56.619 39.105 L 56.619 32.263 Z  M 57.864 32.263 L 58.513 32.263 L 58.513 39.105 L 57.864 39.105 L 57.864 32.263 Z " fill-rule="evenodd" fill="rgb(52,187,222)"/><path d=" M 60.462 50.526 L 68.683 50.526 L 68.683 58.737 L 60.462 58.737 L 60.462 50.526 Z  M 61.147 51.21 L 61.796 51.21 L 61.796 58.053 L 61.147 58.053 L 61.147 51.21 Z  M 62.367 51.21 L 63.041 51.21 L 63.041 58.053 L 62.367 58.053 L 62.367 51.21 Z  M 63.612 51.21 L 64.287 51.21 L 64.287 58.053 L 63.612 58.053 L 63.612 51.21 Z  M 64.858 51.21 L 65.532 51.21 L 65.532 58.053 L 64.858 58.053 L 64.858 51.21 Z  M 66.104 51.21 L 66.778 51.21 L 66.778 58.053 L 66.104 58.053 L 66.104 51.21 Z  M 67.349 51.21 L 67.998 51.21 L 67.998 58.053 L 67.349 58.053 L 67.349 51.21 Z " fill-rule="evenodd" fill="rgb(35,163,194)"/><path d=" M 39.714 72.049 C 40.966 72.049 41.981 73.063 41.981 74.314 C 41.981 75.565 40.966 76.579 39.714 76.579 C 38.461 76.579 37.446 75.565 37.446 74.314 C 37.446 73.063 38.461 72.049 39.714 72.049 Z " fill-rule="evenodd" fill="rgb(211,236,236)"/><path d=" M 39.714 72.691 C 39.921 72.691 40.119 72.73 40.302 72.801 C 40.104 72.915 39.97 73.13 39.97 73.375 C 39.97 73.74 40.267 74.036 40.633 74.036 C 40.884 74.036 41.101 73.897 41.214 73.692 C 41.294 73.883 41.338 74.093 41.338 74.314 C 41.338 75.21 40.611 75.936 39.714 75.936 C 38.817 75.936 38.089 75.21 38.089 74.314 C 38.089 73.418 38.817 72.691 39.714 72.691 Z " fill-rule="evenodd" fill="rgb(54,69,72)"/><path d=" M -0.399 67.355 L 105.095 67.355 C 102.798 66.773 97.828 65.987 98.647 62.98 C 94.471 67.807 84.398 66.367 81.856 63.986 C 79.025 68.087 62.545 66.528 61.396 63.334 C 57.847 67.494 46.85 67.494 43.301 63.334 C 42.151 66.528 25.672 68.087 22.841 63.986 C 20.299 66.367 10.227 67.807 6.05 62.98 C 6.87 65.987 1.899 66.773 -0.399 67.355 Z " fill-rule="evenodd" fill="rgb(54,69,72)"/><path d=" M 45.742 88.372 C 40.126 85.71 37.043 82.091 35.328 78.141 C 33.242 78.736 30.734 79.116 27.82 79.279 C 26.723 79.34 25.568 79.372 24.357 79.372 C 22.96 79.372 21.488 79.331 19.942 79.249 C 25.093 84.39 31.429 88.348 43.161 88.421 C 44.027 88.421 44.887 88.404 45.742 88.372 Z " fill-rule="evenodd" fill="rgb(189,217,215)"/><path d=" M 37.414 81.786 C 36.637 80.732 35.883 79.408 35.329 78.14 C 33.243 78.735 30.735 79.116 27.82 79.279 C 29.822 80.364 32.685 81.37 37.414 81.786 Z " fill-rule="evenodd" fill="rgb(211,236,236)"/></g></g></svg>