<?xml version="1.0" standalone="no"?><!-- Generator: Gravit.io --><svg xmlns="http://www.w3.org/2000/svg" xmlns:xlink="http://www.w3.org/1999/xlink" style="isolation:isolate" viewBox="0 0 105 120" width="105" height="120"><defs><clipPath id="_clipPath_Yr8RJKiLI5PLiL4lDuXLx1K0tixRTuEn"><rect width="105" height="120"/></clipPath></defs><g clip-path="url(#_clipPath_Yr8RJKiLI5PLiL4lDuXLx1K0tixRTuEn)"><path d=" M 52.5 -0.002 L 105 29.998 L 105 89.998 L 52.5 119.998 L 0 89.998 L 0 29.998 L 52.5 -0.002 Z " fill="rgb(229,228,231)"/><linearGradient id="_lgradient_6" x1="0.36321564885496194" y1="1.1388255813953487" x2="0.8148759541984736" y2="0.9607129859755014" gradientTransform="matrix(30.297,0,0,60.015,37.352,29.992)" gradientUnits="userSpaceOnUse"><stop offset="0%" stop-opacity="1" style="stop-color:rgb(194,194,196)"/><stop offset="100%" stop-opacity="1" style="stop-color:rgb(113,112,115)"/></linearGradient><path d=" M 37.352 35.08 L 38.739 38.492 L 44.29 34.907 L 39.722 40.92 L 39.722 40.92 L 38.508 45.835 L 41.804 45.95 L 42.613 47.916 L 48.106 44.274 L 43.596 50.287 L 43.596 50.287 L 42.266 54.97 L 45.562 55.085 L 46.313 56.936 L 51.748 53.351 L 47.354 59.537 L 47.354 59.537 L 46.024 64.163 L 49.262 64.279 L 50.072 66.187 L 55.738 62.486 L 55.738 62.544 L 51.228 68.615 L 50.534 72.662 L 54.292 72.662 L 55.564 74.397 L 58.629 72.373 L 56.952 76.478 L 56.2 80.121 L 59.727 80.063 L 60.768 81.45 L 63.139 79.889 L 61.809 82.838 L 67.07 90.008 L 66.319 84.977 L 67.648 81.624 L 65.856 81.566 L 64.989 75.148 L 66.781 69.829 L 64.237 69.771 L 63.37 63.7 L 64.584 59.191 L 61.693 59.075 L 59.901 54.623 L 61.173 49.882 L 57.877 49.766 L 56.2 45.603 L 57.415 40.747 L 54.177 40.631 L 52.442 36.41 L 53.656 31.554 L 50.419 31.438 L 49.783 29.992 L 37.352 35.08 Z " fill="url(#_lgradient_6)"/></g></svg>