<?xml version="1.0" standalone="no"?><!-- Generator: Gravit.io --><svg xmlns="http://www.w3.org/2000/svg" xmlns:xlink="http://www.w3.org/1999/xlink" style="isolation:isolate" viewBox="0 0 105 120" width="105" height="120"><defs><clipPath id="_clipPath_PTQKnmduB9XCARJ7bajzNJSJOvFG0vc2"><rect width="105" height="120"/></clipPath></defs><g clip-path="url(#_clipPath_PTQKnmduB9XCARJ7bajzNJSJOvFG0vc2)"><path d=" M 52.5 1.15 L 104 30.575 L 104 89.425 L 52.5 118.85 L 1 89.425 L 1 30.575 L 52.5 1.15 Z " fill="rgb(23,23,23)" vector-effect="non-scaling-stroke" stroke-width="2" stroke="rgb(62,190,176)" stroke-linejoin="miter" stroke-linecap="butt" stroke-miterlimit="4"/><g><g><path d=" M 66.342 50.997 L 50.662 50.997 C 50.737 51.372 50.887 51.747 50.962 52.047 C 51.487 53.848 51.787 55.723 51.937 57.674 C 52.012 58.424 52.012 59.25 52.012 60 C 52.012 60.75 52.012 61.576 51.937 62.326 C 51.787 64.277 51.487 66.152 50.962 67.953 C 50.887 68.328 50.737 68.703 50.662 69.003 L 66.342 69.003 C 71.294 69.003 75.27 64.952 75.27 60 C 75.27 55.048 71.294 50.997 66.342 50.997 Z " fill="rgb(0,169,229)"/><path d=" M 51.937 62.326 C 52.012 61.576 52.012 60.75 52.012 60 C 52.012 59.25 52.012 58.424 51.937 57.674 C 51.787 55.723 51.487 53.848 50.962 52.047 C 50.887 51.672 50.737 51.297 50.662 50.997 L 26.353 50.997 C 25.453 53.848 25.003 56.849 25.003 60 C 25.003 63.151 25.453 66.152 26.353 69.003 L 50.587 69.003 C 50.662 68.628 50.812 68.253 50.887 67.953 C 51.412 66.152 51.787 64.277 51.937 62.326 Z " fill="rgb(53,53,53)"/></g><g><path d=" M 69.043 72.004 L 49.536 72.004 C 48.936 73.355 48.261 74.63 47.511 75.831 C 46.385 77.706 45.035 79.357 43.534 80.932 C 43.009 81.458 42.484 81.908 41.959 82.433 C 40.908 83.408 39.708 84.234 38.508 85.059 C 43.234 88.21 48.936 90.011 55.013 90.011 C 65.442 90.011 74.595 84.684 79.997 76.656 C 77.221 73.805 73.32 72.004 69.043 72.004 Z " fill="rgb(0,191,179)"/><path d=" M 47.511 75.831 C 48.261 74.63 48.936 73.355 49.536 72.004 L 27.479 72.004 C 29.805 77.331 33.631 81.908 38.508 85.059 C 39.708 84.234 40.833 83.408 41.959 82.433 C 42.484 81.983 43.009 81.458 43.534 80.932 C 44.96 79.432 46.31 77.706 47.511 75.831 Z " fill="rgb(1,155,143)"/></g><g><path d=" M 43.459 39.068 C 42.934 38.542 42.409 38.092 41.884 37.567 C 40.833 36.592 39.633 35.766 38.433 34.941 C 33.706 38.092 29.88 42.669 27.479 47.996 L 49.461 47.996 C 48.861 46.645 48.186 45.37 47.436 44.169 C 46.31 42.294 44.96 40.568 43.459 39.068 Z " fill="rgb(249,177,16)"/><path d=" M 55.013 29.989 C 48.936 29.989 43.234 31.79 38.508 34.941 C 39.708 35.766 40.833 36.592 41.959 37.567 C 42.484 38.017 43.009 38.542 43.534 39.068 C 45.035 40.643 46.385 42.294 47.511 44.169 C 48.261 45.37 48.936 46.645 49.536 47.996 L 69.043 47.996 C 73.32 47.996 77.221 46.195 79.997 43.344 C 74.595 35.316 65.442 29.989 55.013 29.989 Z " fill="rgb(254,209,10)"/></g></g></g></svg>