<?xml version="1.0" standalone="no"?><!-- Generator: Gravit.io --><svg xmlns="http://www.w3.org/2000/svg" xmlns:xlink="http://www.w3.org/1999/xlink" style="isolation:isolate" viewBox="0 0 105 120" width="105" height="120"><defs><clipPath id="_clipPath_isSaSMglAF6wBidtNzxWiaQX5Bg0dkwi"><rect width="105" height="120"/></clipPath></defs><g clip-path="url(#_clipPath_isSaSMglAF6wBidtNzxWiaQX5Bg0dkwi)"><path d=" M 52.5 -0.002 L 105 29.998 L 105 89.998 L 52.5 119.998 L 0 89.998 L 0 29.998 L 52.5 -0.002 Z " fill="rgb(240,240,240)"/><g><path d=" M 45.149 86.613 C 45.079 86.564 45.255 86.613 45.149 86.613 C 45.083 86.613 44.89 86.726 44.924 86.636 L 44.834 86.4 L 45.149 86.613 Z  M 38.96 83.444 C 36.396 81.427 33.661 79.495 31.793 76.772 C 27.859 71.97 24.831 66.411 22.761 60.569 C 21.51 56.77 21.081 52.697 19.467 49.045 C 17.78 46.392 19.757 43.494 22.663 42.651 C 23.956 42.402 26.23 41.181 23.485 42.055 C 21.023 43.86 20.786 40.414 23.31 40.196 C 25.032 39.967 25.667 38.558 25.077 37.289 C 23.227 36.082 29.561 34.758 26.374 32.958 C 23.055 29.377 31.017 28.687 29.052 32.755 C 28.583 35.883 34.617 32.181 33.216 35.793 C 34.639 37.528 38.546 36.189 38.448 38.621 C 40.521 38.764 41.233 40.507 43.177 40.641 C 45.196 41.552 48.851 42.269 49.537 44.542 C 47.536 46.126 42.904 41.271 42.68 45.655 C 43.285 52.133 43.131 58.805 45.5 64.974 C 46.621 68.708 49.339 71.648 51.792 74.557 C 54.141 77.406 57.321 79.412 60.564 81.101 C 63.408 82.441 66.473 83.33 69.573 83.889 C 70.83 82.928 73.049 79.354 75.009 80.86 C 75.104 82.555 71.119 84.402 74.822 84.214 C 76.999 83.557 78.506 85.895 80.298 83.786 C 81.948 85.741 87.157 82.538 85.983 86.533 C 84.395 87.558 82.079 86.939 80.489 88.349 C 77.867 87.039 75.779 89.52 72.876 89.207 C 69.652 89.784 66.372 90.017 63.104 90.022 C 57.741 89.598 52.265 89.42 47.164 87.553 C 44.29 86.718 41.486 85.081 38.96 83.444 L 38.96 83.444 Z  M 43.488 85.407 C 46.294 86.619 49.038 87.898 52.114 88.285 C 56.993 88.963 62.032 90.008 66.929 89.056 C 64.713 88.055 62.421 89.444 60.213 88.34 C 57.566 88.909 54.724 88.194 52.031 87.842 C 48.971 86.479 45.667 85.542 42.801 83.77 C 39.218 82.462 44.653 85.449 45.62 85.691 C 47.859 86.961 43.158 85.039 42.494 84.511 C 40.619 83.459 40.38 83.679 42.309 84.747 C 42.698 84.974 43.081 85.213 43.488 85.407 L 43.488 85.407 Z  M 38.148 81.634 C 40.868 82.641 38.136 79.722 36.892 79.89 C 36.34 78.933 34.782 78.327 35.881 77.813 C 33.905 78.5 33.811 75.205 32.883 75.677 C 30.792 75.016 32.069 72.678 29.578 71.241 C 29.351 69.728 27.104 68.416 26.389 66.134 C 26.072 64.965 23.849 61.611 25.215 64.733 C 26.377 67.738 28.421 70.314 30.123 72.884 C 31.443 75.332 33.005 77.892 35.41 79.419 C 36.221 80.198 37.003 81.389 38.148 81.634 L 38.148 81.634 Z  M 50.128 86.69 C 51.242 87.393 56.632 88.23 53.258 86.978 C 52.691 87.097 46.999 85.368 50.128 86.69 L 50.128 86.69 Z  M 37.818 76.696 C 39.125 77.698 43.09 76.825 39.82 76.098 C 38.332 75.305 34.98 74.762 37.265 76.576 L 37.818 76.696 Z  M 44.145 80.048 C 47.34 80.951 41.458 78.026 43.356 79.715 L 43.778 79.906 L 44.145 80.048 Z  M 44.173 78.355 C 46.494 78.654 41.41 76.775 43.662 78.186 L 44.173 78.355 Z  M 52.239 83.315 C 54.408 82.021 53.693 86.35 55.917 83.681 C 58.111 82.079 54.023 85.662 56.725 83.967 C 58.682 82.658 61.57 84.587 63.394 85.215 C 64.706 85.151 65.982 86.35 67.328 85.62 C 69.917 84.922 62.263 84.586 64.269 83.349 C 61.9 84.039 60.15 82.527 58.984 81.009 C 56.326 80.395 53.254 79.037 51.927 76.684 C 51.385 75.802 52.708 76.809 51.459 75.365 C 49.859 73.941 49.059 72.323 47.985 70.592 C 46.7 69.908 46.549 67.891 46.42 70.526 C 46.43 68.863 44.869 67.744 44.487 68.208 C 44.481 66.607 46.159 67.41 44.984 66.226 C 44.732 64.566 43.9 62.837 43.65 60.963 C 43.262 60.06 43.595 58.126 42.323 60.17 C 41.86 62.331 42.17 57.516 42.891 59.103 C 43.836 57.483 42.55 57.674 42.498 57.897 C 43.114 56.531 42.889 54.591 42.337 55.331 C 42.665 53.881 42.856 49.997 41.847 50.687 C 42.459 49.171 43.008 43.751 40.349 45.818 C 39.273 45.833 37.408 46.209 36.528 46.647 C 39.29 48.17 36.249 47.197 35.123 46.954 C 34.977 48.364 33.863 47.756 32.47 47.769 C 34.695 48.044 31.387 50.043 30.113 49.267 C 28.456 50.058 31.542 52.035 30.146 52.647 C 30.318 53.567 27.608 52.314 27.82 54.442 C 26.212 53.764 27.6 56.966 28.404 55.883 C 31.139 56.624 30.33 58.31 30.398 59.914 C 29.953 60.847 28.198 57.719 30.008 57.863 C 28.579 55.544 28.428 57.024 27.242 58.102 C 26.967 58.18 30.268 59.635 28.196 60.354 C 30.018 60.636 30.072 62.232 30.443 63.241 C 31.538 64.382 31.313 61.98 32.625 63.353 C 31.794 62.13 28.23 59.909 31.1 60.621 C 31.084 59.392 30.581 58.399 31.461 58.423 C 32.333 56.847 30.548 62.312 32.511 60.308 C 33.054 60.071 33.191 58.73 34.167 60.435 C 35.585 61.831 34.679 62.842 32.678 61.563 C 33.036 62.778 35.355 63.211 34.918 65.112 C 35.38 66.783 36.027 66.167 36.591 66.071 C 37.033 67.694 37.284 66.501 37.305 65.727 C 39.328 66.161 38.854 67.357 39.488 68.192 C 40.882 68.821 37.492 63.927 39.885 66.721 C 42.404 68.995 40.831 69.944 38.57 69.58 C 40 69.464 40.461 71.514 42.251 71.442 C 43.883 72.219 44.988 75.2 42.175 73.959 C 41.2 73.078 37.746 71.994 40.568 73.666 C 43.171 74.873 45.241 75.594 47.752 77.109 C 49.549 78.391 50.326 79.861 51.007 80.152 C 49.496 80.873 46.455 79.576 48.713 79.179 C 47.304 78.922 45.719 78.209 47.068 79.964 C 48.217 80.924 51.134 80.822 51.659 80.93 C 51.215 81.907 50.454 81.985 51.676 82.06 C 50.312 82.787 52.114 82.901 52.24 83.315 L 52.239 83.315 Z  M 49.451 75.439 C 48.621 74.571 48.406 72.946 49.303 74.359 C 49.764 74.545 50.777 77.016 49.451 75.439 Z  M 44.132 66.679 C 43.143 64.465 44.833 65.469 44.352 67.042 L 44.132 66.679 Z  M 35.028 60.608 C 34.587 59.881 33.856 57.749 34.091 57.098 C 34.303 58.159 36.345 61.661 35.092 58.549 C 33.708 55.941 36.748 59.395 37.06 60.047 C 37.207 60.693 36.206 59.87 36.883 61.388 C 35.647 59.66 36.154 62.342 35.028 60.608 Z  M 30.436 56.751 C 29.389 55.709 28.631 54.75 30.486 56.104 C 31.199 56.132 28.898 53.923 30.658 55.403 C 32.508 55.74 31.571 58.438 30.436 56.751 Z  M 31.064 55.155 C 28.019 52.444 34.889 56.572 31.561 55.657 L 31.064 55.155 Z  M 39.789 60.224 C 38.47 59.434 39.438 54.662 39.889 57.925 C 41.17 57.51 39.818 59.612 40.772 59.591 C 40.623 60.916 40.195 61.393 39.789 60.224 Z  M 31.66 54.265 C 29.704 51.565 37.346 56.995 32.914 54.949 C 32.451 54.827 31.892 54.784 31.66 54.265 Z  M 31.961 53.235 C 33.123 52.986 36.778 55.276 33.422 53.888 C 33.05 53.475 32.253 53.663 31.961 53.235 L 31.961 53.235 Z  M 41.945 58.21 C 42.069 55.886 42.64 56.823 41.95 58.544 L 41.945 58.21 L 41.945 58.21 Z  M 32.826 52.425 C 33.3 51.73 31.567 49.284 33.075 51.548 C 33.727 52.066 34.961 52.415 33.871 52.633 C 35.585 54.145 33.453 53.042 32.826 52.425 Z  M 40.404 51.18 C 39.799 50.116 41.168 46.487 41.321 48.737 C 40.682 50.491 41.137 51.471 41.58 49.119 C 42.402 47.269 41.403 52.773 40.404 51.18 Z  M 42.909 77.122 C 44.64 77.568 44.632 76.854 43.067 76.641 C 42.226 75.859 39.57 75.028 41.948 76.544 C 42.105 76.944 42.602 76.933 42.909 77.122 Z  M 36.765 73.04 C 37.717 73.753 40.356 75.055 38.123 73.313 C 38.876 72.437 36.682 71.971 37.409 71.385 C 35.558 70.252 35.948 70.353 37.246 70.39 C 35.021 69.394 37.567 69.47 37.447 68.959 C 36.589 68.791 33.185 67.446 35.188 69.069 C 33.152 68.032 34.703 69.456 34.088 69.306 C 32.005 68.739 35.941 70.892 33.757 70.357 C 34.951 71.303 36.971 72.781 34.261 71.357 C 33.905 71.872 36.201 72.651 36.764 73.04 L 36.765 73.04 Z  M 58.391 85.724 C 59.304 84.84 58.429 87.133 59.904 85.507 C 59.919 84.343 59.859 83.656 58.209 85.07 C 57.753 85.323 57.55 86.394 58.391 85.724 L 58.391 85.724 Z  M 43.44 76.125 C 44.457 77.028 48.105 76.787 44.673 76.237 C 44.166 75.486 41.448 75.666 43.44 76.125 Z  M 26.712 64.888 C 25.237 62.784 25.796 61.838 24.372 60.119 C 24.102 58.804 21.931 55.822 23.249 58.98 C 24.456 60.829 24.814 63.689 26.712 64.888 L 26.712 64.888 Z  M 62.376 86.32 C 63.92 85.325 62.02 85.478 62.096 86.411 L 62.376 86.32 Z  M 64.854 86.993 C 66.832 85.565 63.656 86.719 64.439 87.264 L 64.854 86.993 Z  M 31.66 65.837 C 33.109 66.162 37.455 69.408 34.892 66.062 C 33.579 65.674 34.366 62.464 33.027 63.031 C 33.926 64.534 33.766 65.171 31.878 64.226 C 29.508 63.067 30.546 64.799 31.01 65.277 C 30.377 65.421 31.846 65.825 31.66 65.837 L 31.66 65.837 Z  M 25.053 60.619 C 25.312 59.544 22.661 54.712 23.801 58.197 C 24.212 58.927 24.169 60.311 25.053 60.619 Z  M 70.422 85.663 C 71.858 85.373 75.13 86.394 75.657 85.284 C 73.914 85.241 69.628 84.052 69.425 85.565 L 69.807 85.626 L 70.423 85.663 L 70.422 85.663 Z  M 25.714 54.448 C 27.161 53.881 23.078 53.272 25.418 54.342 L 25.714 54.448 Z  M 21.193 49.392 C 20.932 47.893 20.968 45.261 23.47 46.15 C 20.13 46.814 25.782 50.301 25.068 47.547 C 26.473 47.616 27.816 46.717 27.078 48.08 C 29.846 47.776 31.763 45.376 34.437 45.713 C 36.518 45.437 38.795 45.228 41.038 44.389 C 42.883 44.257 44.659 42.271 43.649 41.093 C 41.133 40.88 38.499 41.195 35.719 41.749 C 32.638 42.388 29.84 43.605 26.731 44.128 C 23.7 44.536 27.339 45.249 26.471 45.409 C 24.891 45.957 28.357 46.327 26.266 46.906 C 24.976 46.66 23.631 46.217 24.183 44.855 C 21.281 45.233 18.729 46.437 21.023 49.39 L 21.193 49.392 L 21.193 49.392 Z  M 28.189 45.83 C 28.868 43.323 31.834 47.893 29.303 46.164 C 29.002 45.936 28.503 45.752 28.189 45.83 Z  M 29.567 44.635 C 29.657 43.481 32.424 45.245 30.023 45.05 L 29.567 44.635 L 29.567 44.635 Z  M 31.71 43.657 C 32.748 42.411 37.584 42.861 34.045 43.535 C 33.095 42.819 32.368 43.956 31.71 43.657 Z  M 39.815 42.673 C 40.469 40.958 42.357 41.984 40.119 42.328 C 40.167 42.512 40.052 43.215 39.815 42.673 Z  M 81.936 85.686 C 83.499 85.691 86.672 85.199 83.272 85.201 C 82.737 85.284 80.162 85.267 81.936 85.686 Z  M 28.077 51.472 C 29.343 51.386 30.056 50.078 27.831 50.152 C 24.384 49.796 30.872 51.333 27.389 50.893 C 26.922 51.202 28.049 51.558 28.077 51.472 Z  M 26.304 41.479 C 28.564 40.712 31.651 39.849 32.718 41.857 C 31.632 40.552 32.279 39.266 33.304 41.176 C 34.753 43.107 35.478 40.298 34.536 39.649 C 35.611 40.983 36.831 41.615 35.255 39.734 C 36.969 37.673 31.825 40.004 30.656 39.98 C 30.094 40.232 24.848 41.317 26.305 41.479 L 26.304 41.479 Z  M 27.628 38.945 C 28.916 37.974 32.083 39.524 30.051 37.978 C 29.851 37.803 25.602 39.151 27.628 38.945 Z  M 32.324 39.139 C 33.83 39.177 31.674 37.114 33.469 38.049 C 33.175 37.086 31.378 36.906 30.5 36.521 C 30.003 37.401 31.51 39.151 32.324 39.139 Z  M 30.371 35.335 C 32.8 35.014 29.752 34.29 29.88 35.31 L 30.371 35.335 L 30.371 35.335 Z  M 26.787 32.533 C 25.077 30.3 30.004 32.908 28.266 30.57 C 26.803 29.406 25.398 31.882 26.787 32.533 Z  M 48.733 44.353 C 49.518 42.964 45.496 42.479 48.206 43.861 C 48.455 43.944 48.399 44.449 48.733 44.353 Z " fill="rgb(0,0,0)"/></g></g></svg>