<?xml version="1.0" standalone="no"?><!-- Generator: Gravit.io --><svg xmlns="http://www.w3.org/2000/svg" xmlns:xlink="http://www.w3.org/1999/xlink" style="isolation:isolate" viewBox="0 0 105 120" width="105" height="120"><defs><clipPath id="_clipPath_tv1miqknJyHyB2KcUjjXm8vYmlaNil1N"><rect width="105" height="120"/></clipPath></defs><g clip-path="url(#_clipPath_tv1miqknJyHyB2KcUjjXm8vYmlaNil1N)"><path d=" M 52.5 0 L 105 30 L 105 90 L 52.5 120 L 0 90 L 0 30 L 52.5 0 Z " fill="rgb(238,238,238)"/><g><path d=" M 62.86 78 L 55.956 90.001 L 37.876 90.001 C 36.263 90.001 34.774 89.137 33.972 87.738 L 19.348 62.241 C 18.554 60.854 18.554 59.151 19.348 57.765 L 24.913 48.065 L 31.782 60.001 L 42.137 78 L 62.86 78 Z " fill="rgb(251,188,5)"/><path d=" M 85.653 62.241 L 71.029 87.742 C 70.228 89.142 68.738 90.005 67.125 90.005 L 55.952 90.005 L 62.856 78.004 L 73.219 60.001 L 62.856 42.002 L 76.609 42.002 L 85.649 57.765 C 86.45 59.149 86.452 60.855 85.653 62.241 Z " fill="rgb(234,67,53)"/><path d=" M 76.613 42.002 L 42.137 42.002 L 31.782 60.001 L 24.913 48.061 L 33.972 32.264 C 34.773 30.864 36.263 30 37.876 30.001 L 67.129 30.001 C 68.741 30.002 70.23 30.865 71.033 32.264 L 76.613 42.002 Z " fill="rgb(66,133,244)"/><path d=" M 62.86 42.002 L 73.215 60.001 L 62.856 78 L 42.141 78 L 31.782 60.001 L 42.137 42.002 L 62.86 42.002 Z " fill="rgb(224,224,224)"/><circle vector-effect="non-scaling-stroke" cx="0" cy="0" r="1" transform="matrix(9.002,0,0,9.002,52.501,60.001)" fill="rgb(255,255,255)"/><g opacity="0.2"><path d=" M 33.972 32.636 C 34.773 31.236 36.263 30.372 37.876 30.373 L 67.129 30.373 C 68.741 30.374 70.23 31.237 71.033 32.636 L 76.402 42.002 L 76.617 42.002 L 71.033 32.264 C 70.231 30.864 68.742 30 67.128 30.001 L 37.876 30.001 C 36.263 30.001 34.774 30.864 33.972 32.264 L 24.913 48.061 L 25.02 48.249 L 33.972 32.636 Z " fill="rgb(255,255,255)"/></g><path d=" M 31.782 60.001 L 42.138 42.001 L 76.613 42.001 L 76.399 41.626 L 42.138 41.626 L 31.782 59.625" fill="rgb(26,35,126)" fill-opacity="0.2"/><g opacity="0.2"><path d=" M 19.348 58.137 L 24.913 48.433 L 31.782 60.373 L 42.137 78.372 L 62.641 78.372 L 62.86 77.996 L 42.137 77.996 L 31.782 60.001 L 24.913 48.061 L 19.348 57.761 C 18.929 58.499 18.725 59.341 18.761 60.189 C 18.79 59.468 18.991 58.764 19.348 58.137 Z " fill="rgb(255,255,255)"/></g><g style="opacity:0.2;"><g opacity="0.2"><path d=" M 56.171 89.625 L 37.876 89.625 C 36.263 89.625 34.774 88.761 33.972 87.362 L 19.348 61.865 C 18.991 61.237 18.79 60.534 18.761 59.813 C 18.722 60.661 18.925 61.504 19.348 62.241 L 33.972 87.742 C 34.773 89.142 36.263 90.005 37.876 90.005 L 55.956 90.005 L 56.171 89.625 Z " fill="rgb(191,54,12)"/></g></g><g style="opacity:0.2;"><g opacity="0.2"><path d=" M 73.43 60.001 L 63.075 42.001 L 62.86 42.001 L 73.219 60.001 L 73.43 60.001 L 73.43 60.001 Z " fill="rgb(62,39,35)"/></g><g opacity="0.2"><path d=" M 85.653 61.865 L 71.029 87.366 C 70.228 88.766 68.738 89.629 67.125 89.629 L 56.171 89.629 L 55.952 90.005 L 67.125 90.005 C 68.737 90.003 70.226 89.14 71.029 87.742 L 85.653 62.241 C 86.074 61.503 86.277 60.661 86.24 59.813 C 86.211 60.534 86.01 61.237 85.653 61.865 L 85.653 61.865 Z " fill="rgb(62,39,35)"/></g></g><g style="opacity:0.2;"><g opacity="0.2"><path d=" M 76.613 42.374 L 85.653 58.137 C 86.01 58.764 86.211 59.468 86.24 60.189 C 86.279 59.34 86.075 58.498 85.653 57.761 L 76.613 41.998 L 62.86 41.998 L 63.078 42.374" fill="rgb(255,255,255)"/></g><g opacity="0.2"><path d=" M 62.86 78.376 L 73.43 60.001 L 73.219 60.001 L 62.86 78 L 55.956 90.001 L 56.171 90.001 L 62.86 78.376 L 62.86 78.376 Z " fill="rgb(255,255,255)"/></g></g><radialGradient id="_rgradient_0" fx="0.1437805257048325" fy="0.06752935967269263" cx="0.1437805257048325" cy="0.06752935967269263" r="90.3132" gradientTransform="matrix(47.316,0,0,42.061,28.844,38.968)" gradientUnits="userSpaceOnUse"><stop offset="0%" stop-opacity="0.1" style="stop-color:rgb(255,255,255)"/><stop offset="100%" stop-opacity="0" style="stop-color:rgb(255,255,255)"/></radialGradient><path d=" M 75.74 58.43 L 69.404 47.381 L 65.489 40.554 C 64.927 39.573 63.883 38.968 62.752 38.968 L 42.25 38.968 C 41.119 38.968 40.075 39.574 39.513 40.554 L 29.262 58.43 C 28.705 59.402 28.705 60.596 29.262 61.568 L 39.513 79.443 C 40.075 80.425 41.119 81.03 42.25 81.03 L 62.755 81.03 C 63.885 81.029 64.929 80.424 65.492 79.443 L 75.743 61.568 C 76.3 60.596 76.299 59.401 75.74 58.43 Z " fill="url(#_rgradient_0)"/></g></g></svg>