<?xml version="1.0" standalone="no"?><!-- Generator: Gravit.io --><svg xmlns="http://www.w3.org/2000/svg" xmlns:xlink="http://www.w3.org/1999/xlink" style="isolation:isolate" viewBox="0 0 105 120" width="105" height="120"><defs><clipPath id="_clipPath_B7ErDntDBDaGuWKe5LGSedeDOrC1pAKk"><rect width="105" height="120"/></clipPath></defs><g clip-path="url(#_clipPath_B7ErDntDBDaGuWKe5LGSedeDOrC1pAKk)"><path d=" M 52.75 0 L 105.25 30 L 105.25 90 L 52.75 120 L 0.25 90 L 0.25 30 L 52.75 0 Z " fill="rgb(161,255,255)"/><clipPath id="_clipPath_dibFTrirdDGlqb5w4BpdQtPwUddyijEI"><path d=" M 52.75 0 L 105.25 30 L 105.25 90 L 52.75 120 L 0.25 90 L 0.25 30 L 52.75 0 Z " fill="rgb(161,255,255)"/></clipPath><g clip-path="url(#_clipPath_dibFTrirdDGlqb5w4BpdQtPwUddyijEI)"><polygon points="54.674,88.031,36,60.705,71.297,59.625" fill="rgb(235,235,235)"/></g><g><path d=" M 52.147 89.953 C 47.176 89.74 43.72 89.079 40.961 87.813 C 40.559 87.629 40.619 87.752 40.185 86.224 C 39.428 83.562 38.854 81.15 38.238 78.055 C 37.926 76.486 37.779 75.83 37.058 72.764 C 35.765 67.262 35.273 64.733 34.991 62.118 C 34.919 61.456 35.048 60.551 35.251 60.293 C 35.37 60.141 35.373 59.752 35.254 59.721 C 35.185 59.703 35.168 59.644 35.142 59.34 C 35.121 59.088 35.089 58.95 35.032 58.879 C 34.978 58.81 34.952 58.708 34.952 58.562 C 34.952 58.444 34.933 58.335 34.909 58.321 C 34.884 58.305 34.867 58.015 34.867 57.596 C 34.867 57.176 34.85 56.886 34.824 56.87 C 34.8 56.856 34.781 56.882 34.781 56.929 C 34.781 57.455 34.403 56.497 34.183 55.413 C 33.618 52.63 32.69 49.865 32.903 51.599 C 32.978 52.209 33.117 52.809 33.514 54.246 C 33.981 55.935 34.193 57.13 34.098 57.532 C 33.963 58.107 33.086 54.656 32.581 51.558 C 32.453 50.772 32.26 49.591 32.153 48.934 C 31.914 47.466 31.691 46.363 31.387 45.139 C 31.083 43.915 31.091 43.716 31.47 43.234 C 32.249 42.241 34.538 41.469 34.785 42.116 C 34.954 42.559 34.455 42.866 33.096 43.153 C 31.918 43.402 31.809 43.581 32.449 44.212 C 33.088 44.843 36.795 45.407 41.181 45.541 C 48.95 45.777 53.875 45.84 55.262 45.719 C 55.602 45.689 56.086 45.654 56.337 45.64 C 56.793 45.615 56.793 45.615 56.773 45.504 C 56.757 45.42 56.793 45.341 56.923 45.179 C 57.016 45.062 57.156 44.879 57.234 44.774 C 57.497 44.415 57.939 44.278 58.122 44.499 C 58.352 44.775 58.149 45.415 57.77 45.611 C 57.595 45.701 57.645 45.729 58.049 45.765 C 58.241 45.783 58.508 45.808 58.642 45.823 C 59.049 45.865 59.359 45.719 59.188 45.564 C 58.812 45.223 59.52 44.536 60.617 44.178 C 60.781 44.125 60.934 44.064 60.956 44.043 C 60.978 44.023 61.027 44.006 61.064 44.006 C 61.204 44.006 61.604 43.696 62.049 43.242 C 62.303 42.984 62.587 42.724 62.681 42.665 C 62.776 42.605 62.874 42.518 62.899 42.47 C 62.976 42.327 62.826 42.366 62.494 42.575 C 62.33 42.679 62.099 42.822 61.982 42.894 C 61.738 43.043 61.196 43.402 60.675 43.76 C 60.479 43.895 60.27 44.038 60.211 44.078 C 60.153 44.118 60.07 44.179 60.027 44.215 C 59.933 44.294 59.495 44.313 59.251 44.249 C 58.619 44.081 58.573 43.526 59.113 42.561 C 59.35 42.139 60.001 41.275 60.083 41.275 C 60.104 41.275 60.174 41.195 60.241 41.097 C 60.36 40.92 60.436 40.862 60.817 40.661 C 61.09 40.517 61.25 40.501 61.294 40.615 C 61.32 40.682 61.128 41.104 60.912 41.456 C 60.458 42.193 60.419 42.268 60.461 42.31 C 60.522 42.371 60.983 42.094 61.051 41.956 C 61.08 41.898 61.157 41.736 61.222 41.596 C 61.662 40.648 62.715 40.555 63.363 41.406 C 63.534 41.632 63.582 41.657 63.583 41.524 C 63.586 41.108 64.166 40.766 64.873 40.764 C 65.166 40.763 65.185 40.715 64.931 40.618 C 64.584 40.485 64.564 40.419 64.793 40.158 C 65.11 39.795 64.96 39.725 64.357 39.954 C 63.776 40.174 63.211 40.294 62.824 40.278 C 62.619 40.269 62.405 40.28 62.349 40.301 C 62.293 40.322 62.142 40.348 62.014 40.359 C 61.887 40.37 61.767 40.388 61.748 40.4 C 61.729 40.412 61.62 40.409 61.506 40.393 C 60.873 40.307 60.932 39.758 61.725 38.352 C 61.831 38.165 61.977 37.886 62.05 37.734 C 62.123 37.581 62.418 36.976 62.707 36.39 C 62.996 35.803 63.311 35.15 63.408 34.939 C 63.505 34.728 63.632 34.464 63.69 34.352 C 63.748 34.241 63.795 34.13 63.795 34.107 C 63.795 34.083 63.845 33.963 63.905 33.84 C 64.293 33.045 64.911 31.084 64.836 30.888 C 64.821 30.848 64.833 30.821 64.868 30.821 C 64.899 30.821 65.022 30.757 65.139 30.679 C 65.257 30.601 65.405 30.505 65.469 30.466 C 65.564 30.407 65.581 30.373 65.561 30.274 C 65.451 29.723 66.467 30.075 67.732 31.025 C 69.592 32.422 71.243 34.783 72.622 38.019 C 73.848 40.894 74.17 45.771 73.375 49.425 C 72.818 51.986 72.438 55.917 72.031 63.356 C 71.771 68.092 71.623 70.229 71.409 72.316 C 71.351 72.879 71.275 73.724 71.241 74.193 C 71.067 76.55 70.805 78.738 70.36 81.554 C 70.208 82.516 70.186 82.742 70.175 83.516 C 70.131 86.434 69.061 88.091 67.033 88.383 C 66.836 88.411 66.426 88.508 66.121 88.597 C 63.648 89.323 61.01 89.708 57.395 89.871 C 54.464 90.002 53.616 90.016 52.147 89.953 L 52.147 89.953 Z  M 42.077 85.54 C 41.551 83.393 41.243 82.374 40.873 81.554 C 40.476 80.675 40.386 80.558 40.435 80.988 C 40.66 82.964 41.203 84.796 42.085 86.563 C 42.551 87.495 42.551 87.47 42.077 85.54 L 42.077 85.54 Z  M 41.155 86.962 C 41.308 86.388 41.063 85.183 40.347 82.999 C 39.939 81.753 39.638 80.67 39.582 80.242 C 39.545 79.961 39.506 79.937 39.346 80.097 C 39.09 80.353 39.168 80.883 39.745 82.822 C 39.9 83.344 40.049 83.939 40.076 84.145 C 40.234 85.354 41.029 87.43 41.155 86.962 Z  M 55.622 80.607 C 56.401 80.092 56.299 78.589 55.453 78.109 C 54.691 77.678 54.282 78.618 54.605 80.057 C 54.75 80.702 55.151 80.919 55.622 80.607 Z  M 53.327 80.494 C 53.908 80.196 54.101 79.203 53.737 78.384 C 53.378 77.576 52.659 77.985 52.529 79.071 C 52.51 79.228 52.466 79.54 52.431 79.766 C 52.304 80.573 52.64 80.846 53.327 80.494 Z  M 39.2 79.009 C 39.293 78.264 39.1 77.187 38.476 74.969 C 38.298 74.34 38.094 73.524 38.022 73.156 C 37.785 71.952 37.426 71.366 37.599 72.465 C 37.683 72.999 38.158 75.435 38.261 75.857 C 38.317 76.092 38.413 76.684 38.474 77.173 C 38.625 78.39 38.757 78.872 39.017 79.153 C 39.146 79.293 39.167 79.276 39.2 79.009 Z  M 49.075 74.892 C 52.325 74.147 53.373 70.082 50.808 68.171 C 49.154 66.939 48.118 66.849 45.534 67.715 C 45.006 67.892 44.53 68.064 44.477 68.098 C 44.289 68.216 43.998 68.636 43.998 68.789 C 43.998 68.868 43.922 69.119 43.83 69.348 C 42.609 72.376 45.717 75.661 49.075 74.892 Z  M 44.958 72.566 C 43.679 72.375 43.403 71.286 44.382 70.292 C 45.093 69.57 45.921 69.508 46.529 70.13 C 47.731 71.362 46.779 72.838 44.958 72.566 Z  M 61.168 74.293 C 63.401 73.918 64.801 71.352 63.88 69.321 C 61.725 64.567 53.983 66.851 55.681 71.74 C 56.406 73.831 58.401 74.758 61.168 74.293 L 61.168 74.293 Z  M 56.819 72.32 C 55.824 72.075 55.501 71.166 56.035 70.109 C 56.701 68.789 58.128 68.804 58.832 70.14 C 59.257 70.947 59.16 71.215 58.471 71.146 C 57.851 71.083 57.648 71.172 57.951 71.373 C 58.171 71.519 58.454 71.773 58.508 71.875 C 58.679 72.193 57.531 72.495 56.819 72.32 L 56.819 72.32 Z  M 46.328 54.68 C 46.495 54.656 46.613 54.598 46.83 54.436 C 46.986 54.32 47.233 54.137 47.379 54.029 C 48.699 53.061 49.124 52.721 49.608 52.247 C 49.773 52.087 50.253 51.654 50.675 51.285 C 51.097 50.917 51.522 50.544 51.618 50.457 C 51.715 50.37 51.887 50.216 52.002 50.114 C 52.363 49.796 53.001 49.212 53.491 48.754 C 54.067 48.215 55.311 46.956 55.303 46.921 C 55.282 46.838 54.915 46.768 54.473 46.763 C 54.013 46.758 54.003 46.756 54.007 46.661 C 54.011 46.532 54.017 46.533 52.766 46.504 C 42.759 46.273 36.054 45.928 32.431 45.458 C 32.008 45.403 31.965 45.404 31.965 45.472 C 31.965 45.591 32.311 45.919 32.584 46.059 C 32.927 46.237 32.933 46.314 32.605 46.374 C 32.253 46.438 32.264 46.396 32.402 47.169 C 32.955 50.266 33.769 50.967 35.487 49.827 C 36.475 49.171 42.806 48.492 46.984 48.593 C 47.701 48.611 48.196 48.603 48.435 48.572 C 48.634 48.545 48.907 48.513 49.041 48.501 C 49.175 48.489 49.307 48.451 49.334 48.418 C 49.362 48.385 49.457 48.358 49.547 48.358 C 49.636 48.358 49.764 48.336 49.83 48.309 C 50.282 48.123 53.726 48.051 53.726 48.228 C 53.726 48.259 53.549 48.428 53.138 48.789 C 53.041 48.873 52.544 49.257 52.032 49.642 C 51.256 50.225 50.738 50.628 50.504 50.829 C 50.481 50.849 50.224 51.118 49.934 51.427 C 48.741 52.697 47.495 53.571 46.423 53.889 C 46.274 53.934 46.213 53.977 46.179 54.065 C 46.121 54.213 45.935 54.544 45.877 54.603 C 45.78 54.7 45.827 54.769 45.971 54.74 C 46.047 54.724 46.208 54.697 46.328 54.68 L 46.328 54.68 Z  M 48.371 54.289 C 48.387 54.263 48.711 54.246 49.199 54.246 C 50.145 54.246 50.91 54.205 50.91 54.154 C 50.91 54.134 50.882 54.118 50.849 54.118 C 50.667 54.118 50.61 53.906 50.725 53.655 C 50.867 53.344 51 53.195 52.453 51.707 C 53.027 51.121 53.574 50.545 53.669 50.427 C 54.489 49.412 55.151 48.446 55.077 48.372 C 55.045 48.34 54.415 48.929 54.318 49.081 C 54.281 49.141 54.098 49.34 53.913 49.523 C 53.55 49.882 53.529 49.905 52.849 50.705 C 52.599 50.998 52.34 51.296 52.274 51.366 C 52.207 51.436 52.058 51.6 51.942 51.729 C 51.561 52.153 50.86 52.832 50.547 53.079 C 49.844 53.636 48.757 54.185 48.414 54.157 C 48.298 54.148 48.051 54.207 48.051 54.244 C 48.051 54.334 48.32 54.372 48.371 54.289 L 48.371 54.289 Z  M 58.158 54.121 C 58.212 54.039 58.258 54.033 58.798 54.032 C 59.59 54.031 60.014 53.866 59.72 53.674 C 59.66 53.634 59.614 53.563 59.614 53.509 C 59.612 53.178 59.368 52.905 59.233 53.083 C 58.84 53.601 58.766 53.677 58.568 53.777 C 57.281 54.422 56.517 52.939 57.161 51.045 C 57.715 49.412 57.76 49.264 57.891 48.614 C 57.954 48.299 57.896 47.68 57.801 47.664 C 57.6 47.63 56.675 50.561 56.288 52.454 C 56.121 53.269 56.118 53.278 55.893 53.42 C 55.104 53.92 54.787 53.689 55.036 52.795 C 55.114 52.516 55.364 51.823 55.479 51.569 C 55.524 51.47 55.561 51.377 55.561 51.364 C 55.561 51.351 55.6 51.25 55.648 51.14 C 56.21 49.857 56.342 49.389 56.158 49.336 C 55.627 49.183 54.898 49.59 54.58 50.218 C 54.545 50.286 54.474 50.413 54.421 50.5 C 54.3 50.698 54.091 51.086 53.735 51.771 C 53.25 52.705 53.143 52.883 52.816 53.302 C 52.469 53.746 52.108 53.963 51.528 54.077 C 51.114 54.158 51.121 54.179 51.571 54.209 C 52.741 54.284 58.097 54.213 58.158 54.121 L 58.158 54.121 Z  M 53.351 53.903 C 53.168 53.829 53.074 53.448 53.176 53.192 C 53.377 52.687 53.648 52.266 54.583 51.003 C 54.783 50.733 55.019 50.402 55.108 50.267 C 55.583 49.548 55.654 50.82 55.198 51.878 C 54.711 53.009 53.912 53.975 53.487 53.945 C 53.466 53.943 53.404 53.924 53.351 53.903 Z  M 64.682 53.731 C 64.92 53.704 65.126 53.659 65.164 53.624 C 65.211 53.582 65.339 53.563 65.578 53.563 C 65.768 53.563 65.936 53.544 65.95 53.521 C 65.965 53.497 66.012 53.478 66.054 53.478 C 66.126 53.478 66.209 53.317 66.162 53.27 C 66.151 53.26 66.042 53.274 65.918 53.301 C 65.7 53.35 65.513 53.379 65.118 53.424 C 64.594 53.485 63.133 53.444 62.731 53.358 C 62.589 53.327 62.581 53.315 62.536 53.066 C 62.455 52.616 62.216 52.404 61.911 52.511 C 61.609 52.617 61.592 52.673 61.832 52.769 C 62.006 52.839 62.174 52.976 62.174 53.05 C 62.174 53.128 61.909 53.393 61.831 53.393 C 61.788 53.393 61.742 53.41 61.729 53.431 C 61.7 53.478 61.198 53.633 60.947 53.673 C 60.476 53.749 60.904 53.777 62.517 53.777 C 63.485 53.777 64.453 53.756 64.682 53.731 L 64.682 53.731 Z  M 67.455 51.41 C 67.685 51.371 67.934 51.151 67.934 50.986 C 67.934 50.863 67.837 50.798 67.752 50.864 C 67.7 50.906 67.372 50.992 67.252 50.996 C 67.216 50.998 67.107 51.012 67.008 51.028 C 66.353 51.133 64.532 50.556 63.681 49.973 C 63.583 49.906 63.492 49.851 63.478 49.851 C 63.438 49.851 63.017 49.552 62.889 49.433 C 62.447 49.022 63.273 48.982 64.35 49.362 C 65.031 49.603 65.121 49.637 65.304 49.732 C 65.586 49.878 65.619 49.892 65.92 49.998 C 66.613 50.244 66.671 50.185 66.121 49.794 C 65.301 49.212 64.43 48.852 64.103 48.959 C 63.748 49.076 62.939 48.865 62.174 48.456 C 60.804 47.724 60.286 47.591 60.753 48.092 C 61.379 48.764 62.191 49.513 62.703 49.891 C 63.022 50.126 63.456 50.423 63.539 50.462 C 63.575 50.479 63.69 50.543 63.795 50.604 C 64.042 50.747 64.856 51.113 65.065 51.174 C 65.472 51.294 65.676 51.342 65.89 51.369 C 66.017 51.385 66.144 51.411 66.173 51.426 C 66.242 51.462 67.221 51.45 67.455 51.41 L 67.455 51.41 Z  M 62.43 45.129 C 62.536 45.12 62.708 45.104 62.814 45.093 C 63.019 45.073 63.653 44.944 64.073 44.839 C 64.214 44.803 64.818 44.707 65.417 44.626 C 67.629 44.323 68.284 44.076 68.834 43.338 C 69.074 43.015 69.075 42.973 68.853 42.543 C 68.408 41.681 68.875 41.415 69.918 41.937 C 70.284 42.12 70.281 42.12 70.281 41.939 C 70.281 41.775 70.248 41.744 70.028 41.699 C 68.829 41.453 68.275 40.547 68.905 39.861 C 69.018 39.737 69.009 39.602 68.848 39.024 C 68.777 38.77 68.736 38.755 68.529 38.911 C 68.448 38.972 68.299 39.059 68.197 39.103 C 68.013 39.184 68.013 39.184 68.202 39.373 C 68.804 39.976 68.042 40.721 66.74 40.804 C 65.886 40.859 65.812 40.885 66.198 40.997 C 66.851 41.187 66.948 41.593 66.405 41.857 C 65.899 42.103 65.921 42.122 66.551 41.978 C 67.56 41.748 68.336 41.782 68.433 42.06 C 68.702 42.826 68.178 43.61 67.124 44.02 C 66.871 44.118 66.72 44.164 66.206 44.299 C 65.946 44.367 65.196 44.482 65.171 44.457 C 65.159 44.445 65.118 44.453 65.079 44.473 C 65.04 44.494 64.855 44.524 64.668 44.54 C 63.576 44.63 62.999 44.706 61.78 44.921 C 61.106 45.04 61.022 45.062 61.022 45.118 C 61.022 45.16 61.859 45.197 62.089 45.166 C 62.171 45.154 62.324 45.138 62.43 45.129 L 62.43 45.129 Z  M 66.071 39.065 C 66.239 38.952 66.598 38.714 66.868 38.535 C 67.721 37.971 68.302 37.363 68.423 36.908 C 68.455 36.787 68.493 36.657 68.509 36.619 C 68.556 36.502 68.399 36.079 68.343 36.171 C 68.085 36.596 67.891 36.84 67.509 37.217 C 66.874 37.844 66.643 38.061 66.566 38.103 C 66.439 38.171 65.751 38.95 65.691 39.094 C 65.572 39.377 65.61 39.374 66.071 39.065 L 66.071 39.065 Z  M 35.635 42.22 C 35.635 42.176 35.699 42.056 35.778 41.953 C 35.975 41.694 36.061 41.515 36.061 41.365 C 36.061 41.198 36.004 41.22 37.026 41.001 C 39.313 40.513 40.292 40.387 42.042 40.358 C 51.275 40.205 53.984 40.12 56.919 39.893 C 57.665 39.835 57.664 39.835 57.869 40.158 C 58.312 40.857 57.057 41.316 55.113 41.167 C 54.925 41.153 54.032 41.136 53.128 41.129 C 51.486 41.116 51.486 41.116 50.594 40.937 C 49.292 40.675 48.91 40.69 48.535 41.019 C 48.359 41.173 48.416 41.173 47.994 41.024 C 46.929 40.649 45.611 40.626 43.486 40.946 C 42.77 41.053 41.935 41.163 41.629 41.188 C 40.044 41.323 38.558 41.598 36.651 42.108 C 35.858 42.321 35.635 42.345 35.635 42.22 Z " fill="rgb(243,215,29)"/><path d=" M 52.147 89.953 C 47.176 89.74 43.72 89.079 40.961 87.813 C 40.559 87.629 40.619 87.752 40.185 86.224 C 39.428 83.562 38.854 81.15 38.238 78.055 C 37.926 76.486 37.779 75.83 37.058 72.764 C 35.765 67.262 35.273 64.733 34.991 62.118 C 34.919 61.456 35.048 60.551 35.251 60.293 C 35.37 60.141 35.373 59.752 35.254 59.721 C 35.185 59.703 35.168 59.644 35.142 59.34 C 35.121 59.088 35.089 58.95 35.032 58.879 C 34.978 58.81 34.952 58.708 34.952 58.562 C 34.952 58.444 34.933 58.335 34.909 58.321 C 34.884 58.305 34.867 58.015 34.867 57.596 C 34.867 57.176 34.85 56.886 34.824 56.87 C 34.8 56.856 34.781 56.882 34.781 56.929 C 34.781 57.455 34.403 56.497 34.183 55.413 C 33.618 52.63 32.69 49.865 32.903 51.599 C 32.978 52.209 33.117 52.809 33.514 54.246 C 33.981 55.935 34.193 57.13 34.098 57.532 C 33.963 58.107 33.086 54.656 32.581 51.558 C 32.453 50.772 32.26 49.591 32.153 48.934 C 31.914 47.466 31.691 46.363 31.387 45.139 C 31.083 43.915 31.091 43.716 31.47 43.234 C 32.249 42.241 34.538 41.469 34.785 42.116 C 34.954 42.559 34.455 42.866 33.096 43.153 C 31.918 43.402 31.809 43.581 32.449 44.212 C 33.088 44.843 36.795 45.407 41.181 45.541 C 48.95 45.777 53.875 45.84 55.262 45.719 C 55.602 45.689 56.086 45.654 56.337 45.64 C 56.793 45.615 56.793 45.615 56.773 45.504 C 56.757 45.42 56.793 45.341 56.923 45.179 C 57.016 45.062 57.156 44.879 57.234 44.774 C 57.513 44.392 57.961 44.273 58.143 44.532 C 58.263 44.703 58.207 44.752 58.075 44.592 C 57.865 44.337 57.547 44.439 57.246 44.857 C 57.176 44.955 57.056 45.113 56.979 45.207 C 56.682 45.575 56.952 45.836 57.474 45.686 C 57.843 45.579 58.163 45.202 58.163 44.873 C 58.163 44.795 58.177 44.771 58.206 44.8 C 58.328 44.921 58.029 45.477 57.77 45.611 C 57.595 45.701 57.645 45.729 58.049 45.765 C 58.241 45.783 58.508 45.808 58.642 45.823 C 59.049 45.865 59.359 45.719 59.188 45.564 C 58.812 45.223 59.52 44.536 60.617 44.178 C 60.781 44.125 60.934 44.064 60.956 44.043 C 60.978 44.023 61.027 44.006 61.064 44.006 C 61.204 44.006 61.604 43.696 62.048 43.244 C 62.501 42.782 62.71 42.607 62.754 42.652 C 62.767 42.664 62.704 42.729 62.614 42.795 C 61.952 43.283 61.924 43.471 62.564 43.139 C 63.493 42.656 63.88 42.557 63.579 42.879 C 63.193 43.292 61.916 43.902 61.761 43.747 C 61.729 43.714 61.648 43.744 61.482 43.851 C 61.354 43.933 61.058 44.067 60.826 44.148 C 60.028 44.428 59.821 44.544 59.359 44.972 C 57.881 46.34 65.819 45.771 70.18 44.196 C 70.912 43.931 71.051 43.774 70.993 43.279 C 70.892 42.428 69.227 41.367 68.768 41.861 C 68.659 41.979 68.614 41.947 68.713 41.821 C 68.883 41.606 69.344 41.65 69.918 41.937 C 70.284 42.12 70.281 42.12 70.281 41.938 C 70.281 41.779 70.199 41.704 70.017 41.699 C 69.921 41.696 69.54 41.541 69.613 41.534 C 69.633 41.533 69.755 41.562 69.885 41.6 C 70.808 41.868 71.15 41.405 70.707 40.489 C 70.661 40.393 70.528 39.941 70.412 39.483 C 69.804 37.082 68.569 34.491 68.033 34.491 C 67.906 34.491 67.909 34.497 67.697 33.68 C 67.334 32.278 67.066 31.762 66.549 31.468 C 65.424 30.828 65.149 29.665 66.227 30.11 C 68.542 31.063 70.9 33.981 72.622 38.019 C 73.848 40.894 74.17 45.771 73.375 49.425 C 72.818 51.986 72.438 55.917 72.031 63.356 C 71.771 68.092 71.623 70.229 71.409 72.316 C 71.351 72.879 71.275 73.724 71.241 74.193 C 71.067 76.55 70.805 78.738 70.36 81.554 C 70.208 82.516 70.186 82.742 70.175 83.516 C 70.131 86.434 69.061 88.091 67.033 88.383 C 66.836 88.411 66.426 88.508 66.121 88.597 C 63.648 89.323 61.01 89.708 57.395 89.871 C 54.464 90.002 53.616 90.016 52.147 89.953 L 52.147 89.953 Z  M 42.077 85.54 C 41.551 83.393 41.243 82.374 40.873 81.554 C 40.476 80.675 40.386 80.558 40.435 80.988 C 40.66 82.964 41.203 84.796 42.085 86.563 C 42.551 87.495 42.551 87.47 42.077 85.54 L 42.077 85.54 Z  M 41.155 86.962 C 41.308 86.388 41.063 85.183 40.347 82.999 C 39.939 81.753 39.638 80.67 39.582 80.242 C 39.545 79.961 39.506 79.937 39.346 80.097 C 39.09 80.353 39.168 80.883 39.745 82.822 C 39.9 83.344 40.049 83.939 40.076 84.145 C 40.234 85.354 41.029 87.43 41.155 86.962 Z  M 55.622 80.607 C 56.401 80.092 56.299 78.589 55.453 78.109 C 54.691 77.678 54.282 78.618 54.605 80.057 C 54.75 80.702 55.151 80.919 55.622 80.607 Z  M 53.327 80.494 C 53.908 80.196 54.101 79.203 53.737 78.384 C 53.378 77.576 52.659 77.985 52.529 79.071 C 52.51 79.228 52.466 79.54 52.431 79.766 C 52.304 80.573 52.64 80.846 53.327 80.494 Z  M 39.2 79.009 C 39.293 78.264 39.1 77.187 38.476 74.969 C 38.298 74.34 38.094 73.524 38.022 73.156 C 37.785 71.952 37.426 71.366 37.599 72.465 C 37.683 72.999 38.158 75.435 38.261 75.857 C 38.317 76.092 38.413 76.684 38.474 77.173 C 38.625 78.39 38.757 78.872 39.017 79.153 C 39.146 79.293 39.167 79.276 39.2 79.009 Z  M 49.075 74.892 C 52.325 74.147 53.373 70.082 50.808 68.171 C 49.154 66.939 48.118 66.849 45.534 67.715 C 45.006 67.892 44.53 68.064 44.477 68.098 C 44.289 68.216 43.998 68.636 43.998 68.789 C 43.998 68.868 43.922 69.119 43.83 69.348 C 42.609 72.376 45.717 75.661 49.075 74.892 Z  M 44.958 72.566 C 43.679 72.375 43.403 71.286 44.382 70.292 C 45.093 69.57 45.921 69.508 46.529 70.13 C 47.731 71.362 46.779 72.838 44.958 72.566 Z  M 61.168 74.293 C 63.401 73.918 64.801 71.352 63.88 69.321 C 61.725 64.567 53.983 66.851 55.681 71.74 C 56.406 73.831 58.401 74.758 61.168 74.293 L 61.168 74.293 Z  M 56.819 72.32 C 55.824 72.075 55.501 71.166 56.035 70.109 C 56.701 68.789 58.128 68.804 58.832 70.14 C 59.257 70.947 59.16 71.215 58.471 71.146 C 57.851 71.083 57.648 71.172 57.951 71.373 C 58.171 71.519 58.454 71.773 58.508 71.875 C 58.679 72.193 57.531 72.495 56.819 72.32 L 56.819 72.32 Z  M 46.329 54.68 C 46.497 54.655 46.613 54.599 46.829 54.436 C 46.984 54.32 47.221 54.144 47.357 54.045 C 48.101 53.502 48.742 53.015 48.968 52.819 C 49.262 52.565 49.331 52.518 49.331 52.574 C 49.331 52.596 49.221 52.704 49.086 52.814 C 48.951 52.923 48.807 53.041 48.766 53.074 C 48.653 53.167 47.853 53.763 47.394 54.096 C 46.903 54.453 46.897 54.472 47.294 54.444 C 47.855 54.404 47.972 54.376 47.943 54.284 C 47.914 54.192 48.088 54.102 48.24 54.131 C 48.309 54.144 48.298 54.155 48.188 54.181 C 48.111 54.2 48.055 54.236 48.063 54.262 C 48.085 54.327 48.306 54.349 48.363 54.292 C 48.393 54.263 48.693 54.246 49.205 54.246 C 50.145 54.246 50.91 54.205 50.91 54.154 C 50.91 54.134 50.882 54.118 50.849 54.118 C 50.78 54.118 50.654 54.005 50.654 53.944 C 50.654 53.923 50.692 53.943 50.739 53.99 C 50.8 54.051 50.881 54.075 51.021 54.075 C 51.171 54.075 51.212 54.089 51.195 54.135 C 51.132 54.298 58.048 54.282 58.158 54.119 C 58.212 54.04 58.262 54.033 58.798 54.032 C 59.59 54.031 60.014 53.866 59.72 53.674 C 59.66 53.634 59.614 53.563 59.614 53.509 C 59.613 53.457 59.566 53.313 59.509 53.19 C 59.451 53.067 59.422 52.966 59.443 52.966 C 59.498 52.966 59.53 53.03 59.636 53.345 C 59.728 53.618 59.736 53.627 59.918 53.674 C 60.1 53.72 60.101 53.722 59.977 53.743 C 59.906 53.754 60.021 53.764 60.233 53.765 C 60.502 53.765 60.572 53.756 60.467 53.734 C 60.385 53.717 60.331 53.7 60.347 53.697 C 60.363 53.694 60.525 53.671 60.708 53.645 C 61.284 53.565 61.697 53.413 61.713 53.274 C 61.725 53.169 61.743 53.158 61.896 53.158 C 62.194 53.158 62.12 52.872 61.807 52.813 C 61.652 52.784 61.554 52.697 61.597 52.626 C 61.639 52.558 61.875 52.446 61.932 52.468 C 61.96 52.479 61.945 52.499 61.897 52.516 C 61.629 52.608 61.61 52.68 61.83 52.768 C 62.006 52.838 62.174 52.976 62.174 53.05 C 62.174 53.128 61.909 53.393 61.831 53.393 C 61.788 53.393 61.742 53.41 61.729 53.431 C 61.7 53.478 61.198 53.633 60.947 53.673 C 60.476 53.749 60.904 53.777 62.517 53.777 C 64.3 53.777 65.042 53.734 65.164 53.624 C 65.211 53.582 65.339 53.563 65.578 53.563 C 65.768 53.563 65.936 53.544 65.95 53.521 C 65.965 53.497 66.012 53.478 66.054 53.478 C 66.126 53.478 66.209 53.317 66.162 53.27 C 66.151 53.26 66.042 53.272 65.918 53.298 C 65.469 53.392 65.417 53.399 65.417 53.363 C 65.417 53.342 65.554 53.301 65.721 53.27 C 67.211 52.994 68.353 52.16 68.832 50.999 C 68.898 50.838 69.091 50.451 69.261 50.14 C 70.297 48.236 70.903 46.591 70.748 46.098 C 70.729 46.038 70.703 45.921 70.689 45.837 C 70.641 45.547 70.617 45.537 70.11 45.605 C 67.843 45.907 63.438 46.358 60.745 46.564 C 58.853 46.708 56.281 46.864 55.762 46.864 C 55.558 46.865 55.558 46.865 54.803 47.588 C 53.859 48.493 53.78 48.497 54.682 47.594 C 55.053 47.222 55.34 46.908 55.32 46.897 C 55.182 46.816 54.671 46.736 54.359 46.746 C 54.013 46.758 54.003 46.755 54.007 46.661 C 54.011 46.532 54.017 46.533 52.766 46.504 C 42.759 46.273 36.054 45.928 32.431 45.458 C 32.008 45.403 31.965 45.404 31.965 45.472 C 31.965 45.591 32.311 45.919 32.584 46.059 C 32.927 46.237 32.933 46.314 32.605 46.374 C 32.253 46.438 32.264 46.396 32.402 47.169 C 32.955 50.266 33.769 50.967 35.487 49.827 C 36.475 49.171 42.806 48.492 46.984 48.593 C 47.701 48.611 48.196 48.603 48.435 48.572 C 48.634 48.545 48.907 48.513 49.041 48.501 C 49.175 48.489 49.307 48.451 49.334 48.418 C 49.362 48.385 49.457 48.358 49.547 48.358 C 49.636 48.358 49.764 48.336 49.83 48.309 C 50.282 48.123 53.726 48.051 53.726 48.228 C 53.726 48.259 53.549 48.428 53.138 48.789 C 53.041 48.873 52.544 49.257 52.032 49.642 C 51.256 50.225 50.738 50.628 50.504 50.829 C 50.481 50.849 50.224 51.118 49.934 51.427 C 48.741 52.697 47.495 53.571 46.423 53.889 C 46.274 53.934 46.213 53.977 46.179 54.065 C 46.121 54.213 45.935 54.544 45.877 54.603 C 45.78 54.7 45.827 54.769 45.971 54.74 C 46.047 54.724 46.208 54.697 46.329 54.68 L 46.329 54.68 Z  M 35.635 42.22 C 35.635 42.176 35.699 42.056 35.778 41.953 C 35.975 41.694 36.061 41.515 36.061 41.365 C 36.061 41.198 36.004 41.22 37.026 41.001 C 39.313 40.513 40.292 40.387 42.042 40.358 C 51.275 40.205 53.984 40.12 56.919 39.893 C 57.665 39.835 57.664 39.835 57.869 40.158 C 58.312 40.857 57.057 41.316 55.113 41.167 C 54.925 41.153 54.032 41.136 53.128 41.129 C 51.486 41.116 51.486 41.116 50.594 40.937 C 49.292 40.675 48.91 40.69 48.535 41.019 C 48.359 41.173 48.416 41.173 47.994 41.024 C 46.929 40.649 45.611 40.626 43.486 40.946 C 42.77 41.053 41.935 41.163 41.629 41.188 C 40.044 41.323 38.558 41.598 36.651 42.108 C 35.858 42.321 35.635 42.345 35.635 42.22 Z " fill="rgb(213,173,45)"/><path d=" M 52.147 89.953 C 47.176 89.74 43.72 89.079 40.961 87.813 C 40.559 87.629 40.619 87.752 40.185 86.224 C 39.428 83.562 38.854 81.15 38.238 78.055 C 37.926 76.486 37.779 75.83 37.058 72.764 C 35.765 67.262 35.273 64.733 34.991 62.118 C 34.919 61.456 35.048 60.551 35.251 60.293 C 35.37 60.141 35.373 59.752 35.254 59.721 C 35.185 59.703 35.168 59.644 35.142 59.34 C 35.121 59.088 35.089 58.95 35.032 58.879 C 34.978 58.81 34.952 58.708 34.952 58.562 C 34.952 58.444 34.933 58.335 34.909 58.321 C 34.884 58.305 34.867 58.015 34.867 57.596 C 34.867 57.176 34.85 56.886 34.824 56.87 C 34.8 56.856 34.781 56.882 34.781 56.929 C 34.781 57.455 34.403 56.497 34.183 55.413 C 33.618 52.63 32.69 49.865 32.903 51.599 C 32.978 52.209 33.117 52.809 33.514 54.246 C 33.981 55.935 34.193 57.13 34.098 57.532 C 33.963 58.107 33.086 54.656 32.581 51.558 C 32.453 50.772 32.26 49.591 32.153 48.934 C 31.914 47.466 31.691 46.363 31.387 45.139 C 31.083 43.915 31.091 43.716 31.47 43.234 C 32.249 42.241 34.538 41.469 34.785 42.116 C 34.954 42.559 34.455 42.866 33.096 43.153 C 31.918 43.402 31.809 43.581 32.449 44.212 C 33.088 44.843 36.795 45.407 41.181 45.541 C 48.944 45.777 53.873 45.84 55.262 45.719 C 56.634 45.6 56.717 45.601 56.946 45.735 C 57.151 45.855 57.151 45.855 57.412 45.791 C 57.673 45.726 57.735 45.727 58.645 45.823 C 58.844 45.844 58.939 45.83 59.123 45.755 C 59.328 45.672 59.372 45.668 59.516 45.716 C 59.815 45.815 62.664 45.786 63.667 45.674 C 66.458 45.361 69.762 44.599 70.86 44.015 C 70.99 43.946 71.839 43.74 72.393 43.643 C 72.925 43.55 73.268 43.468 73.524 43.374 C 73.758 43.287 73.758 43.287 73.786 43.657 C 73.909 45.303 73.725 47.96 73.395 49.318 C 73.309 49.674 73.207 50.243 73.055 51.217 C 73.006 51.534 72.945 51.835 72.919 51.886 C 72.893 51.937 72.884 52.024 72.898 52.078 C 72.912 52.132 72.877 52.561 72.819 53.03 C 72.515 55.5 72.324 58.005 72.031 63.356 C 71.771 68.092 71.623 70.229 71.409 72.316 C 71.351 72.879 71.275 73.724 71.241 74.193 C 71.067 76.55 70.805 78.738 70.36 81.554 C 70.208 82.516 70.186 82.742 70.175 83.516 C 70.131 86.434 69.061 88.091 67.033 88.383 C 66.836 88.411 66.426 88.508 66.121 88.597 C 63.648 89.323 61.01 89.708 57.395 89.871 C 54.464 90.002 53.616 90.016 52.147 89.953 L 52.147 89.953 Z  M 42.077 85.54 C 41.551 83.393 41.243 82.374 40.873 81.554 C 40.476 80.675 40.386 80.558 40.435 80.988 C 40.66 82.964 41.203 84.796 42.085 86.563 C 42.551 87.495 42.551 87.47 42.077 85.54 L 42.077 85.54 Z  M 41.155 86.962 C 41.308 86.388 41.063 85.183 40.347 82.999 C 39.939 81.753 39.638 80.67 39.582 80.242 C 39.545 79.961 39.506 79.937 39.346 80.097 C 39.09 80.353 39.168 80.883 39.745 82.822 C 39.9 83.344 40.049 83.939 40.076 84.145 C 40.234 85.354 41.029 87.43 41.155 86.962 Z  M 55.622 80.607 C 56.401 80.092 56.299 78.589 55.453 78.109 C 54.691 77.678 54.282 78.618 54.605 80.057 C 54.75 80.702 55.151 80.919 55.622 80.607 Z  M 53.327 80.494 C 53.908 80.196 54.101 79.203 53.737 78.384 C 53.378 77.576 52.659 77.985 52.529 79.071 C 52.51 79.228 52.466 79.54 52.431 79.766 C 52.304 80.573 52.64 80.846 53.327 80.494 Z  M 39.2 79.009 C 39.293 78.264 39.1 77.187 38.476 74.969 C 38.298 74.34 38.094 73.524 38.022 73.156 C 37.785 71.952 37.426 71.366 37.599 72.465 C 37.683 72.999 38.158 75.435 38.261 75.857 C 38.317 76.092 38.413 76.684 38.474 77.173 C 38.625 78.39 38.757 78.872 39.017 79.153 C 39.146 79.293 39.167 79.276 39.2 79.009 Z  M 52.03 77.628 C 52.465 77.394 52.908 77.287 53.445 77.287 C 53.857 77.287 54.168 77.33 55.347 77.547 C 56.786 77.813 57.632 77.613 57.532 77.031 C 57.306 75.712 56.635 75.423 54.576 75.755 C 53.375 75.949 52.505 75.958 52.016 75.782 C 51.63 75.643 51.653 75.644 51.367 75.751 C 50.33 76.139 50.376 77.374 51.439 77.711 C 51.582 77.757 51.702 77.795 51.706 77.796 C 51.711 77.798 51.856 77.722 52.03 77.628 L 52.03 77.628 Z  M 49.075 74.892 C 52.325 74.147 53.373 70.082 50.808 68.171 C 49.154 66.939 48.118 66.849 45.534 67.715 C 45.006 67.892 44.53 68.064 44.477 68.098 C 44.289 68.216 43.998 68.636 43.998 68.789 C 43.998 68.868 43.922 69.119 43.83 69.348 C 42.609 72.376 45.717 75.661 49.075 74.892 L 49.075 74.892 Z  M 44.958 72.566 C 43.679 72.375 43.403 71.286 44.382 70.292 C 45.093 69.57 45.921 69.508 46.529 70.13 C 47.731 71.362 46.779 72.838 44.958 72.566 Z  M 61.168 74.293 C 63.401 73.918 64.801 71.352 63.88 69.321 C 61.725 64.567 53.983 66.851 55.681 71.74 C 56.406 73.831 58.401 74.758 61.168 74.293 L 61.168 74.293 Z  M 56.819 72.32 C 55.824 72.075 55.501 71.166 56.035 70.109 C 56.701 68.789 58.128 68.804 58.832 70.14 C 59.257 70.947 59.16 71.215 58.471 71.146 C 57.851 71.083 57.648 71.172 57.951 71.373 C 58.171 71.519 58.454 71.773 58.508 71.875 C 58.679 72.193 57.531 72.495 56.819 72.32 L 56.819 72.32 Z  M 46.086 54.717 C 46.128 54.694 46.283 54.671 46.429 54.665 C 46.643 54.656 46.701 54.639 46.724 54.575 C 46.75 54.506 46.812 54.494 47.221 54.482 C 47.835 54.463 48.079 54.429 48.286 54.332 C 48.47 54.246 50.246 54.176 51.422 54.21 C 53.512 54.269 58.099 54.209 58.157 54.122 C 58.212 54.039 58.256 54.033 58.798 54.032 C 59.406 54.031 59.654 53.983 59.756 53.844 C 59.807 53.774 59.953 53.769 62.027 53.774 C 64.286 53.78 65.031 53.744 65.164 53.624 C 65.211 53.582 65.339 53.563 65.578 53.563 C 65.768 53.563 65.936 53.544 65.95 53.521 C 65.967 53.493 66.597 53.478 67.701 53.478 C 69.362 53.478 69.426 53.475 69.469 53.395 C 69.507 53.324 69.575 53.31 69.972 53.29 C 70.915 53.243 71.155 53.216 71.227 53.151 C 71.282 53.101 71.391 53.09 71.715 53.099 C 72.132 53.111 72.132 53.111 72.184 52.921 C 72.213 52.817 72.274 52.626 72.321 52.497 C 72.39 52.309 72.413 52.103 72.437 51.473 C 72.469 50.61 72.499 50.335 72.614 49.851 C 72.706 49.463 72.708 46.874 72.617 45.862 C 72.561 45.23 71.395 44.993 70.533 45.438 C 70.39 45.511 66.936 45.92 64.265 46.181 C 61.564 46.444 58.157 46.693 56.329 46.763 C 55.842 46.781 55.542 46.811 55.469 46.848 C 55.372 46.897 55.323 46.895 55.127 46.833 C 54.974 46.784 54.752 46.76 54.451 46.759 C 54.013 46.758 54.003 46.756 54.007 46.661 C 54.011 46.532 54.017 46.533 52.766 46.504 C 42.759 46.273 36.054 45.928 32.431 45.458 C 32.008 45.403 31.965 45.404 31.965 45.472 C 31.965 45.591 32.311 45.919 32.584 46.059 C 32.927 46.237 32.933 46.314 32.605 46.374 C 32.253 46.438 32.264 46.396 32.402 47.169 C 32.955 50.266 33.769 50.967 35.487 49.827 C 36.475 49.171 42.806 48.492 46.984 48.593 C 47.701 48.611 48.196 48.603 48.435 48.572 C 48.634 48.545 48.907 48.513 49.041 48.501 C 49.175 48.489 49.307 48.451 49.334 48.418 C 49.362 48.385 49.457 48.358 49.547 48.358 C 49.636 48.358 49.764 48.336 49.83 48.309 C 50.282 48.123 53.726 48.051 53.726 48.228 C 53.726 48.259 53.549 48.428 53.138 48.789 C 53.041 48.873 52.544 49.257 52.032 49.642 C 51.256 50.225 50.738 50.628 50.504 50.829 C 50.481 50.849 50.224 51.118 49.934 51.427 C 48.741 52.697 47.495 53.571 46.423 53.889 C 46.274 53.934 46.213 53.977 46.179 54.065 C 46.121 54.213 45.935 54.544 45.877 54.603 C 45.753 54.727 45.908 54.812 46.086 54.717 L 46.086 54.717 Z  M 35.635 42.22 C 35.635 42.176 35.699 42.056 35.778 41.953 C 35.975 41.694 36.061 41.515 36.061 41.365 C 36.061 41.198 36.004 41.22 37.026 41.001 C 39.313 40.513 40.292 40.387 42.042 40.358 C 51.275 40.205 53.984 40.12 56.919 39.893 C 57.665 39.835 57.664 39.835 57.869 40.158 C 58.312 40.857 57.057 41.316 55.113 41.167 C 54.925 41.153 54.032 41.136 53.128 41.129 C 51.486 41.116 51.486 41.116 50.594 40.937 C 49.292 40.675 48.91 40.69 48.535 41.019 C 48.359 41.173 48.416 41.173 47.994 41.024 C 46.929 40.649 45.611 40.626 43.486 40.946 C 42.77 41.053 41.935 41.163 41.629 41.188 C 40.044 41.323 38.558 41.598 36.651 42.108 C 35.858 42.321 35.635 42.345 35.635 42.22 Z " fill="rgb(40,168,221)"/><path d=" M 52.147 89.953 C 47.176 89.74 43.72 89.079 40.961 87.813 C 40.559 87.629 40.619 87.752 40.185 86.224 C 39.428 83.562 38.854 81.15 38.238 78.055 C 37.926 76.486 37.779 75.83 37.058 72.764 C 35.765 67.262 35.273 64.733 34.991 62.118 C 34.912 61.387 35.059 60.49 35.297 60.252 C 35.453 60.096 35.473 59.802 35.337 59.675 C 35.275 59.617 35.243 59.505 35.214 59.245 C 35.191 59.042 35.147 58.861 35.11 58.82 C 35.028 58.728 34.996 58.458 34.96 57.546 C 34.944 57.143 34.915 56.798 34.896 56.779 C 34.855 56.738 34.783 56.841 34.782 56.942 C 34.777 57.446 34.401 56.485 34.183 55.413 C 33.618 52.63 32.69 49.865 32.903 51.599 C 32.978 52.209 33.117 52.809 33.514 54.246 C 33.981 55.935 34.193 57.13 34.098 57.532 C 33.963 58.107 33.086 54.656 32.581 51.558 C 32.453 50.772 32.26 49.591 32.153 48.934 C 31.914 47.466 31.691 46.363 31.387 45.139 C 31.083 43.915 31.091 43.716 31.47 43.234 C 32.249 42.241 34.538 41.469 34.785 42.116 C 34.954 42.559 34.455 42.866 33.096 43.153 C 31.918 43.402 31.809 43.581 32.449 44.212 C 33.088 44.843 36.795 45.407 41.181 45.541 C 48.944 45.777 53.873 45.84 55.262 45.719 C 56.634 45.6 56.717 45.601 56.946 45.735 C 57.151 45.855 57.151 45.855 57.412 45.791 C 57.673 45.726 57.735 45.727 58.645 45.823 C 58.844 45.844 58.939 45.83 59.123 45.755 C 59.328 45.672 59.372 45.668 59.516 45.716 C 59.815 45.815 62.664 45.786 63.667 45.674 C 66.458 45.361 69.762 44.599 70.86 44.015 C 70.99 43.946 71.839 43.74 72.393 43.643 C 72.925 43.55 73.268 43.468 73.524 43.374 C 73.758 43.287 73.758 43.287 73.786 43.657 C 73.909 45.303 73.725 47.96 73.395 49.318 C 73.309 49.674 73.207 50.243 73.055 51.217 C 73.006 51.534 72.945 51.835 72.919 51.886 C 72.893 51.937 72.884 52.024 72.898 52.078 C 72.912 52.132 72.877 52.561 72.819 53.03 C 72.515 55.5 72.324 58.005 72.031 63.356 C 71.771 68.092 71.623 70.229 71.409 72.316 C 71.351 72.879 71.275 73.724 71.241 74.193 C 71.067 76.55 70.805 78.738 70.36 81.554 C 70.208 82.516 70.186 82.742 70.175 83.516 C 70.131 86.434 69.061 88.091 67.033 88.383 C 66.836 88.411 66.426 88.508 66.121 88.597 C 63.648 89.323 61.01 89.708 57.395 89.871 C 54.464 90.002 53.616 90.016 52.147 89.953 L 52.147 89.953 Z  M 42.077 85.54 C 41.551 83.393 41.243 82.374 40.873 81.554 C 40.476 80.675 40.386 80.558 40.435 80.988 C 40.66 82.964 41.203 84.796 42.085 86.563 C 42.551 87.495 42.551 87.47 42.077 85.54 L 42.077 85.54 Z  M 41.155 86.962 C 41.308 86.388 41.063 85.183 40.347 82.999 C 39.939 81.753 39.638 80.67 39.582 80.242 C 39.545 79.961 39.506 79.937 39.346 80.097 C 39.09 80.353 39.168 80.883 39.745 82.822 C 39.9 83.344 40.049 83.939 40.076 84.145 C 40.234 85.354 41.029 87.43 41.155 86.962 Z  M 55.622 80.607 C 56.401 80.092 56.299 78.589 55.453 78.109 C 54.691 77.678 54.282 78.618 54.605 80.057 C 54.75 80.702 55.151 80.919 55.622 80.607 Z  M 53.327 80.494 C 53.908 80.196 54.101 79.203 53.737 78.384 C 53.378 77.576 52.659 77.985 52.529 79.071 C 52.51 79.228 52.466 79.54 52.431 79.766 C 52.304 80.573 52.64 80.846 53.327 80.494 Z  M 39.2 79.009 C 39.293 78.264 39.1 77.187 38.476 74.969 C 38.298 74.34 38.094 73.524 38.022 73.156 C 37.785 71.952 37.426 71.366 37.599 72.465 C 37.683 72.999 38.158 75.435 38.261 75.857 C 38.317 76.092 38.413 76.684 38.474 77.173 C 38.625 78.39 38.757 78.872 39.017 79.153 C 39.146 79.293 39.167 79.276 39.2 79.009 Z  M 52.03 77.628 C 52.465 77.394 52.908 77.287 53.445 77.287 C 53.857 77.287 54.168 77.33 55.347 77.547 C 56.786 77.813 57.632 77.613 57.532 77.031 C 57.306 75.712 56.635 75.423 54.576 75.755 C 53.375 75.949 52.505 75.958 52.016 75.782 C 51.63 75.643 51.653 75.644 51.367 75.751 C 50.33 76.139 50.376 77.374 51.439 77.711 C 51.582 77.757 51.702 77.795 51.706 77.796 C 51.711 77.798 51.856 77.722 52.03 77.628 L 52.03 77.628 Z  M 49.075 74.892 C 52.325 74.147 53.373 70.082 50.808 68.171 C 49.112 66.908 48.031 66.836 45.268 67.804 C 44.689 68.007 44.413 68.085 44.383 68.055 C 44.353 68.024 44.339 68.034 44.339 68.085 C 44.339 68.125 44.312 68.169 44.278 68.182 C 44.152 68.23 44.009 68.514 44.001 68.732 C 43.996 68.864 43.93 69.1 43.828 69.354 C 42.609 72.376 45.721 75.66 49.075 74.892 L 49.075 74.892 Z  M 44.958 72.566 C 43.679 72.375 43.403 71.286 44.382 70.292 C 45.093 69.57 45.921 69.508 46.529 70.13 C 47.731 71.362 46.779 72.838 44.958 72.566 Z  M 61.168 74.293 C 63.401 73.918 64.801 71.352 63.88 69.321 C 61.725 64.567 53.983 66.851 55.681 71.74 C 56.406 73.831 58.401 74.758 61.168 74.293 L 61.168 74.293 Z  M 56.819 72.32 C 55.824 72.075 55.501 71.166 56.035 70.109 C 56.701 68.789 58.128 68.804 58.832 70.14 C 59.257 70.947 59.16 71.215 58.471 71.146 C 57.851 71.083 57.648 71.172 57.951 71.373 C 58.171 71.519 58.454 71.773 58.508 71.875 C 58.679 72.193 57.531 72.495 56.819 72.32 L 56.819 72.32 Z  M 54.336 57.721 C 54.368 57.611 54.353 57.557 54.243 57.384 C 53.405 56.062 54.34 54.224 55.665 54.592 C 56.207 54.742 56.208 55.042 55.675 56.208 C 55.171 57.31 55.209 57.51 55.926 57.51 C 56.433 57.51 56.409 57.545 56.457 56.716 C 56.579 54.585 57.221 53.866 58.59 54.329 C 58.945 54.449 58.951 54.457 59.058 54.88 C 59.47 56.504 60.031 56.965 61.513 56.896 C 62.564 56.847 62.798 56.624 63.2 55.288 C 63.543 54.151 63.78 53.872 64.489 53.775 C 64.659 53.752 64.885 53.715 64.99 53.693 C 65.438 53.599 65.882 53.665 65.998 53.843 C 66.097 53.994 66.155 53.926 66.132 53.686 C 66.112 53.478 66.112 53.478 67.768 53.478 C 69.363 53.478 69.426 53.475 69.469 53.395 C 69.507 53.324 69.575 53.31 69.972 53.29 C 70.915 53.243 71.155 53.216 71.227 53.151 C 71.282 53.101 71.391 53.09 71.715 53.099 C 72.132 53.111 72.132 53.111 72.184 52.921 C 72.213 52.817 72.274 52.626 72.321 52.497 C 72.39 52.309 72.413 52.103 72.437 51.473 C 72.469 50.61 72.499 50.335 72.614 49.851 C 72.706 49.463 72.708 46.874 72.617 45.862 C 72.561 45.23 71.395 44.993 70.533 45.438 C 70.39 45.511 66.936 45.92 64.265 46.181 C 61.564 46.444 58.157 46.693 56.329 46.763 C 55.842 46.781 55.542 46.811 55.469 46.848 C 55.372 46.897 55.323 46.895 55.127 46.833 C 54.974 46.784 54.752 46.76 54.451 46.759 C 54.013 46.758 54.003 46.756 54.007 46.661 C 54.011 46.532 54.017 46.533 52.766 46.504 C 42.759 46.273 36.054 45.928 32.431 45.458 C 32.008 45.403 31.965 45.404 31.965 45.472 C 31.965 45.591 32.311 45.919 32.584 46.059 C 32.927 46.237 32.933 46.314 32.605 46.374 C 32.253 46.438 32.264 46.396 32.402 47.169 C 32.955 50.266 33.769 50.967 35.487 49.827 C 36.305 49.284 39.606 48.84 44.344 48.635 C 48.122 48.472 47.274 48.712 42.312 49.211 C 39.868 49.456 38.719 49.615 37.533 49.871 C 37.275 49.926 36.929 49.982 36.764 49.994 C 35.329 50.098 33.959 51.827 34.679 52.624 C 34.892 52.86 35.2 52.966 35.789 53.007 C 36.051 53.025 36.282 53.051 36.304 53.065 C 36.327 53.078 36.603 53.137 36.918 53.195 C 37.589 53.317 37.726 53.364 37.756 53.479 C 37.776 53.556 37.815 53.563 38.194 53.563 C 38.573 53.563 38.617 53.572 38.672 53.655 C 38.722 53.731 38.786 53.749 39.059 53.767 C 39.306 53.783 39.404 53.807 39.458 53.868 C 39.505 53.919 39.589 53.947 39.692 53.947 C 39.781 53.947 39.866 53.967 39.88 53.99 C 39.895 54.014 40.005 54.033 40.125 54.033 C 40.293 54.033 40.368 54.055 40.446 54.129 C 40.544 54.221 40.585 54.225 41.394 54.239 C 42.166 54.251 42.247 54.26 42.315 54.335 C 42.392 54.42 42.803 54.458 42.803 54.379 C 42.803 54.23 43.539 54.105 44.488 54.095 C 45.169 54.087 45.424 54.067 45.746 53.996 C 46.282 53.879 46.3 53.906 46.005 54.395 C 45.934 54.513 45.858 54.65 45.835 54.701 C 45.813 54.752 45.742 54.819 45.678 54.851 C 45.614 54.882 45.485 55.019 45.392 55.156 C 45.263 55.345 45.171 55.429 45.005 55.508 C 44.289 55.846 43.708 56.422 44.082 56.422 C 44.178 56.422 44.302 56.452 44.358 56.489 C 44.451 56.55 44.472 56.55 44.59 56.489 C 44.661 56.452 44.746 56.422 44.779 56.422 C 44.812 56.422 44.912 56.302 45.003 56.155 C 45.286 55.694 46.467 54.598 46.618 54.656 C 46.662 54.673 46.697 54.65 46.719 54.589 C 46.751 54.503 46.787 54.495 47.221 54.482 C 47.771 54.464 48.14 54.423 48.204 54.371 C 48.232 54.348 48.363 54.377 48.537 54.444 C 49.03 54.635 49.066 54.847 48.643 55.072 C 47.895 55.469 47.769 56.328 48.359 56.999 C 48.868 57.577 49.723 57.461 49.239 56.879 C 48.316 55.771 48.963 54.844 50.91 54.483 C 52.151 54.253 53.972 54.647 53.637 55.073 C 53.346 55.442 53.346 55.958 53.638 57.146 C 53.71 57.439 53.768 57.723 53.768 57.778 C 53.768 57.954 54.285 57.902 54.336 57.721 L 54.336 57.721 Z  M 60.59 56.193 C 59.354 55.751 59.368 54.386 60.609 54.422 C 60.955 54.432 61.03 54.42 61.257 54.319 C 62.139 53.927 62.969 54.572 62.713 55.451 C 62.562 55.969 62.26 56.163 61.534 56.213 C 60.864 56.258 60.768 56.256 60.59 56.193 Z  M 35.635 42.22 C 35.635 42.176 35.699 42.056 35.778 41.953 C 35.975 41.694 36.061 41.515 36.061 41.365 C 36.061 41.198 36.004 41.22 37.026 41.001 C 39.313 40.513 40.292 40.387 42.042 40.358 C 51.275 40.205 53.984 40.12 56.919 39.893 C 57.665 39.835 57.664 39.835 57.869 40.158 C 58.312 40.857 57.057 41.316 55.113 41.167 C 54.925 41.153 54.032 41.136 53.128 41.129 C 51.486 41.116 51.486 41.116 50.594 40.937 C 49.292 40.675 48.91 40.69 48.535 41.019 C 48.359 41.173 48.416 41.173 47.994 41.024 C 46.929 40.649 45.611 40.626 43.486 40.946 C 42.77 41.053 41.935 41.163 41.629 41.188 C 40.044 41.323 38.558 41.598 36.651 42.108 C 35.858 42.321 35.635 42.345 35.635 42.22 Z " fill="rgb(54,152,166)"/><path d=" M 52.936 89.975 C 47.322 89.674 44.649 89.232 41.864 88.145 C 40.653 87.673 40.65 87.671 40.526 87.265 C 39.776 84.803 38.993 81.614 38.34 78.354 C 37.959 76.458 37.828 75.867 37.068 72.633 C 35.14 64.43 34.655 61.06 35.297 60.329 C 35.454 60.149 35.476 59.804 35.337 59.675 C 35.275 59.617 35.243 59.505 35.214 59.245 C 35.191 59.042 35.147 58.861 35.11 58.82 C 35.028 58.728 34.996 58.457 34.96 57.541 C 34.937 56.965 34.917 56.794 34.869 56.765 C 34.782 56.711 34.739 56.75 34.737 56.883 C 34.733 57.277 34.385 56.239 34.183 55.227 C 33.562 52.123 32.464 49.336 32.929 52.044 C 33.005 52.49 33.229 53.381 33.559 54.555 C 33.842 55.559 34 56.324 34.051 56.934 C 34.215 58.878 33.171 54.972 32.626 51.601 C 31.879 46.98 31.668 45.888 31.255 44.518 C 31.076 43.926 31.161 43.617 31.64 43.116 C 32.648 42.063 34.931 41.477 34.763 42.314 C 34.694 42.66 34.237 42.877 33.077 43.116 C 31.878 43.363 31.756 43.57 32.423 44.228 C 32.948 44.747 35.815 45.289 39.133 45.497 C 39.751 45.536 40.472 45.56 44.254 45.671 C 49.345 45.82 54.05 45.859 55.241 45.761 C 56.625 45.647 56.784 45.646 56.978 45.755 C 57.134 45.843 57.173 45.848 57.348 45.807 C 57.536 45.762 57.68 45.769 58.681 45.867 C 58.882 45.886 58.96 45.872 59.156 45.779 C 59.357 45.684 59.408 45.675 59.513 45.717 C 59.753 45.813 62.704 45.782 63.667 45.674 C 66.46 45.361 69.762 44.599 70.86 44.015 C 70.99 43.946 71.839 43.74 72.393 43.643 C 72.932 43.549 73.273 43.468 73.494 43.383 C 73.868 43.237 73.957 45.218 73.671 47.352 C 73.515 48.519 73.481 48.745 73.399 49.126 C 73.351 49.349 73.285 49.656 73.252 49.809 C 72.78 52.01 72.372 56.388 71.988 63.398 C 71.709 68.488 71.575 70.373 71.306 72.977 C 71.261 73.411 71.213 73.949 71.199 74.172 C 71.073 76.138 70.79 78.506 70.301 81.692 C 70.149 82.681 70.118 82.984 70.138 83.25 C 70.345 85.988 69.081 88.027 66.974 88.355 C 66.763 88.387 66.252 88.512 65.839 88.632 C 63.752 89.238 61.384 89.599 58.27 89.788 C 56.254 89.91 53.517 90.006 52.936 89.975 L 52.936 89.975 Z  M 52.751 89.372 C 52.908 89.215 52.446 89.141 50.44 88.999 C 49.959 88.965 49.326 88.909 49.032 88.874 C 47.43 88.683 46.16 88.672 46.63 88.853 C 47.481 89.182 52.515 89.608 52.751 89.372 Z  M 42.504 87.17 C 42.504 87.059 41.742 84.008 41.549 83.346 C 41.193 82.123 40.561 80.615 40.405 80.615 C 40.259 80.615 40.622 82.69 40.972 83.858 C 41.433 85.396 42.504 87.711 42.504 87.17 Z  M 41.187 86.99 C 41.335 86.306 41.121 85.233 40.391 83.004 C 39.989 81.779 39.684 80.685 39.622 80.252 C 39.583 79.975 39.542 79.923 39.41 79.983 C 39.028 80.157 39.087 80.766 39.672 82.703 C 39.824 83.206 39.978 83.81 40.014 84.047 C 40.244 85.561 41.056 87.597 41.187 86.99 Z  M 55.608 80.664 C 56.288 80.232 56.407 79.245 55.871 78.483 C 54.982 77.219 54.067 78.464 54.598 80.214 C 54.759 80.744 55.183 80.933 55.608 80.664 L 55.608 80.664 Z  M 53.327 80.536 C 54.066 80.156 54.19 78.705 53.542 78.023 C 53.155 77.615 52.586 78.204 52.484 79.12 C 52.462 79.313 52.426 79.551 52.403 79.648 C 52.203 80.518 52.607 80.907 53.327 80.536 L 53.327 80.536 Z  M 39.236 79.011 C 39.336 78.37 39.128 77.166 38.576 75.189 C 38.364 74.43 38.125 73.477 38.044 73.072 C 37.846 72.086 37.512 71.417 37.512 72.008 C 37.512 72.306 37.986 74.883 38.215 75.836 C 38.275 76.082 38.372 76.678 38.432 77.159 C 38.59 78.435 38.691 78.817 38.948 79.117 C 39.141 79.343 39.188 79.326 39.236 79.011 Z  M 52.035 77.628 C 52.796 77.211 53.434 77.186 55.113 77.508 C 57.336 77.936 58.226 77.291 57.117 76.057 C 56.663 75.552 56.188 75.497 54.537 75.76 C 53.435 75.936 52.485 75.95 52.083 75.798 C 51.594 75.613 51.286 75.678 50.908 76.044 C 50.263 76.67 50.695 77.612 51.712 77.796 C 51.719 77.798 51.864 77.722 52.035 77.628 Z  M 49.127 74.923 C 49.597 74.804 49.716 74.748 50.454 74.307 C 52.901 72.844 52.905 69.299 50.462 67.89 C 50.297 67.795 50.057 67.655 49.928 67.579 C 48.756 66.889 47.63 66.926 45.363 67.731 C 44.952 67.877 44.562 67.995 44.497 67.993 C 44.408 67.991 44.367 68.018 44.338 68.095 C 44.316 68.152 44.282 68.198 44.262 68.198 C 44.166 68.198 43.955 68.58 43.955 68.754 C 43.955 68.863 43.889 69.095 43.786 69.35 C 42.557 72.398 45.788 75.77 49.127 74.923 L 49.127 74.923 Z  M 44.848 72.508 C 43.715 72.316 43.5 71.291 44.394 70.344 C 45.087 69.611 45.862 69.541 46.474 70.155 C 47.721 71.407 46.74 72.828 44.848 72.508 L 44.848 72.508 Z  M 61.236 74.321 C 63.946 73.782 65.046 70.802 63.4 68.457 C 60.898 64.892 54.741 66.965 55.477 71.124 C 55.918 73.61 58.263 74.913 61.236 74.321 Z  M 56.858 72.293 C 55.675 72.059 55.458 70.609 56.456 69.604 C 57.336 68.718 58.587 69.229 58.994 70.641 C 59.121 71.081 59.043 71.142 58.391 71.11 C 57.639 71.073 57.58 71.142 58.053 71.497 C 58.429 71.779 58.541 71.922 58.461 72.018 C 58.266 72.253 57.404 72.401 56.858 72.293 L 56.858 72.293 Z  M 56.905 61.992 C 57.21 61.979 57.526 61.958 57.609 61.944 C 57.691 61.931 57.816 61.913 57.886 61.905 C 57.956 61.897 58.1 61.879 58.206 61.866 C 58.312 61.852 58.465 61.833 58.547 61.822 C 58.629 61.812 58.764 61.793 58.846 61.779 C 58.928 61.766 59.053 61.747 59.123 61.737 C 59.253 61.718 59.68 61.644 60.339 61.526 C 63.168 61.018 65.141 60.107 67.257 58.33 C 67.318 58.278 67.45 58.168 67.55 58.086 C 67.649 58.004 67.812 57.86 67.911 57.766 C 68.01 57.672 68.221 57.48 68.38 57.34 C 68.538 57.199 68.768 56.988 68.891 56.87 C 69.332 56.45 69.804 56.024 70.201 55.688 C 70.304 55.601 70.445 55.481 70.516 55.421 C 70.586 55.36 70.734 55.24 70.845 55.152 C 70.985 55.04 71.054 54.951 71.074 54.852 C 71.099 54.726 71.115 54.713 71.233 54.724 C 71.337 54.734 71.376 54.715 71.417 54.634 C 71.446 54.577 71.5 54.513 71.537 54.493 C 71.584 54.466 71.604 54.391 71.604 54.233 C 71.604 54.043 71.618 54.004 71.7 53.968 C 71.752 53.945 71.801 53.886 71.809 53.836 C 71.816 53.786 71.867 53.725 71.922 53.7 C 72.006 53.662 72.029 53.61 72.054 53.406 C 72.07 53.27 72.098 53.139 72.115 53.115 C 72.132 53.092 72.166 52.996 72.191 52.902 C 72.215 52.808 72.274 52.626 72.321 52.497 C 72.39 52.309 72.413 52.103 72.437 51.473 C 72.469 50.61 72.499 50.335 72.614 49.851 C 72.706 49.463 72.708 46.874 72.617 45.862 C 72.561 45.23 71.395 44.993 70.533 45.438 C 70.39 45.511 66.934 45.921 64.265 46.181 C 62.206 46.381 59.569 46.587 57.694 46.695 C 57.236 46.721 56.555 46.761 56.179 46.784 C 55.29 46.838 55.139 46.836 55.059 46.77 C 55.012 46.731 54.848 46.717 54.505 46.722 C 54.04 46.728 54.018 46.724 54.039 46.645 C 54.073 46.511 53.955 46.495 52.744 46.465 C 42.147 46.205 36.38 45.907 32.372 45.413 C 31.925 45.358 31.923 45.358 31.923 45.452 C 31.923 45.583 32.281 45.943 32.56 46.092 C 32.872 46.258 32.881 46.296 32.616 46.332 C 32.194 46.39 32.206 46.334 32.393 47.341 C 32.943 50.297 33.867 51.039 35.522 49.851 C 36.024 49.49 38.838 49.004 41.437 48.829 C 42.573 48.752 42.785 48.741 44.296 48.677 C 46.042 48.603 46.462 48.598 46.406 48.655 C 46.35 48.711 44.805 48.928 43.507 49.062 C 39.697 49.457 39.19 49.521 37.811 49.785 C 37.4 49.864 36.891 49.949 36.68 49.976 C 34.394 50.259 33.608 52.883 35.763 53.038 C 36.532 53.093 37.725 53.375 37.725 53.501 C 37.725 53.552 37.808 53.563 38.168 53.563 C 38.573 53.563 38.616 53.571 38.672 53.655 C 38.722 53.731 38.786 53.749 39.059 53.767 C 39.306 53.783 39.404 53.807 39.458 53.868 C 39.505 53.919 39.589 53.947 39.692 53.947 C 39.781 53.947 39.866 53.967 39.88 53.99 C 39.895 54.014 40.005 54.033 40.125 54.033 C 40.293 54.033 40.368 54.055 40.446 54.129 C 40.544 54.221 40.585 54.225 41.387 54.239 C 42.136 54.251 42.236 54.261 42.312 54.332 C 42.429 54.441 42.798 54.464 42.894 54.368 C 43.046 54.216 43.71 54.109 44.452 54.116 C 45.065 54.121 45.762 54.056 46.056 53.965 C 46.255 53.903 45.821 54.759 45.608 54.848 C 45.544 54.875 45.491 54.918 45.49 54.945 C 45.488 55.095 45.222 55.405 45.01 55.505 C 43.187 56.366 43.155 58.239 44.943 59.401 C 46.102 60.154 46.318 60.285 46.814 60.537 C 47.982 61.13 49.523 61.611 50.782 61.776 C 50.887 61.79 51.022 61.81 51.08 61.82 C 51.206 61.842 51.527 61.881 51.827 61.909 C 51.944 61.92 52.136 61.939 52.254 61.95 C 52.371 61.962 52.644 61.977 52.861 61.984 C 53.077 61.99 53.263 62.004 53.273 62.014 C 53.298 62.039 56.195 62.021 56.905 61.992 Z  M 35.677 42.199 C 35.677 42.167 35.742 42.056 35.82 41.953 C 36.017 41.695 36.104 41.515 36.104 41.367 C 36.104 41.272 36.128 41.236 36.2 41.218 C 38.24 40.72 40.284 40.427 41.928 40.399 C 51.945 40.226 54.062 40.16 56.883 39.933 C 57.634 39.873 57.648 39.876 57.825 40.156 C 58.282 40.877 57.589 41.127 55.177 41.111 C 51.322 41.085 51.588 41.097 50.6 40.899 C 49.299 40.637 48.891 40.655 48.493 40.991 C 48.358 41.105 48.358 41.105 47.914 40.956 C 46.812 40.587 45.716 40.58 43.336 40.927 C 42.515 41.046 41.583 41.163 41.265 41.186 C 40.158 41.268 38.953 41.491 37.088 41.961 C 35.885 42.265 35.677 42.3 35.677 42.199 Z " fill="rgb(0,142,207)"/><path d=" M 52.936 89.975 C 47.322 89.674 44.649 89.232 41.864 88.145 C 40.653 87.673 40.65 87.671 40.526 87.265 C 39.776 84.803 38.993 81.614 38.34 78.354 C 37.959 76.458 37.828 75.867 37.068 72.633 C 35.144 64.45 34.654 61.049 35.293 60.334 C 35.505 60.097 35.676 60.375 35.863 61.265 C 36.934 66.34 38.684 72.984 39.994 76.945 C 40.484 78.427 40.401 78.285 40.758 78.255 C 41.13 78.224 41.136 78.237 40.95 78.668 C 40.607 79.468 40.776 79.873 41.853 80.826 C 42.31 81.23 42.268 81.348 41.697 81.266 C 41.301 81.209 41.328 81.153 41.475 81.729 C 41.544 81.996 41.64 82.407 41.689 82.642 C 42.44 86.252 43.195 87.535 44.756 87.855 C 49.582 88.845 55.09 89.016 62.371 88.401 C 65.232 88.16 67.461 87.271 68.174 86.087 C 68.358 85.78 68.363 85.794 68.059 85.763 C 67.567 85.711 67.58 85.592 68.1 85.376 C 68.872 85.057 69.112 84.805 69.101 84.332 C 69.095 84.126 69.125 83.959 69.215 83.689 C 69.519 82.773 69.581 82.063 69.51 80.292 C 69.451 78.799 69.469 78.206 69.591 77.649 C 69.779 76.79 69.88 75.933 70.047 73.767 C 70.16 72.298 70.243 71.472 70.344 70.823 C 70.439 70.212 70.488 69.56 70.557 67.985 C 70.635 66.201 70.684 65.516 70.796 64.678 C 70.934 63.636 70.957 63.558 71.21 63.306 C 71.571 62.945 71.56 62.691 71.159 62.106 C 70.547 61.212 70.546 60.743 71.157 60.18 C 71.391 59.964 71.399 59.651 71.219 57.596 C 71.029 55.42 71.033 54.705 71.234 54.724 C 71.337 54.734 71.376 54.715 71.417 54.634 C 71.446 54.577 71.5 54.513 71.537 54.493 C 71.584 54.466 71.604 54.391 71.604 54.233 C 71.604 54.043 71.618 54.004 71.7 53.968 C 71.752 53.945 71.801 53.886 71.809 53.836 C 71.816 53.786 71.867 53.725 71.922 53.7 C 72.006 53.662 72.029 53.61 72.054 53.406 C 72.07 53.27 72.098 53.139 72.115 53.115 C 72.132 53.092 72.166 52.996 72.191 52.902 C 72.215 52.808 72.274 52.626 72.321 52.497 C 72.39 52.309 72.413 52.103 72.437 51.473 C 72.469 50.61 72.499 50.335 72.614 49.851 C 72.706 49.463 72.708 46.874 72.617 45.862 C 72.561 45.23 71.395 44.993 70.533 45.438 C 70.39 45.511 66.934 45.921 64.265 46.181 C 62.206 46.381 59.569 46.587 57.694 46.695 C 57.236 46.721 56.555 46.761 56.179 46.784 C 55.29 46.838 55.139 46.836 55.059 46.77 C 55.012 46.731 54.848 46.717 54.505 46.722 C 54.04 46.728 54.018 46.724 54.039 46.645 C 54.073 46.511 53.955 46.495 52.744 46.465 C 42.147 46.205 36.38 45.907 32.372 45.413 C 31.925 45.358 31.923 45.358 31.923 45.452 C 31.923 45.583 32.281 45.943 32.56 46.092 C 32.872 46.258 32.881 46.296 32.616 46.332 C 32.194 46.39 32.206 46.334 32.393 47.341 C 32.943 50.297 33.867 51.039 35.522 49.851 C 36.024 49.49 38.838 49.004 41.437 48.829 C 42.573 48.752 42.785 48.741 44.296 48.677 C 46.042 48.603 46.462 48.598 46.406 48.655 C 46.35 48.711 44.805 48.928 43.507 49.062 C 39.697 49.457 39.19 49.521 37.811 49.785 C 37.4 49.864 36.891 49.949 36.68 49.976 C 34.394 50.259 33.608 52.883 35.763 53.038 C 36.136 53.064 37.513 53.325 37.639 53.392 C 37.786 53.471 37.746 53.601 37.55 53.684 C 37.374 53.759 37.374 53.759 37.553 53.877 C 37.699 53.974 37.722 54.006 37.681 54.057 C 37.603 54.15 37.565 54.143 36.291 53.776 C 34.689 53.315 34.344 53.281 34.781 53.627 C 35.116 53.893 35.072 54.002 34.679 53.883 C 34.323 53.775 34.344 53.668 34.507 54.758 C 34.547 55.028 34.578 55.321 34.576 55.409 C 34.574 55.497 34.601 55.699 34.635 55.857 C 34.797 56.595 34.812 57.108 34.667 56.909 C 34.566 56.772 34.323 55.926 34.183 55.227 C 33.562 52.123 32.464 49.336 32.929 52.044 C 33.005 52.49 33.229 53.381 33.559 54.555 C 33.842 55.559 34 56.324 34.051 56.934 C 34.215 58.878 33.171 54.972 32.626 51.601 C 31.879 46.98 31.668 45.888 31.255 44.518 C 31.076 43.926 31.161 43.617 31.64 43.116 C 32.648 42.063 34.931 41.477 34.763 42.314 C 34.694 42.66 34.237 42.877 33.077 43.116 C 31.878 43.363 31.756 43.57 32.423 44.228 C 32.948 44.747 35.815 45.289 39.133 45.497 C 39.751 45.536 40.472 45.56 44.254 45.671 C 49.345 45.82 54.05 45.859 55.241 45.761 C 56.625 45.647 56.784 45.646 56.978 45.755 C 57.134 45.843 57.173 45.848 57.348 45.807 C 57.536 45.762 57.68 45.769 58.681 45.867 C 58.882 45.886 58.96 45.872 59.156 45.779 C 59.357 45.684 59.408 45.675 59.513 45.717 C 59.753 45.813 62.704 45.782 63.667 45.674 C 66.46 45.361 69.762 44.599 70.86 44.015 C 70.99 43.946 71.839 43.74 72.393 43.643 C 72.932 43.549 73.273 43.468 73.494 43.383 C 73.868 43.237 73.957 45.218 73.671 47.352 C 73.515 48.519 73.481 48.745 73.399 49.126 C 73.351 49.349 73.285 49.656 73.252 49.809 C 72.78 52.01 72.372 56.388 71.988 63.398 C 71.709 68.488 71.575 70.373 71.306 72.977 C 71.261 73.411 71.213 73.949 71.199 74.172 C 71.073 76.138 70.79 78.506 70.301 81.692 C 70.149 82.681 70.118 82.984 70.138 83.25 C 70.345 85.988 69.081 88.027 66.974 88.355 C 66.763 88.387 66.252 88.512 65.839 88.632 C 63.752 89.238 61.384 89.599 58.27 89.788 C 56.254 89.91 53.517 90.006 52.936 89.975 L 52.936 89.975 Z  M 52.751 89.372 C 52.908 89.215 52.446 89.141 50.44 88.999 C 49.959 88.965 49.326 88.909 49.032 88.874 C 47.43 88.683 46.16 88.672 46.63 88.853 C 47.481 89.182 52.515 89.608 52.751 89.372 Z  M 42.504 87.17 C 42.504 87.059 41.742 84.008 41.549 83.346 C 41.193 82.123 40.561 80.615 40.405 80.615 C 40.259 80.615 40.622 82.69 40.972 83.858 C 41.433 85.396 42.504 87.711 42.504 87.17 Z  M 41.187 86.99 C 41.335 86.306 41.121 85.233 40.391 83.004 C 39.989 81.779 39.684 80.685 39.622 80.252 C 39.583 79.975 39.542 79.923 39.41 79.983 C 39.028 80.157 39.087 80.766 39.672 82.703 C 39.824 83.206 39.978 83.81 40.014 84.047 C 40.244 85.561 41.056 87.597 41.187 86.99 Z  M 39.236 79.011 C 39.336 78.37 39.128 77.166 38.576 75.189 C 38.364 74.43 38.125 73.477 38.044 73.072 C 37.846 72.086 37.512 71.417 37.512 72.008 C 37.512 72.306 37.986 74.883 38.215 75.836 C 38.275 76.082 38.372 76.678 38.432 77.159 C 38.59 78.435 38.691 78.817 38.948 79.117 C 39.141 79.343 39.188 79.326 39.236 79.011 Z  M 48.606 83.233 C 48.547 83.225 48.326 83.197 48.115 83.172 C 47.904 83.146 47.107 83.001 46.344 82.85 C 44.759 82.534 43.945 82.409 43.484 82.408 C 42.975 82.406 42.807 82.183 43.098 81.892 C 43.312 81.678 43.724 81.726 45.001 82.111 C 45.876 82.375 46.527 82.533 46.919 82.577 C 47.084 82.596 47.411 82.653 47.646 82.703 C 47.996 82.778 50.49 83.09 50.743 83.09 C 50.782 83.09 50.824 83.128 50.837 83.175 C 50.858 83.256 49.082 83.302 48.606 83.233 L 48.606 83.233 Z  M 52.638 81.324 C 52.068 81.056 51.861 80.653 51.741 79.582 C 51.58 78.136 51.352 77.813 50.349 77.609 C 50.111 77.561 50.076 76.785 50.289 76.319 C 50.516 75.824 51.031 75.255 51.866 74.577 C 52.097 74.39 52.41 74.117 52.561 73.971 C 52.894 73.649 52.939 73.637 53.79 73.643 C 55.7 73.657 57.65 75.165 58.244 77.089 C 58.4 77.596 58.383 77.622 57.545 78.164 C 56.503 78.837 56.283 79.18 56.413 79.925 C 56.613 81.077 56.092 81.433 54.724 81.08 C 53.812 80.844 53.393 80.897 53.096 81.287 C 52.97 81.452 52.918 81.456 52.638 81.324 L 52.638 81.324 Z  M 55.608 80.664 C 56.288 80.232 56.407 79.245 55.871 78.483 C 54.982 77.219 54.067 78.464 54.598 80.214 C 54.759 80.744 55.183 80.933 55.608 80.664 Z  M 53.327 80.536 C 54.066 80.156 54.19 78.705 53.542 78.023 C 53.155 77.615 52.586 78.204 52.484 79.12 C 52.462 79.313 52.426 79.551 52.403 79.648 C 52.203 80.518 52.607 80.907 53.327 80.536 L 53.327 80.536 Z  M 52.035 77.628 C 52.796 77.211 53.434 77.186 55.113 77.508 C 57.336 77.936 58.226 77.291 57.117 76.057 C 56.663 75.552 56.188 75.497 54.537 75.76 C 53.435 75.936 52.485 75.95 52.083 75.798 C 51.594 75.613 51.286 75.678 50.908 76.044 C 50.263 76.67 50.695 77.612 51.712 77.796 C 51.719 77.798 51.864 77.722 52.035 77.628 Z  M 47.066 75.537 C 44.071 75.03 42.027 71.703 43.225 69.286 C 43.721 68.284 44.194 68.338 43.786 69.35 C 42.464 72.63 46.525 76.311 49.72 74.727 C 52.841 73.179 53.241 69.493 50.462 67.89 C 50.297 67.795 50.057 67.655 49.928 67.579 C 48.761 66.891 47.638 66.926 45.384 67.722 C 44.667 67.975 44.582 68 44.478 67.99 C 44.384 67.981 44.418 67.925 44.691 67.643 C 47.196 65.048 52.618 66.905 52.955 70.473 C 53.25 73.596 50.347 76.092 47.066 75.537 L 47.066 75.537 Z  M 59.486 75.21 C 55.718 74.83 53.443 71.216 55.21 68.417 C 57.563 64.69 62.984 65.182 64.542 69.264 C 65.698 72.295 62.925 75.557 59.486 75.21 Z  M 61.236 74.321 C 63.946 73.782 65.046 70.802 63.4 68.457 C 60.898 64.892 54.741 66.965 55.477 71.124 C 55.918 73.61 58.263 74.913 61.236 74.321 Z  M 56.858 72.293 C 55.675 72.059 55.458 70.609 56.456 69.604 C 57.336 68.718 58.587 69.229 58.994 70.641 C 59.121 71.081 59.043 71.142 58.391 71.11 C 57.639 71.073 57.58 71.142 58.053 71.497 C 58.429 71.779 58.541 71.922 58.461 72.018 C 58.266 72.253 57.404 72.401 56.858 72.293 L 56.858 72.293 Z  M 44.848 72.508 C 43.715 72.316 43.5 71.291 44.394 70.344 C 45.087 69.611 45.862 69.541 46.474 70.155 C 47.721 71.407 46.74 72.828 44.848 72.508 L 44.848 72.508 Z  M 35.677 42.199 C 35.677 42.167 35.742 42.056 35.82 41.953 C 36.017 41.695 36.104 41.515 36.104 41.367 C 36.104 41.272 36.128 41.236 36.2 41.218 C 38.24 40.72 40.284 40.427 41.928 40.399 C 51.945 40.226 54.062 40.16 56.883 39.933 C 57.634 39.873 57.648 39.876 57.825 40.156 C 58.282 40.877 57.589 41.127 55.177 41.111 C 51.322 41.085 51.588 41.097 50.6 40.899 C 49.299 40.637 48.891 40.655 48.493 40.991 C 48.358 41.105 48.358 41.105 47.914 40.956 C 46.812 40.587 45.716 40.58 43.336 40.927 C 42.515 41.046 41.583 41.163 41.265 41.186 C 40.158 41.268 38.953 41.491 37.088 41.961 C 35.885 42.265 35.677 42.3 35.677 42.199 Z " fill="rgb(27,111,149)"/><path d=" M 52.872 89.959 C 47.293 89.652 44.519 89.183 41.769 88.082 C 40.647 87.633 40.667 87.646 40.55 87.271 C 39.884 85.139 39.029 81.646 38.342 78.254 C 37.942 76.279 37.795 75.623 37.037 72.401 C 35.157 64.419 34.594 60.326 35.374 60.326 C 35.559 60.326 35.614 60.484 35.955 62.012 C 37.331 68.167 38.841 73.824 40.07 77.426 C 40.418 78.446 40.366 78.369 40.692 78.343 C 41.037 78.315 41.034 78.309 40.858 78.708 C 40.546 79.417 40.739 79.901 41.675 80.749 C 42.202 81.227 42.201 81.282 41.661 81.203 C 41.234 81.141 41.241 81.134 41.347 81.518 C 41.395 81.69 41.532 82.272 41.651 82.812 C 42.446 86.417 43.165 87.602 44.756 87.929 C 49.499 88.906 55.451 89.07 62.814 88.425 C 65.37 88.202 67.716 87.171 68.296 86.017 C 68.424 85.763 68.419 85.752 68.137 85.717 C 67.696 85.662 67.702 85.629 68.19 85.418 C 68.92 85.104 69.147 84.864 69.156 84.397 C 69.16 84.185 69.201 83.965 69.292 83.683 C 69.579 82.786 69.647 81.926 69.564 80.209 C 69.502 78.903 69.518 78.377 69.637 77.798 C 69.839 76.811 69.94 75.927 70.134 73.447 C 70.193 72.684 70.298 71.638 70.366 71.121 C 70.497 70.132 70.561 69.406 70.6 68.455 C 70.711 65.773 70.793 64.816 70.989 63.871 C 71.043 63.614 71.078 63.546 71.26 63.354 C 71.659 62.932 71.645 62.713 71.177 62.002 C 70.621 61.159 70.621 60.857 71.176 60.25 C 71.435 59.967 71.45 59.465 71.264 57.363 C 71.125 55.805 71.125 54.792 71.262 54.759 C 71.32 54.745 71.391 54.687 71.419 54.632 C 71.447 54.576 71.5 54.513 71.536 54.493 C 71.583 54.467 71.604 54.392 71.604 54.248 C 71.604 54.056 71.613 54.038 71.732 53.996 C 71.802 53.972 71.86 53.922 71.86 53.885 C 71.86 53.848 71.905 53.797 71.961 53.771 C 72.083 53.716 72.181 53.451 72.145 53.274 C 72.119 53.144 72.175 52.901 72.322 52.497 C 72.39 52.31 72.413 52.102 72.437 51.473 C 72.469 50.61 72.499 50.335 72.614 49.851 C 72.705 49.463 72.708 46.874 72.617 45.862 C 72.561 45.23 71.395 44.993 70.533 45.438 C 70.39 45.511 66.936 45.92 64.265 46.181 C 61.57 46.443 58.172 46.692 56.329 46.763 C 55.918 46.779 55.546 46.805 55.502 46.82 C 55.458 46.836 55.323 46.822 55.203 46.789 C 54.802 46.678 54.645 46.658 54.355 46.682 C 54.08 46.705 54.067 46.702 54.067 46.613 C 54.067 46.472 54.477 46.492 47.368 46.288 C 40.879 46.101 36.951 45.882 33.565 45.518 C 31.77 45.325 31.791 45.323 31.964 45.604 C 32.084 45.798 32.305 45.988 32.566 46.119 C 32.823 46.25 32.809 46.291 32.496 46.33 C 32.189 46.368 32.192 46.347 32.348 47.213 C 32.909 50.333 33.755 51.046 35.51 49.883 C 36.092 49.497 38.693 49.046 41.459 48.85 C 43.19 48.728 46.055 48.618 45.997 48.677 C 45.938 48.735 44.32 48.932 41.949 49.168 C 39.878 49.374 38.554 49.559 37.619 49.773 C 37.407 49.822 37.068 49.876 36.865 49.894 C 34.378 50.117 33.43 52.91 35.78 53.092 C 36.04 53.112 36.282 53.14 36.317 53.154 C 36.353 53.168 36.634 53.226 36.943 53.282 C 37.738 53.429 37.82 53.489 37.443 53.651 C 37.214 53.749 37.214 53.749 37.437 53.893 C 37.725 54.078 37.537 54.062 36.765 53.836 C 34.61 53.205 34.151 53.159 34.679 53.626 C 34.929 53.847 34.916 53.88 34.616 53.792 C 34.459 53.746 34.375 53.739 34.345 53.77 C 34.298 53.817 34.407 54.664 34.717 56.657 C 34.823 57.336 34.423 56.33 34.267 55.524 C 33.78 53.01 33.011 50.616 32.799 50.957 C 32.701 51.117 32.986 52.576 33.418 54.121 C 33.857 55.695 34.056 56.669 34.056 57.251 C 34.056 58.224 33.105 54.413 32.651 51.622 C 32.556 51.035 32.373 49.912 32.245 49.126 C 31.971 47.439 31.774 46.436 31.516 45.414 C 31.266 44.425 31.277 44.462 31.224 44.396 C 31.054 44.179 31.236 43.585 31.599 43.17 C 32.479 42.164 34.739 41.528 34.739 42.286 C 34.739 42.62 34.259 42.849 33.011 43.112 C 31.84 43.358 31.737 43.563 32.428 44.274 C 32.65 44.503 32.742 44.537 33.8 44.792 C 35.925 45.303 38.107 45.525 41.992 45.626 C 42.919 45.651 44.311 45.69 45.086 45.714 C 49.084 45.838 53.588 45.876 54.878 45.797 C 56.52 45.697 56.828 45.694 57.01 45.776 C 57.157 45.842 57.204 45.845 57.369 45.799 C 57.474 45.77 57.583 45.761 57.612 45.779 C 57.641 45.796 57.839 45.827 58.053 45.846 C 58.266 45.866 58.531 45.894 58.642 45.908 C 58.849 45.935 59.176 45.847 59.32 45.725 C 59.374 45.68 59.415 45.678 59.512 45.717 C 59.753 45.813 62.701 45.783 63.667 45.674 C 66.46 45.361 69.762 44.599 70.86 44.015 C 70.989 43.946 71.836 43.741 72.393 43.643 C 73.03 43.531 73.203 43.49 73.43 43.401 C 73.599 43.334 73.669 43.324 73.705 43.359 C 73.823 43.478 73.846 45.901 73.736 46.673 C 73.713 46.837 73.655 47.288 73.608 47.675 C 73.56 48.062 73.436 48.802 73.331 49.318 C 73.173 50.099 72.937 51.494 72.859 52.113 C 72.511 54.855 72.268 57.855 72.01 62.588 C 71.694 68.387 71.579 70.027 71.286 72.956 C 71.229 73.519 71.171 74.182 71.156 74.428 C 71.05 76.157 70.758 78.58 70.279 81.691 C 70.137 82.615 70.11 82.892 70.11 83.449 C 70.11 86.407 69.044 88.035 66.908 88.338 C 66.734 88.363 66.411 88.441 66.191 88.511 C 63.899 89.245 60.554 89.708 56.499 89.852 C 56.112 89.866 55.574 89.895 55.305 89.916 C 54.592 89.974 53.486 89.993 52.872 89.959 Z  M 52.73 89.402 C 53.162 89.237 52.471 89.109 50.439 88.978 C 50.074 88.954 49.446 88.897 49.043 88.851 C 47.277 88.649 46.175 88.645 46.543 88.842 C 47.153 89.168 52.154 89.621 52.73 89.402 L 52.73 89.402 Z  M 42.547 87.228 C 42.547 86.481 41.105 81.751 40.6 80.839 C 40.04 79.83 40.571 82.962 41.281 84.86 C 41.83 86.327 42.547 87.669 42.547 87.228 Z  M 41.229 86.783 C 41.249 85.772 41.13 85.218 40.433 83.068 C 39.944 81.562 39.815 81.108 39.687 80.45 C 39.575 79.872 39.519 79.81 39.311 80.032 C 39.029 80.332 39.083 80.806 39.601 82.542 C 39.907 83.566 39.999 83.947 40.049 84.391 C 40.134 85.135 40.729 86.764 41.045 87.114 C 41.151 87.232 41.223 87.102 41.229 86.783 L 41.229 86.783 Z  M 39.236 79.225 C 39.413 78.762 39.18 77.267 38.615 75.244 C 38.239 73.898 38.106 73.362 38.006 72.787 C 37.898 72.164 37.579 71.589 37.493 71.861 C 37.445 72.011 38.005 75.158 38.214 75.921 C 38.25 76.05 38.328 76.55 38.389 77.031 C 38.6 78.711 39.018 79.793 39.236 79.225 L 39.236 79.225 Z  M 48.776 83.188 C 48.343 83.155 47.325 82.985 46.28 82.77 C 44.955 82.498 44.47 82.42 43.678 82.352 C 43.08 82.3 43.08 82.3 43.068 82.172 C 43.025 81.737 43.477 81.736 44.936 82.168 C 46.045 82.496 46.365 82.575 46.707 82.604 C 46.871 82.618 47.15 82.666 47.326 82.711 C 47.669 82.798 48.49 82.915 49.523 83.023 C 50.415 83.117 50.525 83.136 50.419 83.178 C 50.337 83.21 49.168 83.218 48.776 83.188 L 48.776 83.188 Z  M 52.638 81.248 C 52.097 80.969 51.916 80.584 51.786 79.441 C 51.686 78.564 51.603 78.289 51.352 78.011 C 51.163 77.802 50.856 77.637 50.59 77.6 C 49.637 77.47 50.249 76.024 51.806 74.725 C 52.099 74.48 52.466 74.161 52.622 74.016 C 52.953 73.706 53.054 73.678 53.79 73.687 C 55.624 73.709 57.545 75.199 58.161 77.076 C 58.326 77.58 58.335 77.567 57.429 78.155 C 56.411 78.815 56.187 79.227 56.375 80.1 C 56.563 80.978 55.911 81.357 54.793 81.018 C 53.999 80.778 53.344 80.854 53.076 81.216 C 52.968 81.362 52.872 81.369 52.638 81.248 L 52.638 81.248 Z  M 55.463 80.763 C 56.654 80.265 56.259 77.714 55.026 77.946 C 54.31 78.08 54.189 80.237 54.872 80.685 C 55.093 80.83 55.252 80.851 55.463 80.763 Z  M 53.298 80.565 C 54.094 80.223 54.237 78.593 53.526 77.968 C 53.183 77.667 52.622 78.151 52.511 78.842 C 52.499 78.914 52.451 79.206 52.404 79.491 C 52.216 80.624 52.465 80.923 53.298 80.565 L 53.298 80.565 Z  M 52.074 77.631 C 52.803 77.234 53.444 77.207 54.992 77.506 C 56.541 77.806 57.608 77.678 57.574 77.198 C 57.538 76.703 57.325 76.189 57.058 75.955 C 56.546 75.506 56.118 75.486 53.982 75.817 C 53.124 75.949 52.25 75.894 51.837 75.681 C 51.58 75.548 50.955 75.855 50.726 76.226 C 50.206 77.072 51.2 78.108 52.074 77.631 L 52.074 77.631 Z  M 47.223 75.493 C 44.023 74.99 41.865 71.306 43.44 69.036 C 43.906 68.364 44.086 68.523 43.771 69.33 C 42.434 72.753 46.532 76.366 49.844 74.684 C 52.992 73.085 53.216 69.369 50.263 67.746 C 50.067 67.638 49.811 67.495 49.694 67.427 C 48.711 66.861 47.463 66.957 45.178 67.774 C 44.402 68.052 44.383 68.042 44.84 67.593 C 46.503 65.96 49.814 66.193 51.684 68.077 C 54.72 71.136 51.678 76.194 47.223 75.493 Z  M 59.614 75.148 C 56.038 74.844 53.677 71.562 55.059 68.817 C 57.211 64.546 63.328 65.21 64.661 69.86 C 65.412 72.483 62.624 75.403 59.614 75.148 Z  M 60.263 74.42 C 63.945 74.526 65.539 70.392 62.834 67.75 C 60.9 65.861 57.048 66.434 55.82 68.794 C 54.499 71.333 56.578 74.629 59.379 74.436 C 59.614 74.42 60.012 74.413 60.263 74.42 Z  M 56.725 72.233 C 55.809 71.946 55.57 70.929 56.192 69.966 C 56.994 68.725 58.412 69.014 58.931 70.523 C 59.115 71.056 59.057 71.122 58.443 71.08 C 57.67 71.027 57.523 71.141 57.961 71.454 C 58.476 71.822 58.569 71.981 58.336 72.102 C 57.989 72.281 57.109 72.353 56.725 72.233 L 56.725 72.233 Z  M 45.128 72.51 C 43.983 72.398 43.585 71.796 44.043 70.866 C 44.57 69.795 45.762 69.447 46.467 70.157 C 47.618 71.318 46.845 72.678 45.128 72.51 Z  M 35.701 42.218 C 35.688 42.197 35.763 42.065 35.868 41.926 C 36.072 41.655 36.147 41.498 36.147 41.343 C 36.147 41.251 36.196 41.236 37.224 41.025 C 40.125 40.431 39.71 40.461 46.643 40.338 C 51.93 40.244 54.721 40.139 57.01 39.947 C 57.633 39.895 57.797 39.97 57.902 40.355 C 58.074 40.987 57.573 41.085 54.195 41.074 C 51.324 41.065 51.781 41.099 50.014 40.759 C 49.274 40.616 48.759 40.689 48.503 40.972 C 48.4 41.086 48.36 41.085 48.002 40.956 C 47.363 40.725 46.912 40.661 45.939 40.663 C 45.007 40.665 44.893 40.676 42.888 40.973 C 42.407 41.044 41.754 41.122 41.437 41.147 C 40.063 41.254 38.637 41.525 36.493 42.085 C 35.79 42.269 35.738 42.277 35.701 42.218 L 35.701 42.218 Z " fill="rgb(12,14,14)"/></g></g></svg>