<?xml version="1.0" standalone="no"?><!-- Generator: Gravit.io --><svg xmlns="http://www.w3.org/2000/svg" xmlns:xlink="http://www.w3.org/1999/xlink" style="isolation:isolate" viewBox="0 0 105 120" width="105" height="120"><defs><clipPath id="_clipPath_J3L11WOPHne3RLuGb40yw1oTcq3RvwV4"><rect width="105" height="120"/></clipPath></defs><g clip-path="url(#_clipPath_J3L11WOPHne3RLuGb40yw1oTcq3RvwV4)"><path d=" M 52.5 0 L 105 30 L 105 90 L 52.5 120 L 0 90 L 0 30 L 52.5 0 Z " fill="rgb(255,255,255)"/><path d=" M 25.606 14.742 L 0 29.417 L 0 59.967 L 0 90.45 L 25.81 105.192 C 40.035 113.33 52.026 120 52.568 120 C 53.042 120 55.752 118.666 58.597 116.998 C 61.374 115.397 63.677 114.264 63.677 114.53 C 63.677 114.797 63.948 114.664 64.219 114.264 C 64.49 113.863 73.771 108.327 84.881 101.99 L 105 90.517 L 105 59.967 L 105 29.417 L 79.19 14.675 C 64.965 6.604 52.839 -0.066 52.229 0 C 51.619 0.067 39.629 6.671 25.606 14.742 Z  M 46.065 12.274 C 48.842 15.009 51.687 17.277 52.365 17.277 C 54.803 17.277 57.445 19.211 58.258 21.612 C 58.732 22.946 58.868 24.214 58.665 24.481 C 57.852 25.281 66.59 33.286 68.284 33.286 C 71.942 33.286 74.448 35.754 74.516 39.422 C 74.516 43.625 69.435 46.626 65.642 44.625 C 63.881 43.691 62.119 40.089 62.594 38.355 C 62.865 37.221 62.119 36.087 59.274 33.286 L 55.548 29.684 L 55.548 39.622 C 55.548 48.894 55.616 49.628 57.039 51.095 C 59.342 53.563 59.071 57.032 56.294 59.433 C 54.465 61.034 53.652 61.368 51.89 61.034 C 47.081 60.1 45.048 54.23 48.435 50.895 C 50.061 49.294 50.129 49.028 50.129 39.289 C 50.129 29.55 50.061 29.283 48.435 27.682 C 47.419 26.682 46.742 25.214 46.742 24.147 C 46.742 22.68 45.455 21.012 40.645 16.276 L 34.616 10.34 L 37.123 8.805 C 38.477 8.005 39.968 7.271 40.306 7.271 C 40.713 7.271 43.287 9.539 46.065 12.274 Z " fill="rgb(240,81,51)"/></g></svg>