<?xml version="1.0" standalone="no"?><!-- Generator: Gravit.io --><svg xmlns="http://www.w3.org/2000/svg" xmlns:xlink="http://www.w3.org/1999/xlink" style="isolation:isolate" viewBox="0 0 105 120" width="105" height="120"><defs><clipPath id="_clipPath_5c5NpnPNRjNZ1qy8tjMw9X7fjiB3rOof"><rect width="105" height="120"/></clipPath></defs><g clip-path="url(#_clipPath_5c5NpnPNRjNZ1qy8tjMw9X7fjiB3rOof)"><path d=" M 52.5 0 L 105 30 L 105 90 L 52.5 120 L 0 90 L 0 30 L 52.5 0 Z " fill="rgb(66,66,66)"/><g><path d=" M 52.5 29.997 C 35.512 29.997 21.737 43.769 21.737 60.759 C 21.737 74.351 30.552 85.883 42.775 89.951 C 44.312 90.235 44.877 89.283 44.877 88.471 C 44.877 87.737 44.848 85.314 44.835 82.743 C 36.277 84.604 34.471 79.114 34.471 79.114 C 33.071 75.558 31.055 74.612 31.055 74.612 C 28.264 72.703 31.265 72.742 31.265 72.742 C 34.355 72.959 35.981 75.913 35.981 75.913 C 38.725 80.615 43.178 79.255 44.933 78.47 C 45.209 76.481 46.006 75.124 46.886 74.356 C 40.053 73.578 32.87 70.94 32.87 59.153 C 32.87 55.794 34.072 53.05 36.04 50.895 C 35.721 50.12 34.668 46.992 36.338 42.754 C 36.338 42.754 38.921 41.928 44.8 45.908 C 47.254 45.226 49.886 44.885 52.5 44.873 C 55.115 44.885 57.748 45.226 60.207 45.908 C 66.078 41.928 68.658 42.754 68.658 42.754 C 70.332 46.992 69.279 50.12 68.96 50.895 C 70.932 53.05 72.125 55.794 72.125 59.153 C 72.125 70.968 64.929 73.57 58.079 74.331 C 59.182 75.286 60.165 77.158 60.165 80.028 C 60.165 84.144 60.13 87.457 60.13 88.471 C 60.13 89.289 60.683 90.248 62.243 89.946 C 74.46 85.874 83.263 74.347 83.263 60.759 C 83.263 43.769 69.49 29.997 52.5 29.997 Z " fill-rule="evenodd" fill="rgb(255,255,255)"/><path d=" M 33.389 74.165 C 33.321 74.318 33.08 74.364 32.862 74.259 C 32.638 74.159 32.513 73.951 32.585 73.797 C 32.652 73.64 32.893 73.596 33.115 73.701 C 33.339 73.801 33.466 74.012 33.389 74.165 L 33.389 74.165 Z " fill="rgb(255,255,255)"/><path d=" M 34.635 75.555 C 34.488 75.691 34.201 75.628 34.006 75.413 C 33.805 75.198 33.768 74.912 33.917 74.773 C 34.068 74.638 34.346 74.702 34.548 74.916 C 34.749 75.133 34.788 75.418 34.635 75.555 L 34.635 75.555 Z " fill="rgb(255,255,255)"/><path d=" M 37.509 79.038 C 37.34 79.224 36.982 79.174 36.719 78.921 C 36.45 78.673 36.375 78.321 36.544 78.135 C 36.715 77.948 37.076 78.001 37.34 78.252 C 37.608 78.5 37.689 78.854 37.509 79.038 L 37.509 79.038 Z " fill="rgb(255,255,255)"/><path d=" M 35.848 77.327 C 35.659 77.458 35.351 77.335 35.16 77.062 C 34.972 76.788 34.972 76.46 35.164 76.328 C 35.356 76.197 35.659 76.315 35.852 76.586 C 36.04 76.865 36.04 77.193 35.848 77.327 L 35.848 77.327 Z " fill="rgb(255,255,255)"/><path d=" M 39.802 80.033 C 39.728 80.273 39.382 80.383 39.033 80.28 C 38.685 80.175 38.457 79.893 38.528 79.649 C 38.6 79.407 38.947 79.293 39.298 79.403 C 39.646 79.507 39.874 79.787 39.802 80.033 L 39.802 80.033 Z " fill="rgb(255,255,255)"/><path d=" M 42.319 80.217 C 42.328 80.471 42.032 80.681 41.667 80.686 C 41.299 80.693 41.001 80.488 40.997 80.239 C 40.997 79.983 41.286 79.774 41.654 79.768 C 42.02 79.761 42.319 79.965 42.319 80.217 L 42.319 80.217 Z " fill="rgb(255,255,255)"/><path d=" M 44.662 79.818 C 44.706 80.065 44.452 80.32 44.089 80.387 C 43.732 80.453 43.401 80.3 43.356 80.054 C 43.311 79.8 43.57 79.546 43.926 79.481 C 44.29 79.418 44.616 79.566 44.662 79.818 L 44.662 79.818 Z " fill="rgb(255,255,255)"/></g></g></svg>