<?xml version="1.0" standalone="no"?><!-- Generator: Gravit.io --><svg xmlns="http://www.w3.org/2000/svg" xmlns:xlink="http://www.w3.org/1999/xlink" style="isolation:isolate" viewBox="0 0 105 120" width="105" height="120"><defs><clipPath id="_clipPath_RgQvha4Ss2kbYs7zSBcwx1xxG6YIpuSc"><rect width="105" height="120"/></clipPath></defs><g clip-path="url(#_clipPath_RgQvha4Ss2kbYs7zSBcwx1xxG6YIpuSc)"><path d=" M 52.5 0 L 105 30 L 105 90 L 52.5 120 L 0 90 L 0 30 L 52.5 0 Z " fill="rgb(106,215,229)"/><g><path d=" M 30.914 62.48 C 31 64.261 32.779 63.437 33.585 62.88 C 34.35 62.352 34.573 62.791 34.641 61.748 C 34.685 61.062 34.764 60.377 34.725 59.688 C 33.568 59.583 32.31 59.859 31.362 60.548 C 30.873 60.903 29.957 62.035 30.914 62.48 Z " fill-rule="evenodd" fill="rgb(246,210,162)" vector-effect="non-scaling-stroke" stroke-width="0.339" stroke="rgb(0,0,0)" stroke-linejoin="miter" stroke-linecap="round" stroke-miterlimit="4"/><path d=" M 30.914 62.48 C 31.173 62.384 31.447 62.315 31.623 62.081" fill-rule="evenodd" fill="rgb(198,177,152)" vector-effect="non-scaling-stroke" stroke-width="0.339" stroke="rgb(0,0,0)" stroke-linejoin="miter" stroke-linecap="round" stroke-miterlimit="4"/><path d=" M 35.025 41.265 C 28.208 39.348 33.277 30.675 38.752 34.242 L 35.025 41.265 Z " fill-rule="evenodd" fill="rgb(106,215,229)" vector-effect="non-scaling-stroke" stroke-width="0.339" stroke="rgb(0,0,0)" stroke-linejoin="miter" stroke-linecap="round" stroke-miterlimit="4"/><path d=" M 65.315 33.591 C 70.711 29.801 75.587 38.352 69.316 40.504 L 65.315 33.591 Z " fill-rule="evenodd" fill="rgb(106,215,229)" vector-effect="non-scaling-stroke" stroke-width="0.339" stroke="rgb(0,0,0)" stroke-linejoin="miter" stroke-linecap="round" stroke-miterlimit="4"/><path d=" M 66.476 84.398 C 67.846 85.246 70.352 87.81 68.295 89.054 C 66.32 90.863 65.214 87.068 63.48 86.542 C 64.227 85.528 65.173 84.603 66.476 84.398 Z " fill-rule="evenodd" fill="rgb(246,210,162)" vector-effect="non-scaling-stroke" stroke-width="0.339" stroke="rgb(0,0,0)" stroke-linejoin="miter" stroke-linecap="round" stroke-miterlimit="4"/><path d=" M 68.295 89.053 C 67.991 88.447 67.888 87.74 67.379 87.251" fill-rule="evenodd" fill="none" vector-effect="non-scaling-stroke" stroke-width="0.339" stroke="rgb(0,0,0)" stroke-linejoin="miter" stroke-linecap="round" stroke-miterlimit="4"/><path d=" M 41.988 87.296 C 40.379 87.545 39.473 88.996 38.132 89.733 C 36.868 90.487 36.385 89.492 36.271 89.29 C 36.073 89.2 36.09 89.374 35.784 89.066 C 34.612 87.217 37.005 85.866 38.25 84.947 C 39.986 84.596 41.073 86.1 41.988 87.296 Z " fill-rule="evenodd" fill="rgb(246,210,162)" vector-effect="non-scaling-stroke" stroke-width="0.339" stroke="rgb(0,0,0)" stroke-linejoin="miter" stroke-linecap="round" stroke-miterlimit="4"/><path d=" M 36.271 89.29 C 36.333 88.585 36.891 88.113 37.157 87.517" fill-rule="evenodd" fill="none" vector-effect="non-scaling-stroke" stroke-width="0.339" stroke="rgb(0,0,0)" stroke-linejoin="miter" stroke-linecap="round" stroke-miterlimit="4"/><path d=" M 35.31 38.869 C 34.41 38.393 33.75 37.747 34.3 36.707 C 34.81 35.744 35.756 35.848 36.656 36.324 L 35.31 38.869 Z " fill-rule="evenodd" fill="rgb(0,0,0)"/><path d=" M 67.895 37.965 C 68.794 37.489 69.454 36.843 68.904 35.802 C 68.395 34.839 67.449 34.944 66.549 35.42 L 67.895 37.965 Z " fill-rule="evenodd" fill="rgb(0,0,0)"/><path d=" M 74.086 62.254 C 74 64.035 72.221 63.211 71.415 62.654 C 70.65 62.125 70.427 62.565 70.359 61.522 C 70.315 60.836 70.236 60.15 70.275 59.462 C 71.432 59.357 72.69 59.633 73.638 60.322 C 74.127 60.677 75.043 61.809 74.086 62.254 Z " fill-rule="evenodd" fill="rgb(246,210,162)" vector-effect="non-scaling-stroke" stroke-width="0.339" stroke="rgb(0,0,0)" stroke-linejoin="miter" stroke-linecap="round" stroke-miterlimit="4"/><path d=" M 74.086 62.254 C 73.827 62.158 73.553 62.089 73.377 61.855" fill-rule="evenodd" fill="rgb(198,177,152)" vector-effect="non-scaling-stroke" stroke-width="0.339" stroke="rgb(0,0,0)" stroke-linejoin="miter" stroke-linecap="round" stroke-miterlimit="4"/><g><path d=" M 51.817 29.989 C 58.642 29.989 65.04 30.965 68.375 37.522 C 71.369 44.872 70.304 52.798 70.761 60.565 C 71.153 67.235 72.022 74.941 68.928 81.122 C 65.673 87.625 57.539 89.261 50.838 89.021 C 45.574 88.833 39.216 87.115 36.245 82.306 C 32.759 76.664 34.41 68.275 34.663 61.997 C 34.963 54.561 32.648 47.102 35.091 39.825 C 37.626 32.277 44.461 30.571 51.817 29.989 Z " fill-rule="evenodd" fill="rgb(106,215,229)" vector-effect="non-scaling-stroke" stroke-width="0.339" stroke="rgb(0,0,0)" stroke-linejoin="miter" stroke-linecap="round" stroke-miterlimit="4"/></g><path d=" M 53.022 39.151 C 54.247 46.275 65.891 44.391 64.219 37.207 C 62.719 30.764 52.614 32.548 53.022 39.151 Z " fill-rule="evenodd" fill="rgb(255,255,255)" vector-effect="non-scaling-stroke" stroke-width="0.329" stroke="rgb(0,0,0)" stroke-linejoin="miter" stroke-linecap="round" stroke-miterlimit="4"/><path d=" M 39.107 40.303 C 40.696 46.505 50.625 44.917 50.25 38.696 C 49.802 31.246 37.589 32.683 39.107 40.303 Z " fill-rule="evenodd" fill="rgb(255,255,255)" vector-effect="non-scaling-stroke" stroke-width="0.319" stroke="rgb(0,0,0)" stroke-linejoin="miter" stroke-linecap="round" stroke-miterlimit="4"/><path d=" M 54.427 47.699 C 54.432 48.625 54.637 49.665 54.462 50.65 C 54.225 51.097 53.762 51.144 53.362 51.325 C 52.809 51.238 52.344 50.875 52.122 50.358 C 51.98 49.233 52.175 48.144 52.211 47.019 L 54.427 47.699 Z " fill-rule="evenodd" fill="rgb(255,255,255)" vector-effect="non-scaling-stroke" stroke-width="0.339" stroke="rgb(0,0,0)" stroke-linejoin="miter" stroke-linecap="round" stroke-miterlimit="4"/><g><ellipse vector-effect="non-scaling-stroke" cx="0" cy="0" rx="1" ry="1" transform="matrix(1.677,0,0,1.816,41.846,39.292)" fill="rgb(0,0,0)"/><ellipse vector-effect="non-scaling-stroke" cx="0" cy="0" rx="1" ry="1" transform="matrix(0.395,0,0,0.462,42.609,39.702)" fill="rgb(255,255,255)"/></g><g><ellipse vector-effect="non-scaling-stroke" cx="0" cy="0" rx="1" ry="1" transform="matrix(1.649,0,0,1.816,55.894,38.84)" fill="rgb(0,0,0)"/><ellipse vector-effect="non-scaling-stroke" cx="0" cy="0" rx="1" ry="1" transform="matrix(0.389,0,0,0.462,56.644,39.249)" fill="rgb(255,255,255)"/></g><path d=" M 49.635 47.598 C 48.904 49.371 50.043 52.916 52.028 50.301 C 51.886 49.177 52.081 48.088 52.117 46.963 L 49.635 47.598 Z " fill-rule="evenodd" fill="rgb(255,255,255)" vector-effect="non-scaling-stroke" stroke-width="0.339" stroke="rgb(0,0,0)" stroke-linejoin="miter" stroke-linecap="round" stroke-miterlimit="4"/><g><path d=" M 49.886 44.184 C 48.522 44.3 47.408 45.921 48.117 47.204 C 49.055 48.902 51.151 47.054 52.456 47.227 C 53.958 47.258 55.189 48.815 56.395 47.508 C 57.737 46.055 55.817 44.639 54.317 44.007 L 49.886 44.184 Z " fill-rule="evenodd" fill="rgb(246,210,162)" vector-effect="non-scaling-stroke" stroke-width="0.339" stroke="rgb(35,31,32)" stroke-linejoin="miter" stroke-linecap="round" stroke-miterlimit="4"/><path d=" M 49.714 44.113 C 49.613 41.751 54.116 41.456 54.648 43.433 C 55.179 45.405 49.936 45.863 49.714 44.113 C 49.537 42.715 49.714 44.113 49.714 44.113 Z " fill-rule="evenodd" fill="rgb(0,0,0)"/></g></g></g></svg>