<?xml version="1.0" standalone="no"?><!-- Generator: Gravit.io --><svg xmlns="http://www.w3.org/2000/svg" xmlns:xlink="http://www.w3.org/1999/xlink" style="isolation:isolate" viewBox="0 0 105 120" width="105" height="120"><defs><clipPath id="_clipPath_RcRcLiHzOQfSqpNMQ8DfI1pVQiqvdHn8"><rect width="105" height="120"/></clipPath></defs><g clip-path="url(#_clipPath_RcRcLiHzOQfSqpNMQ8DfI1pVQiqvdHn8)"><path d=" M 52.5 0 L 105 30 L 105 90 L 52.5 120 L 0 90 L 0 30 L 52.5 0 Z " fill="rgb(49,47,48)"/><linearGradient id="_lgradient_8" x1="0" y1="0.5" x2="6.123233995736766e-17" y2="-0.5" gradientTransform="matrix(55.246,0,0,60.036,24.877,29.982)" gradientUnits="userSpaceOnUse"><stop offset="0%" stop-opacity="1" style="stop-color:rgb(251,204,10)"/><stop offset="68.8609917%" stop-opacity="1" style="stop-color:rgb(240,90,40)"/></linearGradient><path d=" M 80.034 56.477 C 79.935 55.468 79.77 54.311 79.439 53.021 C 79.108 51.747 78.612 50.341 77.884 48.886 C 77.157 47.43 76.214 45.925 74.99 44.453 C 74.51 43.875 73.981 43.312 73.419 42.766 C 74.262 39.409 72.393 36.498 72.393 36.498 C 69.168 36.3 67.118 37.507 66.357 38.053 C 66.224 38.003 66.109 37.937 65.976 37.887 C 65.431 37.672 64.868 37.457 64.273 37.276 C 63.694 37.094 63.099 36.928 62.487 36.779 C 61.875 36.63 61.263 36.515 60.634 36.415 C 60.519 36.399 60.419 36.382 60.303 36.366 C 58.898 31.867 54.862 29.982 54.862 29.982 C 50.347 32.843 49.504 36.845 49.504 36.845 C 49.504 36.845 49.487 36.928 49.454 37.077 C 49.206 37.143 48.958 37.226 48.71 37.292 C 48.362 37.391 48.015 37.524 47.684 37.656 C 47.337 37.788 47.006 37.921 46.659 38.069 C 45.981 38.367 45.303 38.698 44.641 39.062 C 43.996 39.426 43.368 39.823 42.756 40.236 C 42.673 40.203 42.59 40.17 42.59 40.17 C 36.339 37.788 30.798 40.649 30.798 40.649 C 30.285 47.298 33.295 51.482 33.891 52.243 C 33.742 52.657 33.61 53.07 33.477 53.484 C 33.014 54.989 32.667 56.527 32.452 58.131 C 32.419 58.363 32.386 58.594 32.369 58.826 C 26.581 61.687 24.877 67.525 24.877 67.525 C 29.69 73.066 35.313 73.413 35.313 73.413 C 35.313 73.413 35.33 73.397 35.33 73.397 C 36.041 74.67 36.868 75.877 37.794 77.019 C 38.191 77.498 38.588 77.945 39.018 78.391 C 37.265 83.419 39.266 87.587 39.266 87.587 C 44.625 87.785 48.147 85.238 48.892 84.66 C 49.421 84.841 49.967 85.007 50.512 85.139 C 52.166 85.569 53.853 85.817 55.54 85.883 C 55.954 85.9 56.384 85.917 56.797 85.9 L 56.996 85.9 L 57.128 85.9 L 57.393 85.9 L 57.657 85.883 L 57.657 85.9 C 60.188 89.505 64.62 90.018 64.62 90.018 C 67.779 86.694 67.961 83.386 67.961 82.675 C 67.961 82.675 67.961 82.658 67.961 82.625 C 67.961 82.559 67.961 82.526 67.961 82.526 C 67.961 82.476 67.961 82.427 67.961 82.377 C 68.623 81.914 69.251 81.418 69.846 80.872 C 71.103 79.731 72.212 78.424 73.138 77.019 C 73.22 76.886 73.303 76.754 73.386 76.622 C 76.958 76.82 79.489 74.405 79.489 74.405 C 78.893 70.684 76.776 68.865 76.33 68.518 C 76.33 68.518 76.313 68.501 76.28 68.484 C 76.247 68.468 76.247 68.451 76.247 68.451 C 76.247 68.451 76.247 68.451 76.247 68.451 C 76.23 68.435 76.197 68.418 76.164 68.402 C 76.181 68.17 76.197 67.955 76.214 67.724 C 76.247 67.327 76.247 66.913 76.247 66.516 L 76.247 66.219 L 76.247 66.07 L 76.247 65.987 C 76.247 65.888 76.247 65.921 76.247 65.888 L 76.23 65.64 L 76.214 65.309 C 76.214 65.193 76.197 65.094 76.181 64.995 C 76.164 64.896 76.164 64.78 76.148 64.681 L 76.115 64.366 L 76.065 64.052 C 75.999 63.639 75.933 63.242 75.834 62.828 C 75.453 61.224 74.825 59.702 74.014 58.33 C 73.187 56.957 72.162 55.749 70.988 54.724 C 69.83 53.699 68.523 52.872 67.167 52.26 C 65.794 51.648 64.372 51.251 62.95 51.069 C 62.239 50.97 61.527 50.937 60.816 50.953 L 60.552 50.953 L 60.485 50.953 C 60.469 50.953 60.386 50.953 60.403 50.953 L 60.287 50.953 L 60.022 50.97 C 59.923 50.97 59.824 50.986 59.741 50.986 C 59.377 51.019 59.013 51.069 58.666 51.135 C 57.244 51.4 55.904 51.912 54.73 52.624 C 53.556 53.335 52.53 54.211 51.703 55.204 C 50.876 56.196 50.231 57.304 49.785 58.445 C 49.338 59.587 49.09 60.777 49.024 61.919 C 49.007 62.2 49.007 62.497 49.007 62.779 C 49.007 62.845 49.007 62.927 49.007 62.994 L 49.024 63.225 C 49.04 63.357 49.04 63.506 49.057 63.639 C 49.107 64.217 49.222 64.78 49.371 65.309 C 49.685 66.384 50.182 67.36 50.794 68.187 C 51.406 69.014 52.15 69.692 52.927 70.238 C 53.704 70.767 54.548 71.147 55.375 71.395 C 56.202 71.643 57.029 71.743 57.806 71.743 C 57.905 71.743 58.005 71.743 58.087 71.743 C 58.137 71.743 58.187 71.743 58.236 71.743 C 58.286 71.743 58.335 71.743 58.385 71.726 C 58.468 71.726 58.55 71.71 58.633 71.71 C 58.65 71.71 58.683 71.71 58.699 71.693 L 58.782 71.676 C 58.832 71.676 58.881 71.66 58.931 71.66 C 59.03 71.643 59.113 71.627 59.212 71.61 C 59.311 71.594 59.394 71.577 59.477 71.544 C 59.658 71.511 59.824 71.445 59.989 71.395 C 60.32 71.28 60.651 71.147 60.932 70.998 C 61.23 70.85 61.494 70.668 61.759 70.502 C 61.825 70.453 61.908 70.403 61.974 70.337 C 62.239 70.122 62.288 69.725 62.073 69.46 C 61.891 69.229 61.56 69.163 61.296 69.311 C 61.23 69.344 61.164 69.378 61.097 69.411 C 60.866 69.526 60.634 69.626 60.386 69.708 C 60.138 69.791 59.873 69.857 59.609 69.907 C 59.477 69.923 59.344 69.94 59.195 69.956 C 59.129 69.956 59.063 69.973 58.98 69.973 C 58.914 69.973 58.832 69.973 58.782 69.973 C 58.716 69.973 58.65 69.973 58.583 69.973 C 58.501 69.973 58.418 69.973 58.335 69.956 C 58.335 69.956 58.286 69.956 58.319 69.956 L 58.286 69.956 L 58.236 69.956 C 58.203 69.956 58.153 69.956 58.12 69.94 C 58.038 69.923 57.972 69.923 57.889 69.907 C 57.277 69.824 56.665 69.642 56.086 69.378 C 55.491 69.113 54.928 68.749 54.416 68.286 C 53.903 67.823 53.456 67.277 53.109 66.649 C 52.762 66.02 52.514 65.326 52.398 64.598 C 52.348 64.234 52.315 63.854 52.332 63.49 C 52.332 63.39 52.348 63.291 52.348 63.192 C 52.348 63.225 52.348 63.175 52.348 63.175 L 52.348 63.142 L 52.348 63.06 C 52.348 63.01 52.365 62.96 52.365 62.911 C 52.381 62.712 52.414 62.514 52.448 62.315 C 52.729 60.728 53.523 59.173 54.746 57.999 C 55.061 57.701 55.391 57.436 55.739 57.188 C 56.086 56.94 56.466 56.725 56.863 56.543 C 57.26 56.361 57.657 56.213 58.087 56.097 C 58.501 55.981 58.931 55.915 59.377 55.865 C 59.592 55.849 59.807 55.832 60.039 55.832 C 60.105 55.832 60.138 55.832 60.188 55.832 L 60.37 55.832 L 60.485 55.832 C 60.535 55.832 60.485 55.832 60.502 55.832 L 60.552 55.832 L 60.734 55.849 C 61.213 55.882 61.676 55.948 62.139 56.064 C 63.065 56.262 63.975 56.61 64.819 57.073 C 66.506 58.015 67.944 59.471 68.821 61.224 C 69.268 62.1 69.582 63.043 69.731 64.019 C 69.764 64.267 69.797 64.515 69.813 64.763 L 69.83 64.945 L 69.846 65.127 C 69.846 65.193 69.846 65.259 69.846 65.309 C 69.846 65.375 69.846 65.441 69.846 65.491 L 69.846 65.656 L 69.846 65.838 C 69.846 65.954 69.83 66.152 69.83 66.268 C 69.813 66.533 69.78 66.814 69.747 67.079 C 69.714 67.343 69.665 67.608 69.615 67.873 C 69.565 68.137 69.499 68.402 69.433 68.65 C 69.301 69.163 69.135 69.675 68.937 70.188 C 68.54 71.18 68.011 72.14 67.382 73.016 C 66.109 74.769 64.372 76.192 62.387 77.101 C 61.395 77.548 60.353 77.879 59.278 78.044 C 58.749 78.143 58.203 78.193 57.657 78.209 L 57.558 78.209 L 57.475 78.209 L 57.293 78.209 L 57.029 78.209 L 56.896 78.209 C 56.963 78.209 56.88 78.209 56.88 78.209 L 56.83 78.209 C 56.533 78.209 56.251 78.193 55.954 78.16 C 54.796 78.077 53.655 77.862 52.53 77.548 C 51.422 77.234 50.347 76.787 49.322 76.258 C 47.287 75.166 45.452 73.678 44.029 71.875 C 43.318 70.982 42.69 70.006 42.177 68.997 C 41.664 67.988 41.251 66.913 40.953 65.838 C 40.655 64.747 40.473 63.639 40.391 62.514 L 40.374 62.299 L 40.374 62.249 L 40.374 62.2 L 40.374 62.1 L 40.374 61.919 L 40.374 61.869 L 40.374 61.803 L 40.374 61.67 L 40.374 61.406 L 40.374 61.356 C 40.374 61.356 40.374 61.373 40.374 61.34 L 40.374 61.24 C 40.374 61.108 40.374 60.959 40.374 60.827 C 40.391 60.281 40.44 59.702 40.506 59.14 C 40.573 58.578 40.672 57.999 40.788 57.436 C 40.903 56.874 41.036 56.312 41.201 55.749 C 41.515 54.641 41.912 53.566 42.375 52.557 C 43.318 50.54 44.542 48.737 46.014 47.298 C 46.378 46.934 46.758 46.603 47.155 46.273 C 47.552 45.958 47.965 45.661 48.395 45.38 C 48.809 45.098 49.255 44.85 49.702 44.619 C 49.917 44.503 50.149 44.387 50.38 44.288 C 50.496 44.238 50.612 44.189 50.727 44.139 C 50.843 44.09 50.959 44.04 51.075 43.99 C 51.538 43.792 52.017 43.626 52.514 43.478 C 52.629 43.445 52.762 43.411 52.878 43.362 C 52.993 43.329 53.126 43.296 53.241 43.263 C 53.489 43.196 53.738 43.13 53.986 43.081 C 54.101 43.048 54.234 43.031 54.366 42.998 C 54.498 42.965 54.614 42.948 54.746 42.915 C 54.879 42.899 54.994 42.866 55.127 42.849 L 55.309 42.816 L 55.507 42.783 C 55.64 42.766 55.755 42.75 55.888 42.733 C 56.036 42.717 56.169 42.7 56.318 42.684 C 56.433 42.667 56.632 42.651 56.748 42.634 C 56.83 42.618 56.93 42.618 57.012 42.601 L 57.194 42.585 L 57.277 42.568 L 57.376 42.568 C 57.525 42.551 57.657 42.551 57.806 42.535 L 58.021 42.518 C 58.021 42.518 58.104 42.518 58.038 42.518 L 58.087 42.518 L 58.187 42.518 C 58.302 42.518 58.435 42.502 58.55 42.502 C 59.03 42.485 59.526 42.485 60.006 42.502 C 60.965 42.535 61.908 42.651 62.817 42.816 C 64.653 43.163 66.373 43.742 67.944 44.52 C 69.516 45.28 70.905 46.223 72.129 47.248 C 72.212 47.315 72.278 47.381 72.36 47.447 C 72.427 47.513 72.509 47.579 72.575 47.645 C 72.724 47.778 72.857 47.91 73.005 48.042 C 73.154 48.175 73.287 48.307 73.419 48.439 C 73.551 48.572 73.683 48.704 73.816 48.853 C 74.329 49.399 74.808 49.944 75.238 50.507 C 76.098 51.615 76.793 52.739 77.339 53.798 C 77.372 53.864 77.405 53.93 77.438 53.996 C 77.471 54.063 77.504 54.129 77.537 54.195 C 77.603 54.327 77.669 54.459 77.719 54.592 C 77.785 54.724 77.835 54.84 77.901 54.972 C 77.951 55.104 78.017 55.22 78.066 55.353 C 78.265 55.849 78.463 56.328 78.612 56.775 C 78.86 57.503 79.042 58.148 79.191 58.71 C 79.241 58.942 79.456 59.09 79.687 59.057 C 79.935 59.041 80.117 58.842 80.117 58.594 C 80.134 57.999 80.117 57.288 80.034 56.477 Z " fill="url(#_lgradient_8)"/></g></svg>