<?xml version="1.0" standalone="no"?><!-- Generator: Gravit.io --><svg xmlns="http://www.w3.org/2000/svg" xmlns:xlink="http://www.w3.org/1999/xlink" style="isolation:isolate" viewBox="0 0 105 120" width="105" height="120"><defs><clipPath id="_clipPath_xLVe1GCrCLo9ssJZG501Eh09LPrj3EyR"><rect width="105" height="120"/></clipPath></defs><g clip-path="url(#_clipPath_xLVe1GCrCLo9ssJZG501Eh09LPrj3EyR)"><path d=" M 52.5 0 L 105 30 L 105 90 L 52.5 120 L 0 90 L 0 30 L 52.5 0 Z " fill="rgb(49,47,48)"/><g><g><g><rect x="40.548" y="29.282" width="2.545" height="49.114" transform="matrix(-0.866,-0.5,0.5,-0.866,51.118,121.375)" fill="rgb(229,53,171)"/></g></g><g><g><rect x="27.935" y="71.071" width="49.115" height="2.545" transform="matrix(1,0,0,1,0,0)" fill="rgb(229,53,171)"/></g></g><g><g><rect x="27.643" y="77.218" width="28.367" height="2.545" transform="matrix(-0.866,-0.5,0.5,-0.866,38.803,167.379)" fill="rgb(229,53,171)"/></g></g><g><g><rect x="48.984" y="40.251" width="28.367" height="2.545" transform="matrix(-0.866,-0.5,0.5,-0.866,97.109,109.069)" fill="rgb(229,53,171)"/></g></g><g><g><rect x="40.561" y="27.331" width="2.545" height="28.367" transform="matrix(-0.5,-0.866,0.866,-0.5,26.798,98.5)" fill="rgb(229,53,171)"/></g></g><g><g><rect x="38.628" y="52.567" width="49.114" height="2.545" transform="matrix(-0.5,-0.866,0.866,-0.5,48.152,135.479)" fill="rgb(229,53,171)"/></g></g><g><g><rect x="29.882" y="45.816" width="2.545" height="28.368" transform="matrix(1,0,0,1,0,0)" fill="rgb(229,53,171)"/></g></g><g><g><rect x="72.572" y="45.816" width="2.545" height="28.368" transform="matrix(1,0,0,1,0,0)" fill="rgb(229,53,171)"/></g></g><g><g><rect x="62.056" y="66.141" width="2.223" height="24.672" transform="matrix(-0.5,-0.866,0.866,-0.5,26.789,172.42)" fill="rgb(229,53,171)"/></g></g><path d=" M 78.491 75.012 C 77.019 77.573 73.738 78.447 71.177 76.975 C 68.616 75.503 67.742 72.221 69.214 69.66 C 70.686 67.1 73.968 66.226 76.528 67.698 C 79.104 69.185 79.978 72.451 78.491 75.012 Z " fill="rgb(229,53,171)"/><path d=" M 35.771 50.34 C 34.299 52.9 31.017 53.774 28.456 52.302 C 25.896 50.83 25.022 47.549 26.494 44.988 C 27.966 42.427 31.247 41.553 33.808 43.025 C 36.369 44.513 37.243 47.779 35.771 50.34 Z " fill="rgb(229,53,171)"/><path d=" M 26.509 75.012 C 25.037 72.451 25.911 69.185 28.472 67.698 C 31.032 66.226 34.299 67.1 35.786 69.66 C 37.258 72.221 36.384 75.487 33.823 76.975 C 31.247 78.447 27.981 77.573 26.509 75.012 Z " fill="rgb(229,53,171)"/><path d=" M 69.229 50.34 C 67.757 47.779 68.631 44.513 71.192 43.025 C 73.753 41.553 77.019 42.427 78.506 44.988 C 79.978 47.549 79.104 50.815 76.544 52.302 C 73.983 53.774 70.701 52.9 69.229 50.34 Z " fill="rgb(229,53,171)"/><path d=" M 52.5 90.024 C 49.541 90.024 47.148 87.632 47.148 84.672 C 47.148 81.713 49.541 79.321 52.5 79.321 C 55.459 79.321 57.852 81.713 57.852 84.672 C 57.852 87.616 55.459 90.024 52.5 90.024 Z " fill="rgb(229,53,171)"/><path d=" M 52.5 40.679 C 49.541 40.679 47.148 38.287 47.148 35.328 C 47.148 32.368 49.541 29.976 52.5 29.976 C 55.459 29.976 57.852 32.368 57.852 35.328 C 57.852 38.287 55.459 40.679 52.5 40.679 Z " fill="rgb(229,53,171)"/></g></g></svg>