<?xml version="1.0" standalone="no"?><!-- Generator: Gravit.io --><svg xmlns="http://www.w3.org/2000/svg" xmlns:xlink="http://www.w3.org/1999/xlink" style="isolation:isolate" viewBox="0 0 105 120" width="105" height="120"><defs><clipPath id="_clipPath_eSKOit6XGTZizEHko362aI2n23sKbWP8"><rect width="105" height="120"/></clipPath></defs><g clip-path="url(#_clipPath_eSKOit6XGTZizEHko362aI2n23sKbWP8)"><path d=" M 104 89.397 L 52.5 118.85 L 1 89.397 L 1 30.547 L 52.5 1.15 L 104 30.547 L 104 89.397 Z " fill="rgb(232,232,232)" vector-effect="non-scaling-stroke" stroke-width="2" stroke="rgb(53,41,80)" stroke-linejoin="miter" stroke-linecap="butt" stroke-miterlimit="4"/><g><path d=" M 10.121 30.174 C 10.121 30.271 10.291 30.576 10.486 30.843 C 10.693 31.123 10.851 31.378 10.851 31.403 C 10.851 31.439 11.106 31.828 11.423 32.291 C 12.408 33.726 14.013 36.122 14.013 36.159 C 14.013 36.183 14.318 36.633 14.682 37.181 C 15.047 37.728 15.656 38.604 16.02 39.151 C 16.385 39.698 16.689 40.149 16.689 40.173 C 16.689 40.185 17.152 40.878 17.699 41.705 C 18.259 42.533 18.879 43.457 19.086 43.761 C 19.755 44.759 22.102 48.323 22.224 48.517 C 22.297 48.627 23.076 49.794 23.951 51.12 C 24.839 52.434 25.569 53.541 25.569 53.565 C 25.569 53.602 25.776 53.906 26.031 54.259 C 26.275 54.611 26.542 54.988 26.603 55.098 C 26.956 55.682 29.62 59.586 29.717 59.635 C 29.948 59.793 29.802 60.207 29.243 60.997 C 28.72 61.727 27.941 62.895 27.576 63.491 C 27.515 63.601 27.126 64.172 26.725 64.768 C 26.323 65.352 25.946 65.936 25.873 66.045 C 25.764 66.216 24.681 67.846 22.577 70.984 C 22.248 71.483 21.896 72.006 21.798 72.164 C 21.701 72.31 21.287 72.93 20.886 73.514 C 20.485 74.11 20.132 74.645 20.095 74.718 C 20.059 74.779 19.755 75.254 19.414 75.752 C 17.346 78.818 16.689 79.803 16.689 79.827 C 16.689 79.851 16.385 80.302 16.02 80.849 C 15.656 81.396 15.047 82.272 14.682 82.819 C 14.318 83.367 14.013 83.817 14.013 83.841 C 14.013 83.878 12.408 86.274 11.423 87.709 C 11.106 88.172 10.851 88.561 10.851 88.585 C 10.851 88.597 10.656 88.914 10.413 89.266 L 9.975 89.923 L 17.31 89.96 C 21.348 89.972 24.718 89.96 24.791 89.935 C 24.912 89.887 26.688 87.32 26.907 86.882 C 26.968 86.761 27.576 85.86 28.89 83.914 C 29.267 83.355 29.583 82.88 29.583 82.844 C 29.583 82.807 29.754 82.576 29.948 82.321 C 30.155 82.065 30.313 81.834 30.313 81.798 C 30.313 81.737 31.006 80.703 32.296 78.83 C 32.673 78.27 32.989 77.784 32.989 77.747 C 32.989 77.711 33.159 77.467 33.354 77.212 C 33.561 76.956 33.719 76.725 33.719 76.689 C 33.719 76.652 34.011 76.202 34.364 75.679 C 35.057 74.658 35.604 73.855 37.332 71.252 C 39.424 68.113 39.716 67.663 40.032 67.201 C 40.202 66.946 40.409 66.654 40.47 66.532 C 40.543 66.423 40.871 65.912 41.2 65.413 C 41.54 64.914 41.844 64.415 41.893 64.318 C 41.942 64.221 42.234 63.807 42.526 63.406 C 42.83 63.004 43.268 62.348 43.523 61.946 C 43.778 61.545 44.131 61.022 44.326 60.778 C 44.885 60.049 44.91 60.109 43.134 57.446 C 42.866 57.044 42.185 56.022 41.613 55.183 C 41.054 54.344 40.543 53.565 40.47 53.456 C 40.409 53.346 40.202 53.054 40.032 52.799 C 39.716 52.337 39.375 51.814 37.332 48.748 C 35.604 46.145 35.057 45.342 34.364 44.321 C 34.011 43.798 33.719 43.348 33.719 43.311 C 33.719 43.275 33.561 43.044 33.354 42.788 C 33.159 42.533 32.989 42.289 32.989 42.253 C 32.989 42.216 32.673 41.73 32.296 41.17 C 31.006 39.297 30.313 38.263 30.313 38.202 C 30.313 38.166 30.155 37.935 29.948 37.679 C 29.754 37.424 29.583 37.193 29.583 37.156 C 29.583 37.12 29.267 36.645 28.89 36.086 C 28.513 35.526 27.917 34.638 27.552 34.103 C 27.199 33.58 26.907 33.13 26.907 33.118 C 26.907 33.057 25.338 30.746 25.034 30.357 L 24.778 30.028 L 17.456 30.028 C 11.374 30.016 10.121 30.04 10.121 30.174 Z " fill="rgb(53,41,80)"/><path d=" M 29.746 30.113 C 29.746 30.162 29.904 30.393 30.111 30.624 C 30.305 30.855 30.463 31.099 30.475 31.159 C 30.475 31.208 30.634 31.463 30.828 31.707 C 31.011 31.95 31.266 32.303 31.376 32.51 C 31.692 33.069 31.874 33.349 33.699 36.037 C 34.636 37.412 35.463 38.628 35.523 38.75 C 35.596 38.859 36.192 39.771 36.849 40.781 C 38.905 43.895 40.401 46.133 43.941 51.412 C 44.768 52.641 45.437 53.675 45.437 53.711 C 45.437 53.736 45.595 53.967 45.79 54.21 C 45.972 54.453 46.155 54.697 46.179 54.77 C 46.203 54.83 46.775 55.706 47.444 56.704 C 48.113 57.689 48.721 58.601 48.782 58.711 C 48.855 58.82 49.05 59.1 49.244 59.343 C 49.427 59.586 49.573 59.891 49.573 60 C 49.573 60.109 49.427 60.414 49.244 60.657 C 49.05 60.9 48.855 61.18 48.782 61.289 C 48.721 61.411 48.186 62.214 47.602 63.09 C 47.006 63.953 46.532 64.707 46.532 64.744 C 46.532 64.793 46.289 65.145 45.984 65.535 C 45.68 65.924 45.437 66.264 45.437 66.301 C 45.437 66.35 42.858 70.218 41.751 71.823 C 41.374 72.383 41.058 72.857 41.058 72.882 C 41.058 72.918 39.428 75.387 38.796 76.3 C 38.224 77.115 35.584 81.117 35.584 81.153 C 35.584 81.177 35.305 81.603 34.976 82.09 C 32.58 85.593 31.68 86.943 31.376 87.49 C 31.266 87.685 31.011 88.05 30.828 88.293 C 30.634 88.537 30.475 88.78 30.475 88.828 C 30.475 88.877 30.305 89.12 30.111 89.376 C 29.904 89.631 29.746 89.875 29.746 89.911 C 29.746 89.948 33.103 89.984 37.202 89.984 C 44.5 89.984 44.646 89.984 44.768 89.741 C 44.841 89.607 45.437 88.707 46.106 87.734 C 46.775 86.748 47.432 85.775 47.566 85.556 C 47.7 85.337 47.955 84.96 48.15 84.717 C 48.332 84.474 48.478 84.255 48.478 84.218 C 48.478 84.194 48.843 83.622 49.305 82.953 C 49.755 82.296 50.181 81.664 50.242 81.567 C 50.315 81.457 51.13 80.241 52.066 78.854 C 53.003 77.467 54.073 75.886 54.438 75.327 C 54.803 74.767 55.472 73.77 55.91 73.113 C 56.348 72.456 56.798 71.762 56.92 71.568 C 57.102 71.276 57.163 71.252 57.297 71.385 C 57.431 71.531 60.703 76.348 61.068 76.956 C 61.141 77.066 61.518 77.638 61.919 78.222 C 62.321 78.818 62.71 79.389 62.771 79.499 C 62.844 79.62 63.549 80.691 64.364 81.895 C 68.767 88.464 69.643 89.777 69.643 89.875 C 69.643 89.935 72.818 89.984 77.136 89.984 C 83.547 89.984 84.617 89.96 84.568 89.814 C 84.532 89.716 84.057 88.999 83.522 88.22 C 82.975 87.442 82.537 86.785 82.537 86.761 C 82.537 86.724 81.515 85.204 78.803 81.165 C 78.389 80.557 77.842 79.742 77.586 79.341 C 77.319 78.939 76.419 77.589 75.591 76.348 C 74.764 75.108 74.034 74.001 73.961 73.891 C 73.901 73.782 73.463 73.149 72.988 72.468 C 72.526 71.799 72.076 71.154 72.015 71.033 C 71.942 70.923 71.602 70.4 71.249 69.877 C 70.908 69.354 70.616 68.892 70.616 68.867 C 70.616 68.831 70.41 68.527 70.154 68.174 C 69.619 67.456 67.575 64.44 67.575 64.379 C 67.575 64.355 67.32 63.965 67.004 63.503 C 66.225 62.36 64.255 59.44 64.109 59.185 C 64.048 59.076 63.282 57.92 62.406 56.631 C 61.542 55.341 60.776 54.186 60.703 54.076 C 60.642 53.967 60.204 53.322 59.73 52.641 C 59.267 51.96 58.83 51.315 58.757 51.205 C 58.696 51.096 57.54 49.369 56.202 47.374 C 54.864 45.379 53.721 43.652 53.648 43.542 C 53.587 43.445 53.38 43.129 53.185 42.861 C 52.565 41.949 51.957 41.024 51.823 40.818 C 51.762 40.696 51.556 40.38 51.373 40.112 C 50.619 39.017 50.351 38.628 50.181 38.348 C 50.084 38.19 49.621 37.497 49.147 36.828 C 48.685 36.147 48.247 35.502 48.174 35.392 C 48.113 35.271 47.347 34.127 46.471 32.838 C 45.607 31.536 44.841 30.381 44.768 30.247 C 44.659 30.028 44.427 30.016 37.202 30.016 C 33.103 30.016 29.746 30.065 29.746 30.113 Z " fill="rgb(74,58,116)"/><path d=" M 61.566 47.508 C 61.53 47.568 61.7 47.897 61.956 48.213 C 62.199 48.542 62.467 48.907 62.527 49.016 C 62.6 49.125 62.977 49.697 63.379 50.293 C 63.78 50.877 64.157 51.461 64.23 51.57 C 64.291 51.68 64.68 52.252 65.082 52.848 C 65.483 53.431 65.86 54.015 65.933 54.125 C 65.994 54.234 66.541 55.049 67.125 55.925 L 68.196 57.506 L 81.503 57.506 L 94.822 57.506 L 94.822 52.519 L 94.822 47.532 L 78.681 47.532 C 69.789 47.532 62.333 47.496 62.089 47.459 C 61.846 47.41 61.615 47.435 61.566 47.508 Z " fill="rgb(124,54,121)"/><path d=" M 71.853 62.494 C 71.804 62.567 71.938 62.859 72.157 63.138 C 72.534 63.649 75.319 67.858 75.319 67.919 C 75.319 67.943 75.478 68.198 75.672 68.478 C 76.56 69.792 77.996 72.018 77.996 72.103 C 77.996 72.152 78.093 72.261 78.214 72.359 C 78.385 72.504 79.735 72.529 86.729 72.492 L 95.025 72.456 L 95.025 67.481 L 95.025 62.494 L 83.749 62.494 C 77.533 62.494 72.339 62.457 72.206 62.421 C 72.06 62.384 71.901 62.408 71.853 62.494 Z " fill="rgb(124,54,121)"/></g></g></svg>