<?xml version="1.0" standalone="no"?><!-- Generator: Gravit.io --><svg xmlns="http://www.w3.org/2000/svg" xmlns:xlink="http://www.w3.org/1999/xlink" style="isolation:isolate" viewBox="0 0 105 120" width="105" height="120"><defs><clipPath id="_clipPath_MMXKOjPrwpIGa6uGbrLB2NYdtblqZPsp"><rect width="105" height="120"/></clipPath></defs><g clip-path="url(#_clipPath_MMXKOjPrwpIGa6uGbrLB2NYdtblqZPsp)"><path d=" M 52.5 0 L 105 30 L 105 90 L 52.5 120 L 0 90 L 0 30 L 52.5 0 Z " fill="rgb(39,122,159)"/><g><path d=" M 51.807 30.529 C 51.536 30.828 51.128 31.588 50.965 32.213 C 50.612 33.354 50.504 37.455 50.802 38.379 C 50.938 38.814 50.748 38.922 49.39 39.085 C 47.353 39.33 44.664 40.172 42.654 41.177 C 41.133 41.964 41.024 41.964 40.752 41.53 C 38.824 38.162 36.624 35.962 35.157 35.962 C 34.559 35.962 34.342 36.124 34.206 36.641 C 33.88 37.972 35.374 41.177 37.303 43.214 L 38.118 44.083 L 36.977 45.278 C 36.352 45.93 35.483 46.908 35.048 47.478 L 34.261 48.51 L 34.913 48.999 C 35.266 49.271 35.89 49.678 36.298 49.923 C 37.031 50.357 37.031 50.357 38.145 48.891 C 42.11 43.73 49.825 41.095 56.371 42.616 C 60.228 43.54 64.709 46.5 66.801 49.515 C 67.235 50.14 67.697 50.629 67.806 50.629 C 67.942 50.629 68.594 50.276 69.273 49.869 L 70.522 49.108 L 69.789 48.022 C 69.408 47.451 68.539 46.419 67.887 45.713 L 66.692 44.49 L 67.887 43.159 C 69.897 40.987 71.337 37.836 70.902 36.505 C 70.658 35.744 69.49 35.799 68.24 36.668 C 67.072 37.455 64.981 40.144 64.492 41.475 L 64.166 42.372 L 61.857 41.204 C 60.418 40.498 58.516 39.819 56.86 39.438 C 54.496 38.895 54.225 38.786 54.361 38.325 C 54.659 37.401 54.524 33.381 54.17 32.213 C 53.845 31.099 53.057 29.986 52.568 29.986 C 52.432 29.986 52.079 30.23 51.807 30.529 Z " fill="rgb(39,122,159)" vector-effect="non-scaling-stroke" stroke-width="0.5" stroke="rgb(255,255,255)" stroke-linejoin="miter" stroke-linecap="butt" stroke-miterlimit="4"/><path d=" M 23.64 60.543 L 23.64 68.284 L 25.623 68.284 L 27.579 68.284 L 27.579 65.161 L 27.579 62.037 L 30.023 62.037 L 32.468 62.037 L 32.468 65.161 L 32.468 68.284 L 34.505 68.284 L 36.542 68.284 L 36.542 60.543 L 36.542 52.802 L 34.505 52.802 L 32.468 52.802 L 32.468 55.79 L 32.468 58.778 L 30.023 58.778 L 27.579 58.778 L 27.579 55.79 L 27.579 52.802 L 25.623 52.802 L 23.64 52.802 L 23.64 60.543 Z " fill="rgb(39,122,159)" vector-effect="non-scaling-stroke" stroke-width="0.5" stroke="rgb(255,255,255)" stroke-linejoin="miter" stroke-linecap="butt" stroke-miterlimit="4"/><path d=" M 40.073 60.543 L 40.073 68.284 L 45.098 68.284 L 50.123 68.284 L 50.123 66.655 L 50.123 65.025 L 47 65.025 L 43.876 65.025 L 43.876 63.531 L 43.876 62.037 L 46.456 62.037 L 49.037 62.037 L 49.037 60.407 L 49.037 58.778 L 46.456 58.778 L 43.876 58.778 L 43.876 57.42 L 43.876 56.061 L 46.864 56.061 L 49.852 56.061 L 49.852 54.432 L 49.852 52.802 L 44.963 52.802 L 40.073 52.802 L 40.073 60.543 Z " fill="rgb(39,122,159)" vector-effect="non-scaling-stroke" stroke-width="0.5" stroke="rgb(255,255,255)" stroke-linejoin="miter" stroke-linecap="butt" stroke-miterlimit="4"/><path d=" M 53.383 60.543 L 53.383 68.284 L 58.408 68.284 L 63.433 68.284 L 63.433 66.655 L 63.433 65.025 L 60.445 65.025 L 57.457 65.025 L 57.457 58.914 L 57.457 52.802 L 55.42 52.802 L 53.383 52.802 L 53.383 60.543 Z " fill="rgb(39,122,159)" vector-effect="non-scaling-stroke" stroke-width="0.5" stroke="rgb(255,255,255)" stroke-linejoin="miter" stroke-linecap="butt" stroke-miterlimit="4"/><path d=" M 66.149 60.543 L 66.149 68.284 L 67.942 68.284 L 69.762 68.284 L 69.626 63.721 C 69.544 61.222 69.381 58.968 69.273 58.696 C 69.164 58.452 69.191 58.234 69.3 58.234 C 69.436 58.234 69.979 59.538 70.549 61.168 C 72.641 67.307 72.586 67.198 73.727 67.198 L 74.732 67.198 L 76.335 62.743 C 77.231 60.272 77.964 58.289 77.992 58.316 C 78.019 58.343 77.964 60.598 77.856 63.341 L 77.693 68.284 L 79.54 68.284 L 81.36 68.284 L 81.36 60.543 L 81.36 52.775 L 79.132 52.856 L 76.932 52.938 L 75.357 57.555 C 73.917 61.793 73.754 62.091 73.51 61.412 C 73.347 60.978 73.211 60.543 73.211 60.407 C 73.211 60.299 72.614 58.56 71.88 56.55 L 70.549 52.938 L 68.349 52.856 L 66.149 52.775 L 66.149 60.543 Z " fill="rgb(39,122,159)" vector-effect="non-scaling-stroke" stroke-width="0.5" stroke="rgb(255,255,255)" stroke-linejoin="miter" stroke-linecap="butt" stroke-miterlimit="4"/><path d=" M 35.918 71.653 L 34.614 72.576 L 35.972 74.206 C 36.732 75.102 37.466 75.917 37.629 76.026 C 37.792 76.134 37.466 76.732 36.841 77.465 C 34.016 80.806 33.283 84.772 35.564 84.201 C 36.597 83.957 38.851 81.784 39.883 80.046 C 40.345 79.258 40.834 78.606 40.915 78.606 C 41.024 78.606 41.812 78.959 42.681 79.394 C 44.609 80.344 47.298 81.186 49.227 81.458 L 50.639 81.648 L 50.639 84.256 C 50.639 87.868 51.373 90.014 52.568 90.014 C 53.763 90.014 54.496 87.841 54.524 84.256 L 54.524 81.621 L 56.045 81.322 C 58.218 80.915 60.581 80.073 62.536 78.986 L 64.22 78.09 L 65.09 79.693 C 66.04 81.512 68.431 83.93 69.517 84.201 C 69.952 84.31 70.386 84.229 70.658 84.011 C 71.636 83.196 70.332 79.693 68.159 77.275 L 66.91 75.89 L 68.295 74.369 C 69.055 73.527 69.68 72.766 69.68 72.658 C 69.68 72.549 69.137 72.06 68.485 71.598 L 67.317 70.756 L 65.008 73.011 C 62.346 75.618 59.549 77.194 56.208 77.927 C 53.274 78.606 49.064 78.362 46.375 77.411 C 43.115 76.27 39.965 74.097 38.308 71.843 C 37.873 71.245 37.439 70.756 37.357 70.756 C 37.276 70.756 36.624 71.164 35.918 71.653 Z " fill="rgb(39,122,159)" vector-effect="non-scaling-stroke" stroke-width="0.5" stroke="rgb(255,255,255)" stroke-linejoin="miter" stroke-linecap="butt" stroke-miterlimit="4"/></g></g></svg>