<?xml version="1.0" standalone="no"?><!-- Generator: Gravit.io --><svg xmlns="http://www.w3.org/2000/svg" xmlns:xlink="http://www.w3.org/1999/xlink" style="isolation:isolate" viewBox="0 0 105 120" width="105" height="120"><defs><clipPath id="_clipPath_uiip5vZXjBi32N5cdA2r30Q3VPWIHtBX"><rect width="105" height="120"/></clipPath></defs><g clip-path="url(#_clipPath_uiip5vZXjBi32N5cdA2r30Q3VPWIHtBX)"><path d=" M 52.5 0 L 105 30 L 105 90 L 52.5 120 L 0 90 L 0 30 L 52.5 0 Z " fill="rgb(38,50,56)"/><g><path d=" M 59.25 53.53 L 59.25 37.406 C 46.755 33.702 33.619 40.838 29.915 53.333 C 27.519 61.383 29.594 70.075 35.323 76.174 L 35.323 84.594 C 21.766 75.088 18.457 56.37 27.964 42.789 C 36.705 30.319 53.398 26.368 66.806 33.603 L 66.806 53.506 L 59.25 53.53 Z " fill="rgb(128,130,133)"/><path d=" M 76.091 60 C 76.091 54 73.794 48.197 69.671 43.826 L 69.671 35.43 C 83.252 44.937 86.536 63.655 77.029 77.211 C 68.288 89.681 51.571 93.632 38.187 86.397 L 38.187 45.752 C 40.335 43.653 42.903 42.097 45.743 41.159 L 45.743 56.395 L 66.782 56.395 L 66.782 74.273 C 64.633 76.372 62.065 77.927 59.225 78.866 L 59.225 63.605 L 45.768 63.605 L 45.768 82.619 C 58.262 86.323 71.399 79.211 75.128 66.717 C 75.77 64.544 76.091 62.296 76.091 60 Z " fill="rgb(0,135,143)"/></g></g></svg>