<?xml version="1.0" standalone="no"?><!-- Generator: Gravit.io --><svg xmlns="http://www.w3.org/2000/svg" xmlns:xlink="http://www.w3.org/1999/xlink" style="isolation:isolate" viewBox="0 0 105 120" width="105" height="120"><defs><clipPath id="_clipPath_X1o9TSOUXEUoq2V5Yi8qGcIMsk1eXUYJ"><rect width="105" height="120"/></clipPath></defs><g clip-path="url(#_clipPath_X1o9TSOUXEUoq2V5Yi8qGcIMsk1eXUYJ)"><path d=" M 52.5 1.15 L 104 30.575 L 104 89.425 L 52.5 118.85 L 1 89.425 L 1 30.575 L 52.5 1.15 Z " fill="rgb(253,238,33)" vector-effect="non-scaling-stroke" stroke-width="2" stroke="rgb(0,0,0)" stroke-linejoin="miter" stroke-linecap="butt" stroke-miterlimit="4"/><g><g><path d=" M 56.877 38.263 C 56.335 36.791 37.813 29.649 37.579 30.44 C 34.184 31.335 32.812 35.254 30.482 37.741 L 25.291 37.458 C 23.013 40.405 21.822 43.412 22.647 46.531 C 25.588 50.493 28.999 53.862 31.133 58.843 C 31.307 61.193 41.306 59.061 43.45 58.59 C 40.526 60.695 37.984 63.952 39.106 73.311 C 40.119 77.704 40.817 82.61 49.708 87.557 C 50.878 88.209 53.298 88.957 54.794 89.504 C 56.226 90.155 57.899 90.42 62.611 88.965 C 65.337 87.781 68.282 87.064 70.95 85.883 L 67.74 86.043 C 63.32 86.151 59.908 86.49 58.851 85.258 L 54.763 78.246 L 57.123 73.632 C 60.406 73.96 61.503 76.619 64.399 77.624 L 67.803 75.088 C 77.725 80.908 81.639 71.344 82.748 63.901 C 82.619 60.874 76.196 64.869 76.582 63.452 C 76.724 60.198 74.06 55.948 72.337 52.635 L 74.299 44.955 C 75.197 44.151 70.107 35.629 65.967 34.575 C 62.335 33.651 56.876 38.263 56.876 38.263 L 56.877 38.263 Z " fill-rule="evenodd" fill="rgb(253,238,33)"/></g><g><path d=" M 73.194 54.528 C 73.232 55.352 73.231 56.355 73.312 56.98 C 73.3 57.457 72.942 57.475 72.647 57.576 L 74.576 58.277 C 74.961 58.919 75.27 59.563 75.583 60.206 C 75.947 61.789 75.679 61.835 75.439 61.952 C 74.74 61.961 74.042 61.965 73.391 61.828 C 73.683 61.981 73.747 62.093 73.779 62.29 C 73.837 62.654 73.604 63.151 73.22 63.63 C 73.791 63.945 74.831 64.252 75.604 64.543 L 76.479 62.581 C 76.072 59.703 74.856 57.053 73.194 54.528 L 73.194 54.528 Z " fill-rule="evenodd" fill="rgb(200,192,55)"/><path d=" M 76.819 64.175 C 77.889 64.618 79.366 64.483 81.41 63.422 C 81.714 63.205 81.998 63.333 81.454 63.691 C 78.775 66.108 77.486 64.906 76.819 64.175 L 76.819 64.175 Z " fill-rule="evenodd" fill="rgb(200,192,55)"/><path d=" M 81.615 63.106 C 81.934 63.713 81.743 64.208 81.638 64.722 C 81.313 67.335 80.505 69.403 78.914 71.566 C 73.741 79.933 68.481 74.721 64.289 71.331 L 62.571 75.67 C 62.481 76.051 62.1 76.348 64.805 77.53 L 67.551 75.578 C 78.07 83.535 85.455 64.349 81.615 63.106 L 81.615 63.106 Z " fill-rule="evenodd" fill="rgb(200,192,55)"/><path d=" M 65.553 70.615 C 64.845 70.667 62.74 71.39 62.647 71.805 L 63.613 70.357 L 65.553 70.615 Z " fill-rule="evenodd" fill="rgb(200,192,55)"/><path d=" M 64.152 61.761 C 64.281 61.76 64.905 61.926 64.838 61.889 C 64.742 61.836 64.829 62.762 65.027 63.244 L 64.271 64.9 C 65.722 63.217 68.024 63.323 70.16 63.1 L 69.139 62.471 C 69.315 61.88 69.105 61.414 69.005 60.911 L 64.152 61.761 Z " fill-rule="evenodd" fill="rgb(200,192,55)"/><path d=" M 67.715 56.773 C 66.154 57.256 64.661 58.042 63.662 59.712 C 64.42 56.962 64.577 57.066 64.824 56.929 C 65.893 56.447 66.771 56.743 67.715 56.773 L 67.715 56.773 Z " fill-rule="evenodd" fill="rgb(200,192,55)"/></g><g><path d=" M 59.464 89.008 C 57.581 91.097 53.361 88.867 49.859 87.734 C 40.951 82.104 39.199 76.786 39.064 71.565 C 38.586 64.086 40.871 59.734 43.773 58.697 C 41.861 62.408 40.983 69.064 41.888 74.009 C 42.615 76.76 42.643 81.402 47.255 83.874 C 49.514 85.138 48.906 86.128 50.434 87.313 C 52.109 88.611 56.772 89.837 59.464 89.008 L 59.464 89.008 Z " fill-rule="evenodd" fill="rgb(252,246,160)"/><path d=" M 62.189 54.432 C 58.979 49.907 54.478 48.217 49.406 48.046 C 50.422 47.711 51.437 47.536 52.452 47.043 C 52.7 46.781 52.618 46.321 52.523 45.854 C 47.638 44.593 44.553 43.026 40.65 41.577 L 51.184 44.074 C 58.295 44.325 57.689 46.082 62.19 54.432 L 62.189 54.432 Z " fill-rule="evenodd" fill="rgb(252,246,160)"/><path d=" M 65.606 52.236 C 63.234 48.87 60.931 44.782 57.813 42.187 C 50.295 38.819 42.859 36.322 34.147 34.056 L 36.916 30.475 C 46.16 32.558 54.846 36.063 62.635 41.858 C 63.959 45.18 64.845 48.506 65.606 52.236 L 65.606 52.236 Z " fill-rule="evenodd" fill="rgb(252,246,160)"/><path d=" M 70.353 46.262 C 70.353 46.262 69.02 43.294 68.372 42.161 C 66.871 40.507 66.106 37.42 63.038 35.973 C 64.008 36.232 64.67 35.918 66.654 37.706 L 69.786 43.609 L 70.353 46.262 Z " fill-rule="evenodd" fill="rgb(252,246,160)"/><path d=" M 72.015 51.406 C 72.314 48.831 72.882 44.699 72.212 43.069 C 70.353 40.589 68.48 38.025 66.608 35.646 C 66.298 35.359 66.074 34.969 65.83 34.666 C 68.455 35.338 71.199 37.155 74.911 44.346 L 72.015 51.406 Z " fill-rule="evenodd" fill="rgb(252,246,160)"/></g><g><path d=" M 60.985 51.741 C 59.938 50.921 58.999 48.015 57.413 47.415 C 55.947 47.296 55.408 46.836 53.482 47.234 C 54.18 46.882 54.839 46.432 55.581 46.19 C 56.084 46.07 56.557 46.2 57.037 46.265 C 57.156 46.209 57.233 46.139 57.204 46.034 C 55.26 44.84 51.28 44.834 48.591 44.157 C 51.71 44.253 55.16 44.07 57.505 44.815 C 59.395 46.482 60.015 49.63 60.985 51.741 L 60.985 51.741 Z " fill-rule="evenodd" fill="rgb(0,0,0)"/><path d=" M 66.661 37.697 C 67.093 37.735 69.432 41.411 69.543 42.023 C 69.74 43.362 70.222 44.863 70.354 46.264 C 69.967 44.921 69.545 43.578 69.019 42.235 C 68.865 41.865 68.477 41.03 67.401 39.849 C 66.899 39.016 66.789 38.36 66.661 37.697 L 66.661 37.697 Z " fill-rule="evenodd" fill="rgb(0,0,0)"/><path d=" M 74.606 57.733 L 73.609 57.736 L 74.711 58.022 L 74.606 57.733 Z " fill-rule="evenodd" fill="rgb(0,0,0)"/><path d=" M 67.807 56.757 C 66.805 56.637 65.777 56.623 64.776 56.846 C 64.369 57.396 64.342 57.953 64.165 58.469 C 65.379 57.124 65.862 57.041 67.807 56.757 L 67.807 56.757 Z " fill-rule="evenodd" fill="rgb(0,0,0)"/><path d=" M 81.487 63.645 C 80.93 64.092 80.876 64.51 79.229 65.017 C 78.028 65.304 77.348 64.824 76.78 64.178 C 77.639 64.422 77.777 65.069 80.075 64.336 L 81.487 63.645 Z " fill-rule="evenodd" fill="rgb(0,0,0)"/><path d=" M 76.492 63.937 C 76.094 65.042 75.665 66.157 75.232 67.192 C 74.197 68.412 74.637 67.717 73.088 69.613 C 73.584 68.844 74.228 68.105 74.565 67.305 C 74.801 66.778 75.096 66.219 75.225 65.751 C 74.813 65.547 73.969 65.533 73.855 65.607 C 72.475 66.426 72.228 67.289 71.416 68.131 C 72.004 67.186 72.506 66.154 73.188 65.303 C 73.265 65.192 73.772 65.169 74.084 65.103 C 73.599 65.022 72.702 64.85 72.63 64.858 C 71.729 65.077 71.227 65.864 70.559 66.387 C 71.045 65.682 71.492 64.947 72.11 64.34 C 72.171 64.268 73.846 64.41 74.715 64.754 L 74.733 65.099 L 75.226 65.297 L 75.595 64.367 L 76.492 63.937 Z " fill-rule="evenodd" fill="rgb(0,0,0)"/><path d=" M 65.576 70.618 C 65.353 70.543 63.388 70.295 63.388 70.355 C 62.635 70.894 62.522 71.408 62.539 71.853 C 63.791 70.614 63.744 70.611 65.576 70.618 L 65.576 70.618 Z " fill-rule="evenodd" fill="rgb(0,0,0)"/><path d=" M 64.059 61.743 C 64.059 61.743 65.476 61.532 65.449 61.665 C 65.347 62.157 65.627 63.355 65.657 63.187 L 64.862 63.84 C 66.528 62.996 68.286 63.16 70.068 63.027 C 70.068 63.027 68.566 62.617 68.658 62.603 C 68.992 62.555 68.564 61.039 68.449 61.006 C 68.735 60.909 69.013 60.835 69.301 60.762 C 67.154 60.207 65.914 60.541 64.059 61.743 L 64.059 61.743 Z " fill-rule="evenodd" fill="rgb(0,0,0)"/><path d=" M 76.331 62.767 L 76.017 62.926 C 75.97 62.003 74.978 62.074 74.142 62.067 L 73.456 61.902 C 73.665 62.094 74.31 62.078 74.051 62.495 C 73.832 62.612 73.733 63.115 73.609 63.536 L 73.238 63.556 C 73.894 63.81 74.502 64.033 75.224 64.331 L 75.65 64.395 L 76.668 63.844 L 76.331 62.767 Z " fill-rule="evenodd" fill="rgb(0,0,0)"/></g><g><path d=" M 66.933 62.171 C 66.772 61.856 65.97 61.903 65.797 62.107 C 65.657 62.274 65.792 63.338 65.972 63.158 C 66.232 62.928 66.572 62.831 66.981 62.849 C 67.032 62.652 67.013 62.44 66.933 62.171 L 66.933 62.171 Z " fill-rule="evenodd" fill="rgb(255,255,255)"/><path d=" M 74.635 63.736 C 74.711 63.681 74.869 63.146 74.817 62.987 C 74.71 62.61 73.964 62.691 73.964 62.691 C 73.782 62.799 73.624 63.387 73.691 63.581 C 73.724 63.745 74.516 63.795 74.635 63.736 L 74.635 63.736 Z " fill-rule="evenodd" fill="rgb(255,255,255)"/></g><g><path d=" M 42.765 82.244 L 43.237 82.289 C 46.036 83.654 50.645 85.676 57.305 84.564 L 58.356 86.207 C 55.425 87.641 52.268 87.322 49.31 87.43 L 42.765 82.244 Z " fill-rule="evenodd" fill="rgb(0,0,0)"/><path d=" M 38.722 71.405 L 40.138 77.28 C 43.894 79.613 50.306 82.279 55.643 82.048 L 54.456 79.344 C 43.306 77.009 42.356 74.02 38.722 71.404 L 38.722 71.405 Z " fill-rule="evenodd" fill="rgb(0,0,0)"/><path d=" M 42.173 59.353 C 42.87 63.907 43.793 67.358 47.763 70.24 C 50.196 71.98 52.61 73.712 55.546 75.139 C 55.546 75.139 55.292 76.477 55.078 76.454 C 46.351 75.509 39.944 68.293 39.162 64.991 C 39.904 62.455 40.974 60.869 42.173 59.353 L 42.173 59.353 Z " fill-rule="evenodd" fill="rgb(0,0,0)"/><path d=" M 46.359 56.761 C 47.536 61.806 50.322 66.913 53.09 71.544 C 54.103 72.823 54.369 73.388 55.928 74.164 C 58.034 74.824 59.521 74.65 61.048 74.545 C 60.627 73.772 60.253 72.963 59.771 72.237 C 56.344 69.542 57.917 67.075 58.821 65.514 C 56.918 65.039 54.396 64.025 54.045 62.682 C 53.475 58.34 53.755 56.961 54.307 54.728 C 51.734 55.278 49.126 55.823 46.359 56.761 L 46.359 56.761 Z " fill-rule="evenodd" fill="rgb(0,0,0)"/><path d=" M 36.839 29.968 C 35.995 30.523 35.181 31.316 34.307 32.217 C 32.857 33.726 31.894 35.197 30.417 36.289 C 30.122 36.545 29.292 36.959 28.248 37.023 C 27.756 37.049 27.436 37.131 26.532 37.02 C 25.733 36.59 24.977 36.873 24.24 37.759 C 23.433 38.927 22.412 41.144 21.989 42.538 C 21.119 46.094 23.37 49.016 25.528 51.266 C 27.446 53.13 28.553 54.295 29.343 56.007 C 29.941 57.117 30.386 58.641 30.866 59.709 C 31.039 60.048 31.003 60.046 31.467 60.147 C 32.467 60.358 33.854 60.355 35.089 60.458 C 35.623 60.464 36.357 60.442 37.052 60.368 C 38.009 60.184 39.134 60.004 40.077 59.675 C 40.998 59.446 41.818 59.129 42.558 58.838 C 42.463 59.162 41.759 59.476 41.496 59.887 C 38.996 63.486 38.318 66.684 38.768 71.726 C 39.022 73.961 39.54 75.813 40.32 77.931 C 40.677 78.9 41.435 80.435 42.16 81.453 C 44.316 84.482 49.132 88.367 55.826 89.848 C 56.993 90.005 58.318 89.916 59.562 89.581 C 62.861 88.571 69.584 86.185 69.584 86.185 C 69.584 86.185 63.612 86.696 60.876 86.433 C 60.242 86.336 59.544 86.304 59.102 85.874 C 59.028 85.778 58.757 85.238 58.931 85.232 C 59.168 85.225 59.847 84.941 60.897 84.844 C 58.654 84.609 58.686 84.612 58.522 84.204 C 58.265 83.571 57.874 82.706 57.471 81.949 C 58.456 82.029 60.637 82.146 61.375 81.38 C 61.375 81.38 60.085 81.532 58.944 81.402 C 58.56 81.358 57.904 81.126 57.707 81.054 C 57.195 80.856 56.773 80.796 56.675 80.666 C 56.496 80.214 56.375 80.062 56.159 79.457 C 55.866 78.655 55.84 77.76 55.783 76.94 C 56.531 77.858 57.484 78.629 58.743 79.021 C 58.759 78.987 60.378 79.719 61.55 79.337 L 61.794 79.258 C 61.794 79.28 61.016 79.328 60.73 79.188 C 58.34 78.18 57.979 77.293 57.592 76.852 L 56.557 75.311 C 56.869 74.685 57.046 74.661 57.461 74.654 C 58.718 74.79 59.265 74.896 60.029 74.709 C 60.549 75.771 60.691 76.84 61.869 77.611 C 65.791 78.763 66.638 77.252 67.583 75.917 C 70.408 77.978 75 78.603 78.18 75.923 C 82.219 71.223 83.481 63.828 83.121 63.407 C 82.612 62.55 81.946 61.666 81.376 61.79 C 79.345 62.35 78.599 63.383 76.585 63.154 C 76.825 63.14 77.228 63.132 77.231 63.109 C 77.381 61.404 77.211 60.579 77.136 60.438 C 76.521 59.092 75.715 57.676 75.153 56.614 C 75.008 56.394 74.58 54.721 73.868 54.061 C 73.563 53.802 72.817 53.119 72.817 53.119 L 72.756 53.848 C 72.756 53.848 73.047 53.891 73.159 54.342 C 73.584 56.051 75.734 60.089 75.892 60.282 C 76.653 61.504 75.976 63.031 76.555 63.885 C 76.611 63.993 77.731 63.872 78.6 63.923 C 80.027 63.612 79.965 62.982 81.199 62.884 C 82.03 62.818 82.117 64.379 82.107 64.5 C 81.957 66.224 81.438 68.229 80.641 70.061 C 78.981 73.28 77.121 76.172 74.473 76.581 C 71.243 77.155 69.559 75.747 67.805 74.852 L 67.136 75.425 C 64.866 77.699 62.162 77.505 61.048 74.546 C 60.494 73.398 59.775 72.696 59.158 71.712 L 55.907 74.067 C 55.638 74.623 55.307 75.501 54.905 76.482 C 54.625 77.163 54.392 78.334 54.41 79.305 C 53.995 80.018 55.866 82.897 57.049 84.648 C 57.398 85.165 58.049 86.068 58.071 86.124 C 58.306 86.729 58.819 87.262 58.85 87.328 C 61.044 90.173 56.098 89.53 55.077 89.361 C 53.062 89.045 51.089 88.209 49.234 87.089 C 49.126 87.024 49.019 86.958 48.912 86.891 C 46.707 85.511 44.677 83.744 42.95 81.995 C 41.92 80.835 40.936 78.455 40.209 76.767 C 39.115 72.708 37.543 65.672 41.735 60.325 C 42.001 60.019 42.287 59.51 42.532 59.409 C 43.78 58.56 45.136 57.98 46.594 57.656 L 46.444 56.711 C 45.716 56.878 43.264 57.783 42.571 58.16 C 40.994 58.622 39.686 59.104 37.676 59.613 C 37.023 59.695 36.379 59.698 35.752 59.614 C 34.305 59.422 31.839 59.604 31.681 59.459 C 30.698 58.095 30.423 55.648 29.525 54.34 L 29.515 54.327 L 29.503 54.315 C 28.98 53.616 28.371 53.046 27.771 52.453 C 25.623 50.331 23.784 48.278 23.265 46.098 C 23.134 45.455 22.799 44.789 22.971 42.883 L 22.974 42.874 L 22.977 42.865 C 23.488 41.083 24.322 39.63 25.741 38.172 C 27.222 38.192 28.688 38.22 29.83 38.435 C 30.355 38.522 31.444 38.661 32.571 39.077 C 35.421 40.13 39.189 41.864 39.189 41.864 C 36.36 40.32 33.196 38.314 31.201 37.913 C 30.904 37.872 30.721 37.737 30.632 37.501 C 33.627 35.73 34.17 33.654 36.138 31.787 C 37.039 31.392 37.39 31.191 38.156 31.106 C 45.244 32.206 49.713 35.016 53.247 36.894 C 54.681 37.668 55.984 38.254 57.23 38.96 C 58.321 39.315 61.617 41.789 62.583 43.125 C 63.567 45.187 64.287 47.415 64.944 49.566 C 65.417 51.753 65.829 52.64 65.829 52.64 C 65.829 52.64 65.427 50.81 65.492 50.481 C 65.904 50.634 66.878 50.935 67.281 50.886 C 67.281 50.886 65.477 49.96 65.239 49.138 C 64.474 46.5 63.703 42.392 63.498 42.178 C 62.919 41.453 60.506 39.618 59.028 38.77 C 58.468 38.449 58.166 38.25 58.142 38.108 C 58.612 37.631 59.193 36.999 59.714 36.597 C 60.214 36.211 60.668 35.777 61.365 35.516 C 64.429 34.126 66.188 36.034 66.603 35.646 C 66.603 35.646 65.941 34.891 66.234 35.015 C 66.535 35.177 67.513 35.366 67.621 35.465 C 68.741 36.337 71.672 39.524 73.443 42.891 C 73.868 43.716 74.042 44.26 73.848 45.255 C 73.654 46.251 73.504 46.799 73.291 47.464 C 73.098 47.909 72.01 50.955 72.016 51.364 C 71.799 53.034 72.742 55.121 72.742 55.121 C 72.749 54.554 72.705 54.252 72.755 53.846 L 72.816 53.121 C 72.816 53.121 72.776 52.928 72.783 52.852 C 72.829 52.35 72.951 51.928 72.986 51.641 C 73.332 49.46 73.94 47.888 74.629 45.973 C 74.834 45.49 75.103 45.22 75.088 44.853 C 75.098 44.2 74.512 43.326 74.087 42.472 C 73.659 41.609 73.148 40.647 72.478 39.633 C 70.95 37.448 69.647 35.739 67.268 34.674 C 66.603 34.384 63.986 34.106 63.083 34.278 C 61.987 34.51 61.045 34.737 60.295 35.221 C 59.115 35.981 58.189 37.156 57.101 37.85 C 54.687 36.651 53.521 35.752 53.304 35.628 C 51.869 34.864 50.146 33.978 48.293 33.138 C 47.403 32.313 41.887 30.349 36.84 29.968 L 36.839 29.968 Z  M 67.804 74.851 C 66.315 73.693 65.061 72.501 64.233 71.272 C 63.968 72.721 62.994 73.755 62.241 74.771 C 62.092 75.01 61.984 75.334 62.727 76.366 C 62.928 76.641 63.65 76.686 64.137 76.659 C 63.64 76.286 62.885 75.892 62.762 75.549 C 63.636 76.14 64.444 76.308 65.173 76.211 C 65.34 76.191 65.547 76.014 65.706 75.741 C 66.03 75.041 66.284 74.872 66.541 74.684 L 67.136 75.425 L 67.804 74.851 Z " fill-rule="evenodd" fill="rgb(0,0,0)" vector-effect="non-scaling-stroke" stroke-width="0.008" stroke="rgb(0,0,0)" stroke-linejoin="miter" stroke-linecap="butt" stroke-miterlimit="4"/></g></g></g></svg>