<?xml version="1.0" standalone="no"?><!-- Generator: Gravit.io --><svg xmlns="http://www.w3.org/2000/svg" xmlns:xlink="http://www.w3.org/1999/xlink" style="isolation:isolate" viewBox="0 0 105 120" width="105" height="120"><defs><clipPath id="_clipPath_y38EEEf0rcWJqE6uVRSiWtqSl82iFrLe"><rect width="105" height="120"/></clipPath></defs><g clip-path="url(#_clipPath_y38EEEf0rcWJqE6uVRSiWtqSl82iFrLe)"><path d=" M 52.5 0 L 105 30 L 105 90 L 52.5 120 L 0 90 L 0 30 L 52.5 0 Z " fill="rgb(255,155,95)"/><g><path d=" M 30.798 84.085 L 25.973 29.919 L 79.027 29.919 L 74.202 84.056 L 52.456 90.081" fill="rgb(228,77,38)"/><path d=" M 52.5 85.474 L 52.5 34.365 L 74.187 34.365 L 70.048 80.576" fill="rgb(241,101,41)"/><path d=" M 35.829 40.989 L 52.5 40.989 L 52.5 47.628 L 43.112 47.628 L 43.726 54.428 L 52.5 54.428 L 52.5 61.053 L 37.642 61.053 M 37.935 64.387 L 44.603 64.387 L 45.071 69.696 L 52.5 71.684 L 52.5 78.616 L 38.871 74.814" fill="rgb(235,235,235)"/><path d=" M 69.113 40.989 L 52.471 40.989 L 52.471 47.628 L 68.498 47.628 M 67.899 54.428 L 52.471 54.428 L 52.471 61.068 L 60.66 61.068 L 59.885 69.696 L 52.471 71.684 L 52.471 78.587 L 66.071 74.814" fill="rgb(255,255,255)"/></g></g></svg>