<?xml version="1.0" standalone="no"?><!-- Generator: Gravit.io --><svg xmlns="http://www.w3.org/2000/svg" xmlns:xlink="http://www.w3.org/1999/xlink" style="isolation:isolate" viewBox="0 0 105 120" width="105" height="120"><defs><clipPath id="_clipPath_wb8Z6l5BqDfJFuoqdKXkrygzzfB1aT0k"><rect width="105" height="120"/></clipPath></defs><g clip-path="url(#_clipPath_wb8Z6l5BqDfJFuoqdKXkrygzzfB1aT0k)"><path d=" M 52.5 0 L 105 30 L 105 90 L 52.5 120 L 0 90 L 0 30 L 52.5 0 Z " fill="rgb(44,103,145)"/><g><path d=" M 57.831 28.124 C 57.831 28.14 58.151 28.615 58.521 29.147 C 59.135 30.032 59.117 30.003 59.431 30.619 C 60.752 33.213 61.646 36.02 62.067 38.895 C 62.199 39.79 62.275 40.583 62.331 41.628 C 62.35 41.982 62.356 43.331 62.342 43.755 C 62.29 45.27 62.134 46.668 61.852 48.16 C 61.776 48.562 61.682 48.998 61.652 49.086 C 61.584 49.289 61.497 49.404 61.232 49.635 C 61.123 49.729 60.92 49.926 60.779 50.072 C 58.697 52.23 57.163 54.226 55.987 56.307 C 55.156 57.778 54.662 59.162 54.494 60.496 C 54.438 60.931 54.416 61.583 54.441 61.995 C 54.52 63.264 54.89 64.459 55.57 65.645 C 55.712 65.892 55.87 66.14 56.09 66.461 C 56.62 67.232 56.906 67.871 57.035 68.575 C 57.122 69.042 57.124 69.556 57.041 70.035 C 56.929 70.692 56.634 71.424 56.209 72.11 C 56.157 72.195 56.06 72.35 55.996 72.454 C 55.335 73.521 54.752 74.97 54.354 76.542 C 54.002 77.929 53.938 79.386 54.16 80.986 C 54.238 81.546 54.33 82.013 54.498 82.704 C 54.669 83.403 54.714 83.682 54.715 84.041 L 54.715 84.285 L 54.655 84.396 C 54.481 84.717 54.328 84.958 54.18 85.146 C 54.088 85.263 53.673 85.678 53.537 85.79 C 53.483 85.836 53.365 85.943 53.276 86.029 C 53.084 86.216 53.043 86.24 52.921 86.24 C 52.845 86.24 52.828 86.236 52.743 86.195 C 52.584 86.117 52.329 85.922 52.181 85.767 C 52.144 85.728 52.074 85.654 52.025 85.602 C 51.904 85.474 51.686 85.275 51.45 85.075 C 51.34 84.983 51.151 84.821 51.029 84.718 C 50.758 84.487 50.753 84.484 50.71 84.502 C 50.686 84.512 50.673 84.527 50.666 84.556 C 50.611 84.757 50.631 85.078 50.712 85.335 C 50.759 85.482 50.773 85.506 50.879 85.608 C 51.06 85.784 51.171 85.863 51.571 86.101 C 52.001 86.357 52.159 86.473 52.372 86.692 C 52.724 87.052 52.898 87.439 52.898 87.856 C 52.898 88.122 52.822 88.395 52.694 88.587 C 52.63 88.685 52.501 88.807 52.403 88.865 C 52.153 89.012 51.779 89.058 51.155 89.018 C 51.001 89.008 50.809 89.001 50.728 89.001 L 50.582 89.002 L 50.632 89.045 C 50.706 89.111 50.897 89.203 51.074 89.26 C 51.16 89.288 51.364 89.343 51.529 89.384 C 51.692 89.424 51.886 89.472 51.96 89.492 C 52.272 89.573 52.507 89.675 52.624 89.779 C 52.782 89.92 52.944 90.249 53.006 90.552 C 53.037 90.706 53.034 91.098 53.001 91.254 C 52.963 91.428 52.904 91.59 52.825 91.743 C 52.786 91.82 52.756 91.883 52.758 91.885 C 52.767 91.895 52.908 91.831 53.282 91.649 C 53.502 91.541 53.792 91.403 53.926 91.342 C 54.554 91.059 54.967 90.781 55.363 90.379 C 55.834 89.9 56.193 89.3 56.559 88.378 C 56.879 87.572 57.237 86.503 57.509 85.551 C 58.349 82.594 58.908 79.132 59.23 74.887 C 59.277 74.262 59.289 74.181 59.388 73.804 C 59.434 73.628 59.467 73.525 59.489 73.487 C 59.535 73.408 59.632 73.274 59.822 73.032 C 60.252 72.48 60.44 72.157 60.546 71.786 C 60.579 71.67 60.619 71.446 60.619 71.373 C 60.619 71.28 60.62 71.28 60.744 71.245 C 61.409 71.055 61.644 70.968 61.851 70.839 C 61.911 70.802 61.919 70.794 61.901 70.787 C 61.778 70.744 61.568 70.655 61.419 70.581 C 61.264 70.506 61.214 70.475 61.103 70.385 C 60.571 69.955 60.265 69.502 60.152 68.976 C 60.118 68.821 60.11 68.505 60.135 68.319 C 60.187 67.921 60.37 67.439 60.643 66.978 C 60.833 66.659 61.227 66.198 61.78 65.645 C 62.202 65.221 62.571 64.892 62.931 64.612 C 63.001 64.558 63.137 64.433 63.235 64.334 C 63.333 64.235 63.533 64.044 63.679 63.91 C 63.826 63.775 64.003 63.606 64.073 63.533 C 64.393 63.199 64.609 62.833 64.805 62.301 C 64.829 62.233 64.89 62.095 64.939 61.992 C 65.422 60.994 65.7 59.88 65.802 58.541 C 65.826 58.232 65.836 57.235 65.819 56.85 C 65.798 56.369 65.731 55.484 65.713 55.467 C 65.697 55.449 65.123 56.206 64.513 57.052 C 63.739 58.125 63.546 58.38 62.997 59.057 C 61.876 60.44 60.743 61.759 59.606 63.003 C 59.298 63.34 59.247 63.383 59.059 63.472 C 58.762 63.614 58.383 63.673 58.181 63.608 C 58.032 63.562 57.924 63.446 57.808 63.212 C 57.697 62.986 57.642 62.771 57.641 62.57 C 57.641 62.471 57.651 62.41 57.714 62.112 C 57.995 60.792 58.209 60.016 58.481 59.329 C 58.6 59.024 58.66 58.891 58.836 58.535 C 59.535 57.124 60.512 55.742 61.868 54.253 C 62.613 53.433 63.983 52.063 64.351 51.769 C 64.561 51.601 64.612 51.552 64.668 51.459 C 64.73 51.356 64.756 51.255 64.822 50.854 C 65.029 49.608 65.137 48.594 65.209 47.21 C 65.229 46.838 65.229 45.226 65.209 44.844 C 65.135 43.371 64.994 42.201 64.735 40.906 C 64.198 38.216 63.255 35.732 61.865 33.352 C 61.378 32.517 60.874 31.767 60.168 30.825 C 59.649 30.133 59.431 29.858 59.254 29.675 C 59.189 29.607 59.024 29.425 58.886 29.27 C 58.748 29.113 58.495 28.825 58.323 28.631 C 58.151 28.435 57.976 28.239 57.934 28.194 C 57.864 28.121 57.831 28.098 57.831 28.124 Z " fill="rgb(255,255,255)"/><path d=" M 46.477 28.2 C 46.332 28.335 46.052 28.669 45.6 29.242 C 45.47 29.406 45.318 29.594 45.262 29.658 C 45.114 29.829 44.849 30.147 44.666 30.375 C 41.853 33.871 40.116 37.751 39.464 41.991 C 39.33 42.856 39.249 43.646 39.194 44.644 C 39.169 45.086 39.165 46.769 39.188 47.215 C 39.248 48.405 39.349 49.451 39.458 50.036 C 39.634 50.971 39.957 51.67 40.466 52.21 C 40.617 52.37 40.753 52.489 40.979 52.656 C 41.237 52.849 41.251 52.863 42.005 53.696 C 44.434 56.378 45.843 59.013 46.36 61.834 C 46.469 62.43 46.51 62.826 46.578 63.962 C 46.612 64.53 46.632 64.819 46.639 64.826 C 46.644 64.832 46.973 64.774 47.109 64.744 C 48.281 64.482 49.098 63.914 49.505 63.079 C 49.655 62.77 49.739 62.471 49.777 62.107 C 49.794 61.946 49.79 61.54 49.771 61.353 C 49.732 60.99 49.66 60.528 49.571 60.079 C 49.064 57.523 47.986 55.287 46.084 52.848 C 45.413 51.987 44.685 51.152 43.573 49.97 C 43.309 49.69 43.19 49.546 43.067 49.363 C 42.874 49.072 42.824 48.938 42.728 48.463 C 42.446 47.052 42.272 45.657 42.201 44.249 C 42.148 43.199 42.156 42.01 42.224 40.945 C 42.33 39.264 42.616 37.347 42.973 35.921 C 43.428 34.106 44.074 32.518 45.126 30.63 C 45.322 30.276 45.509 29.954 45.909 29.275 C 46.273 28.657 46.578 28.135 46.578 28.13 C 46.578 28.113 46.544 28.135 46.477 28.2 Z " fill="rgb(255,255,255)"/><path d=" M 39.301 58.123 C 39.301 58.164 39.344 58.474 39.375 58.656 C 39.596 59.974 40.087 61.146 40.868 62.223 C 41.357 62.898 42.039 63.601 42.801 64.216 C 43.136 64.488 43.868 65.019 43.885 65.004 C 43.887 65 43.859 64.904 43.824 64.788 C 43.359 63.31 42.376 61.462 41.263 59.979 C 40.692 59.217 40.138 58.634 39.668 58.299 C 39.568 58.227 39.339 58.096 39.316 58.096 C 39.308 58.096 39.301 58.109 39.301 58.123 Z " fill="rgb(255,255,255)"/><path d=" M 46.383 70.227 C 45.863 70.263 45.265 70.49 44.645 70.886 C 44.519 70.966 44.529 70.959 44.535 70.965 C 44.537 70.967 44.637 70.979 44.756 70.992 C 45.309 71.055 45.523 71.113 45.709 71.253 C 45.88 71.385 45.962 71.56 46.072 72.032 C 46.133 72.299 46.174 72.426 46.234 72.543 C 46.387 72.841 46.625 73.035 46.94 73.115 C 47.043 73.142 47.212 73.16 47.361 73.16 C 47.727 73.16 48.037 73.325 48.238 73.626 C 48.389 73.855 48.445 73.991 49.135 75.82 C 49.651 77.193 49.928 77.913 50.038 78.17 L 50.078 78.264 L 50.072 78.094 C 50.06 77.761 49.999 77.14 49.926 76.614 C 49.684 74.863 49.213 73.114 48.647 71.871 C 48.546 71.648 48.478 71.52 48.365 71.338 C 47.994 70.742 47.512 70.375 46.95 70.261 C 46.853 70.241 46.571 70.213 46.522 70.217 C 46.513 70.218 46.451 70.223 46.383 70.227 Z " fill="rgb(255,255,255)"/></g></g></svg>