<?xml version="1.0" standalone="no"?><!-- Generator: Gravit.io --><svg xmlns="http://www.w3.org/2000/svg" xmlns:xlink="http://www.w3.org/1999/xlink" style="isolation:isolate" viewBox="0 0 105 120" width="105" height="120"><defs><clipPath id="_clipPath_v1Y01zcUCOPOnxpEQVXYPx3ujmuwDkvR"><rect width="105" height="120"/></clipPath></defs><g clip-path="url(#_clipPath_v1Y01zcUCOPOnxpEQVXYPx3ujmuwDkvR)"><path d=" M 52.5 0 L 105 30 L 105 90 L 52.5 120 L 0 90 L 0 30 L 52.5 0 Z " fill="rgb(0,79,112)"/><linearGradient id="_lgradient_1" x1="0.5270576637470057" y1="0.5007114093959715" x2="4.0494839233040665" y2="0.5007114093959715" gradientTransform="matrix(59.234,0,0,59.981,22.883,30.009)" gradientUnits="userSpaceOnUse"><stop offset="0%" stop-opacity="1" style="stop-color:rgb(190,224,255)"/><stop offset="100%" stop-opacity="1" style="stop-color:rgb(0,201,255)"/></linearGradient><path d=" M 82.018 66.24 L 76.315 41.281 C 76.047 39.939 74.705 38.597 73.363 38.195 L 47.129 30.144 C 46.794 30.077 46.391 30.009 46.056 30.009 C 44.915 30.009 43.708 30.479 43.037 31.15 L 24.251 48.594 C 23.244 49.466 22.641 51.278 22.976 52.62 L 29.081 79.256 C 29.35 80.598 30.692 81.939 32.034 82.342 L 56.523 89.856 C 56.925 89.923 57.261 89.991 57.663 89.991 C 58.804 89.991 60.011 89.521 60.682 88.85 L 80.743 70.198 C 81.817 69.393 82.353 67.582 82.018 66.24 Z  M 49.88 36.048 L 67.861 41.549 C 68.532 41.751 68.532 42.086 67.861 42.22 L 58.401 44.367 C 57.663 44.502 56.657 44.233 56.254 43.696 L 49.612 36.585 C 49.075 36.115 49.209 35.914 49.88 36.048 Z  M 61.085 68.252 C 61.219 68.99 60.816 69.393 60.078 69.125 L 40.689 63.22 C 40.018 63.019 39.883 62.415 40.42 61.946 L 55.315 48.125 C 55.852 47.588 56.455 47.856 56.59 48.527 L 61.085 68.252 Z  M 29.149 50.674 L 44.915 36.048 C 45.452 35.511 46.257 35.578 46.794 36.115 L 54.711 44.636 C 55.248 45.172 55.181 45.978 54.644 46.514 L 38.81 61.141 C 38.273 61.677 37.468 61.61 36.931 61.073 L 29.081 52.553 C 28.612 52.016 28.612 51.211 29.149 50.674 Z  M 32.973 73.955 L 28.746 55.706 C 28.612 54.968 28.813 54.901 29.35 55.438 L 35.992 62.55 C 36.529 63.086 36.73 64.16 36.529 64.831 L 33.644 74.09 C 33.51 74.626 33.107 74.626 32.973 73.955 Z  M 56.053 84.556 L 35.522 78.249 C 34.851 78.048 34.382 77.243 34.65 76.572 L 38.005 65.435 C 38.206 64.764 39.011 64.294 39.682 64.562 L 60.146 70.869 C 60.816 71.07 61.286 71.875 61.018 72.546 L 57.663 83.684 C 57.462 84.422 56.724 84.824 56.053 84.556 Z  M 74.302 69.594 L 60.548 82.409 C 60.011 82.946 59.743 82.677 59.944 82.006 L 62.829 72.748 C 63.031 72.077 63.836 71.339 64.574 71.137 L 73.967 68.99 C 74.638 68.856 74.839 69.192 74.302 69.594 Z  M 75.778 66.911 L 64.439 69.46 C 63.701 69.594 63.031 69.192 62.829 68.454 L 58.066 47.521 C 57.931 46.783 58.334 46.112 59.072 45.91 L 70.411 43.361 C 71.149 43.227 71.82 43.629 72.021 44.367 L 76.852 65.3 C 76.919 66.038 76.449 66.776 75.778 66.911 Z " fill="url(#_lgradient_1)"/></g></svg>