<?xml version="1.0" standalone="no"?><!-- Generator: Gravit.io --><svg xmlns="http://www.w3.org/2000/svg" xmlns:xlink="http://www.w3.org/1999/xlink" style="isolation:isolate" viewBox="0 0 105 120" width="105" height="120"><defs><clipPath id="_clipPath_nZ1yaxnEqGibxzp1aE8jQyqVf0PMi9nv"><rect width="105" height="120"/></clipPath></defs><g clip-path="url(#_clipPath_nZ1yaxnEqGibxzp1aE8jQyqVf0PMi9nv)"><path d=" M 52.5 0 L 105 30 L 105 90 L 52.5 120 L 0 90 L 0 30 L 52.5 0 Z " fill="rgb(212,215,217)"/><g><defs><linearGradient id="_lgradient_4" x1="0" y1="0.5" x2="6.123233995736766e-17" y2="1.5"><stop offset="50%" style="stop-color:#FFFFFF"/><stop offset="100%" style="stop-color:#E9E5E5"/></linearGradient></defs><path d="M 35.881 28.999 L 69.119 28.999 C 77.056 28.999 83.501 35.444 83.501 43.381 L 83.501 76.619 C 83.501 84.556 77.056 91.001 69.119 91.001 L 35.881 91.001 C 27.944 91.001 21.499 84.556 21.499 76.619 L 21.499 43.381 C 21.499 35.444 27.944 28.999 35.881 28.999 Z" style="stroke:none;fill:url(#_lgradient_4);stroke-miterlimit:10;"/><path d="M 35.881 28.999 L 69.119 28.999 C 77.056 28.999 83.501 35.444 83.501 43.381 L 83.501 76.619 C 83.501 84.556 77.056 91.001 69.119 91.001 L 35.881 91.001 C 27.944 91.001 21.499 84.556 21.499 76.619 L 21.499 43.381 C 21.499 35.444 27.944 28.999 35.881 28.999 Z" style="fill:none;stroke:#D9D9D9;stroke-width:0.31959510309278366;"/><linearGradient id="_lgradient_5" x1="0" y1="0.5" x2="6.123233995736766e-17" y2="1.5" gradientTransform="matrix(2.26,0,0,26.492,29.815,46.144)" gradientUnits="userSpaceOnUse"><stop offset="0%" stop-opacity="1" style="stop-color:rgb(3,57,241)"/><stop offset="87.05200000000004%" stop-opacity="1" style="stop-color:rgb(1,173,229)"/></linearGradient><path d=" M 31.689 72.637 L 30.23 72.637 L 30.23 53.148 L 31.689 53.148 L 31.689 72.637 Z  M 30.939 48.371 C 30.324 48.371 29.815 47.883 29.815 47.268 C 29.815 46.635 30.321 46.144 30.939 46.144 C 31.572 46.144 32.075 46.632 32.075 47.268 C 32.075 47.883 31.572 48.371 30.939 48.371 Z " fill-rule="evenodd" fill="url(#_lgradient_5)"/><linearGradient id="_lgradient_6" x1="0" y1="0.5" x2="0.617051465188611" y2="1.2869227975529673" gradientTransform="matrix(23.27,0,0,26.874,34.218,46.143)" gradientUnits="userSpaceOnUse"><stop offset="9.81034314451948%" stop-opacity="1" style="stop-color:rgb(7,86,238)"/><stop offset="34.45311188851947%" stop-opacity="1" style="stop-color:rgb(0,163,245)"/><stop offset="56.99800766851948%" stop-opacity="1" style="stop-color:rgb(24,181,182)"/><stop offset="75.61564314451947%" stop-opacity="1" style="stop-color:rgb(128,223,67)"/></linearGradient><path d=" M 45.854 73.017 C 38.723 73.017 34.218 67.824 34.218 59.57 C 34.218 51.357 38.744 46.143 45.854 46.143 C 52.964 46.143 57.488 51.357 57.488 59.57 C 57.488 67.825 52.983 73.017 45.854 73.017 L 45.854 73.017 Z  M 45.854 47.485 C 39.647 47.485 35.684 52.171 35.684 59.57 C 35.684 66.973 39.665 71.678 45.854 71.678 C 52.061 71.678 56.024 66.973 56.024 59.57 C 56.024 52.169 52.061 47.485 45.854 47.485 Z " fill-rule="evenodd" fill="url(#_lgradient_6)"/><linearGradient id="_lgradient_7" x1="0" y1="0.5" x2="0.5006238769506482" y2="1.3656649085107366" gradientTransform="matrix(18.51,0,0,26.872,58.463,46.146)" gradientUnits="userSpaceOnUse"><stop offset="3.7937673220082755%" stop-opacity="1" style="stop-color:rgb(32,187,166)"/><stop offset="47.54012348200827%" stop-opacity="1" style="stop-color:rgb(155,236,35)"/><stop offset="91.49696732200826%" stop-opacity="1" style="stop-color:rgb(217,239,53)"/></linearGradient><path d=" M 67.873 73.017 C 62.519 73.017 58.681 69.994 58.463 65.671 L 59.893 65.671 C 60.111 69.216 63.44 71.696 67.982 71.696 C 72.414 71.696 75.507 69.179 75.507 65.78 C 75.507 63.044 73.662 61.472 69.284 60.369 L 66.191 59.608 C 61.362 58.376 59.169 56.422 59.169 53.149 C 59.169 49.078 62.97 46.146 67.73 46.146 C 72.65 46.146 76.324 49.042 76.488 52.877 L 75.058 52.877 C 74.858 49.748 71.801 47.466 67.693 47.466 C 63.765 47.466 60.635 49.82 60.635 53.113 C 60.635 55.721 62.552 57.221 66.749 58.269 L 69.663 59.012 C 74.71 60.26 76.973 62.198 76.973 65.67 C 76.973 69.993 73.337 73.017 67.872 73.017 L 67.873 73.017 Z " fill-rule="evenodd" fill="url(#_lgradient_7)"/></g></g></svg>