<?xml version="1.0" standalone="no"?><!-- Generator: Gravit.io --><svg xmlns="http://www.w3.org/2000/svg" xmlns:xlink="http://www.w3.org/1999/xlink" style="isolation:isolate" viewBox="0 0 105 120" width="105" height="120"><defs><clipPath id="_clipPath_8Hxyhp9o3yYULok5K1o5FiPaMsYq696W"><rect width="105" height="120"/></clipPath></defs><g clip-path="url(#_clipPath_8Hxyhp9o3yYULok5K1o5FiPaMsYq696W)"><path d=" M 52.5 0 L 105 30 L 105 90 L 52.5 120 L 0 90 L 0 30 L 52.5 0 Z " fill="rgb(237,28,36)"/><g><path d=" M 42.465 34.925 C 43.783 37.687 42.893 56.97 41.349 63.733 C 39.805 70.506 38.261 79.117 37.9 86.364 C 37.742 89.452 38.216 90.669 40.233 90.669 C 43.795 90.669 48.314 83.163 53.983 83.332 C 59.663 83.501 61.467 91.943 64.126 91.886 C 66.786 91.83 68.928 90.906 68.95 82.69 C 69.029 58.165 48.472 38.284 42.465 34.925 L 42.465 34.925 L 42.465 34.925 L 42.465 34.925 Z " fill-rule="evenodd" fill="rgb(0,0,0)"/><path d=" M 60.295 54.525 C 61.546 56.632 64.735 55.009 64.87 52.631 C 65.006 50.253 64.656 47.255 63.112 47.143 C 61.568 47.03 60.464 45.486 58.92 45.373 C 57.375 45.26 55.719 46.805 54.997 44.753 C 54.276 42.702 56.936 41.834 58.92 41.507 C 57.15 39.738 56.113 37.777 55.336 35.737 C 54.558 33.697 53.983 31.826 56.158 31.026 C 58.333 30.226 58.153 34.339 60.644 36.222 C 59.911 33.449 59.641 32.299 59.697 30.688 C 59.754 29.076 59.641 27.848 61.929 28.163 C 64.217 28.479 63.225 33.235 65.006 35.173 C 65.547 33.336 65.873 31.003 67.181 30.045 C 68.488 29.087 71.464 29.065 69.57 32.998 C 67.677 36.932 70.122 39.062 69.548 42.161 C 68.973 45.26 67.192 44.697 66.426 46.692 C 65.659 48.687 66.876 53.229 65.434 55.269 C 63.991 57.309 63.732 60.442 64.667 62.944 C 61.793 60.261 60.295 54.525 60.295 54.525 L 60.295 54.525 L 60.295 54.525 L 60.295 54.525 Z " fill-rule="evenodd" fill="rgb(0,0,0)"/><path d=" M 42.386 57.173 C 41.225 65.13 37.19 66.077 36.987 69.379 C 36.784 72.681 38.058 72.997 37.979 76.051 C 37.9 79.106 35.184 80.345 34.857 82.002 C 34.53 83.659 36.255 84.188 37.258 84.188 C 38.261 84.188 39.264 79.793 39.67 76.998 C 40.075 74.203 38.34 72.557 38.34 70.641 C 38.34 68.725 40.853 65.22 40.391 68.297 C 42.476 65.006 43.468 60.813 42.386 57.173 L 42.386 57.173 L 42.386 57.173 L 42.386 57.173 Z " fill-rule="evenodd" fill="rgb(0,0,0)"/><path d=" M 43.941 60.205 C 43.062 64.51 37.574 88.55 40.369 88.854 C 43.164 89.159 47.142 81.416 53.656 81.472 C 60.182 81.529 62.752 90.15 64.341 90.094 C 65.93 90.038 66.978 90.658 67.147 80.942 C 67.316 71.227 61.388 58.819 57.883 53.352 C 53.127 53.657 48.01 57.466 43.941 60.205 L 43.941 60.205 L 43.941 60.205 L 43.941 60.205 Z " fill-rule="evenodd" fill="rgb(255,255,255)"/><g><path d=" M 56.6 55.066 C 56.295 52.209 53.607 51.086 51.018 51.439 C 48.844 51.735 45.946 53.57 45.679 55.922 C 45.378 58.573 47.464 61.013 50.119 61.119 C 52.471 61.214 54.999 60.076 56.056 57.865 C 56.483 56.972 56.65 56.053 56.6 55.066 Z " fill="none"/><path d=" M 57.84 54.964 C 57.58 52.273 55.585 50.583 53.004 50.17 C 50.511 49.771 47.798 50.952 46.052 52.697 C 44.09 54.66 44.011 57.39 45.386 59.715 C 46.741 62.01 49.745 62.768 52.205 62.194 C 55.571 61.409 58.059 58.465 57.84 54.964 Z " fill="rgb(0,0,0)"/><radialGradient id="_rgradient_1" fx="86.6299" fy="167.0693" cx="86.6299" cy="167.0693" r="54.7155" gradientTransform="matrix(10.934,0,0,9.747,45.672,51.376)" gradientUnits="userSpaceOnUse"><stop offset="0%" stop-opacity="1" style="stop-color:rgb(255,255,255)"/><stop offset="6.04%" stop-opacity="1" style="stop-color:rgb(251,200,180)"/><stop offset="7.12%" stop-opacity="1" style="stop-color:rgb(251,195,176)"/><stop offset="18.29%" stop-opacity="1" style="stop-color:rgb(247,151,139)"/><stop offset="29.95%" stop-opacity="1" style="stop-color:rgb(244,113,107)"/><stop offset="41.99%" stop-opacity="1" style="stop-color:rgb(241,82,81)"/><stop offset="54.53%" stop-opacity="1" style="stop-color:rgb(239,58,61)"/><stop offset="67.78%" stop-opacity="1" style="stop-color:rgb(238,41,47)"/><stop offset="82.19999999999999%" stop-opacity="1" style="stop-color:rgb(237,31,39)"/><stop offset="100%" stop-opacity="1" style="stop-color:rgb(237,28,36)"/></radialGradient><path d=" M 56.6 55.967 C 56.366 58.413 54.417 60.379 52.069 60.949 C 49.585 61.552 46.842 60.595 45.95 58.041 C 45.494 56.737 45.579 55.399 46.362 54.253 C 47.023 53.287 48.089 52.531 49.145 52.051 C 51.325 51.061 54.441 50.951 55.959 53.159 C 56.535 53.996 56.635 54.981 56.6 55.967 Z " fill="url(#_rgradient_1)" vector-effect="non-scaling-stroke" stroke-width="0.157" stroke="rgb(0,0,0)" stroke-linejoin="miter" stroke-linecap="butt" stroke-miterlimit="4"/></g></g></g></svg>