<?xml version="1.0" standalone="no"?><!-- Generator: Gravit.io --><svg xmlns="http://www.w3.org/2000/svg" xmlns:xlink="http://www.w3.org/1999/xlink" style="isolation:isolate" viewBox="0 0 105 120" width="105" height="120"><defs><clipPath id="_clipPath_08c9nSA6u0J2TZJYwXxb1fWafxZVeqnb"><rect width="105" height="120"/></clipPath></defs><g clip-path="url(#_clipPath_08c9nSA6u0J2TZJYwXxb1fWafxZVeqnb)"><path d=" M 52.5 0 L 105 30 L 105 90 L 52.5 120 L 0 90 L 0 30 L 52.5 0 Z " fill="rgb(208,0,0)"/><g><rect x="30.25" y="36.75" width="43.75" height="47" transform="matrix(1,0,0,1,0,0)" fill="rgb(235,235,235)"/><path d=" M 21.499 60 L 21.499 91.001 L 52.5 91.001 L 83.501 91.001 L 83.501 60 L 83.501 28.999 L 52.5 28.999 L 21.499 28.999 L 21.499 60 Z  M 43.884 42.084 L 44.589 42.768 L 44.589 49.93 L 44.589 57.114 L 52.457 49.246 L 60.325 41.378 L 62.976 41.442 L 65.627 41.506 L 66.033 42.533 L 66.461 43.58 L 60.09 49.951 L 53.719 56.344 L 54.552 57.541 C 55.001 58.225 58.102 62.672 61.394 67.462 L 67.402 76.142 L 66.91 77.147 L 66.397 78.173 L 63.746 78.173 L 61.116 78.173 L 58.871 74.816 C 57.631 72.956 55.001 69.022 52.992 66.05 L 49.357 60.663 L 46.984 62.929 L 44.589 65.174 L 44.589 70.968 L 44.589 76.762 L 43.905 77.467 C 43.243 78.151 43.157 78.173 41.511 78.173 C 39.886 78.173 39.758 78.151 39.095 77.489 L 38.389 76.805 L 38.389 59.808 L 38.389 42.811 L 39.073 42.105 C 39.736 41.421 39.822 41.4 41.468 41.4 C 43.093 41.4 43.221 41.421 43.884 42.084 Z " fill="rgb(208,0,0)" vector-effect="non-scaling-stroke" stroke-width="0.59" stroke="rgb(255,255,255)" stroke-linejoin="miter" stroke-linecap="butt" stroke-miterlimit="4"/></g></g></svg>