<?xml version="1.0" standalone="no"?><!-- Generator: Gravit.io --><svg xmlns="http://www.w3.org/2000/svg" xmlns:xlink="http://www.w3.org/1999/xlink" style="isolation:isolate" viewBox="0 0 105 120" width="105" height="120"><defs><clipPath id="_clipPath_hcApRhPMFECFUUM9UExcIBeX7w3T59Wv"><rect width="105" height="120"/></clipPath></defs><g clip-path="url(#_clipPath_hcApRhPMFECFUUM9UExcIBeX7w3T59Wv)"><path d=" M 52.5 1.15 L 104 30.575 L 104 89.425 L 52.5 118.85 L 1 89.425 L 1 30.575 L 52.5 1.15 Z " fill="rgb(23,23,23)" vector-effect="non-scaling-stroke" stroke-width="2" stroke="rgb(62,190,176)" stroke-linejoin="miter" stroke-linecap="butt" stroke-miterlimit="4"/><g><path d=" M 29.963 84.02 L 29.963 90.008 L 32.778 90.008 L 57.486 60.39 C 55.773 59.276 53.988 58.276 52.144 57.395 L 29.963 84.02 Z " fill="rgb(0,155,144)"/><path d=" M 57.487 60.39 L 32.767 90.02 L 74.961 90.02 C 74.961 77.948 68.11 67.216 57.487 60.39 Z " fill="rgb(64,190,176)"/><path d=" M 29.963 29.98 L 29.963 84.111 L 75.037 29.98 L 29.963 29.98 Z " fill="rgb(239,80,152)"/><path d=" M 29.975 84.092 L 52.191 57.419 C 45.227 54.166 37.649 52.482 29.963 52.517 L 29.975 84.092 Z " fill="rgb(53,53,53)"/></g></g></svg>