<?xml version="1.0" standalone="no"?><!-- Generator: Gravit.io --><svg xmlns="http://www.w3.org/2000/svg" xmlns:xlink="http://www.w3.org/1999/xlink" style="isolation:isolate" viewBox="0 0 105 120" width="105" height="120"><defs><clipPath id="_clipPath_QEihMU0qcjpOmxAF6mpjCtzcePDzG5pD"><rect width="105" height="120"/></clipPath></defs><g clip-path="url(#_clipPath_QEihMU0qcjpOmxAF6mpjCtzcePDzG5pD)"><path d=" M 52.5 1.15 L 104 30.575 L 104 89.425 L 52.5 118.85 L 1 89.425 L 1 30.575 L 52.5 1.15 Z " fill="rgb(23,23,23)" vector-effect="non-scaling-stroke" stroke-width="2" stroke="rgb(62,190,176)" stroke-linejoin="miter" stroke-linecap="butt" stroke-miterlimit="4"/><g><path d=" M 53.326 61.426 L 34.188 61.426 L 34.188 39.361 L 39.967 39.361 C 47.397 39.361 53.326 45.365 53.326 52.72 L 53.326 61.426 Z " fill="rgb(243,189,25)"/><path d=" M 53.326 80.639 C 42.744 80.639 34.113 72.083 34.113 61.426 L 53.326 61.426 L 53.326 80.639 Z " fill="rgb(35,31,32)"/><path d=" M 53.326 61.426 L 70.812 61.426 L 70.812 80.639 L 53.326 80.639 L 53.326 61.426 Z " fill="rgb(62,190,176)"/><path d=" M 53.326 61.426 L 57.378 61.426 L 57.378 80.639 L 53.326 80.639 L 53.326 61.426 Z " fill="rgb(55,165,149)"/><path d=" M 22.48 29.98 L 82.52 29.98 L 82.52 90.02 L 22.48 90.02 L 22.48 29.98 Z " fill="none"/></g></g></svg>