<?xml version="1.0" standalone="no"?><!-- Generator: Gravit.io --><svg xmlns="http://www.w3.org/2000/svg" xmlns:xlink="http://www.w3.org/1999/xlink" style="isolation:isolate" viewBox="0 0 105 120" width="105" height="120"><defs><clipPath id="_clipPath_HRPwmF3Exts2dxrLjC0Q2GgGvsS2ZNpd"><rect width="105" height="120"/></clipPath></defs><g clip-path="url(#_clipPath_HRPwmF3Exts2dxrLjC0Q2GgGvsS2ZNpd)"><path d=" M 52.5 0 L 105 30 L 105 90 L 52.5 120 L 0 90 L 0 30 L 52.5 0 Z " fill="rgb(209,209,209)"/><g><path d=" M 80.119 45.926 C 87.181 59.787 82.877 76.736 70.057 85.547 C 57.237 94.358 39.871 92.303 29.462 80.743 C 19.053 69.183 18.823 51.698 28.926 39.868 C 39.029 28.039 56.334 25.53 69.381 34.002" fill="none" vector-effect="non-scaling-stroke" stroke-width="0.719" stroke="rgb(128,128,128)" stroke-linejoin="miter" stroke-linecap="butt" stroke-miterlimit="4"/><circle vector-effect="non-scaling-stroke" cx="0" cy="0" r="1" transform="matrix(23.976,0,0,23.976,52.498,59.999)" fill="rgb(0,0,128)"/><circle vector-effect="non-scaling-stroke" cx="0" cy="0" r="1" transform="matrix(7.022,0,0,7.022,62.43,50.069)" fill="rgb(255,255,255)"/><circle vector-effect="non-scaling-stroke" cx="0" cy="0" r="1" transform="matrix(7.023,0,0,7.023,76.475,36.023)" fill="rgb(0,0,128)"/><g><path d=" M 46.003 71.988 L 46.003 70.218 L 38.235 70.218 L 38.235 56.257 L 36.228 56.257 L 36.228 71.988 L 46.003 71.988" fill="rgb(255,255,255)"/><path d=" M 56.788 71.988 L 56.788 60.68 L 54.997 60.68 L 54.997 66.917 C 54.997 69.226 53.788 70.736 51.911 70.736 C 50.487 70.736 49.581 69.873 49.581 68.513 L 49.581 60.68 L 47.79 60.68 L 47.79 69.226 C 47.79 71.103 49.192 72.311 51.393 72.311 C 53.055 72.311 54.112 71.729 55.17 70.24 L 55.17 71.988 L 56.788 71.988" fill="rgb(255,255,255)"/><path d=" M 69.943 71.944 L 69.943 70.585 C 69.749 70.628 69.663 70.628 69.555 70.628 C 68.929 70.628 68.584 70.304 68.584 69.743 L 68.584 63.442 C 68.584 61.436 67.116 60.357 64.333 60.357 C 61.592 60.357 59.909 61.414 59.801 64.025 L 61.614 64.025 C 61.765 62.644 62.585 62.018 64.268 62.018 C 65.886 62.018 66.793 62.622 66.793 63.701 L 66.793 64.176 C 66.793 64.931 66.34 65.255 64.915 65.428 C 62.369 65.751 61.981 65.838 61.29 66.118 C 59.974 66.658 59.305 67.672 59.305 69.053 C 59.305 71.103 60.729 72.311 63.016 72.311 C 64.462 72.311 65.865 71.707 66.858 70.65 C 67.052 71.513 67.829 72.139 68.713 72.139 C 69.08 72.139 69.361 72.096 69.943 71.945 M 66.793 68.082 C 66.793 69.7 65.153 70.736 63.405 70.736 C 62.002 70.736 61.182 70.24 61.182 69.01 C 61.182 67.823 61.981 67.305 63.901 67.025 C 65.8 66.766 66.189 66.679 66.793 66.399 L 66.793 68.082" fill="rgb(255,255,255)"/></g></g></g></svg>