<?xml version="1.0" standalone="no"?><!-- Generator: Gravit.io --><svg xmlns="http://www.w3.org/2000/svg" xmlns:xlink="http://www.w3.org/1999/xlink" style="isolation:isolate" viewBox="0 0 105 120" width="105" height="120"><defs><clipPath id="_clipPath_97W2MkhsnJyOFBq0i6v2oI0xcViWfvnF"><rect width="105" height="120"/></clipPath></defs><g clip-path="url(#_clipPath_97W2MkhsnJyOFBq0i6v2oI0xcViWfvnF)"><path d=" M 52.5 1.15 L 104 30.575 L 104 89.425 L 52.5 118.85 L 1 89.425 L 1 30.575 L 52.5 1.15 Z " fill="rgb(49,47,48)" vector-effect="non-scaling-stroke" stroke-width="2" stroke="rgb(115,226,105)" stroke-linejoin="miter" stroke-linecap="butt" stroke-miterlimit="4"/><g><path d=" M 53.866 90.01 L 52.268 89.464 C 52.268 89.464 52.464 81.319 49.54 80.735 C 47.592 78.474 49.853 -15.143 56.868 80.422 C 56.868 80.422 54.451 81.63 54.022 83.696 C 53.554 85.723 53.866 90.01 53.866 90.01 L 53.866 90.01 Z " fill-rule="evenodd" fill="rgb(255,255,255)"/><path d=" M 53.866 90.01 L 52.268 89.464 C 52.268 89.464 52.464 81.319 49.54 80.735 C 47.592 78.474 49.853 -15.143 56.868 80.422 C 56.868 80.422 54.451 81.63 54.022 83.696 C 53.554 85.723 53.866 90.01 53.866 90.01 L 53.866 90.01 Z " fill-rule="evenodd" fill="rgb(166,163,133)"/><path d=" M 54.724 82.138 C 54.724 82.138 68.716 72.939 65.442 53.803 C 62.285 39.889 54.841 35.329 54.022 33.575 C 53.126 32.328 52.268 30.146 52.268 30.146 L 52.853 68.847 C 52.853 68.886 51.645 80.695 54.724 82.138" fill-rule="evenodd" fill="rgb(255,255,255)"/><path d=" M 54.724 82.138 C 54.724 82.138 68.716 72.939 65.442 53.803 C 62.285 39.889 54.841 35.329 54.022 33.575 C 53.126 32.328 52.268 30.146 52.268 30.146 L 52.853 68.847 C 52.853 68.886 51.645 80.695 54.724 82.138" fill-rule="evenodd" fill="rgb(73,157,74)"/><path d=" M 51.45 82.644 C 51.45 82.644 38.315 73.68 39.095 57.895 C 39.835 42.111 49.111 34.355 50.904 32.952 C 52.074 31.705 52.113 31.237 52.191 29.99 C 53.009 31.744 52.853 56.22 52.97 59.103 C 53.32 70.211 52.347 80.54 51.45 82.644 Z " fill-rule="evenodd" fill="rgb(255,255,255)"/><path d=" M 51.45 82.644 C 51.45 82.644 38.315 73.68 39.095 57.895 C 39.835 42.111 49.111 34.355 50.904 32.952 C 52.074 31.705 52.113 31.237 52.191 29.99 C 53.009 31.744 52.853 56.22 52.97 59.103 C 53.32 70.211 52.347 80.54 51.45 82.644 Z " fill-rule="evenodd" fill="rgb(88,170,80)"/></g></g></svg>