<?xml version="1.0" standalone="no"?><!-- Generator: Gravit.io --><svg xmlns="http://www.w3.org/2000/svg" xmlns:xlink="http://www.w3.org/1999/xlink" style="isolation:isolate" viewBox="0 0 105 120" width="105" height="120"><defs><clipPath id="_clipPath_ikFehPFqR36GpO5SPMr5xJWnOc2xzcEn"><rect width="105" height="120"/></clipPath></defs><g clip-path="url(#_clipPath_ikFehPFqR36GpO5SPMr5xJWnOc2xzcEn)"><path d=" M 52.5 0 L 105 30 L 105 90 L 52.5 120 L 0 90 L 0 30 L 52.5 0 Z " fill="rgb(25,25,25)"/><g><path d=" M 5.25 68.197 L 5.25 51.829 L 21.615 68.197 L 21.615 51.829" fill="none" vector-effect="non-scaling-stroke" stroke-width="4.293" stroke="rgb(0,153,0)" stroke-linejoin="round" stroke-linecap="round" stroke-miterlimit="4"/><path d=" M 31.554 49.704 L 30.964 50.804 L 26.403 59.094 L 25.813 60.14 L 26.403 61.187 L 30.964 69.208 L 31.581 70.308 L 32.842 70.308 L 42.178 70.308 L 43.52 70.308 L 44.11 69.101 L 47.517 62.233 L 49.047 59.121 L 45.586 59.121 L 36.866 59.148 C 35.733 59.132 34.69 60.16 34.69 61.294 C 34.69 62.428 35.733 63.456 36.866 63.44 L 42.125 63.414 L 40.837 66.016 L 34.076 66.016 L 30.723 60.114 L 34.103 53.997 L 41.295 53.997 L 42.972 57.437 L 47.291 57.437 L 44.568 50.911 L 43.978 49.704 L 42.636 49.704 L 32.842 49.704 L 31.554 49.704 Z " fill="rgb(0,153,0)"/><path d=" M 53.297 49.677 C 52.174 49.691 51.164 50.727 51.178 51.85 L 51.178 57.443 L 55.47 57.443 L 55.47 51.85 C 55.485 50.709 54.439 49.663 53.297 49.677 Z " fill="rgb(0,153,0)"/><path d=" M 76.544 68.238 L 76.544 51.871 L 60.178 68.238 L 60.178 51.871" fill="none" vector-effect="non-scaling-stroke" stroke-width="4.293" stroke="rgb(0,153,0)" stroke-linejoin="round" stroke-linecap="round" stroke-miterlimit="4"/><g><line x1="83.346" y1="51.865" x2="99.731" y2="68.192" vector-effect="non-scaling-stroke" stroke-width="4.293" stroke="rgb(0,153,0)" stroke-linejoin="round" stroke-linecap="round" stroke-miterlimit="4"/><line x1="99.75" y1="51.865" x2="83.366" y2="68.192" vector-effect="non-scaling-stroke" stroke-width="4.293" stroke="rgb(0,153,0)" stroke-linejoin="round" stroke-linecap="round" stroke-miterlimit="4"/></g><path d=" M 53.297 70.323 C 52.174 70.309 51.164 69.273 51.178 68.15 L 51.178 59.166 L 55.47 59.166 L 55.47 68.15 C 55.485 69.291 54.439 70.337 53.297 70.323 Z " fill="rgb(0,153,0)"/></g></g></svg>