<?xml version="1.0" standalone="no"?><!-- Generator: Gravit.io --><svg xmlns="http://www.w3.org/2000/svg" xmlns:xlink="http://www.w3.org/1999/xlink" style="isolation:isolate" viewBox="0 0 105 120" width="105" height="120"><defs><clipPath id="_clipPath_MWhplOw40FsstQraewbRL1Bd4SfMMw4R"><rect width="105" height="120"/></clipPath></defs><g clip-path="url(#_clipPath_MWhplOw40FsstQraewbRL1Bd4SfMMw4R)"><path d=" M 52.5 0 L 105 30 L 105 90 L 52.5 120 L 0 90 L 0 30 L 52.5 0 Z " fill="rgb(243,255,255)"/><g><path d=" M 51.622 88.213 C 46.189 88.213 40.978 86.054 37.136 82.212 C 33.294 78.371 31.136 73.16 31.136 67.726 C 31.136 57.991 38.767 48.651 43.987 41.839 C 46.808 38.176 49.293 34.266 51.41 30.157 C 51.45 30.076 51.532 30.024 51.623 30.024 C 51.713 30.024 51.796 30.076 51.836 30.157 C 53.953 34.267 56.437 38.177 59.259 41.839 C 64.477 48.652 72.111 57.986 72.111 67.727 L 59.609 67.727 C 59.481 67.727 59.359 67.778 59.269 67.868 C 59.178 67.958 59.128 68.081 59.128 68.208 L 59.128 75.234 L 52.104 75.234 C 51.976 75.234 51.854 75.285 51.764 75.375 C 51.673 75.465 51.623 75.587 51.623 75.715 L 51.623 88.213 L 51.622 88.213 Z " fill="rgb(114,142,155)"/><path d=" M 59.629 83.239 L 59.629 76.55 L 53.419 76.55 C 53.291 76.55 53.169 76.601 53.078 76.691 C 52.988 76.781 52.937 76.904 52.937 77.031 L 52.937 83.24 L 59.629 83.239 Z " fill="rgb(114,142,155)"/><path d=" M 52.938 89.922 C 55.225 89.879 57.489 89.444 59.629 88.636 L 59.629 85.266 L 53.419 85.266 C 53.291 85.266 53.169 85.317 53.078 85.407 C 52.988 85.497 52.937 85.62 52.937 85.747 L 52.938 89.922 Z " fill="rgb(114,142,155)"/><path d=" M 67.132 75.732 L 67.132 69.043 L 60.924 69.043 C 60.796 69.043 60.674 69.094 60.583 69.184 C 60.493 69.275 60.442 69.397 60.442 69.525 L 60.442 75.732 L 67.131 75.732 L 67.132 75.732 Z " fill="rgb(114,142,155)"/><path d=" M 67.936 84.046 L 67.944 84.039 C 68.204 83.774 68.349 83.417 68.346 83.046 L 68.346 77.759 L 61.656 77.759 L 61.656 84.45 L 66.941 84.45 C 67.313 84.453 67.671 84.307 67.936 84.046 L 67.936 84.046 Z " fill="rgb(114,142,155)"/><path d=" M 62.11 89.976 C 63.898 89.208 65.564 88.184 67.056 86.935 L 62.11 86.935 L 62.11 89.976 Z " fill="rgb(114,142,155)"/><path d=" M 72.528 75.732 C 73.338 73.593 73.774 71.33 73.816 69.043 L 69.162 69.043 L 69.162 75.732 L 72.528 75.732 Z " fill="rgb(114,142,155)"/><path d=" M 70.825 83.161 C 72.074 81.668 73.097 80.002 73.864 78.214 L 70.825 78.214 L 70.825 83.161 Z " fill="rgb(114,142,155)"/><path d=" M 70.825 83.161 C 72.074 81.668 73.097 80.002 73.864 78.214 L 70.825 78.214 L 70.825 83.161 Z " fill="rgb(114,142,155)"/></g></g></svg>