<?xml version="1.0" standalone="no"?><!-- Generator: Gravit.io --><svg xmlns="http://www.w3.org/2000/svg" xmlns:xlink="http://www.w3.org/1999/xlink" style="isolation:isolate" viewBox="0 0 105 120" width="105" height="120"><defs><clipPath id="_clipPath_3CA1m3nz9uxNacjQxhhuE1X0MAFbsuRz"><rect width="105" height="120"/></clipPath></defs><g clip-path="url(#_clipPath_3CA1m3nz9uxNacjQxhhuE1X0MAFbsuRz)"><path d=" M 52.5 0 L 105 30 L 105 90 L 52.5 120 L 0 90 L 0 30 L 52.5 0 Z " fill="rgb(0,0,0)"/><g><path d=" M 98.971 39.097 C 97.931 36.948 96.728 34.875 95.331 32.92 L 80.411 38.35 C 82.146 40.125 83.604 42.122 84.796 44.256 L 98.971 39.097 Z  M 33.018 55.599 L 18.094 61.029 C 18.284 63.422 18.698 65.786 19.277 68.103 L 33.454 62.941 C 32.993 60.543 32.83 58.072 33.018 55.599 Z " fill="rgb(194,33,51)"/><path d=" M 66.14 34.87 C 69.244 36.319 71.933 38.295 74.202 40.611 L 89.122 35.181 C 84.989 29.381 79.359 24.535 72.462 21.317 C 51.131 11.37 25.683 20.631 15.739 41.96 C 12.518 48.861 11.322 56.192 11.885 63.291 L 26.807 57.861 C 27.055 54.627 27.843 51.386 29.289 48.28 C 35.752 34.423 52.283 28.409 66.14 34.87 Z " fill="rgb(219,33,46)"/><path d=" M 82.054 62.136 C 81.815 65.368 81 68.608 79.549 71.717 C 73.088 85.577 56.556 91.59 42.701 85.129 C 39.592 83.678 36.883 81.718 34.623 79.397 L 19.733 84.816 C 23.857 90.616 29.479 95.464 36.381 98.684 C 57.712 108.629 83.155 99.368 93.102 78.037 C 96.324 71.14 97.512 63.81 96.944 56.718 L 82.054 62.136 L 82.054 62.136 Z " fill="rgb(219,33,46)"/><path d=" M 85.723 43.919 L 71.546 49.079 C 74.18 53.798 75.424 59.23 75.016 64.694 L 89.906 59.278 C 89.479 53.934 88.055 48.718 85.723 43.919 Z  M 20.206 67.762 L 6.029 72.926 C 7.33 78.095 9.589 83.007 12.696 87.379 L 27.584 81.958 C 23.762 78.034 21.221 73.067 20.206 67.762 Z " fill="rgb(235,33,38)"/><path d=" M 96.81 35.166 C 96.34 34.403 95.852 33.651 95.332 32.92 L 80.412 38.35 C 81.068 39.022 81.672 39.735 82.249 40.466 L 96.81 35.166 Z  M 32.961 58.595 C 32.925 57.601 32.941 56.601 33.018 55.6 L 18.093 61.03 C 18.171 61.986 18.291 62.935 18.434 63.882 L 32.961 58.595 L 32.961 58.595 Z " fill="rgb(173,33,59)"/><path d=" M 96.943 56.717 L 82.053 62.136 C 81.896 64.28 81.478 66.428 80.795 68.54 L 97.002 62.631 C 97.118 60.651 97.1 58.675 96.943 56.717 Z  M 19.734 84.818 C 20.881 86.432 22.15 87.972 23.529 89.426 L 39.739 83.514 C 37.845 82.329 36.132 80.946 34.622 79.397 L 19.734 84.818 Z " fill="rgb(186,33,51)"/></g></g></svg>