<?xml version="1.0" standalone="no"?><!-- Generator: Gravit.io --><svg xmlns="http://www.w3.org/2000/svg" xmlns:xlink="http://www.w3.org/1999/xlink" style="isolation:isolate" viewBox="0 0 105 120" width="105" height="120"><defs><clipPath id="_clipPath_BMnSKnFTt9MifhSqbcc3ImqVzYUhwd64"><rect width="105" height="120"/></clipPath></defs><g clip-path="url(#_clipPath_BMnSKnFTt9MifhSqbcc3ImqVzYUhwd64)"><path d=" M 52.5 0 L 105 30 L 105 90 L 52.5 120 L 0 90 L 0 30 L 52.5 0 Z " fill="rgb(253,79,0)"/><g><path d=" M 41.581 71.838 C 41.194 71.769 41.043 71.742 40.891 71.714 C 35.995 70.804 32.9 67.841 31.434 63.183 C 30.519 60.28 32.181 58.142 35.226 58.001 C 37.719 57.886 39.425 59.319 40.934 60.986 C 42.88 63.136 44.663 65.432 46.574 67.614 C 49.325 70.755 52.566 72.778 57.001 72.154 C 60.978 71.594 64.443 69.998 67.459 67.371 C 67.912 66.977 68.409 66.633 68.887 66.265 C 68.786 66.147 68.686 66.028 68.586 65.91 C 66.054 66.696 63.473 66.961 60.835 66.828 C 56.843 66.627 53.04 65.794 49.637 63.602 C 46.532 61.603 44.242 58.923 43.153 55.344 C 42.274 52.452 44.073 50.429 47.07 50.847 C 48.254 51.013 49.251 51.546 50.147 52.303 C 50.875 52.918 51.574 53.571 52.318 54.168 C 55.815 56.978 60.702 57.134 65.141 54.083 C 57.843 54.05 52.878 50.035 48.516 44.948 C 46.81 42.956 45.143 40.929 43.401 38.97 C 40.03 35.177 36.291 31.836 31.17 30.697 C 24.629 29.241 18.314 30.192 12.253 32.968 C 11.045 33.522 9.884 34.165 8.638 35.202 C 9.255 35.202 9.591 35.21 9.927 35.201 C 12.983 35.122 15.273 36.48 16.925 38.98 C 18.127 40.799 18.693 42.857 19.125 44.973 C 19.766 48.115 19.434 51.317 19.804 54.473 C 20.756 62.586 24.902 68.247 32.622 71.146 C 35.453 72.209 38.357 72.563 41.581 71.838 L 41.581 71.838 Z  M 22.069 34.831 C 20.849 35.138 19.875 34.646 18.87 33.629 C 20.59 33.201 22.108 33.034 23.738 32.97 C 23.605 34.029 22.981 34.601 22.069 34.831 Z  M 62.045 82.205 C 61.939 81.424 61.271 81.08 60.747 80.672 C 58.426 78.866 55.712 78.226 52.835 78.173 C 51.118 78.142 49.418 78.013 47.799 77.411 C 47.057 77.135 46.226 76.781 46.245 75.822 C 46.264 74.849 47.111 74.574 47.881 74.343 C 48.512 74.155 49.163 74.035 49.882 73.867 C 48.057 72.698 46.275 72.535 43.9 73.49 C 40.162 74.993 36.477 74.815 32.75 73.47 C 30.646 72.71 28.779 71.518 26.835 70.462 L 26.782 70.499 C 26.807 70.481 26.834 70.463 26.832 70.464 C 26.784 70.317 26.697 70.314 26.585 70.395 C 26.637 70.44 26.687 70.485 26.738 70.529 C 28.35 73.171 30.528 75.297 32.989 77.114 C 37.727 80.613 42.903 82.699 48.959 81.774 C 50.915 81.474 52.886 81.242 54.858 81.083 C 57.332 80.884 59.688 81.58 62.045 82.205 Z  M 50.627 44.299 C 50.496 44.204 50.371 43.966 50.103 44.213 C 52.282 47.16 55.081 49.332 58.451 50.7 C 63.89 52.907 69.411 53.284 75.057 51.337 C 79.44 49.825 82.593 51.302 84.23 55.558 C 84.466 50.618 81.56 47.019 76.931 46.313 C 74.327 45.916 71.922 46.78 69.483 47.488 C 62.694 49.456 56.386 48.484 50.627 44.299 Z  M 84.462 63.567 C 85.346 63.641 86.231 63.722 87.115 63.799 C 85.116 62.044 82.681 61.904 80.217 62.045 C 76.464 62.258 73.761 64.422 71.297 67.007 C 69.125 69.286 67.163 71.842 63.922 72.758 C 63.976 72.855 63.99 72.904 64.006 72.904 C 64.441 72.91 64.878 72.931 65.313 72.911 C 70.02 72.698 74.454 71.705 77.981 68.289 C 79.091 67.214 80.085 66.019 81.158 64.902 C 82.052 63.971 83.137 63.455 84.462 63.567 Z  M 73.528 57.734 C 70.016 58.041 66.965 59.494 64.099 61.41 C 61.893 62.884 59.534 63.582 56.883 63.121 C 56.417 63.04 55.947 62.979 55.479 62.909 C 55.473 62.974 55.468 63.039 55.463 63.105 C 55.631 63.191 55.794 63.293 55.97 63.362 C 56.411 63.537 56.846 63.748 57.305 63.857 C 62.406 65.069 67.289 64.448 71.692 61.604 C 74.467 59.812 77.339 59.472 80.453 59.935 C 80.767 59.982 81.081 60.039 81.396 60.069 C 81.689 60.096 81.995 60.387 82.39 60.072 C 79.668 58.106 76.736 57.454 73.528 57.734 Z  M 60.975 45.812 C 62.817 45.875 64.651 45.634 66.579 44.489 C 66.014 44.539 65.775 44.538 65.545 44.584 C 62.89 45.113 60.507 44.534 58.384 42.856 C 57.605 42.24 56.813 41.64 56.024 41.036 C 52.897 38.645 49.311 37.844 45.389 37.912 C 45.452 38.105 45.456 38.237 45.524 38.306 C 49.792 42.623 54.731 45.596 60.975 45.812 Z  M 91.864 67.961 C 89.222 65.341 85.678 65.004 82.398 67.29 C 84.569 67.388 86.199 68.08 87.52 69.449 C 87.988 69.933 88.473 70.408 88.996 70.831 C 90.995 72.443 94.383 72.52 96.362 71.025 C 94.037 70.117 94.037 70.117 91.864 67.961 Z  M 65.558 88.023 C 63.237 83.702 59.335 82.727 54.828 83.017 C 56.161 83.386 57.405 83.955 58.547 84.752 C 59.596 85.484 60.478 86.391 61.348 87.32 C 63.072 89.159 65.763 90.289 67.546 89.907 C 66.727 89.391 66 88.846 65.558 88.023 Z  M 87.157 63.888 C 87.157 63.861 87.158 63.833 87.16 63.804 C 87.16 63.804 87.156 63.808 87.153 63.811 L 87.161 63.803 C 87.145 63.802 87.13 63.8 87.115 63.799 C 87.124 63.807 87.133 63.814 87.142 63.822 C 87.147 63.844 87.152 63.866 87.157 63.888 Z  M 62.174 82.307 C 62.143 82.29 62.113 82.272 62.082 82.255 C 62.086 82.275 62.091 82.294 62.101 82.31 C 62.107 82.32 62.149 82.308 62.174 82.307 Z  M 62.082 82.255 C 62.079 82.241 62.077 82.227 62.073 82.213 C 62.073 82.213 62.068 82.219 62.063 82.226 L 62.073 82.213 C 62.064 82.21 62.054 82.208 62.045 82.205 C 62.046 82.217 62.051 82.227 62.052 82.239 C 62.062 82.244 62.072 82.25 62.082 82.255 Z " fill="rgb(255,255,255)"/></g></g></svg>