<?xml version="1.0" standalone="no"?><!-- Generator: Gravit.io --><svg xmlns="http://www.w3.org/2000/svg" xmlns:xlink="http://www.w3.org/1999/xlink" style="isolation:isolate" viewBox="0 0 105 120" width="105" height="120"><defs><clipPath id="_clipPath_AJvTyjbPIfmQRGp7iBVTBTD1Gs9YtTzC"><rect width="105" height="120"/></clipPath></defs><g clip-path="url(#_clipPath_AJvTyjbPIfmQRGp7iBVTBTD1Gs9YtTzC)"><path d=" M 52.5 0 L 105 30 L 105 90 L 52.5 120 L 0 90 L 0 30 L 52.5 0 Z " fill="rgb(28,39,43)"/><g><g><g><path d=" M 76.24 41.659 C 66.109 28.546 47.271 26.128 34.157 36.259 C 21.049 46.389 18.628 65.228 28.759 78.339 C 38.887 91.453 57.726 93.873 70.84 83.742 C 83.953 73.614 86.371 54.77 76.24 41.659 Z " fill-rule="evenodd" fill="rgb(255,108,55)"/></g><g><path d=" M 58.4 49.875 C 56.24 50.863 52.722 53.843 47.017 59.526 L 48.64 61.148 L 49.18 61.691 L 60.208 50.663 C 60.553 50.318 60.988 50.145 61.438 50.068 C 60.618 49.455 59.83 49.222 58.4 49.875 Z " fill-rule="evenodd" fill="rgb(255,255,255)"/><path d=" M 63.264 54.084 L 51.721 64.227 C 52.748 65.257 53.311 65.817 53.601 66.11 C 58.174 61.77 62.526 57.344 63.264 54.084 Z " fill-rule="evenodd" fill="rgb(255,255,255)"/><path d=" M 43.548 63.045 C 43.566 63.075 43.583 63.07 43.601 63.067 L 48.279 62.057 L 46.383 60.165 L 43.556 62.99 C 43.546 63 43.531 63.012 43.548 63.045 Z " fill-rule="evenodd" fill="rgb(255,255,255)"/><path d=" M 64.751 47.375 L 68.664 43.462 C 67.874 42.847 66.916 42.542 65.959 42.542 C 64.829 42.542 63.699 42.97 62.846 43.822 C 62.013 44.655 61.556 45.76 61.556 46.937 C 61.556 48.115 62.013 49.222 62.846 50.055 C 64.144 51.35 66.074 51.695 67.719 50.978 L 64.751 48.012 C 64.666 47.927 64.619 47.812 64.619 47.695 C 64.619 47.575 64.666 47.46 64.751 47.375 Z " fill-rule="evenodd" fill="rgb(255,255,255)"/><path d=" M 68.946 48.395 C 68.868 48.395 68.791 48.368 68.723 48.315 C 68.578 48.193 68.556 47.973 68.681 47.825 C 68.941 47.51 68.993 47.068 68.806 46.698 C 68.721 46.525 68.791 46.318 68.963 46.233 C 69.133 46.148 69.343 46.218 69.428 46.388 C 69.736 47 69.651 47.74 69.211 48.268 C 69.143 48.35 69.046 48.395 68.946 48.395 Z  M 69.318 44.078 L 65.705 47.695 L 68.528 50.518 C 68.728 50.376 68.913 50.218 69.081 50.056 C 69.913 49.223 70.371 48.115 70.371 46.938 C 70.371 45.878 70.001 44.878 69.318 44.078 Z " fill-rule="evenodd" fill="rgb(255,255,255)"/><path d=" M 60.842 51.298 L 49.846 62.297 L 51.111 63.562 L 62.755 53.336 C 63.047 53.079 63.215 52.721 63.227 52.333 C 63.24 51.943 63.095 51.576 62.82 51.298 C 62.275 50.756 61.39 50.753 60.842 51.298 Z " fill-rule="evenodd" fill="rgb(255,255,255)"/><path d=" M 40.328 74.755 C 40.328 74.755 40.33 74.755 40.333 74.752 C 45.576 72.124 49.813 69.419 52.931 66.712 L 51.154 64.936 L 46.481 65.661 L 37.225 74.917 L 40.188 77.88 C 40.26 77.95 40.333 77.932 40.383 77.907 C 40.433 77.88 40.485 77.827 40.463 77.727 L 39.958 75.562 C 39.878 75.24 40.033 74.91 40.328 74.755 Z " fill-rule="evenodd" fill="rgb(255,255,255)"/><path d=" M 39.253 78.219 L 36.588 75.554 L 34.328 77.814 C 34.321 77.819 34.311 77.832 34.318 77.854 C 34.328 77.879 34.343 77.882 34.353 77.884 L 39.253 78.219 Z " fill-rule="evenodd" fill="rgb(255,255,255)"/><path d=" M 47.675 64.468 L 47.682 64.468 C 47.692 64.468 47.707 64.471 47.717 64.471 L 50.345 64.128 L 49.182 62.961 L 47.675 64.468 Z " fill-rule="evenodd" fill="rgb(255,255,255)"/><path d=" M 69.429 46.388 C 69.344 46.218 69.134 46.146 68.962 46.233 C 68.792 46.318 68.722 46.526 68.807 46.698 C 68.992 47.066 68.942 47.508 68.679 47.826 C 68.554 47.973 68.577 48.193 68.724 48.316 C 68.789 48.368 68.867 48.396 68.947 48.396 C 69.047 48.396 69.144 48.351 69.212 48.268 C 69.652 47.741 69.737 47.001 69.429 46.388 Z " fill-rule="evenodd" fill="rgb(255,108,55)"/></g></g></g></g></svg>