<?xml version="1.0" standalone="no"?><!-- Generator: Gravit.io --><svg xmlns="http://www.w3.org/2000/svg" xmlns:xlink="http://www.w3.org/1999/xlink" style="isolation:isolate" viewBox="0 0 105 120" width="105" height="120"><defs><clipPath id="_clipPath_CSEkGLfnJD1UTLGT3Q1wpaYnDbQRixyq"><rect width="105" height="120"/></clipPath></defs><g clip-path="url(#_clipPath_CSEkGLfnJD1UTLGT3Q1wpaYnDbQRixyq)"><path d=" M 52.5 0 L 105 30 L 105 90 L 52.5 120 L 0 90 L 0 30 L 52.5 0 Z " fill="rgb(0,0,0)"/><g><circle vector-effect="non-scaling-stroke" cx="0" cy="0" r="1" transform="matrix(2.31,-2.31,2.31,2.31,56.258,33.249)" fill="rgb(91,135,218)"/><circle vector-effect="non-scaling-stroke" cx="0" cy="0" r="1" transform="matrix(2.566,-2.566,2.566,2.566,65.24,42.23)" fill="rgb(91,135,218)"/><circle vector-effect="non-scaling-stroke" cx="0" cy="0" r="1" transform="matrix(2.823,-2.823,2.822,2.822,74.22,51.213)" fill="rgb(91,135,218)"/><circle vector-effect="non-scaling-stroke" cx="0" cy="0" r="1" transform="matrix(3.079,-3.079,3.079,3.079,83.193,60.184)" fill="rgb(91,135,218)"/><circle vector-effect="non-scaling-stroke" cx="0" cy="0" r="1" transform="matrix(2.054,-2.054,2.054,2.054,38.306,33.248)" fill="rgb(30,220,255)"/><circle vector-effect="non-scaling-stroke" cx="0" cy="0" r="1" transform="matrix(2.31,-2.31,2.31,2.31,47.287,42.231)" fill="rgb(30,220,255)"/><circle vector-effect="non-scaling-stroke" cx="0" cy="0" r="1" transform="matrix(2.566,-2.566,2.566,2.566,56.259,51.202)" fill="rgb(30,220,255)"/><circle vector-effect="non-scaling-stroke" cx="0" cy="0" r="1" transform="matrix(2.823,-2.823,2.823,2.823,65.237,60.179)" fill="rgb(30,220,255)"/><circle vector-effect="non-scaling-stroke" cx="0" cy="0" r="1" transform="matrix(3.079,-3.079,3.079,3.079,74.22,69.166)" fill="rgb(30,220,255)"/><circle vector-effect="non-scaling-stroke" cx="0" cy="0" r="1" transform="matrix(1.798,-1.798,1.798,1.798,20.363,33.259)" fill="rgb(255,255,255)"/><circle vector-effect="non-scaling-stroke" cx="0" cy="0" r="1" transform="matrix(2.054,-2.054,2.054,2.054,29.33,42.224)" fill="rgb(255,255,255)"/><circle vector-effect="non-scaling-stroke" cx="0" cy="0" r="1" transform="matrix(2.31,-2.31,2.31,2.31,38.315,51.212)" fill="rgb(255,255,255)"/><circle vector-effect="non-scaling-stroke" cx="0" cy="0" r="1" transform="matrix(2.566,-2.566,2.566,2.566,47.291,60.188)" fill="rgb(255,255,255)"/><circle vector-effect="non-scaling-stroke" cx="0" cy="0" r="1" transform="matrix(2.823,-2.823,2.822,2.822,56.267,69.167)" fill="rgb(255,255,255)"/><circle vector-effect="non-scaling-stroke" cx="0" cy="0" r="1" transform="matrix(3.079,-3.079,3.079,3.079,65.237,78.131)" fill="rgb(255,255,255)"/><circle vector-effect="non-scaling-stroke" cx="0" cy="0" r="1" transform="matrix(2.054,-2.054,2.054,2.054,38.307,69.153)" fill="rgb(91,135,218)"/><circle vector-effect="non-scaling-stroke" cx="0" cy="0" r="1" transform="matrix(2.054,-2.054,2.054,2.054,29.331,78.129)" fill="rgb(91,135,218)"/><circle vector-effect="non-scaling-stroke" cx="0" cy="0" r="1" transform="matrix(2.054,-2.054,2.054,2.054,20.358,87.112)" fill="rgb(91,135,218)"/><circle vector-effect="non-scaling-stroke" cx="0" cy="0" r="1" transform="matrix(2.054,-2.054,2.054,2.054,38.308,87.107)" fill="rgb(91,135,218)"/><circle vector-effect="non-scaling-stroke" cx="0" cy="0" r="1" transform="matrix(2.054,-2.054,2.054,2.054,56.263,87.114)" fill="rgb(91,135,218)"/><circle vector-effect="non-scaling-stroke" cx="0" cy="0" r="1" transform="matrix(2.054,-2.054,2.054,2.054,47.283,78.129)" fill="rgb(91,135,218)"/></g></g></svg>