<?xml version="1.0" standalone="no"?><!-- Generator: Gravit.io --><svg xmlns="http://www.w3.org/2000/svg" xmlns:xlink="http://www.w3.org/1999/xlink" style="isolation:isolate" viewBox="0 0 105 120" width="105" height="120"><defs><clipPath id="_clipPath_xETVA4WNzhuUrcHwRLNW1pvmya2ltgXn"><rect width="105" height="120"/></clipPath></defs><g clip-path="url(#_clipPath_xETVA4WNzhuUrcHwRLNW1pvmya2ltgXn)"><path d=" M 52.5 0 L 105 30 L 105 90 L 52.5 120 L 0 90 L 0 30 L 52.5 0 Z " fill="rgb(231,82,37)"/><g><path d=" M 52.574 26.847 C 71.016 26.847 86.137 41.794 86.112 59.963 C 86.087 78.43 71.016 93.153 52.178 93.153 C 33.785 93.129 18.888 78.182 18.888 59.715 C 18.913 41.645 34.083 26.847 52.574 26.847 Z  M 42.387 38.472 C 42.808 40.529 42.387 42.463 41.767 44.371 C 41.346 45.685 40.726 46.949 40.379 48.288 C 39.784 50.494 39.115 52.7 38.867 54.931 C 38.52 58.153 39.784 61.004 41.965 63.83 C 38.421 63.086 35.198 62.417 31.926 61.723 C 31.951 62.045 31.926 62.169 31.951 62.268 C 32.893 65.044 34.579 67.374 36.462 69.605 C 36.661 69.828 37.107 69.952 37.454 69.952 C 47.468 69.977 57.457 69.977 67.472 69.952 C 67.794 69.952 68.19 69.903 68.389 69.704 C 70.545 67.473 72.181 64.92 73.198 61.698 C 69.529 62.417 66.034 63.086 62.564 63.755 C 63.258 62.392 64.076 61.177 64.522 59.864 C 66.084 55.352 65.439 50.99 63.183 46.875 C 61.374 43.578 59.688 40.282 60.606 36.316 C 58.697 38.199 57.953 40.579 57.482 43.058 C 57.011 45.487 56.763 47.941 56.392 50.42 C 56.342 50.345 56.268 50.296 56.268 50.221 C 56.218 49.973 56.193 49.701 56.169 49.453 C 55.945 45.413 55.152 41.521 53.491 37.828 C 52.5 35.646 51.409 33.415 52.426 30.813 C 51.732 31.184 51.112 31.532 50.666 32.052 C 49.327 33.589 48.782 35.398 48.658 37.406 C 48.534 39.117 48.36 40.852 48.063 42.537 C 47.716 44.297 47.195 46.032 46.006 47.668 C 45.559 44.124 45.51 40.678 42.387 38.472 Z  M 68.19 73.001 C 57.631 73.001 47.245 73.001 36.809 73.001 C 36.809 74.86 36.809 76.645 36.809 78.43 C 47.319 78.43 57.755 78.43 68.19 78.43 C 68.19 76.57 68.19 74.811 68.19 73.001 Z  M 43.031 81.206 C 43.006 85.717 47.642 89.088 53.343 88.84 C 58.077 88.642 62.266 84.924 61.919 81.206 C 55.648 81.206 49.377 81.206 43.031 81.206 Z " fill="rgb(255,255,255)"/></g></g></svg>