<?xml version="1.0" standalone="no"?><!-- Generator: Gravit.io --><svg xmlns="http://www.w3.org/2000/svg" xmlns:xlink="http://www.w3.org/1999/xlink" style="isolation:isolate" viewBox="0 0 105 120" width="105" height="120"><defs><clipPath id="_clipPath_naxrg0Nt5H1jlXg5cVOjYfU1Dm6ukuR0"><rect width="105" height="120"/></clipPath></defs><g clip-path="url(#_clipPath_naxrg0Nt5H1jlXg5cVOjYfU1Dm6ukuR0)"><path d=" M 52.5 0 L 105 30 L 105 90 L 52.5 120 L 0 90 L 0 30 L 52.5 0 Z " fill="rgb(70,78,86)"/><path d=" M 57.255 30.193 C 65.15 31.64 68.747 39.36 72.256 45.939 C 73.572 48.396 75.063 49.273 77.782 49.141 C 82.739 48.922 87.739 49.185 92.696 49.01 C 94.801 48.966 94.845 50.019 94.801 51.554 C 94.757 53.045 95.064 54.449 92.652 54.361 C 88.704 54.186 84.713 54.229 80.765 54.405 C 77.432 54.536 77.168 55.194 78.572 58.221 C 79.8 60.809 81.072 63.353 82.256 65.941 C 83.046 67.783 84.362 68.616 86.336 68.572 C 87.827 68.529 89.274 68.572 90.766 68.572 C 93.924 68.572 95.327 70.634 94.143 73.617 C 93.705 74.757 92.783 74.362 92.038 74.362 C 87.432 74.406 82.827 74.45 78.221 74.406 C 63.527 74.362 49.535 77.126 36.552 84.275 C 28.349 88.793 19.489 90.372 10.19 89.934 C 10.19 87.916 10.19 85.898 10.19 83.837 C 17.428 84.845 23.963 83.179 30.279 79.582 C 38.876 74.669 47.912 70.897 57.737 69.143 C 63.352 68.134 69.01 67.739 74.931 67.257 C 73.308 63.879 71.905 60.721 70.326 57.607 C 67.255 51.642 64.492 45.501 59.93 40.413 C 56.158 36.246 51.991 36.158 47.956 40.106 C 45.543 42.43 43.921 45.325 42.298 48.22 C 39.534 53.089 37.122 58.177 33.701 62.651 C 30.06 67.344 25.718 71.029 19.84 72.564 C 16.682 73.397 13.436 73.178 10.234 73.353 C 10.234 71.336 10.234 69.318 10.234 67.257 C 18.48 68.748 23.875 64.537 28.218 58.265 C 30.104 55.501 29.885 54.756 26.463 54.536 C 21.068 54.186 15.673 54.142 10.278 54.536 C 10.278 52.694 10.278 50.852 10.278 49.01 C 17.252 48.966 24.226 48.834 31.2 48.922 C 33.262 48.966 34.271 48.264 35.192 46.466 C 38.745 39.579 42.736 33 50.632 30.149 C 52.825 30.193 55.105 29.754 57.255 30.193 Z " fill="rgb(31,146,254)"/></g></svg>