<?xml version="1.0" standalone="no"?><!-- Generator: Gravit.io --><svg xmlns="http://www.w3.org/2000/svg" xmlns:xlink="http://www.w3.org/1999/xlink" style="isolation:isolate" viewBox="0 0 105 120" width="105" height="120"><defs><clipPath id="_clipPath_fYFziwo6UAWhfO1MJHzkhM9LIxWZgDdr"><rect width="105" height="120"/></clipPath></defs><g clip-path="url(#_clipPath_fYFziwo6UAWhfO1MJHzkhM9LIxWZgDdr)"><path d=" M 52.5 0 L 105 30 L 105 90 L 52.5 120 L 0 90 L 0 30 L 52.5 0 Z " fill="rgb(255,174,26)"/><path d=" M 71.975 68.942 L 71.975 51.019 L 58.297 51.019 L 58.297 51.019 L 50.947 43.669 L 50.947 29.991 L 33.025 29.991 L 33.025 47.914 L 46.742 47.914 L 54.092 55.264 L 54.092 55.264 L 54.092 64.736 L 54.092 64.736 L 46.742 72.086 L 33.025 72.086 L 33.025 90.009 L 50.947 90.009 L 50.947 76.331 L 58.297 68.981 L 71.975 68.981 L 71.975 68.942 Z  M 38.999 35.966 L 44.973 35.966 L 44.973 41.94 L 38.999 41.94 L 38.999 35.966 Z  M 44.973 83.995 L 38.999 83.995 L 38.999 78.021 L 44.973 78.021 L 44.973 83.995 Z " fill="rgb(255,255,255)"/></g></svg>