<?xml version="1.0" standalone="no"?><!-- Generator: Gravit.io --><svg xmlns="http://www.w3.org/2000/svg" xmlns:xlink="http://www.w3.org/1999/xlink" style="isolation:isolate" viewBox="0 0 105 120" width="105" height="120"><defs><clipPath id="_clipPath_AiXsN5acSxqnKhCavR8uCemAeGnOXD5R"><rect width="105" height="120"/></clipPath></defs><g clip-path="url(#_clipPath_AiXsN5acSxqnKhCavR8uCemAeGnOXD5R)"><path d=" M 52.5 0 L 105 30 L 105 90 L 52.5 120 L 0 90 L 0 30 L 52.5 0 Z " fill="rgb(255,102,0)"/><path d=" M 78.009 54.347 L 60.279 54.347 C 58.861 54.178 57.781 52.929 57.781 51.458 L 57.781 32.852 C 57.781 31.265 56.494 29.99 54.92 29.99 L 48.715 29.99 C 47.128 29.99 45.853 31.278 45.853 32.852 L 45.853 51.653 C 45.775 53.072 44.604 54.217 43.199 54.347 L 38.555 54.347 C 37.189 54.178 36.135 53.033 36.044 51.653 L 36.044 32.852 C 36.044 31.265 34.757 29.99 33.183 29.99 L 26.978 29.99 C 25.391 29.99 24.116 31.278 24.116 32.852 L 24.116 57.209 L 24.116 87.148 C 24.116 88.735 25.404 90.01 26.978 90.01 L 33.183 90.01 L 48.715 90.01 L 54.92 90.01 L 78.022 90.01 C 79.609 90.01 80.884 88.722 80.884 87.148 L 80.884 57.209 C 80.871 55.622 79.596 54.347 78.009 54.347 Z  M 69.84 74.878 C 69.84 76.465 68.552 77.741 66.978 77.741 L 60.773 77.741 C 59.186 77.741 57.911 76.452 57.911 74.878 L 57.911 69.023 C 57.911 67.436 59.199 66.161 60.773 66.161 L 66.978 66.161 C 68.565 66.161 69.84 67.449 69.84 69.023 L 69.84 74.878 Z " fill="rgb(255,255,255)"/></g></svg>