<?xml version="1.0" standalone="no"?><!-- Generator: Gravit.io --><svg xmlns="http://www.w3.org/2000/svg" xmlns:xlink="http://www.w3.org/1999/xlink" style="isolation:isolate" viewBox="0 0 105 120" width="105" height="120"><defs><clipPath id="_clipPath_Agg0cOLpb3GvdpRjMYc7cXdbLSa1l5LD"><rect width="105" height="120"/></clipPath></defs><g clip-path="url(#_clipPath_Agg0cOLpb3GvdpRjMYc7cXdbLSa1l5LD)"><path d=" M 52.5 0 L 105 30 L 105 90 L 52.5 120 L 0 90 L 0 30 L 52.5 0 Z " fill="rgb(31,158,74)"/><g><path d=" M 42.729 29.98 C 42.426 29.99 42.099 30.102 41.728 30.395 C 40.819 30.044 39.938 29.923 39.151 30.636 C 37.934 30.478 37.539 30.804 37.239 31.184 C 36.972 31.178 35.241 30.909 34.447 32.093 C 32.453 31.857 31.822 33.267 32.537 34.581 C 32.129 35.212 31.707 35.835 32.66 37.038 C 32.323 37.707 32.532 38.434 33.326 39.313 C 33.116 40.254 33.528 40.919 34.267 41.436 C 34.128 42.725 35.448 43.474 35.842 43.741 C 35.993 44.491 36.309 45.2 37.816 45.591 C 38.065 46.71 38.971 46.903 39.848 47.138 C 36.949 48.824 34.462 51.041 34.479 56.482 L 34.054 57.239 C 30.73 59.261 27.739 65.759 32.416 71.041 C 32.721 72.694 33.234 73.881 33.69 75.196 C 34.372 80.492 38.825 82.972 40 83.265 C 41.721 84.576 43.554 85.82 46.035 86.691 C 48.373 89.103 50.907 90.022 53.454 90.02 C 53.491 90.02 58.647 89.103 60.985 86.691 C 63.466 85.82 65.299 84.576 67.02 83.265 C 68.195 82.972 72.648 80.492 73.33 75.196 C 73.786 73.881 74.299 72.694 74.604 71.041 C 79.281 65.759 76.291 59.26 72.966 57.239 L 72.541 56.481 C 72.558 51.041 70.071 48.823 67.172 47.137 C 68.049 46.903 68.955 46.709 69.203 45.591 C 70.711 45.199 71.026 44.491 71.177 43.74 C 71.571 43.473 72.891 42.724 72.753 41.436 C 73.492 40.918 73.904 40.254 73.694 39.312 C 74.488 38.433 74.697 37.706 74.36 37.037 C 75.313 35.835 74.89 35.212 74.483 34.581 C 75.197 33.267 74.567 31.857 72.571 32.093 C 71.778 30.909 70.047 31.178 69.78 31.183 C 69.48 30.803 69.085 30.478 67.869 30.635 C 67.081 29.922 66.2 30.044 65.291 30.394 C 64.213 29.543 63.499 30.225 62.684 30.483 C 61.377 30.057 61.079 30.641 60.437 30.879 C 59.012 30.578 58.58 31.234 57.897 31.925 L 57.102 31.91 C 54.954 33.176 53.887 35.754 53.508 37.079 C 53.13 35.754 52.065 33.175 49.917 31.91 L 49.123 31.925 C 48.439 31.234 48.006 30.578 46.582 30.879 C 45.94 30.641 45.642 30.057 44.335 30.483 C 43.8 30.314 43.308 29.962 42.728 29.98 L 27.982 55.875" fill="rgb(0,0,0)"/><path d=" M 38.452 35.55 C 44.152 38.489 47.465 40.866 49.281 42.891 C 48.351 46.617 43.501 46.787 41.728 46.683 C 42.091 46.514 42.394 46.311 42.501 46 C 42.056 45.684 40.479 45.967 39.377 45.348 C 39.8 45.26 39.998 45.175 40.196 44.863 C 39.155 44.531 38.034 44.245 37.375 43.695 C 37.731 43.699 38.063 43.775 38.528 43.452 C 37.596 42.95 36.601 42.552 35.828 41.784 C 36.31 41.772 36.83 41.779 36.981 41.602 C 36.128 41.073 35.408 40.486 34.812 39.843 C 35.486 39.924 35.771 39.854 35.934 39.737 C 35.289 39.076 34.473 38.518 34.084 37.704 C 34.584 37.877 35.043 37.943 35.373 37.689 C 35.154 37.195 34.215 36.903 33.674 35.748 C 34.202 35.799 34.761 35.863 34.872 35.748 C 34.628 34.751 34.208 34.19 33.796 33.61 C 34.924 33.593 36.634 33.614 36.557 33.519 L 35.859 32.806 C 36.961 32.509 38.089 32.854 38.907 33.109 C 39.275 32.819 38.901 32.452 38.452 32.078 C 39.389 32.203 40.235 32.418 41 32.715 C 41.409 32.346 40.735 31.977 40.409 31.608 C 41.856 31.882 42.469 32.268 43.078 32.654 C 43.52 32.231 43.103 31.87 42.805 31.502 C 43.896 31.906 44.458 32.427 45.05 32.942 C 45.25 32.672 45.559 32.473 45.186 31.82 C 45.961 32.267 46.544 32.793 46.976 33.382 C 47.455 33.077 47.262 32.66 47.264 32.275 C 48.069 32.93 48.58 33.627 49.206 34.307 C 49.332 34.216 49.442 33.905 49.539 33.413 C 51.46 35.276 54.174 39.969 50.237 41.83 C 46.886 39.067 42.885 37.058 38.45 35.551 L 38.452 35.55 M 68.696 35.55 C 62.997 38.49 59.683 40.866 57.868 42.891 C 58.797 46.617 63.647 46.787 65.421 46.683 C 65.058 46.514 64.754 46.311 64.647 46 C 65.092 45.684 66.67 45.967 67.771 45.348 C 67.348 45.26 67.15 45.175 66.952 44.863 C 67.993 44.531 69.114 44.245 69.773 43.695 C 69.418 43.699 69.085 43.775 68.621 43.452 C 69.553 42.95 70.548 42.552 71.321 41.784 C 70.838 41.772 70.319 41.779 70.168 41.602 C 71.021 41.073 71.741 40.486 72.337 39.843 C 71.662 39.924 71.378 39.854 71.214 39.737 C 71.859 39.076 72.676 38.518 73.065 37.704 C 72.564 37.877 72.106 37.943 71.775 37.689 C 71.995 37.195 72.934 36.903 73.474 35.748 C 72.947 35.799 72.388 35.863 72.276 35.748 C 72.521 34.75 72.941 34.19 73.353 33.609 C 72.225 33.593 70.515 33.614 70.592 33.518 L 71.29 32.805 C 70.188 32.509 69.06 32.853 68.242 33.109 C 67.874 32.819 68.248 32.452 68.696 32.078 C 67.76 32.202 66.914 32.418 66.149 32.714 C 65.74 32.346 66.414 31.976 66.74 31.607 C 65.293 31.882 64.68 32.268 64.071 32.654 C 63.629 32.23 64.046 31.87 64.344 31.501 C 63.253 31.905 62.691 32.427 62.099 32.942 C 61.898 32.671 61.59 32.473 61.963 31.82 C 61.188 32.266 60.605 32.792 60.173 33.382 C 59.694 33.077 59.887 32.659 59.885 32.275 C 59.08 32.93 58.569 33.626 57.943 34.307 C 57.817 34.215 57.707 33.904 57.61 33.412 C 55.689 35.275 52.975 39.969 56.912 41.83 C 60.261 39.066 64.262 37.057 68.697 35.55 L 68.696 35.55" fill="rgb(117,169,40)"/><path d=" M 60.477 73.494 C 60.497 76.971 57.456 79.805 53.685 79.823 C 49.914 79.841 46.841 77.037 46.822 73.56 C 46.821 73.538 46.821 73.516 46.822 73.494 C 46.802 70.017 49.842 67.183 53.613 67.165 C 57.384 67.146 60.457 69.95 60.477 73.427 L 60.477 73.494 M 49.699 55.508 C 52.528 57.362 53.038 61.563 50.838 64.892 C 48.638 68.222 44.561 69.418 41.732 67.564 C 38.903 65.711 38.393 61.509 40.593 58.18 C 42.793 54.851 46.869 53.655 49.699 55.508 Z  M 57.334 55.173 C 54.505 57.026 53.995 61.228 56.195 64.557 C 58.395 67.886 62.472 69.082 65.301 67.229 C 68.13 65.375 68.64 61.174 66.44 57.845 C 64.24 54.516 60.163 53.319 57.334 55.173 Z  M 35.559 58.539 C 38.614 57.72 36.59 71.175 34.105 70.071 C 31.371 67.872 30.491 61.433 35.559 58.539 Z  M 70.857 58.371 C 67.802 57.553 69.826 71.008 72.311 69.904 C 75.045 67.705 75.925 61.265 70.857 58.371 Z  M 60.479 48.351 C 65.75 47.461 70.136 50.593 69.959 56.309 C 69.786 58.5 58.537 48.678 60.479 48.351 M 45.915 48.184 C 40.644 47.294 36.258 50.426 36.435 56.141 C 36.608 58.333 47.857 48.51 45.915 48.184 M 53.487 46.851 C 50.341 46.769 47.322 49.186 47.314 50.587 C 47.306 52.291 49.802 54.035 53.508 54.079 C 57.294 54.106 59.709 52.683 59.721 50.925 C 59.735 48.934 56.279 46.82 53.487 46.851 L 53.487 46.851 Z  M 53.679 81.779 C 56.422 81.659 60.102 82.662 60.11 83.993 C 60.155 85.285 56.772 88.205 53.497 88.148 C 50.106 88.295 46.78 85.37 46.824 84.357 C 46.773 82.871 50.953 81.71 53.679 81.779 M 43.548 73.891 C 45.501 76.244 46.391 80.377 44.761 81.596 C 43.219 82.526 39.475 82.143 36.814 78.32 C 35.019 75.112 35.25 71.847 36.511 70.888 C 38.395 69.74 41.307 71.291 43.548 73.891 L 43.548 73.891 Z  M 63.419 73.146 C 61.307 75.62 60.13 80.134 61.671 81.588 C 63.145 82.718 67.101 82.56 70.024 78.505 C 72.146 75.781 71.435 71.233 70.223 70.025 C 68.422 68.633 65.837 70.415 63.419 73.145 L 63.419 73.146 Z " fill="rgb(188,17,66)"/></g></g></svg>