<?xml version="1.0" standalone="no"?><!-- Generator: Gravit.io --><svg xmlns="http://www.w3.org/2000/svg" xmlns:xlink="http://www.w3.org/1999/xlink" style="isolation:isolate" viewBox="0 0 105 120" width="105" height="120"><defs><clipPath id="_clipPath_qxkb5m0T9b4Nj3jc6BCJQt30meDSV5L4"><rect width="105" height="120"/></clipPath></defs><g clip-path="url(#_clipPath_qxkb5m0T9b4Nj3jc6BCJQt30meDSV5L4)"><path d=" M 52.5 0 L 105 30 L 105 90 L 52.5 120 L 0 90 L 0 30 L 52.5 0 Z " fill="rgb(204,0,0)"/><g><path d=" M 78.527 76.851 C 77.332 76.576 76.064 76.405 74.781 76.405 C 72.589 76.405 70.595 76.784 69.122 77.396 C 68.96 77.477 68.845 77.647 68.845 77.839 C 68.845 77.909 68.863 77.981 68.89 78.04 C 69.063 78.545 68.777 79.092 67.353 79.406 C 65.242 79.869 63.909 82.047 63.145 82.772 C 62.25 83.622 59.721 84.145 60.101 83.638 C 60.399 83.242 61.537 82.005 62.23 80.668 C 62.849 79.473 63.401 79.134 64.16 77.994 C 64.384 77.66 65.248 76.486 65.499 75.557 C 65.781 74.65 65.686 73.512 65.794 73.044 C 65.949 72.369 66.587 70.902 66.636 70.075 C 66.663 69.605 64.681 70.742 63.74 70.742 C 62.8 70.742 61.883 70.18 61.042 70.138 C 60.002 70.089 59.334 70.94 58.393 70.791 C 57.855 70.707 57.403 70.233 56.463 70.198 C 55.126 70.149 53.492 70.94 50.424 70.842 C 47.404 70.744 44.616 67.027 44.235 66.437 C 43.79 65.742 43.245 65.742 42.651 66.287 C 42.057 66.831 41.325 66.404 41.116 66.039 C 40.72 65.346 39.662 63.32 38.022 62.896 C 35.755 62.309 34.606 64.152 34.755 65.618 C 34.906 67.107 35.869 67.524 36.315 68.315 C 36.76 69.108 36.988 69.619 37.826 69.97 C 38.421 70.216 38.642 70.584 38.465 71.071 C 38.31 71.496 37.691 71.594 37.285 71.613 C 36.421 71.654 35.816 71.42 35.374 71.137 C 34.861 70.811 34.443 70.356 33.994 69.583 C 33.475 68.732 32.659 68.361 31.707 68.361 C 31.253 68.361 30.829 68.48 30.452 68.674 C 28.961 69.449 27.185 69.91 25.273 69.91 L 23.118 69.911 C 22.068 66.799 21.499 63.466 21.499 60.001 C 21.499 42.879 35.379 28.999 52.501 28.999 C 69.622 28.999 83.501 42.879 83.501 60.001 C 83.501 66.213 81.673 72 78.527 76.851 Z " fill="rgb(0,0,0)"/><path d=" M 78.527 76.851 C 77.332 76.576 76.064 76.403 74.781 76.403 C 72.589 76.403 70.595 76.783 69.122 77.396 C 68.96 77.475 68.845 77.646 68.845 77.838 C 68.845 77.909 68.863 77.98 68.89 78.04 C 69.063 78.544 68.777 79.091 67.353 79.404 C 65.242 79.868 63.909 82.046 63.145 82.769 C 62.25 83.621 59.721 84.144 60.101 83.636 C 60.399 83.241 61.537 82.004 62.23 80.668 C 62.849 79.473 63.401 79.132 64.16 77.993 C 64.384 77.66 65.248 76.485 65.499 75.556 C 65.781 74.65 65.686 73.511 65.794 73.043 C 65.949 72.367 66.587 70.901 66.636 70.072 C 66.663 69.604 64.681 70.741 63.74 70.741 C 62.8 70.741 61.883 70.178 61.042 70.137 C 60.002 70.088 59.334 70.939 58.393 70.791 C 57.855 70.705 57.403 70.231 56.463 70.196 C 55.126 70.148 53.492 70.939 50.424 70.841 C 47.404 70.742 44.616 67.026 44.235 66.434 C 43.79 65.742 43.245 65.742 42.651 66.286 C 42.057 66.83 41.325 66.402 41.116 66.037 C 40.72 65.345 39.662 63.319 38.022 62.894 C 35.755 62.307 34.606 64.151 34.755 65.618 C 34.906 67.106 35.869 67.523 36.315 68.315 C 36.76 69.107 36.988 69.617 37.826 69.967 C 38.421 70.215 38.642 70.582 38.465 71.071 C 38.31 71.495 37.691 71.592 37.285 71.611 C 36.421 71.653 35.816 71.418 35.374 71.137 C 34.861 70.809 34.443 70.355 33.994 69.582 C 33.475 68.73 32.659 68.357 31.707 68.357 C 31.253 68.357 30.829 68.479 30.452 68.672 C 28.961 69.449 27.185 69.909 25.273 69.909 L 23.118 69.91 C 27.251 82.171 38.845 91.001 52.501 91.001 C 63.409 91.001 73.001 85.368 78.527 76.851 Z " fill="rgb(255,255,255)"/><path d=" M 59.328 74.008 C 59.487 74.164 59.762 74.687 59.426 75.351 C 59.238 75.703 59.035 75.951 58.673 76.24 C 58.237 76.59 57.384 76.993 56.215 76.252 C 55.586 75.853 55.549 75.719 54.681 75.832 C 54.061 75.912 53.814 75.287 54.037 74.766 C 54.26 74.247 55.176 73.827 56.315 74.495 C 56.826 74.796 57.626 75.43 58.325 74.868 C 58.614 74.635 58.788 74.48 59.19 74.015 C 59.209 73.996 59.234 73.985 59.262 73.985 C 59.287 73.985 59.311 73.993 59.328 74.008 Z " fill="rgb(0,0,0)"/><path d=" M 69.994 51.752 C 69.688 52.782 69.253 54.099 67.314 55.095 C 67.032 55.238 66.924 55.002 67.055 54.779 C 67.787 53.533 67.917 53.221 68.13 52.73 C 68.428 52.012 68.584 50.989 67.991 48.857 C 66.826 44.661 64.393 39.053 62.626 37.234 C 60.919 35.478 57.828 34.984 55.034 35.701 C 54.005 35.965 51.992 37.012 48.258 36.171 C 41.797 34.716 40.839 37.951 40.469 39.361 C 40.097 40.771 39.207 44.777 39.207 44.777 C 38.91 46.408 38.522 49.245 48.555 51.156 C 53.229 52.047 53.467 53.254 53.673 54.124 C 54.044 55.681 54.637 56.572 55.305 57.017 C 55.973 57.462 55.305 57.831 54.564 57.907 C 52.573 58.113 45.217 56.003 40.864 53.531 C 37.303 51.354 37.243 49.394 38.058 47.732 C 32.679 47.15 28.643 48.237 27.911 50.783 C 26.654 55.153 37.519 62.618 49.89 66.363 C 62.873 70.295 76.225 67.55 77.709 59.391 C 78.384 55.683 75.261 52.94 69.994 51.752 Z  M 50.088 43.761 C 46.507 44.021 46.135 44.407 45.465 45.121 C 44.519 46.129 43.273 43.814 43.273 43.814 C 42.525 43.657 41.619 42.452 42.108 41.326 C 42.589 40.213 43.48 40.547 43.759 40.894 C 44.098 41.316 44.822 42.006 45.761 41.981 C 46.701 41.956 47.785 41.758 49.298 41.758 C 50.83 41.758 51.86 42.33 51.918 42.822 C 51.968 43.242 51.794 43.638 50.088 43.761 Z  M 53.85 37.844 C 53.844 37.845 53.839 37.846 53.834 37.846 C 53.778 37.846 53.733 37.803 53.733 37.751 C 53.733 37.714 53.756 37.681 53.79 37.666 C 54.484 37.299 55.52 37.008 56.705 36.887 C 57.061 36.851 57.409 36.832 57.743 36.829 C 57.802 36.829 57.861 36.829 57.92 36.83 C 59.907 36.875 61.498 37.665 61.475 38.594 C 61.451 39.523 59.822 40.24 57.835 40.195 C 57.191 40.181 56.587 40.088 56.068 39.938 C 56.006 39.922 55.961 39.869 55.961 39.807 C 55.961 39.745 56.006 39.692 56.069 39.677 C 57.309 39.39 58.145 38.921 58.087 38.478 C 58.008 37.892 56.386 37.572 54.464 37.765 C 54.254 37.786 54.048 37.813 53.85 37.844 Z " fill="rgb(204,0,0)"/></g></g></svg>