<?xml version="1.0" standalone="no"?><!-- Generator: Gravit.io --><svg xmlns="http://www.w3.org/2000/svg" xmlns:xlink="http://www.w3.org/1999/xlink" style="isolation:isolate" viewBox="0 0 105 120" width="105" height="120"><defs><clipPath id="_clipPath_Ci219Ch1W46OfPw9NJ6ccbUCGHAWTCmZ"><rect width="105" height="120"/></clipPath></defs><g clip-path="url(#_clipPath_Ci219Ch1W46OfPw9NJ6ccbUCGHAWTCmZ)"><path d=" M 52.5 0 L 105 30 L 105 90 L 52.5 120 L 0 90 L 0 30 L 52.5 0 Z " fill="rgb(34,34,34)"/><g><path d=" M 84.733 76.252 C 81 78.198 61.663 86.149 57.546 88.295 C 53.429 90.442 51.142 90.421 47.89 88.866 C 44.638 87.311 24.059 78.999 20.353 77.227 C 18.5 76.342 17.526 75.595 17.526 74.888 L 17.526 67.818 C 17.526 67.818 44.316 61.986 48.642 60.434 C 52.967 58.883 54.467 58.827 58.147 60.175 C 61.828 61.523 83.836 65.494 87.474 66.826 C 87.474 66.826 87.472 73.141 87.472 73.796 C 87.473 74.495 86.633 75.262 84.733 76.252 L 84.733 76.252 Z " fill="rgb(165,33,22)"/><path d=" M 84.733 69.18 C 81 71.125 61.663 79.076 57.546 81.222 C 53.429 83.369 51.142 83.348 47.89 81.794 C 44.637 80.24 24.059 71.926 20.353 70.155 C 16.646 68.383 16.568 67.163 20.21 65.738 C 23.851 64.311 44.316 56.282 48.642 54.73 C 52.967 53.179 54.467 53.123 58.148 54.471 C 61.829 55.819 81.051 63.471 84.688 64.803 C 88.326 66.136 88.466 67.234 84.733 69.18 L 84.733 69.18 Z " fill="rgb(217,45,33)"/><path d=" M 84.733 64.723 C 81 66.668 61.663 74.619 57.546 76.766 C 53.429 78.912 51.142 78.891 47.89 77.336 C 44.637 75.783 24.059 67.469 20.353 65.698 C 18.5 64.812 17.526 64.065 17.526 63.359 L 17.526 56.288 C 17.526 56.288 44.316 50.456 48.642 48.905 C 52.967 47.353 54.467 47.297 58.147 48.645 C 61.828 49.993 83.836 53.964 87.474 55.296 C 87.474 55.296 87.472 61.611 87.472 62.267 C 87.473 62.965 86.633 63.732 84.733 64.723 Z " fill="rgb(165,33,22)"/><path d=" M 84.733 57.65 C 81 59.596 61.663 67.547 57.546 69.693 C 53.429 71.839 51.142 71.818 47.89 70.264 C 44.637 68.71 24.059 60.397 20.353 58.625 C 16.646 56.853 16.568 55.634 20.21 54.208 C 23.851 52.782 44.316 44.753 48.642 43.201 C 52.967 41.65 54.467 41.593 58.148 42.941 C 61.829 44.29 81.051 51.94 84.688 53.273 C 88.326 54.606 88.466 55.704 84.733 57.65 L 84.733 57.65 Z " fill="rgb(217,45,33)"/><path d=" M 84.733 52.765 C 81 54.711 61.663 62.662 57.546 64.809 C 53.429 66.955 51.142 66.934 47.89 65.379 C 44.637 63.825 24.059 55.512 20.353 53.74 C 18.5 52.855 17.526 52.108 17.526 51.402 L 17.526 44.331 C 17.526 44.331 44.316 38.499 48.642 36.948 C 52.967 35.396 54.467 35.34 58.147 36.688 C 61.828 38.037 83.836 42.007 87.474 43.339 C 87.474 43.339 87.472 49.654 87.472 50.31 C 87.473 51.008 86.633 51.775 84.733 52.765 L 84.733 52.765 Z " fill="rgb(165,33,22)"/><path d=" M 84.733 45.693 C 81 47.638 61.663 55.59 57.546 57.736 C 53.429 59.882 51.142 59.861 47.89 58.307 C 44.638 56.752 24.059 48.44 20.353 46.668 C 16.646 44.897 16.568 43.677 20.21 42.251 C 23.851 40.825 44.316 32.796 48.642 31.244 C 52.967 29.692 54.467 29.636 58.148 30.985 C 61.829 32.333 81.051 39.984 84.688 41.316 C 88.326 42.649 88.466 43.747 84.733 45.693 L 84.733 45.693 Z " fill="rgb(217,45,33)"/><path d=" M 61.666 38.883 L 55.605 39.513 L 54.248 42.778 L 52.056 39.134 L 45.058 38.505 L 50.28 36.622 L 48.713 33.731 L 53.602 35.643 L 58.212 34.134 L 56.965 37.123 L 61.666 38.883 Z " fill="rgb(255,255,255)"/><path d=" M 53.886 54.723 L 42.574 50.031 L 58.783 47.543 L 53.886 54.723 Z " fill="rgb(255,255,255)"/><ellipse vector-effect="non-scaling-stroke" cx="0" cy="0" rx="1" ry="1" transform="matrix(8.663,0,0,3.358,38.203,44.056)" fill="rgb(255,255,255)"/><path d=" M 68.828 39.776 L 78.422 43.567 L 68.837 47.354 L 68.828 39.776 Z " fill="rgb(121,23,14)"/><path d=" M 58.216 43.974 L 68.828 39.776 L 68.837 47.354 L 67.796 47.761 L 58.216 43.974 Z " fill="rgb(173,35,23)"/></g></g></svg>