<?xml version="1.0" standalone="no"?><!-- Generator: Gravit.io --><svg xmlns="http://www.w3.org/2000/svg" xmlns:xlink="http://www.w3.org/1999/xlink" style="isolation:isolate" viewBox="0 0 105 120" width="105" height="120"><defs><clipPath id="_clipPath_H91BKtnn3SkAtkoiP9SdrLIXDqZym7NC"><rect width="105" height="120"/></clipPath></defs><g clip-path="url(#_clipPath_H91BKtnn3SkAtkoiP9SdrLIXDqZym7NC)"><path d=" M 52.5 0.333 L 105 30.333 L 105 90.333 L 52.5 120.333 L 0 90.333 L 0 30.333 L 52.5 0.333 Z " fill="rgb(215,115,16)"/><g><path d=" M 52.022 89.994 C 51.226 88.888 50.315 87.864 49.616 86.693 C 48.657 85.067 48.071 83.295 47.697 81.457 C 47.518 80.563 47.762 80.287 48.705 80.287 C 51.274 80.27 53.844 80.27 56.413 80.287 C 57.356 80.287 57.519 80.498 57.34 81.474 C 56.836 84.335 55.697 86.888 53.746 89.067 C 53.486 89.36 53.275 89.685 53.031 89.994 C 52.689 89.994 52.348 89.994 52.022 89.994 Z " fill="rgb(255,255,255)"/><path d=" M 67.812 64.627 C 67.763 70.465 66.966 75.116 64.885 79.49 C 64.316 80.693 64.169 80.742 63.015 80.091 C 62.917 80.043 62.803 79.994 62.722 79.929 C 61.112 78.628 59.259 78.53 57.291 78.579 C 53.502 78.66 49.697 78.628 45.908 78.579 C 44.965 78.563 44.152 78.758 43.404 79.311 C 43.014 79.587 42.591 79.782 42.185 80.026 C 40.851 80.823 40.819 80.823 40.152 79.392 C 39.111 77.164 38.412 74.839 37.908 72.416 C 37.03 68.205 37.095 63.993 37.664 59.782 C 38.022 57.082 38.737 54.448 39.599 51.863 C 41.095 47.375 43.193 43.179 45.681 39.147 C 47.567 36.106 49.616 33.212 51.892 30.447 C 52.462 29.764 52.787 29.943 53.242 30.512 C 56.169 34.106 58.787 37.911 61.047 41.96 C 63.535 46.432 65.535 51.115 66.657 56.123 C 67.356 59.261 67.926 62.416 67.812 64.627 Z  M 52.575 74.742 C 55.567 74.742 58.543 74.742 61.535 74.742 C 62.088 74.742 62.429 74.628 62.625 73.994 C 63.438 71.424 63.795 68.774 63.893 66.091 C 64.121 60.643 63.129 55.391 61.161 50.318 C 59.177 45.179 56.462 40.464 53.112 36.106 C 52.657 35.521 52.299 35.634 51.925 36.122 C 51.079 37.26 50.169 38.366 49.404 39.57 C 46.396 44.285 43.908 49.261 42.461 54.708 C 41.599 57.944 41.03 61.261 41.014 64.595 C 40.998 67.717 41.518 70.79 42.38 73.798 C 42.575 74.498 42.9 74.725 43.599 74.725 C 46.591 74.725 49.583 74.742 52.575 74.742 Z " fill="rgb(255,255,255)"/><path d=" M 34.363 80.465 C 33.355 80.465 32.347 80.465 31.355 80.465 C 30.867 80.465 30.526 80.319 30.607 79.734 C 30.802 78.579 31.014 77.425 31.176 76.27 C 31.371 74.92 32.461 74.237 33.274 73.343 C 33.762 72.807 34.331 72.368 34.884 71.88 C 35.046 71.733 35.225 71.554 35.469 71.652 C 35.729 71.75 35.745 71.977 35.762 72.205 C 35.941 74.855 36.705 77.343 37.989 79.669 C 38.331 80.27 38.071 80.482 37.469 80.482 C 36.428 80.465 35.388 80.465 34.363 80.465 Z " fill="rgb(255,255,255)"/><path d=" M 70.609 80.465 C 69.633 80.465 68.657 80.482 67.682 80.465 C 66.917 80.449 66.787 80.205 67.145 79.539 C 68.169 77.62 68.934 75.603 69.129 73.408 C 69.161 73.132 69.243 72.855 69.34 72.595 C 69.47 72.27 69.243 71.75 69.649 71.62 C 70.056 71.506 70.3 71.961 70.576 72.205 C 71.275 72.839 71.909 73.571 72.641 74.156 C 73.454 74.807 73.796 75.668 73.893 76.595 C 74.007 77.62 74.316 78.595 74.397 79.62 C 74.446 80.221 74.267 80.449 73.682 80.449 C 72.674 80.449 71.633 80.465 70.609 80.465 Z " fill="rgb(255,255,255)"/><path d=" M 54.51 69.928 C 54.494 69.538 54.608 69.115 54.657 68.66 C 54.771 67.896 54.153 67.245 53.47 67.473 C 51.746 68.058 50.234 67.489 48.738 66.774 C 47.941 66.384 47.941 66.367 47.811 67.294 C 47.681 68.302 47.209 69.132 46.217 69.473 C 45.209 69.815 44.234 69.652 43.486 68.758 C 42.884 68.042 42.754 67.066 43.193 66.188 C 43.632 65.327 44.738 64.66 45.567 64.757 C 46.591 64.888 46.721 64.627 46.478 63.603 C 46.152 62.205 46.104 60.79 46.787 59.44 C 47.258 58.513 47.079 57.96 46.136 57.473 C 45.908 57.359 45.681 57.278 45.453 57.18 C 44.559 56.806 43.99 55.798 44.201 54.952 C 44.412 54.058 45.404 53.277 46.282 53.31 C 47.258 53.342 48.087 54.107 48.201 55.066 C 48.217 55.261 48.201 55.456 48.234 55.651 C 48.364 56.497 49.047 56.838 49.827 56.546 C 51.274 56.009 52.722 55.83 54.218 56.448 C 55.031 56.79 55.454 56.464 55.405 55.603 C 55.307 53.846 56.462 52.399 58.12 52.172 C 59.6 51.976 61.112 53.098 61.503 54.692 C 61.942 56.481 59.73 58.546 57.86 58.091 C 57.567 58.026 57.291 57.814 57.031 58.156 C 56.771 58.497 56.966 58.79 57.128 59.082 C 58.137 60.887 58.185 62.741 57.193 64.514 C 56.576 65.603 57.031 66.27 58.234 66.253 C 60.413 66.205 62.055 67.863 62.088 69.945 C 62.12 72.124 60.397 73.912 58.283 73.896 C 56.202 73.88 54.51 72.14 54.51 69.928 Z  M 56.364 61.782 C 56.364 59.505 54.429 57.489 52.218 57.521 C 49.681 57.554 47.925 59.375 47.86 61.749 C 47.811 63.993 49.876 66.026 52.12 66.026 C 54.462 66.01 56.348 64.123 56.364 61.782 Z " fill="rgb(255,255,255)"/><path d=" M 50.657 62.091 C 50.624 62.448 50.266 62.757 49.681 62.709 C 49.128 62.676 48.819 62.335 48.852 61.765 C 48.9 61.164 49.307 60.871 49.86 60.887 C 50.445 60.92 50.705 61.278 50.657 62.091 Z " fill="rgb(255,255,255)"/><path d=" M 52.022 62.741 C 51.518 62.676 51.112 62.4 51.079 61.879 C 51.047 61.31 51.453 60.969 52.006 60.92 C 52.559 60.871 52.933 61.196 52.949 61.749 C 52.966 62.302 52.592 62.627 52.022 62.741 Z " fill="rgb(255,255,255)"/><path d=" M 54.266 62.741 C 53.665 62.709 53.34 62.302 53.291 61.831 C 53.242 61.229 53.697 60.936 54.25 60.904 C 54.771 60.887 55.112 61.196 55.128 61.717 C 55.161 62.302 54.771 62.611 54.266 62.741 Z " fill="rgb(255,255,255)"/></g></g></svg>