<?xml version="1.0" standalone="no"?><!-- Generator: Gravit.io --><svg xmlns="http://www.w3.org/2000/svg" xmlns:xlink="http://www.w3.org/1999/xlink" style="isolation:isolate" viewBox="0 0 105 120" width="105" height="120"><defs><clipPath id="_clipPath_jFdXPHXYg0E7X31GwHuZlalxYB6iCDNx"><rect width="105" height="120"/></clipPath></defs><g clip-path="url(#_clipPath_jFdXPHXYg0E7X31GwHuZlalxYB6iCDNx)"><path d=" M 52.5 0 L 105 30 L 105 90 L 52.5 120 L 0 90 L 0 30 L 52.5 0 Z " fill="rgb(204,0,0)"/><g><path d=" M 24.281 78.459 L 45.233 78.459 C 45.233 78.459 41.228 60.186 54.489 52.786 C 57.38 51.38 66.583 46.129 81.648 57.268 C 82.125 56.87 82.576 56.552 82.576 56.552 C 82.576 56.552 68.784 42.787 53.428 44.326 C 45.71 45.015 36.216 52.043 30.646 61.326 C 25.076 70.609 24.281 78.459 24.281 78.459 Z " fill-rule="evenodd" fill="rgb(255,255,255)"/><path d=" M 24.281 78.459 L 45.233 78.459 C 45.233 78.459 41.228 60.186 54.489 52.786 C 57.38 51.38 66.583 46.129 81.648 57.268 C 82.125 56.87 82.576 56.552 82.576 56.552 C 82.576 56.552 68.784 42.787 53.428 44.326 C 45.71 45.015 36.216 52.043 30.646 61.326 C 25.076 70.609 24.281 78.459 24.281 78.459 Z " fill-rule="evenodd" fill="rgb(255,255,255)"/><path d=" M 24.281 78.459 L 45.233 78.459 C 45.233 78.459 41.228 60.186 54.489 52.786 C 57.38 51.38 66.583 46.129 81.648 57.268 C 82.125 56.87 82.576 56.552 82.576 56.552 C 82.576 56.552 68.784 42.787 53.428 44.326 C 45.684 45.015 36.189 52.043 30.619 61.326 C 25.05 70.609 24.281 78.459 24.281 78.459 Z  M 67.936 45.811 L 68.042 44.034 C 67.803 43.901 67.14 43.583 65.469 43.106 L 65.363 44.856 C 66.238 45.148 67.087 45.466 67.936 45.811 Z " fill-rule="evenodd" fill="rgb(255,255,255)"/><path d=" M 65.416 51.433 L 65.31 53.104 C 66.185 53.131 67.06 53.237 67.936 53.423 L 68.042 51.778 C 67.14 51.593 66.265 51.486 65.416 51.433 Z  M 55.603 43.159 L 55.868 43.159 L 55.338 41.541 C 54.516 41.541 53.667 41.594 52.792 41.7 L 53.296 43.265 C 54.065 43.185 54.834 43.159 55.603 43.159 Z  M 56.876 52.919 L 57.486 54.749 C 58.255 54.377 59.024 54.059 59.794 53.82 L 59.21 52.07 C 58.308 52.335 57.539 52.627 56.876 52.919 Z  M 44.835 45.943 L 43.642 44.113 C 42.979 44.458 42.289 44.83 41.573 45.254 L 42.793 47.11 C 43.483 46.686 44.146 46.288 44.835 45.943 Z  M 50.272 57.878 L 51.545 59.788 C 51.996 59.125 52.527 58.515 53.11 57.905 L 51.917 56.101 C 51.307 56.658 50.75 57.268 50.272 57.878 Z  M 46.426 66.418 L 48.575 68.116 C 48.681 67.081 48.867 66.047 49.132 65.013 L 47.222 63.501 C 46.877 64.482 46.639 65.464 46.426 66.418 Z  M 34.81 53.82 L 32.927 52.176 C 32.237 52.839 31.574 53.502 30.964 54.165 L 33.006 55.916 C 33.563 55.2 34.173 54.483 34.81 53.82 Z  M 26.8 65.676 L 23.75 64.562 C 23.246 65.702 22.689 67.028 22.424 67.744 L 25.474 68.858 C 25.819 67.957 26.376 66.657 26.8 65.676 Z  M 46.029 73.155 C 46.082 74.56 46.214 75.701 46.347 76.497 L 49.53 77.637 C 49.291 76.603 49.052 75.436 48.893 74.189 L 46.029 73.155 Z " fill-rule="evenodd" fill="rgb(255,255,255)"/></g></g></svg>