<?xml version="1.0" standalone="no"?><!-- Generator: Gravit.io --><svg xmlns="http://www.w3.org/2000/svg" xmlns:xlink="http://www.w3.org/1999/xlink" style="isolation:isolate" viewBox="0 0 105 120" width="105" height="120"><defs><clipPath id="_clipPath_dVb2VefTV1yU7JwMCfbRlci09w3puERL"><rect width="105" height="120"/></clipPath></defs><g clip-path="url(#_clipPath_dVb2VefTV1yU7JwMCfbRlci09w3puERL)"><path d=" M 52.5 0 L 105 30 L 105 90 L 52.5 120 L 0 90 L 0 30 L 52.5 0 Z " fill="rgb(103,103,103)"/><path d=" M 82.11 59.263 L 79.589 57.703 C 79.568 57.458 79.544 57.213 79.517 56.969 L 81.683 54.949 C 81.904 54.743 82.002 54.439 81.943 54.145 C 81.885 53.849 81.678 53.606 81.396 53.501 L 78.627 52.466 C 78.558 52.226 78.485 51.988 78.41 51.751 L 80.138 49.352 C 80.314 49.108 80.35 48.791 80.235 48.513 C 80.12 48.236 79.87 48.037 79.573 47.989 L 76.653 47.514 C 76.54 47.292 76.421 47.074 76.302 46.858 L 77.529 44.165 C 77.655 43.89 77.629 43.571 77.461 43.323 C 77.295 43.072 77.012 42.926 76.71 42.938 L 73.747 43.041 C 73.593 42.849 73.437 42.659 73.278 42.473 L 73.959 39.586 C 74.028 39.293 73.942 38.986 73.728 38.774 C 73.517 38.561 73.209 38.474 72.916 38.542 L 70.03 39.223 C 69.843 39.064 69.653 38.908 69.461 38.755 L 69.565 35.791 C 69.576 35.491 69.43 35.206 69.18 35.04 C 68.929 34.872 68.612 34.847 68.338 34.971 L 65.646 36.199 C 65.428 36.08 65.21 35.962 64.99 35.847 L 64.514 32.927 C 64.466 32.631 64.267 32.38 63.989 32.265 C 63.712 32.15 63.395 32.187 63.151 32.362 L 60.75 34.09 C 60.514 34.015 60.276 33.942 60.037 33.873 L 59.001 31.104 C 58.896 30.822 58.653 30.615 58.357 30.556 C 58.063 30.498 57.759 30.596 57.554 30.815 L 55.534 32.983 C 55.29 32.956 55.045 32.932 54.8 32.911 L 53.239 30.39 C 53.082 30.135 52.802 29.98 52.502 29.98 C 52.201 29.98 51.922 30.135 51.765 30.39 L 50.204 32.911 C 49.959 32.932 49.713 32.956 49.469 32.983 L 47.449 30.815 C 47.244 30.596 46.94 30.498 46.645 30.556 C 46.35 30.615 46.107 30.822 46.002 31.104 L 44.966 33.873 C 44.727 33.942 44.489 34.015 44.252 34.09 L 41.852 32.362 C 41.608 32.186 41.29 32.149 41.013 32.265 C 40.736 32.38 40.537 32.631 40.489 32.927 L 40.012 35.847 C 39.792 35.962 39.574 36.079 39.357 36.199 L 36.664 34.971 C 36.39 34.846 36.071 34.872 35.823 35.04 C 35.572 35.206 35.426 35.491 35.438 35.791 L 35.541 38.755 C 35.349 38.908 35.159 39.064 34.972 39.223 L 32.086 38.542 C 31.793 38.474 31.485 38.561 31.273 38.774 C 31.06 38.986 30.973 39.293 31.042 39.586 L 31.722 42.473 C 31.564 42.66 31.408 42.849 31.255 43.041 L 28.291 42.938 C 27.992 42.929 27.707 43.072 27.54 43.323 C 27.372 43.571 27.347 43.89 27.471 44.165 L 28.699 46.858 C 28.58 47.074 28.462 47.292 28.347 47.514 L 25.428 47.989 C 25.131 48.037 24.881 48.235 24.766 48.513 C 24.651 48.791 24.688 49.108 24.863 49.352 L 26.59 51.751 C 26.515 51.988 26.442 52.226 26.373 52.466 L 23.604 53.501 C 23.323 53.606 23.116 53.849 23.057 54.145 C 22.999 54.44 23.097 54.743 23.317 54.949 L 25.483 56.969 C 25.456 57.213 25.432 57.458 25.411 57.703 L 22.891 59.263 C 22.636 59.421 22.48 59.7 22.48 60.001 C 22.48 60.302 22.636 60.581 22.891 60.738 L 25.411 62.299 C 25.432 62.544 25.456 62.789 25.483 63.033 L 23.317 65.054 C 23.097 65.259 22.999 65.563 23.057 65.857 C 23.116 66.152 23.323 66.395 23.604 66.501 L 26.373 67.536 C 26.442 67.776 26.515 68.014 26.59 68.251 L 24.863 70.65 C 24.688 70.895 24.65 71.212 24.766 71.489 C 24.881 71.767 25.132 71.966 25.428 72.013 L 28.347 72.488 C 28.462 72.71 28.579 72.928 28.699 73.145 L 27.471 75.837 C 27.346 76.111 27.372 76.429 27.54 76.679 C 27.707 76.93 27.992 77.076 28.291 77.064 L 31.253 76.96 C 31.408 77.153 31.563 77.342 31.722 77.529 L 31.042 80.416 C 30.973 80.709 31.06 81.015 31.273 81.228 C 31.485 81.442 31.793 81.527 32.086 81.458 L 34.972 80.778 C 35.159 80.938 35.349 81.093 35.541 81.245 L 35.438 84.209 C 35.426 84.509 35.572 84.794 35.823 84.961 C 36.071 85.128 36.39 85.154 36.664 85.029 L 39.357 83.802 C 39.574 83.922 39.792 84.039 40.012 84.153 L 40.489 87.072 C 40.537 87.369 40.735 87.62 41.013 87.734 C 41.29 87.85 41.608 87.812 41.852 87.638 L 44.251 85.909 C 44.488 85.984 44.726 86.058 44.966 86.127 L 46.001 88.895 C 46.106 89.176 46.349 89.384 46.645 89.442 C 46.94 89.501 47.243 89.403 47.448 89.182 L 49.469 87.016 C 49.713 87.044 49.958 87.067 50.204 87.089 L 51.764 89.61 C 51.921 89.864 52.201 90.02 52.501 90.02 C 52.802 90.02 53.081 89.864 53.239 89.61 L 54.799 87.089 C 55.045 87.067 55.29 87.044 55.533 87.016 L 57.554 89.182 C 57.759 89.403 58.063 89.501 58.357 89.442 C 58.652 89.384 58.896 89.176 59.001 88.895 L 60.036 86.127 C 60.276 86.058 60.514 85.984 60.751 85.909 L 63.15 87.638 C 63.394 87.812 63.712 87.85 63.989 87.734 C 64.267 87.62 64.465 87.368 64.513 87.072 L 64.989 84.153 C 65.21 84.039 65.428 83.92 65.645 83.802 L 68.338 85.029 C 68.611 85.154 68.93 85.128 69.179 84.961 C 69.429 84.794 69.575 84.51 69.564 84.209 L 69.461 81.245 C 69.652 81.092 69.842 80.938 70.029 80.778 L 72.915 81.458 C 73.208 81.527 73.516 81.442 73.728 81.228 C 73.941 81.015 74.028 80.709 73.959 80.416 L 73.279 77.529 C 73.437 77.342 73.593 77.153 73.746 76.96 L 76.709 77.064 C 77.008 77.076 77.294 76.93 77.461 76.679 C 77.628 76.429 77.654 76.111 77.529 75.837 L 76.302 73.145 C 76.421 72.928 76.539 72.71 76.653 72.488 L 79.572 72.013 C 79.87 71.966 80.12 71.767 80.234 71.489 C 80.349 71.212 80.313 70.895 80.137 70.65 L 78.41 68.251 C 78.484 68.014 78.557 67.776 78.627 67.536 L 81.396 66.501 C 81.677 66.395 81.885 66.152 81.942 65.857 C 82.002 65.562 81.903 65.259 81.683 65.054 L 79.517 63.033 C 79.543 62.789 79.567 62.544 79.589 62.299 L 82.109 60.738 C 82.364 60.581 82.52 60.302 82.52 60.001 C 82.52 59.701 82.365 59.421 82.11 59.263 L 82.11 59.263 Z  M 65.239 80.173 C 64.277 79.966 63.665 79.017 63.871 78.051 C 64.077 77.087 65.025 76.473 65.987 76.681 C 66.95 76.887 67.563 77.837 67.357 78.801 C 67.15 79.765 66.201 80.379 65.239 80.173 Z  M 64.383 74.381 C 63.505 74.192 62.641 74.751 62.453 75.631 L 61.558 79.807 C 58.796 81.061 55.73 81.757 52.5 81.757 C 49.196 81.757 46.063 81.026 43.252 79.72 L 42.358 75.543 C 42.17 74.665 41.306 74.105 40.428 74.293 L 36.741 75.085 C 36.057 74.381 35.42 73.63 34.835 72.838 L 52.774 72.838 C 52.977 72.838 53.113 72.801 53.113 72.617 L 53.113 66.271 C 53.113 66.086 52.977 66.05 52.774 66.05 L 47.528 66.05 L 47.528 62.027 L 53.202 62.027 C 53.72 62.027 55.972 62.175 56.692 65.053 C 56.917 65.938 57.412 68.817 57.751 69.739 C 58.088 70.773 59.461 72.838 60.925 72.838 L 69.864 72.838 C 69.965 72.838 70.074 72.827 70.188 72.806 C 69.568 73.649 68.887 74.446 68.155 75.191 L 64.383 74.381 L 64.383 74.381 Z  M 39.572 80.086 C 38.609 80.294 37.662 79.68 37.455 78.716 C 37.249 77.75 37.861 76.801 38.823 76.594 C 39.786 76.388 40.734 77.002 40.941 77.966 C 41.146 78.93 40.534 79.88 39.572 80.086 Z  M 32.767 52.491 C 33.166 53.392 32.76 54.448 31.86 54.847 C 30.96 55.247 29.907 54.84 29.507 53.938 C 29.108 53.037 29.514 51.982 30.414 51.582 C 31.315 51.183 32.367 51.589 32.767 52.491 Z  M 30.675 57.449 L 34.516 55.742 C 35.336 55.378 35.707 54.417 35.342 53.595 L 34.551 51.806 L 37.662 51.806 L 37.662 65.828 L 31.386 65.828 C 30.842 63.915 30.55 61.895 30.55 59.807 C 30.55 59.01 30.593 58.223 30.675 57.449 Z  M 47.529 56.087 L 47.529 51.954 L 54.937 51.954 C 55.319 51.954 57.639 52.396 57.639 54.13 C 57.639 55.57 55.86 56.087 54.397 56.087 L 47.529 56.087 L 47.529 56.087 Z  M 74.451 59.807 C 74.451 60.356 74.431 60.898 74.391 61.437 L 72.139 61.437 C 71.913 61.437 71.823 61.585 71.823 61.806 L 71.823 62.84 C 71.823 65.275 70.45 65.804 69.247 65.939 C 68.101 66.068 66.831 65.459 66.675 64.758 C 65.999 60.957 64.873 60.146 63.095 58.743 C 65.301 57.342 67.598 55.274 67.598 52.507 C 67.598 49.519 65.549 47.637 64.153 46.714 C 62.194 45.423 60.025 45.164 59.44 45.164 L 36.148 45.164 C 39.307 41.639 43.587 39.142 48.429 38.233 L 51.174 41.113 C 51.795 41.763 52.823 41.787 53.472 41.166 L 56.544 38.228 C 62.981 39.426 68.431 43.433 71.571 48.93 L 69.468 53.68 C 69.105 54.502 69.476 55.464 70.296 55.828 L 74.344 57.626 C 74.414 58.345 74.451 59.071 74.451 59.807 L 74.451 59.807 Z  M 51.175 35.783 C 51.887 35.102 53.015 35.129 53.696 35.841 C 54.376 36.555 54.35 37.685 53.637 38.366 C 52.926 39.047 51.797 39.021 51.116 38.307 C 50.437 37.594 50.463 36.465 51.175 35.783 Z  M 72.045 52.578 C 72.443 51.676 73.496 51.27 74.396 51.67 C 75.297 52.069 75.703 53.124 75.303 54.026 C 74.905 54.927 73.852 55.334 72.951 54.934 C 72.052 54.535 71.646 53.48 72.045 52.578 Z " fill="rgb(0,0,0)"/></g></svg>