<?xml version="1.0" standalone="no"?><!-- Generator: Gravit.io --><svg xmlns="http://www.w3.org/2000/svg" xmlns:xlink="http://www.w3.org/1999/xlink" style="isolation:isolate" viewBox="0 0 105 120" width="105" height="120"><defs><clipPath id="_clipPath_7coxWPvbbYqMA3CBoryOtf9qJsIvrLWJ"><rect width="105" height="120"/></clipPath></defs><g clip-path="url(#_clipPath_7coxWPvbbYqMA3CBoryOtf9qJsIvrLWJ)"><path d=" M 52.5 0 L 105 30 L 105 90 L 52.5 120 L 0 90 L 0 30 L 52.5 0 Z " fill="rgb(0,43,54)"/><g><path d=" M 73.632 50.474 C 73.632 48.806 69.832 46.443 63.02 46.767 C 56.208 47.092 32.249 50.687 31.369 55.794 C 31.369 55.794 35.157 57.437 50.172 58.445 C 65.186 59.453 72.241 53.579 72.241 53.579 L 73.632 50.474 Z " fill="rgb(129,9,26)"/><path d=" M 73.632 45.275 C 72.937 49.307 59.868 51.438 50.786 52.921 C 41.703 54.404 33.918 54.589 31.369 55.794 L 31.369 40.048 C 33.918 38.843 41.703 38.658 50.786 37.175 C 59.869 35.692 72.937 33.56 73.632 29.529 L 73.632 45.275 Z " fill="rgb(223,53,46)"/><path d=" M 73.632 71.42 C 73.632 69.752 69.832 67.389 63.02 67.713 C 56.208 68.037 32.249 71.633 31.369 76.74 C 31.369 76.74 35.157 78.383 50.172 79.391 C 65.186 80.399 72.241 74.525 72.241 74.525 L 73.632 71.42 Z " fill="rgb(129,9,26)"/><g><path d=" M 73.632 66.221 C 72.937 70.252 59.868 72.384 50.786 73.867 C 41.703 75.35 33.918 75.535 31.369 76.74 L 31.369 60.994 C 33.918 59.789 41.703 59.604 50.786 58.121 C 59.869 56.638 72.937 54.506 73.632 50.475 L 73.632 66.221 L 73.632 66.221 Z " fill="rgb(223,53,46)"/><path d=" M 73.632 71.421 L 73.632 82.153 C 68.095 87.314 60.667 90.471 52.501 90.471 C 44.333 90.471 36.905 87.313 31.368 82.152 L 31.368 81.939 C 33.918 80.735 41.702 80.55 50.786 79.067 C 59.869 77.584 72.937 75.452 73.632 71.421 Z " fill="rgb(223,53,46)"/></g></g></g></svg>