<?xml version="1.0" standalone="no"?><!-- Generator: Gravit.io --><svg xmlns="http://www.w3.org/2000/svg" xmlns:xlink="http://www.w3.org/1999/xlink" style="isolation:isolate" viewBox="0 0 105 120" width="105" height="120"><defs><clipPath id="_clipPath_jnE9uv5EtJaFCO0wOpwGAWBl4RNDW9tr"><rect width="105" height="120"/></clipPath></defs><g clip-path="url(#_clipPath_jnE9uv5EtJaFCO0wOpwGAWBl4RNDW9tr)"><path d=" M 52.5 0 L 105 30 L 105 90 L 52.5 120 L 0 90 L 0 30 L 52.5 0 Z " fill="rgb(209,209,209)"/><g><path d=" M 96.051 60.248 C 95.96 60.054 95.919 59.956 95.87 59.863 C 94.554 57.362 93.242 54.859 91.914 52.364 C 91.78 52.113 91.797 51.964 91.98 51.75 C 94.073 49.306 96.154 46.852 98.238 44.4 C 98.311 44.314 98.377 44.222 98.405 44.069 C 97.796 44.228 97.186 44.386 96.577 44.547 C 94.049 45.217 91.52 45.885 88.994 46.564 C 88.759 46.627 88.652 46.558 88.535 46.363 C 87.099 43.965 85.656 41.572 84.214 39.178 C 84.139 39.053 84.059 38.933 83.9 38.828 C 83.784 39.467 83.666 40.106 83.552 40.745 C 83.151 43.001 82.75 45.258 82.35 47.515 C 82.306 47.758 82.246 48.001 82.225 48.246 C 82.205 48.479 82.086 48.565 81.875 48.631 C 78.895 49.567 75.919 50.511 72.942 51.455 C 72.811 51.496 72.684 51.55 72.543 51.677 C 74.979 52.645 77.414 53.613 79.887 54.595 C 79.797 54.667 79.738 54.722 79.672 54.765 C 78.15 55.75 76.625 56.731 75.106 57.721 C 74.924 57.84 74.78 57.856 74.576 57.764 C 72.757 56.945 70.932 56.142 69.111 55.329 C 68.293 54.964 67.558 54.478 66.985 53.778 C 65.69 52.194 65.945 50.392 67.671 49.291 C 68.236 48.931 68.876 48.66 69.516 48.452 C 72.434 47.501 75.363 46.584 78.291 45.665 C 78.537 45.588 78.651 45.478 78.696 45.212 C 79.086 42.953 79.491 40.697 79.898 38.442 C 80.116 37.236 80.231 35.999 80.818 34.893 C 81.044 34.469 81.314 34.052 81.635 33.696 C 82.797 32.407 84.419 32.356 85.648 33.585 C 86.063 34 86.42 34.489 86.728 34.991 C 88.082 37.199 89.413 39.42 90.738 41.645 C 90.895 41.908 91.036 41.961 91.326 41.884 C 94.591 41.008 97.859 40.147 101.127 39.283 C 101.801 39.106 102.483 39.04 103.175 39.169 C 104.681 39.451 105.339 40.598 104.83 42.053 C 104.598 42.716 104.198 43.276 103.748 43.805 C 101.467 46.487 99.191 49.171 96.902 51.846 C 96.715 52.065 96.711 52.223 96.841 52.467 C 98.206 55.04 99.559 57.619 100.917 60.196 C 101.242 60.813 101.49 61.452 101.497 62.161 C 101.514 63.771 100.336 65.089 98.735 65.324 C 97.839 65.456 97.006 65.264 96.166 65.005 C 94.119 64.372 92.068 63.75 90.016 63.133 C 89.826 63.076 89.753 63.001 89.72 62.796 C 89.484 61.353 89.226 59.912 88.978 58.47 C 88.97 58.43 88.982 58.388 88.988 58.299 C 91.324 58.944 93.64 59.582 96.051 60.248" fill-rule="evenodd" fill="rgb(226,90,28)"/><path d=" M 92.059 81.277 C 90.213 81.274 88.367 81.265 86.521 81.273 C 86.277 81.274 86.139 81.202 86.003 80.995 C 83.817 77.666 81.622 74.343 79.428 71.02 C 79.358 70.914 79.284 70.812 79.16 70.634 C 78.687 74.224 78.225 77.734 77.763 81.253 C 76.147 81.253 74.564 81.253 72.928 81.253 C 72.985 80.781 73.034 80.326 73.094 79.873 C 73.566 76.268 74.04 72.663 74.514 69.059 C 74.966 65.615 75.417 62.171 75.876 58.728 C 75.89 58.625 75.958 58.495 76.042 58.441 C 77.706 57.356 79.375 56.281 81.044 55.205 C 81.069 55.189 81.102 55.187 81.189 55.162 C 80.684 59.013 80.183 62.834 79.681 66.655 C 79.701 66.669 79.721 66.682 79.741 66.696 C 82.36 63.793 84.979 60.89 87.654 57.925 C 87.732 58.371 87.799 58.753 87.864 59.135 C 88.052 60.23 88.232 61.326 88.433 62.418 C 88.473 62.638 88.415 62.775 88.268 62.929 C 86.574 64.701 84.887 66.479 83.199 68.256 C 83.125 68.334 83.054 68.414 82.97 68.506 C 83.024 68.592 83.07 68.675 83.125 68.752 C 86.037 72.84 88.95 76.928 91.865 81.014 C 91.918 81.089 91.994 81.147 92.059 81.212 C 92.059 81.234 92.059 81.256 92.059 81.277" fill-rule="evenodd" fill="rgb(60,58,62)"/><path d=" M 34.753 70.65 C 34.679 70.273 34.626 69.72 34.459 69.203 C 33.649 66.705 31.086 65.335 28.433 65.952 C 25.522 66.63 23.442 68.918 23.142 71.888 C 22.919 74.084 24.102 76.201 26.301 76.995 C 28.073 77.635 29.779 77.368 31.363 76.418 C 33.463 75.158 34.602 73.288 34.753 70.65 L 34.753 70.65 Z  M 21.972 79.935 C 21.828 81.01 21.691 82.023 21.558 83.036 C 21.381 84.383 21.204 85.731 21.035 87.079 C 21.015 87.236 20.967 87.306 20.798 87.305 C 19.47 87.299 18.142 87.301 16.814 87.299 C 16.784 87.299 16.754 87.282 16.682 87.262 C 16.762 86.626 16.84 85.988 16.924 85.35 C 17.217 83.116 17.509 80.881 17.806 78.646 C 18.146 76.091 18.416 73.524 18.851 70.986 C 19.622 66.491 23.435 62.617 27.91 61.653 C 30.504 61.093 32.987 61.352 35.252 62.812 C 37.511 64.268 38.806 66.38 39.101 69.037 C 39.519 72.795 38.136 75.914 35.467 78.494 C 33.716 80.188 31.619 81.264 29.2 81.628 C 26.708 82.004 24.366 81.588 22.264 80.119 C 22.186 80.066 22.104 80.019 21.972 79.935" fill-rule="evenodd" fill="rgb(60,58,62)"/><path d=" M 19.808 58.576 C 18.318 59.685 16.882 60.753 15.44 61.827 C 15.208 61.46 15 61.095 14.757 60.755 C 14.131 59.881 13.354 59.227 12.224 59.148 C 11.284 59.082 10.48 59.392 9.841 60.085 C 9.268 60.705 9.193 61.586 9.728 62.286 C 10.317 63.056 10.961 63.787 11.619 64.5 C 12.709 65.682 13.849 66.819 14.933 68.008 C 15.919 69.089 16.705 70.303 16.947 71.781 C 17.236 73.539 16.885 75.213 16.054 76.758 C 14.515 79.616 12.092 81.275 8.894 81.794 C 7.481 82.023 6.073 81.977 4.694 81.571 C 2.865 81.033 1.592 79.834 0.773 78.141 C 0.484 77.542 0.262 76.911 0 76.27 C 1.601 75.413 3.157 74.58 4.736 73.735 C 4.791 73.867 4.829 73.976 4.88 74.079 C 5.15 74.617 5.37 75.19 5.703 75.686 C 6.692 77.156 8.289 77.603 9.909 76.876 C 10.325 76.689 10.726 76.426 11.067 76.123 C 12.111 75.197 12.307 73.907 11.534 72.741 C 11.09 72.071 10.535 71.47 9.994 70.87 C 8.702 69.435 7.358 68.046 6.096 66.585 C 5.226 65.579 4.635 64.404 4.448 63.056 C 4.243 61.584 4.538 60.194 5.304 58.955 C 7.209 55.874 9.977 54.271 13.638 54.404 C 15.725 54.479 17.387 55.455 18.677 57.077 C 19.059 57.557 19.416 58.056 19.808 58.576" fill-rule="evenodd" fill="rgb(60,58,62)"/><path d=" M 55.172 75.117 C 54.929 76.973 54.7 78.737 54.462 80.499 C 54.45 80.588 54.38 80.71 54.304 80.745 C 50.7 82.414 45.955 82.181 42.996 78.82 C 41.405 77.015 40.738 74.872 40.838 72.488 C 41.069 66.969 45.645 62.15 51.117 61.477 C 54.314 61.084 57.118 61.947 59.284 64.431 C 60.759 66.123 61.441 68.143 61.34 70.373 C 61.274 71.846 61.043 73.312 60.86 74.778 C 60.6 76.854 60.316 78.928 60.042 81.003 C 60.032 81.077 60.018 81.15 60.001 81.243 C 58.574 81.243 57.156 81.243 55.69 81.243 C 55.747 80.767 55.8 80.3 55.86 79.834 C 56.172 77.438 56.516 75.045 56.789 72.645 C 56.96 71.149 56.852 69.665 56.169 68.281 C 55.441 66.809 54.222 66.03 52.618 65.86 C 49.298 65.509 46.14 67.816 45.432 71.082 C 44.964 73.239 45.701 75.306 47.419 76.449 C 49.093 77.562 50.885 77.566 52.709 76.844 C 53.634 76.478 54.422 75.898 55.172 75.117" fill-rule="evenodd" fill="rgb(60,58,62)"/><path d=" M 73.325 61.896 C 73.128 63.391 72.935 64.863 72.736 66.366 C 71.825 66.366 70.931 66.361 70.038 66.368 C 69.314 66.374 68.653 66.841 68.435 67.517 C 68.35 67.782 68.319 68.065 68.282 68.342 C 67.829 71.774 67.379 75.207 66.929 78.639 C 66.815 79.505 66.704 80.371 66.591 81.249 C 65.095 81.249 63.621 81.249 62.103 81.249 C 62.187 80.589 62.266 79.951 62.35 79.313 C 62.642 77.088 62.934 74.864 63.229 72.641 C 63.485 70.716 63.712 68.788 64.013 66.871 C 64.416 64.301 66.973 62.018 69.566 61.906 C 70.804 61.852 72.046 61.896 73.325 61.896" fill-rule="evenodd" fill="rgb(60,58,62)"/></g></g></svg>