<?xml version="1.0" standalone="no"?><!-- Generator: Gravit.io --><svg xmlns="http://www.w3.org/2000/svg" xmlns:xlink="http://www.w3.org/1999/xlink" style="isolation:isolate" viewBox="0 0 105 120" width="105" height="120"><defs><clipPath id="_clipPath_JVqYWTKjOZaAtvI6SLmhHofXvIdkCmN1"><rect width="105" height="120"/></clipPath></defs><g clip-path="url(#_clipPath_JVqYWTKjOZaAtvI6SLmhHofXvIdkCmN1)"><path d=" M 52.5 1.15 L 104 30.575 L 104 89.425 L 52.5 118.85 L 1 89.425 L 1 30.575 L 52.5 1.15 Z " fill="rgb(255,255,255)" vector-effect="non-scaling-stroke" stroke-width="2" stroke="rgb(119,188,31)" stroke-linejoin="miter" stroke-linecap="butt" stroke-miterlimit="4"/><path d=" M 77.239 33.259 C 76.389 35.289 75.311 37.217 74.013 38.988 C 68.331 33.306 60.619 30.111 52.585 30.111 C 35.964 30.111 22.288 43.804 22.288 60.447 C 22.288 68.75 25.687 76.698 31.699 82.426 L 32.817 83.418 C 38.278 88.022 45.195 90.556 52.333 90.556 C 68.134 90.556 81.418 78.169 82.543 62.383 C 83.369 54.656 81.103 44.882 77.239 33.259 Z  M 36.004 82.6 C 35.516 83.206 34.768 83.56 33.989 83.56 C 32.565 83.56 31.4 82.387 31.4 80.963 C 31.4 79.538 32.573 78.366 33.989 78.366 C 34.579 78.366 35.162 78.571 35.618 78.948 C 36.728 79.845 36.901 81.49 36.004 82.6 Z  M 77.113 73.518 C 69.637 83.489 53.67 80.129 43.432 80.609 C 43.432 80.609 41.615 80.719 39.789 81.018 C 39.789 81.018 40.474 80.727 41.363 80.388 C 48.548 77.886 51.947 77.398 56.315 75.155 C 64.538 70.969 72.667 61.809 74.359 52.279 C 71.227 61.447 61.737 69.324 53.088 72.527 C 47.163 74.715 36.46 76.839 36.46 76.839 L 36.027 76.611 C 28.74 73.062 28.52 57.268 41.764 52.169 C 47.564 49.934 53.112 51.162 59.376 49.666 C 66.065 48.077 73.8 43.056 76.948 36.509 C 80.473 46.983 84.715 63.383 77.113 73.518 L 77.113 73.518 Z " fill="rgb(119,188,31)"/></g></svg>