<?xml version="1.0" standalone="no"?><!-- Generator: Gravit.io --><svg xmlns="http://www.w3.org/2000/svg" xmlns:xlink="http://www.w3.org/1999/xlink" style="isolation:isolate" viewBox="0 0 105 120" width="105" height="120"><defs><clipPath id="_clipPath_YCDs8ouZpdRC1kAKTlcJ95pzoLDOj5NO"><rect width="105" height="120"/></clipPath></defs><g clip-path="url(#_clipPath_YCDs8ouZpdRC1kAKTlcJ95pzoLDOj5NO)"><path d=" M 52.5 0 L 105 30 L 105 90 L 52.5 120 L 0 90 L 0 30 L 52.5 0 Z " fill="rgb(37,42,46)"/><g><linearGradient id="_lgradient_16" x1="0.25895107085744573" y1="0.8144670749197946" x2="0.3834117159927556" y2="0.7409252638924447" gradientTransform="matrix(37.058,0,0,33.959,23.737,57.887)" gradientUnits="userSpaceOnUse"><stop offset="0%" stop-opacity="1" style="stop-color:rgb(144,156,169)"/><stop offset="100%" stop-opacity="1" style="stop-color:rgb(237,237,238)"/></linearGradient><path d=" M 60.478 57.887 L 47.723 62.053 L 36.626 66.95 L 33.521 67.77 C 32.73 68.522 31.901 69.284 31.005 70.055 C 30.021 70.903 29.105 71.675 28.402 72.234 C 27.621 72.851 26.464 74.008 25.876 74.74 C 24.998 75.839 24.304 77.006 24.005 77.903 C 23.475 79.522 23.735 81.161 24.757 82.675 C 26.068 84.603 28.681 86.57 31.728 87.91 C 33.28 88.595 35.893 89.472 37.86 89.964 C 41.128 90.793 47.453 91.69 50.933 91.825 C 51.637 91.854 52.582 91.854 52.62 91.825 C 52.697 91.776 53.237 90.745 53.864 89.463 C 56.004 85.095 57.547 80.998 58.386 77.498 C 58.887 75.377 59.282 72.552 59.542 69.207 C 59.61 68.271 59.639 65.138 59.581 64.077 C 59.494 62.342 59.34 60.934 59.099 59.556 C 59.06 59.353 59.051 59.17 59.07 59.16 C 59.108 59.132 59.224 59.093 60.796 58.64 L 60.478 57.888 L 60.478 57.888 L 60.478 57.888 L 60.478 57.887 Z  M 57.566 59.594 C 57.682 59.594 57.99 62.554 58.067 64.424 C 58.087 64.82 58.077 65.08 58.058 65.08 C 57.981 65.08 56.428 64.164 55.32 63.47 C 54.356 62.863 52.524 61.648 52.235 61.416 C 52.138 61.349 52.148 61.339 52.938 61.069 C 54.278 60.616 57.46 59.594 57.566 59.594 L 57.566 59.594 Z  M 51.068 61.734 C 51.155 61.734 51.376 61.86 51.907 62.188 C 53.893 63.431 56.592 64.935 57.749 65.437 C 58.106 65.591 58.144 65.533 57.325 66.092 C 55.57 67.288 53.382 68.464 50.701 69.65 C 50.229 69.862 49.834 70.026 49.824 70.026 C 49.805 70.026 49.863 69.785 49.94 69.496 C 50.586 67.095 50.952 64.665 50.972 62.718 C 50.981 61.754 50.981 61.754 51.068 61.725 C 51.049 61.734 51.058 61.734 51.068 61.734 L 51.068 61.734 Z  M 49.728 62.245 C 49.786 62.303 49.747 64.463 49.67 65.051 C 49.496 66.459 49.227 67.77 48.783 69.245 C 48.677 69.601 48.581 69.901 48.561 69.92 C 48.523 69.968 47.202 68.676 46.768 68.175 C 46.016 67.307 45.428 66.439 44.994 65.591 C 44.772 65.157 44.425 64.309 44.454 64.28 C 44.608 64.174 49.689 62.207 49.728 62.245 Z  M 43.423 64.723 C 43.432 64.723 43.442 64.723 43.452 64.733 C 43.471 64.752 43.538 64.906 43.596 65.08 C 43.905 65.919 44.599 67.153 45.197 67.943 C 45.852 68.811 46.71 69.737 47.424 70.344 C 47.655 70.537 47.867 70.72 47.896 70.749 C 47.954 70.807 47.973 70.797 46.402 71.395 C 44.58 72.089 42.593 72.783 40.318 73.516 C 39.774 73.691 39.231 73.868 38.689 74.046 C 38.602 74.075 38.631 74.027 38.882 73.632 C 40.01 71.867 41.726 68.406 42.69 65.957 C 42.854 65.533 43.018 65.109 43.047 65.012 C 43.085 64.877 43.133 64.829 43.259 64.762 C 43.326 64.743 43.394 64.723 43.423 64.723 L 43.423 64.723 Z  M 41.494 65.523 C 41.523 65.543 41.032 66.574 40.55 67.519 C 39.614 69.341 38.592 71.135 37.223 73.314 C 36.992 73.689 36.77 74.037 36.741 74.075 C 36.693 74.143 36.674 74.123 36.52 73.825 C 36.192 73.179 35.922 72.349 35.777 71.588 C 35.632 70.836 35.661 69.524 35.825 68.715 C 35.951 68.117 35.941 68.127 36.23 67.982 C 37.464 67.355 41.456 65.485 41.494 65.523 L 41.494 65.523 Z  M 58.125 66.198 L 58.125 66.603 C 58.125 68.753 57.894 71.703 57.556 73.854 C 57.499 74.229 57.45 74.538 57.441 74.548 C 57.441 74.548 57.161 74.471 56.833 74.374 C 55.387 73.921 53.816 73.256 52.398 72.475 C 51.463 71.964 50.104 71.125 50.142 71.086 C 50.152 71.077 50.557 70.865 51.029 70.614 C 52.919 69.631 54.732 68.57 56.303 67.519 C 56.891 67.124 57.778 66.488 57.971 66.314 L 58.125 66.198 Z  M 34.215 69.052 C 34.254 69.052 34.244 69.129 34.186 69.476 C 34.148 69.727 34.1 70.19 34.08 70.508 C 34.003 71.915 34.235 72.957 34.929 74.384 C 35.122 74.779 35.276 75.107 35.266 75.116 C 35.199 75.174 28.816 77.045 26.811 77.594 C 26.213 77.758 25.693 77.903 25.654 77.912 C 25.586 77.932 25.577 77.922 25.606 77.758 C 25.827 76.341 26.907 74.49 28.411 72.928 C 29.414 71.886 30.214 71.279 31.583 70.498 C 32.567 69.939 34.08 69.1 34.196 69.062 C 34.196 69.052 34.206 69.052 34.215 69.052 L 34.215 69.052 Z  M 49.256 71.742 C 49.265 71.732 49.496 71.858 49.776 72.022 C 51.839 73.217 54.712 74.326 57.161 74.895 L 57.383 74.943 L 57.074 75.116 C 55.792 75.83 51.579 77.584 47.269 79.195 C 46.643 79.426 46.026 79.657 45.91 79.705 C 45.794 79.754 45.688 79.783 45.688 79.773 C 45.688 79.763 45.862 79.426 46.083 79.011 C 47.288 76.755 48.503 74.008 49.12 72.099 C 49.198 71.915 49.246 71.752 49.256 71.742 L 49.256 71.742 Z  M 47.723 72.243 C 47.732 72.253 47.655 72.455 47.559 72.687 C 46.72 74.721 45.621 76.939 44.213 79.426 C 43.856 80.062 43.558 80.573 43.548 80.573 C 43.538 80.573 43.249 80.4 42.902 80.188 C 40.858 78.934 39.045 77.392 37.86 75.897 L 37.686 75.685 L 38.563 75.444 C 41.706 74.586 44.377 73.661 47.028 72.523 C 47.404 72.369 47.713 72.243 47.723 72.243 L 47.723 72.243 Z  M 57.248 75.569 C 57.248 75.569 57.258 75.579 57.248 75.569 C 57.258 75.791 56.766 77.777 56.361 79.214 C 56.024 80.419 55.734 81.364 55.204 83.032 C 54.973 83.765 54.77 84.372 54.761 84.372 C 54.751 84.372 54.693 84.362 54.635 84.343 C 51.772 83.822 49.207 83.099 46.797 82.135 C 46.122 81.865 45.158 81.431 45.1 81.383 C 45.081 81.364 45.659 81.094 46.392 80.776 C 50.779 78.857 55.329 76.678 56.891 75.743 C 57.074 75.627 57.219 75.569 57.248 75.569 L 57.248 75.569 Z  M 35.257 76.322 C 35.276 76.341 34.051 78.105 32.335 80.506 C 31.737 81.345 31.043 82.328 30.783 82.694 C 30.523 83.061 30.127 83.639 29.906 83.986 L 29.501 84.613 L 29.067 84.247 C 28.556 83.822 27.669 82.916 27.274 82.415 C 26.444 81.383 25.885 80.294 25.664 79.301 C 25.557 78.838 25.557 78.606 25.654 78.578 C 25.798 78.539 28.373 77.932 30.783 77.372 C 32.123 77.064 33.675 76.698 34.234 76.563 C 34.794 76.427 35.247 76.322 35.257 76.322 L 35.257 76.322 Z  M 36.491 76.794 L 36.799 77.141 C 38.187 78.693 39.605 79.841 41.321 80.843 C 41.629 81.017 41.861 81.171 41.841 81.181 C 41.774 81.229 35.883 83.321 33.155 84.266 C 31.622 84.806 30.359 85.24 30.349 85.24 C 30.34 85.24 30.253 85.182 30.156 85.114 L 29.983 84.989 L 30.262 84.584 C 31.169 83.273 32.306 81.836 34.784 78.848 L 36.491 76.794 Z  M 44.184 82.299 C 44.194 82.289 44.618 82.444 45.139 82.637 C 46.392 83.109 47.385 83.408 48.716 83.745 C 50.355 84.16 52.726 84.565 54.124 84.68 C 54.336 84.7 54.452 84.719 54.414 84.748 C 54.346 84.787 52.929 85.259 51.888 85.587 C 50.229 86.107 45.168 87.602 41.041 88.788 C 40.28 89.009 39.624 89.193 39.585 89.202 C 39.489 89.222 39.171 89.135 39.171 89.096 C 39.171 89.077 39.402 88.778 39.682 88.45 C 41.07 86.792 42.449 84.941 43.596 83.186 C 43.914 82.704 44.184 82.309 44.184 82.299 Z  M 42.487 82.347 C 42.497 82.357 41.812 83.456 40.617 85.346 C 40.106 86.146 39.537 87.052 39.335 87.37 C 39.142 87.679 38.853 88.161 38.689 88.431 L 38.409 88.923 L 38.265 88.884 C 37.917 88.788 35.478 87.929 34.832 87.669 C 34.032 87.351 33.203 86.965 32.586 86.638 C 31.815 86.223 30.851 85.606 30.928 85.587 C 30.947 85.577 32.268 85.22 33.858 84.786 C 38.081 83.639 40.424 82.974 41.957 82.492 C 42.237 82.405 42.478 82.338 42.487 82.347 Z  M 54.491 85.162 L 54.5 85.162 C 54.539 85.259 52.977 89.597 52.408 90.966 C 52.283 91.275 52.235 91.352 52.167 91.342 C 52.003 91.333 49.738 91.015 48.359 90.812 C 45.958 90.446 41.928 89.742 40.916 89.511 L 40.685 89.462 L 42.121 89.134 C 45.206 88.44 46.691 88.064 48.195 87.602 C 50.094 87.023 51.974 86.3 53.874 85.413 C 54.172 85.278 54.423 85.172 54.491 85.162 Z " fill="url(#_lgradient_16)"/><linearGradient id="_lgradient_17" x1="0.0016794772742325659" y1="0.4984570517243385" x2="0.18594484316019533" y2="0.4984570517243385" gradientTransform="matrix(20.14,0,0,12.062,33.405,28.154)" gradientUnits="userSpaceOnUse"><stop offset="0%" stop-opacity="1" style="stop-color:rgb(147,159,171)"/><stop offset="100%" stop-opacity="1" style="stop-color:rgb(220,222,225)"/></linearGradient><path d=" M 47.327 28.154 C 47.115 28.125 43.692 29.359 41.485 30.256 C 38.506 31.471 36.192 32.628 34.765 33.63 C 34.235 34.006 33.569 34.672 33.463 34.932 C 33.425 35.028 33.405 35.144 33.405 35.26 L 34.697 36.484 L 37.773 37.468 L 45.091 38.779 L 53.459 40.215 L 53.546 39.492 C 53.517 39.492 53.498 39.483 53.469 39.483 L 52.37 39.309 L 52.148 38.914 C 51.01 36.908 49.757 34.421 49.024 32.743 C 48.455 31.442 47.916 29.938 47.617 28.858 C 47.453 28.202 47.433 28.164 47.328 28.154 L 47.328 28.154 L 47.327 28.154 L 47.327 28.154 Z  M 47.173 28.646 L 47.183 28.646 C 47.192 28.655 47.231 28.926 47.269 29.244 C 47.433 30.594 47.732 31.895 48.205 33.303 C 48.561 34.363 48.561 34.305 48.147 34.18 C 47.163 33.91 42.757 33.148 39.566 32.705 C 39.055 32.637 38.621 32.57 38.621 32.56 C 38.583 32.522 40.926 31.297 41.957 30.815 C 43.278 30.208 46.903 28.694 47.173 28.646 L 47.173 28.646 Z  M 37.879 32.965 L 38.255 33.09 C 40.299 33.785 45.437 34.768 48.272 34.999 C 48.59 35.028 48.86 35.057 48.87 35.057 C 48.879 35.067 48.61 35.212 48.262 35.375 C 46.893 36.06 45.389 36.899 44.348 37.545 C 44.04 37.737 43.76 37.892 43.721 37.892 C 43.683 37.892 43.48 37.853 43.268 37.824 L 42.883 37.766 L 41.919 36.821 C 40.222 35.173 38.891 33.9 38.38 33.418 L 37.879 32.965 L 37.879 32.965 Z  M 37.493 33.264 L 38.853 34.961 C 39.595 35.896 40.347 36.812 40.511 37.014 C 40.675 37.217 40.81 37.381 40.8 37.39 C 40.762 37.419 38.834 37.043 37.811 36.812 C 36.761 36.571 36.327 36.455 35.681 36.253 L 35.151 36.079 L 35.151 35.944 C 35.16 35.298 35.98 34.334 37.368 33.351 L 37.493 33.264 Z  M 49.043 35.578 C 49.082 35.578 49.13 35.665 49.246 35.925 C 49.574 36.648 50.596 38.596 50.846 38.972 C 50.924 39.097 51.058 39.107 49.699 38.885 C 46.431 38.354 45.38 38.181 45.38 38.162 C 45.38 38.152 45.476 38.085 45.601 38.017 C 46.614 37.458 47.636 36.745 48.542 35.983 C 48.764 35.8 48.966 35.626 49.005 35.597 C 49.014 35.578 49.034 35.568 49.043 35.578 Z " fill="url(#_lgradient_17)"/><radialGradient id="_rgradient_0" fx="0.4434619879540608" fy="0.4388087377589124" cx="0.4434619879540608" cy="0.4388087377589124" r="898.12" gradientTransform="matrix(52.886,5.548,-8.031,36.927,28.45,34.797)" gradientUnits="userSpaceOnUse"><stop offset="0%" stop-opacity="1" style="stop-color:rgb(238,53,44)"/><stop offset="100%" stop-opacity="1" style="stop-color:rgb(169,29,34)"/></radialGradient><path d=" M 33.531 34.797 C 33.531 34.797 33.319 35.134 33.521 35.636 C 33.647 35.944 34.013 36.32 34.427 36.706 C 34.427 36.706 38.718 40.89 39.238 41.488 C 41.61 44.226 42.642 46.926 42.738 50.647 C 42.796 53.038 42.343 55.14 41.215 57.579 C 39.209 61.956 34.977 66.787 28.45 72.147 L 29.404 71.829 C 30.021 71.366 30.86 70.874 32.827 69.795 C 37.368 67.307 42.478 65.022 48.744 62.67 C 57.768 59.276 72.606 55.304 81.052 54.012 L 81.929 53.877 L 81.794 53.665 C 81.023 52.469 80.493 51.727 79.856 50.936 C 78.005 48.642 75.759 46.781 73.011 45.238 C 69.232 43.127 64.344 41.478 58.154 40.254 C 56.988 40.022 54.423 39.579 52.341 39.261 C 47.925 38.577 45.071 38.104 41.928 37.564 C 40.8 37.371 39.113 37.082 37.994 36.841 C 37.416 36.716 36.307 36.455 35.44 36.156 C 34.746 35.886 33.743 35.616 33.531 34.797 L 33.531 34.797 Z  M 36.018 37.207 C 36.028 37.198 36.182 37.255 36.385 37.323 C 36.751 37.448 37.223 37.593 37.783 37.747 C 38.206 37.864 38.63 37.976 39.055 38.085 C 39.634 38.229 40.116 38.364 40.125 38.364 C 40.193 38.432 41.167 41.546 41.494 42.741 C 41.62 43.194 41.716 43.58 41.707 43.58 C 41.697 43.59 41.591 43.426 41.465 43.204 C 40.337 41.218 38.554 39.203 36.491 37.583 C 36.221 37.39 36.018 37.217 36.018 37.207 Z  M 40.762 38.518 C 40.81 38.518 41.022 38.547 41.282 38.605 C 42.921 38.972 45.862 39.531 47.742 39.849 C 48.06 39.897 48.311 39.955 48.311 39.974 C 48.311 39.994 48.195 40.061 48.05 40.138 C 47.732 40.302 46.45 41.064 46.026 41.353 C 44.955 42.066 43.991 42.838 43.297 43.532 C 43.018 43.811 42.777 44.043 42.777 44.043 C 42.777 44.043 42.719 43.879 42.67 43.676 C 42.324 42.336 41.6 40.35 40.945 38.952 C 40.839 38.731 40.752 38.528 40.752 38.509 C 40.752 38.528 40.752 38.518 40.762 38.518 L 40.762 38.518 Z  M 49.111 40.109 C 49.169 40.128 49.265 40.456 49.458 41.179 C 49.815 42.577 49.979 44.139 49.921 45.595 C 49.901 46 49.882 46.376 49.863 46.424 L 49.834 46.521 L 49.333 46.357 C 48.301 46.029 46.623 45.537 45.187 45.132 C 44.367 44.911 43.702 44.708 43.702 44.689 C 43.702 44.631 44.898 43.435 45.409 42.982 C 46.382 42.124 49.024 40.08 49.111 40.109 L 49.111 40.109 Z  M 49.776 40.206 C 49.805 40.177 53.768 40.861 55.57 41.208 C 56.911 41.469 58.858 41.874 58.974 41.922 C 59.032 41.941 58.829 42.057 58.183 42.346 C 55.638 43.493 53.748 44.525 51.868 45.778 C 51.377 46.106 50.962 46.376 50.952 46.376 C 50.943 46.376 50.933 46.096 50.933 45.759 C 50.933 43.927 50.567 42.076 49.892 40.514 C 49.824 40.36 49.766 40.215 49.776 40.206 L 49.776 40.206 Z  M 60.025 42.23 C 60.054 42.259 59.928 43.04 59.812 43.503 C 59.465 44.939 58.53 47.07 57.383 49.076 C 57.18 49.432 56.997 49.722 56.978 49.731 C 56.959 49.741 56.698 49.596 56.4 49.423 C 55.281 48.767 54.009 48.15 52.62 47.571 C 52.235 47.408 51.897 47.273 51.888 47.253 C 51.82 47.195 54.924 45.142 56.563 44.159 C 57.865 43.368 59.986 42.192 60.025 42.23 L 60.025 42.23 Z  M 60.757 42.346 C 60.844 42.346 62.599 42.828 63.515 43.098 C 65.78 43.773 68.383 44.727 70.08 45.499 L 70.784 45.817 L 70.292 45.933 C 66.147 46.887 62.599 47.986 59.176 49.374 C 58.897 49.49 58.646 49.587 58.627 49.587 C 58.607 49.587 58.704 49.365 58.829 49.095 C 59.861 46.906 60.526 44.621 60.69 42.674 C 60.7 42.491 60.728 42.346 60.757 42.346 L 60.757 42.346 Z  M 43.288 46.357 C 43.316 46.328 44.657 46.646 45.38 46.848 C 46.479 47.157 48.812 47.938 48.812 47.996 C 48.812 48.005 48.552 48.227 48.243 48.497 C 46.98 49.548 45.765 50.657 44.309 52.064 C 43.876 52.479 43.509 52.816 43.49 52.816 C 43.471 52.816 43.461 52.758 43.471 52.681 C 43.692 51.062 43.644 48.979 43.336 46.868 C 43.307 46.598 43.278 46.366 43.288 46.357 L 43.288 46.357 Z  M 71.449 46.386 C 71.469 46.405 70.832 47.408 70.427 47.976 C 69.849 48.805 69 49.905 67.082 52.315 C 66.07 53.588 64.932 55.024 64.556 55.506 C 64.17 55.988 63.852 56.393 63.842 56.393 C 63.833 56.393 63.708 56.22 63.573 56.008 C 62.493 54.388 61.201 52.971 59.668 51.698 C 59.379 51.457 59.061 51.197 58.954 51.119 C 58.848 51.042 58.762 50.965 58.762 50.956 C 58.762 50.927 60.4 50.223 61.644 49.722 C 63.823 48.834 66.792 47.774 69.02 47.089 C 70.186 46.723 71.43 46.366 71.449 46.386 L 71.449 46.386 Z  M 72.192 46.578 C 72.23 46.569 72.462 46.685 72.741 46.848 C 75.084 48.188 77.379 49.914 79.191 51.688 C 79.702 52.19 80.965 53.501 80.946 53.51 C 80.946 53.51 80.502 53.549 79.982 53.588 C 75.923 53.896 70.726 54.754 65.732 55.959 C 65.395 56.036 65.096 56.104 65.077 56.104 C 65.058 56.104 65.433 55.728 65.906 55.275 C 68.837 52.45 70.177 50.666 71.758 47.485 C 71.98 47.012 72.173 46.607 72.192 46.578 C 72.182 46.578 72.182 46.578 72.192 46.578 L 72.192 46.578 Z  M 50.721 48.777 C 50.856 48.806 52.109 49.394 53.054 49.866 C 53.922 50.3 55.223 50.994 55.291 51.052 C 55.3 51.062 54.838 51.303 54.269 51.582 C 52.456 52.488 50.904 53.346 49.284 54.33 C 48.822 54.61 48.436 54.841 48.426 54.841 C 48.388 54.841 48.397 54.802 48.658 54.33 C 49.526 52.749 50.22 50.859 50.615 49.018 C 50.653 48.873 50.692 48.777 50.721 48.777 L 50.721 48.777 Z  M 49.467 49.008 C 49.496 49.037 49.169 50.223 48.966 50.869 C 48.571 52.093 47.906 53.626 47.26 54.783 C 47.105 55.053 46.874 55.448 46.749 55.67 L 46.508 56.056 L 45.968 55.535 C 45.341 54.928 44.83 54.552 44.175 54.214 C 43.914 54.079 43.712 53.963 43.712 53.944 C 43.712 53.867 45.36 52.373 46.623 51.293 C 47.53 50.512 49.439 48.979 49.467 49.008 L 49.467 49.008 Z  M 57.132 52.161 L 57.605 52.469 C 58.684 53.173 59.957 54.108 60.931 54.928 C 61.48 55.381 62.541 56.335 62.753 56.567 L 62.869 56.692 L 62.088 56.914 C 57.672 58.138 54.259 59.228 50.277 60.693 C 49.834 60.857 49.458 60.992 49.429 60.992 C 49.371 60.992 49.323 61.04 50.316 60.124 C 52.861 57.782 55.117 55.198 56.795 52.681 L 57.132 52.161 L 57.132 52.161 Z  M 55.117 52.662 C 55.137 52.681 53.816 54.542 53.025 55.593 C 52.08 56.846 50.403 58.948 49.246 60.317 C 48.764 60.886 48.349 61.358 48.33 61.368 C 48.301 61.378 48.291 61.233 48.291 61.011 C 48.291 59.845 47.993 58.601 47.472 57.54 C 47.25 57.097 47.211 56.991 47.26 56.943 C 47.443 56.779 50.249 55.178 52.022 54.224 C 53.218 53.588 55.088 52.643 55.117 52.662 L 55.117 52.662 Z  M 42.931 55.651 C 42.96 55.651 43.182 55.766 43.432 55.902 C 44.049 56.239 44.599 56.615 45.09 57.02 C 45.11 57.039 44.859 57.242 44.531 57.483 C 43.615 58.138 42.227 59.189 41.417 59.835 C 40.569 60.51 40.54 60.529 40.636 60.385 C 41.273 59.411 41.591 58.861 41.928 58.158 C 42.227 57.531 42.526 56.789 42.738 56.143 C 42.815 55.863 42.912 55.651 42.931 55.651 Z  M 46.18 58.196 C 46.228 58.187 46.286 58.273 46.546 58.659 C 47.096 59.478 47.52 60.577 47.626 61.464 L 47.645 61.657 L 46.325 62.168 C 43.962 63.084 41.784 63.991 40.308 64.665 C 39.894 64.858 39.171 65.205 38.698 65.437 C 38.226 65.678 37.84 65.861 37.84 65.851 C 37.84 65.842 38.139 65.62 38.506 65.35 C 41.388 63.258 43.885 60.963 45.756 58.669 C 45.958 58.427 46.141 58.206 46.161 58.196 L 46.18 58.196 L 46.18 58.196 Z  M 44.686 58.562 C 44.724 58.601 43.625 59.845 42.873 60.606 C 41.012 62.506 39.171 63.991 36.886 65.437 C 36.597 65.62 36.336 65.784 36.307 65.803 C 36.24 65.842 36.327 65.745 37.329 64.656 C 37.966 63.971 38.448 63.393 38.997 62.679 C 39.364 62.207 39.431 62.139 39.962 61.763 C 41.379 60.741 44.647 58.524 44.686 58.562 Z " fill="url(#_rgradient_0)"/></g></g></svg>