<?xml version="1.0" standalone="no"?><!-- Generator: Gravit.io --><svg xmlns="http://www.w3.org/2000/svg" xmlns:xlink="http://www.w3.org/1999/xlink" style="isolation:isolate" viewBox="0 0 105 120" width="105" height="120"><defs><clipPath id="_clipPath_qxckWHwHzH1kyxSK4OiB3h35bpz8myQu"><rect width="105" height="120"/></clipPath></defs><g clip-path="url(#_clipPath_qxckWHwHzH1kyxSK4OiB3h35bpz8myQu)"><polygon points="52.5,120,0,90,0,30,52.5,0,105,30,105,90" fill="rgb(59,180,88)"/><g><path d=" M 62.369 56.47 C 62.369 61.883 57.981 66.271 52.569 66.271 C 47.156 66.271 42.768 61.883 42.768 56.47 C 42.768 51.057 47.156 46.669 52.569 46.669 C 57.981 46.669 62.369 51.057 62.369 56.47 L 62.369 56.47 Z " fill="none" vector-effect="non-scaling-stroke" stroke-width="1.097" stroke="rgb(255,255,255)" stroke-linejoin="miter" stroke-linecap="butt" stroke-miterlimit="4"/><path d=" M 83.616 56.333 C 83.616 61.746 79.228 66.134 73.815 66.134 C 68.402 66.134 64.014 61.746 64.014 56.333 C 64.014 50.92 68.402 46.532 73.815 46.532 C 79.228 46.532 83.616 50.92 83.616 56.333 L 83.616 56.333 Z " fill="none" vector-effect="non-scaling-stroke" stroke-width="1.097" stroke="rgb(255,255,255)" stroke-linejoin="miter" stroke-linecap="butt" stroke-miterlimit="4"/><path d=" M 40.984 56.401 C 40.983 56.401 40.632 56.054 40.204 55.629 L 31.185 46.669 C 25.772 46.669 21.384 51.057 21.384 56.47 C 21.384 61.883 25.772 66.271 31.185 66.271 C 31.208 66.271 31.208 66.271 31.208 66.271 C 31.233 66.269 31.253 66.762 31.253 67.365 L 31.253 71.685 C 31.253 72.289 31.747 72.782 32.35 72.782 L 39.889 72.782 C 40.492 72.782 40.986 72.289 40.986 71.685 L 40.986 57.498 C 40.986 56.895 40.985 56.401 40.984 56.401 L 40.984 56.401 Z " fill="none" vector-effect="non-scaling-stroke" stroke-width="1.097" stroke="rgb(255,255,255)" stroke-linejoin="miter" stroke-linecap="butt" stroke-miterlimit="4"/><path d=" M 17.112 49.822 L 13.022 49.822 L 14.881 47.964 C 13.398 47.061 11.663 46.532 9.801 46.532 C 4.388 46.532 0 50.92 0 56.333 C 0 59.328 1.348 62.006 3.465 63.804 L 6.443 63.804 L 5.241 65.006 C 6.604 65.723 8.154 66.134 9.801 66.134 C 15.214 66.134 19.602 61.746 19.602 56.333 C 19.602 53.83 18.656 51.554 17.112 49.822 L 17.112 49.822 Z " fill="none" vector-effect="non-scaling-stroke" stroke-width="1.097" stroke="rgb(255,255,255)" stroke-linejoin="miter" stroke-linecap="butt" stroke-miterlimit="4"/><path d=" M 85.4 57.087 C 85.401 57.087 85.752 56.739 86.18 56.314 L 95.199 47.355 C 100.612 47.355 105 51.743 105 57.156 C 105 62.569 100.612 66.956 95.199 66.956 C 95.176 66.956 95.176 66.956 95.176 66.956 C 95.151 66.955 95.13 67.447 95.13 68.05 L 95.13 72.371 C 95.13 72.974 94.637 73.468 94.034 73.468 L 86.495 73.468 C 85.891 73.468 85.398 72.974 85.398 72.371 L 85.398 58.184 C 85.398 57.581 85.399 57.087 85.4 57.087 L 85.4 57.087 Z " fill="none" vector-effect="non-scaling-stroke" stroke-width="1.097" stroke="rgb(255,255,255)" stroke-linejoin="miter" stroke-linecap="butt" stroke-miterlimit="4"/></g></g></svg>