<?xml version="1.0" standalone="no"?><!-- Generator: Gravit.io --><svg xmlns="http://www.w3.org/2000/svg" xmlns:xlink="http://www.w3.org/1999/xlink" style="isolation:isolate" viewBox="0 0 105 120" width="105" height="120"><defs><clipPath id="_clipPath_CiewjwmhSpuNDSxo1Rn8yhLHwaEJBgt2"><rect width="105" height="120"/></clipPath></defs><g clip-path="url(#_clipPath_CiewjwmhSpuNDSxo1Rn8yhLHwaEJBgt2)"><path d=" M 52.5 0 L 105 30 L 105 90 L 52.5 120 L 0 90 L 0 30 L 52.5 0 Z " fill="rgb(209,209,209)"/><g><path d=" M 66.172 62.364 L 60.274 62.364 L 44.186 74.697 L 62.955 74.697 L 42.175 91.188 L 47.94 91.188 L 73.546 71.346 L 54.643 71.346 L 66.172 62.364 Z " fill-rule="evenodd" fill="rgb(238,168,82)"/><path d=" M 42.259 51.014 L 36.469 51.014 L 19.741 63.991 C 19.741 63.991 31.214 64.098 41.187 64.098 C 51.16 64.098 61.454 60.398 61.454 51.066 C 61.454 41.736 51.052 35.676 33.573 42.111 C 32.393 43.398 27.354 48.117 26.496 48.975 C 43.117 40.609 57.754 41.039 57.754 51.013 C 57.754 60.452 42.687 60.452 41.187 60.452 C 39.685 60.452 30.249 60.452 30.249 60.452 L 42.259 51.014 Z " fill-rule="evenodd" fill="rgb(61,160,202)"/><path d=" M 33.573 42.111 C 32.394 43.398 27.354 48.117 26.496 48.975 C 30.207 47.107 33.819 45.678 37.191 44.696 C 39.701 41.384 46.442 32.351 55.985 32.351 C 66.172 32.351 69.603 38.357 69.603 41.897 C 69.603 45.758 66.708 48.654 66.708 48.654 C 66.708 48.654 71.104 48.869 73.249 48.869 C 75.394 48.869 81.506 49.512 81.506 55.411 C 81.506 61.31 74.536 62.168 72.177 62.168 C 69.818 62.168 60.489 62.168 60.489 62.168 L 55.878 65.815 C 55.878 65.815 64.563 65.921 71.641 65.921 C 78.718 65.921 85.259 62.382 85.259 55.411 C 85.259 48.44 79.254 45.329 73.035 45.329 C 73.678 44.256 73.893 43.183 73.893 41.896 C 73.893 40.609 71.748 28.812 55.77 28.812 C 45.476 28.812 39.135 36.947 33.573 42.111 Z " fill-rule="evenodd" fill="rgb(44,107,163)"/><path d=" M 60.477 62.175 L 66.426 62.175 L 61.665 65.876 C 58.796 65.852 56.53 65.827 55.769 65.818 L 60.477 62.175 Z " fill-rule="evenodd" fill="rgb(146,134,128)"/><path d=" M 37.191 44.696 C 37.155 44.706 37.118 44.717 37.082 44.729 C 34.668 45.513 29.505 47.65 26.496 48.975 C 27.354 48.118 32.394 43.398 33.573 42.111 C 36.245 41.128 38.749 40.437 41.078 40.005 C 39.346 41.84 38.031 43.588 37.191 44.696 Z " fill-rule="evenodd" fill="rgb(50,136,186)"/></g></g></svg>