<?xml version="1.0" standalone="no"?><!-- Generator: Gravit.io --><svg xmlns="http://www.w3.org/2000/svg" xmlns:xlink="http://www.w3.org/1999/xlink" style="isolation:isolate" viewBox="0 0 105 120" width="105" height="120"><defs><clipPath id="_clipPath_ZVI2xCX0iw56bcWw2LYa1wWHdzP0UAXU"><rect width="105" height="120"/></clipPath></defs><g clip-path="url(#_clipPath_ZVI2xCX0iw56bcWw2LYa1wWHdzP0UAXU)"><path d=" M 52.5 0 L 105 30 L 105 90 L 52.5 120 L 0 90 L 0 30 L 52.5 0 Z " fill="rgb(233,57,43)"/><path d=" M 69.613 85.979 C 61.685 90.56 50.786 91.03 39.819 86.33 C 30.941 82.552 23.575 75.94 18.853 68.384 C 21.119 70.274 23.763 71.784 26.597 73.109 C 37.92 78.415 49.243 78.053 57.21 73.119 C 57.205 73.117 57.202 73.111 57.199 73.109 C 45.865 64.418 36.231 53.084 29.053 43.828 C 27.541 42.319 26.409 40.428 25.275 38.728 C 33.963 46.662 47.753 56.675 52.665 59.506 C 42.275 48.55 33.019 34.95 33.397 35.328 C 49.831 51.95 65.131 61.396 65.131 61.396 C 65.639 61.682 66.028 61.919 66.344 62.131 C 66.676 61.288 66.964 60.414 67.209 59.506 C 69.855 49.875 66.831 38.919 60.221 29.85 C 75.521 39.106 84.589 56.484 80.811 71.03 C 80.711 71.422 80.605 71.808 80.488 72.189 C 80.531 72.244 80.575 72.298 80.621 72.352 C 88.177 81.796 86.099 91.808 85.155 89.918 C 81.056 81.899 73.467 84.353 69.613 85.979 Z " fill="rgb(254,254,254)"/></g></svg>