<?xml version="1.0" standalone="no"?><!-- Generator: Gravit.io --><svg xmlns="http://www.w3.org/2000/svg" xmlns:xlink="http://www.w3.org/1999/xlink" style="isolation:isolate" viewBox="0 0 105 120" width="105" height="120"><defs><clipPath id="_clipPath_c6X1Ov6hDDi97vC5Ompkk0ZxpU04bEv0"><rect width="105" height="120"/></clipPath></defs><g clip-path="url(#_clipPath_c6X1Ov6hDDi97vC5Ompkk0ZxpU04bEv0)"><path d=" M 52.5 0 L 105 30 L 105 90 L 52.5 120 L 0 90 L 0 30 L 52.5 0 Z " fill="rgb(92,78,229)"/><g><path d=" M 43.886 39.935 L 61.106 49.88 L 61.106 69.769 L 43.886 59.825 L 43.886 39.935 Z " fill-rule="evenodd" fill="rgb(255,255,255)"/><path d=" M 62.994 49.88 L 62.994 69.769 L 80.223 59.825 L 80.223 39.935 L 62.994 49.88 Z " fill-rule="evenodd" fill="rgb(255,255,255)"/><path d=" M 24.777 28.835 L 24.777 48.724 L 41.998 58.669 L 41.998 38.779 L 24.777 28.835 Z " fill-rule="evenodd" fill="rgb(255,255,255)"/><path d=" M 43.886 81.887 L 61.106 91.832 L 61.106 72.081 L 61.106 71.951 L 43.886 62.006 L 43.886 81.887 Z " fill-rule="evenodd" fill="rgb(255,255,255)"/></g></g></svg>