<?xml version="1.0" standalone="no"?><!-- Generator: Gravit.io --><svg xmlns="http://www.w3.org/2000/svg" xmlns:xlink="http://www.w3.org/1999/xlink" style="isolation:isolate" viewBox="0 0 105 120" width="105" height="120"><defs><clipPath id="_clipPath_47HXQ1peLRWDdXIftRLxaIMeEfSyIfsE"><rect width="105" height="120"/></clipPath></defs><g clip-path="url(#_clipPath_47HXQ1peLRWDdXIftRLxaIMeEfSyIfsE)"><path d=" M 52.5 0 L 105 30 L 105 90 L 52.5 120 L 0 90 L 0 30 L 52.5 0 Z " fill="rgb(0,122,204)"/><g><path d=" M 22.48 60 L 22.48 90.02 L 52.5 90.02 L 82.52 90.02 L 82.52 60 L 82.52 29.98 L 52.5 29.98 L 22.48 29.98 L 22.48 60 Z " fill="rgb(0,122,204)" vector-effect="non-scaling-stroke" stroke-width="0.572" stroke="rgb(255,255,255)" stroke-linejoin="miter" stroke-linecap="butt" stroke-miterlimit="4"/><path d=" M 35.757 60.199 L 35.738 62.658 L 39.645 62.658 L 43.553 62.658 L 43.553 73.76 L 43.553 84.863 L 46.317 84.863 L 49.08 84.863 L 49.08 73.76 L 49.08 62.658 L 52.988 62.658 L 56.895 62.658 L 56.895 60.247 C 56.895 58.913 56.866 57.798 56.828 57.769 C 56.8 57.731 52.044 57.712 46.278 57.721 L 35.786 57.75 L 35.757 60.199 Z " fill="rgb(255,255,255)"/><path d=" M 70.926 57.68 C 72.451 58.061 73.614 58.738 74.681 59.843 C 75.234 60.434 76.053 61.511 76.12 61.769 C 76.139 61.845 73.528 63.598 71.946 64.58 C 71.889 64.618 71.66 64.37 71.403 63.989 C 70.631 62.864 69.821 62.378 68.582 62.293 C 66.762 62.169 65.589 63.122 65.599 64.713 C 65.599 65.18 65.666 65.457 65.856 65.838 C 66.256 66.667 67 67.163 69.335 68.173 C 73.633 70.022 75.472 71.241 76.616 72.976 C 77.893 74.911 78.179 77.998 77.311 80.295 C 76.358 82.792 73.995 84.488 70.669 85.051 C 69.64 85.232 67.2 85.203 66.094 85.003 C 63.683 84.574 61.396 83.383 59.986 81.82 C 59.433 81.21 58.356 79.618 58.423 79.504 C 58.451 79.466 58.699 79.313 58.975 79.151 C 59.242 78.999 60.253 78.418 61.206 77.865 L 62.93 76.864 L 63.293 77.398 C 63.798 78.17 64.903 79.228 65.57 79.58 C 67.486 80.59 70.116 80.448 71.412 79.285 C 71.965 78.78 72.194 78.256 72.194 77.484 C 72.194 76.788 72.108 76.483 71.746 75.959 C 71.279 75.292 70.326 74.729 67.619 73.557 C 64.522 72.223 63.188 71.394 61.968 70.079 C 61.263 69.316 60.596 68.097 60.319 67.077 C 60.091 66.229 60.033 64.103 60.214 63.246 C 60.853 60.253 63.112 58.166 66.371 57.547 C 67.429 57.347 69.887 57.423 70.926 57.68 Z " fill="rgb(255,255,255)"/></g></g></svg>