<?xml version="1.0" standalone="no"?><!-- Generator: Gravit.io --><svg xmlns="http://www.w3.org/2000/svg" xmlns:xlink="http://www.w3.org/1999/xlink" style="isolation:isolate" viewBox="0 0 105 120" width="105" height="120"><defs><clipPath id="_clipPath_AhrO5VqhiCrE1lQuUUGZUpeFeRJyHRo1"><rect width="105" height="120"/></clipPath></defs><g clip-path="url(#_clipPath_AhrO5VqhiCrE1lQuUUGZUpeFeRJyHRo1)"><g><path d=" M 105 89.971 L 52.5 120 L 0 89.971 L 0 29.971 L 52.5 0 L 105 29.971 L 105 89.971 Z " fill="rgb(221,72,20)"/><path d=" M 14.561 52.451 C 10.346 52.451 6.932 55.831 6.932 60.002 C 6.932 64.171 10.346 67.55 14.561 67.55 C 18.773 67.55 22.188 64.171 22.188 60.002 C 22.188 55.831 18.773 52.451 14.561 52.451 L 14.561 52.451 L 14.561 52.451 Z  M 69.02 86.762 C 65.371 88.847 64.12 93.462 66.228 97.07 C 68.333 100.681 72.995 101.919 76.643 99.833 C 80.291 97.75 81.542 93.136 79.435 89.525 C 77.33 85.916 72.665 84.678 69.02 86.762 L 69.02 86.762 L 69.02 86.762 Z  M 31.128 60.002 C 31.128 52.541 34.872 45.95 40.601 41.959 L 35.025 32.715 C 28.352 37.13 23.386 43.877 21.323 51.778 C 23.731 53.723 25.272 56.683 25.272 60.001 C 25.272 63.318 23.731 66.278 21.323 68.222 C 23.384 76.126 28.349 82.873 35.025 87.288 L 40.601 78.042 C 34.872 74.053 31.128 67.462 31.128 60.002 L 31.128 60.002 Z  M 53.407 37.949 C 65.046 37.949 74.595 46.782 75.597 58.046 L 86.465 57.887 C 85.931 49.571 82.26 42.106 76.621 36.617 C 73.72 37.701 70.37 37.535 67.475 35.883 C 64.575 34.226 62.756 31.432 62.259 28.398 C 59.44 27.628 56.473 27.207 53.406 27.207 C 48.134 27.207 43.149 28.432 38.722 30.601 L 44.022 40.001 C 46.873 38.687 50.054 37.949 53.407 37.949 L 53.407 37.949 Z  M 53.407 82.052 C 50.054 82.052 46.873 81.313 44.023 80 L 38.723 89.4 C 43.149 91.571 48.134 92.797 53.407 92.797 C 56.474 92.797 59.441 92.375 62.259 91.603 C 62.756 88.569 64.576 85.777 67.475 84.118 C 70.373 82.463 73.721 82.3 76.621 83.385 C 82.261 77.895 85.931 70.43 86.466 62.114 L 75.595 61.956 C 74.595 73.222 65.046 82.052 53.407 82.052 L 53.407 82.052 L 53.407 82.052 Z  M 69.017 33.237 C 72.665 35.322 77.328 34.087 79.432 30.476 C 81.539 26.866 80.292 22.251 76.643 20.165 C 72.995 18.082 68.333 19.32 66.225 22.93 C 64.12 26.539 65.371 31.154 69.017 33.237 L 69.017 33.237 L 69.017 33.237 Z " fill="rgb(255,255,255)"/></g></g></svg>