<?xml version="1.0" standalone="no"?><!-- Generator: Gravit.io --><svg xmlns="http://www.w3.org/2000/svg" xmlns:xlink="http://www.w3.org/1999/xlink" style="isolation:isolate" viewBox="0 0 105 120" width="105" height="120"><defs><clipPath id="_clipPath_zii4s92HApUv7jUxh5fFBf5Ayp4ssak5"><rect width="105" height="120"/></clipPath></defs><g clip-path="url(#_clipPath_zii4s92HApUv7jUxh5fFBf5Ayp4ssak5)"><path d=" M 52.5 0 L 105 30 L 105 90 L 52.5 120 L 0 90 L 0 30 L 52.5 0 Z " fill="rgb(34,44,55)"/><path d=" M 61.39 60.002 L 71.882 41.885 L 76.952 60.002 L 71.882 78.114 L 61.39 60.002 Z  M 56.277 62.944 L 66.77 81.058 L 48.495 76.376 L 35.293 62.944 L 56.277 62.944 Z  M 66.767 38.941 L 56.277 57.057 L 35.293 57.057 L 48.495 43.625 L 66.767 38.941 L 66.767 38.941 Z  M 81.745 53.836 L 75.344 30.024 L 51.454 36.406 L 47.917 42.623 L 40.741 42.572 L 23.255 60.003 L 40.741 77.431 L 40.742 77.431 L 47.915 77.378 L 51.457 83.595 L 75.344 89.976 L 81.745 66.168 L 78.11 60.002 L 81.745 53.837 L 81.745 53.836 Z " fill="rgb(255,255,255)"/></g></svg>