<?xml version="1.0" standalone="no"?><!-- Generator: Gravit.io --><svg xmlns="http://www.w3.org/2000/svg" xmlns:xlink="http://www.w3.org/1999/xlink" style="isolation:isolate" viewBox="0 0 105 120" width="105" height="120"><defs><clipPath id="_clipPath_VCkR6rMiTgY4wkYhzGxfeRLwpaLCcyl3"><rect width="105" height="120"/></clipPath></defs><g clip-path="url(#_clipPath_VCkR6rMiTgY4wkYhzGxfeRLwpaLCcyl3)"><path d=" M 52.5 0 L 105 30 L 105 90 L 52.5 120 L 0 90 L 0 30 L 52.5 0 Z " fill="rgb(132,198,255)"/><g><path d=" M 81.51 34.627 L 68.229 42.213 L 67.855 46.919 L 57.769 69.69 L 51.774 73.649 L 52.5 89.991 L 63.805 83.474 L 81.51 40.121 L 81.51 34.627 Z " fill="rgb(17,89,204)"/><path d=" M 44.589 43.004 L 44.589 37.781 L 44.535 37.75 L 35.751 42.11 L 36.126 47.367 L 47.089 71.228 L 53.027 67.871 L 52.5 61.461 L 44.589 43.004 Z " fill="rgb(17,89,204)"/><path d=" M 73.599 30.009 L 60.419 37.727 L 60.411 37.727 L 60.411 37.735 L 60.411 37.735 L 60.411 37.735 L 60.411 43.004 L 52.5 61.461 L 52.5 67.628 L 47.223 70.689 L 36.678 46.932 L 36.678 42.291 L 44.589 37.735 L 31.401 30.009 L 23.49 34.627 L 23.49 40.284 L 41.296 83.528 L 52.5 89.991 L 52.5 73.75 L 57.769 70.689 L 57.707 70.65 L 68.322 46.932 L 68.322 42.299 L 68.322 42.291 L 81.51 34.627 L 73.599 30.009 Z " fill="rgb(18,126,255)"/></g></g></svg>