<?xml version="1.0" standalone="no"?><!-- Generator: Gravit.io --><svg xmlns="http://www.w3.org/2000/svg" xmlns:xlink="http://www.w3.org/1999/xlink" style="isolation:isolate" viewBox="0 0 105 120" width="105" height="120"><defs><clipPath id="_clipPath_LZ5DmTH81ONDzrLmDAspNEXFpZj96yee"><rect width="105" height="120"/></clipPath></defs><g clip-path="url(#_clipPath_LZ5DmTH81ONDzrLmDAspNEXFpZj96yee)"><path d=" M 52.5 0 L 105 30 L 105 90 L 52.5 120 L 0 90 L 0 30 L 52.5 0 Z " fill="rgb(162,162,162)"/><path d=" M 19.692 27.192 L 52.386 92.808 L 85.308 27.192 L 19.692 27.192 Z  M 56.276 40.364 L 60.082 40.364 L 60.082 44.145 L 56.276 44.145 L 56.276 40.364 Z  M 48.698 55.622 L 44.892 55.622 L 44.892 51.774 L 48.698 51.774 L 48.698 55.622 Z  M 48.698 49.917 L 44.892 49.917 L 44.892 46.069 L 48.698 46.069 L 48.698 49.917 Z  M 48.698 44.213 L 44.892 44.213 L 44.892 40.364 L 48.698 40.364 L 48.698 44.213 Z  M 54.445 61.284 L 50.597 61.284 L 50.597 57.478 L 54.445 57.478 L 54.445 61.284 Z  M 54.445 55.58 L 50.597 55.58 L 50.597 51.774 L 54.445 51.774 L 54.445 55.58 Z  M 54.445 49.875 L 50.597 49.875 L 50.597 46.069 L 54.445 46.069 L 54.445 49.875 Z  M 54.445 44.145 L 50.597 44.145 L 50.597 40.364 L 54.445 40.364 L 54.445 44.145 Z  M 56.319 46.043 L 60.125 46.043 L 60.125 49.849 L 56.276 49.849 L 56.319 46.043 Z  M 56.319 55.554 L 56.319 51.774 L 60.125 51.774 L 60.125 55.58 L 56.319 55.554 Z " fill="rgb(0,0,0)"/></g></svg>