<?xml version="1.0" standalone="no"?><!-- Generator: Gravit.io --><svg xmlns="http://www.w3.org/2000/svg" xmlns:xlink="http://www.w3.org/1999/xlink" style="isolation:isolate" viewBox="0 0 105 120" width="105" height="120"><defs><clipPath id="_clipPath_iRGBlN8971kSwqCUuZMeUPoGC1xSmpNe"><rect width="105" height="120"/></clipPath></defs><g clip-path="url(#_clipPath_iRGBlN8971kSwqCUuZMeUPoGC1xSmpNe)"><g><path d=" M 105 89.971 L 52.5 120 L 0 89.971 L 0 29.971 L 52.5 0 L 105 29.971 L 105 89.971 Z " fill="rgb(22,121,168)"/><path d=" M 5.95 86.574 L 5.95 33.375 L 52.5 6.8 L 99.05 33.375 L 99.05 86.574 L 52.5 113.2 L 5.95 86.574 Z " fill="rgb(255,255,255)"/><path d=" M 26.456 99.57 L 0.587 84.36 L 0.545 75.815 L 0.503 67.27 L 17.839 67.27 L 35.174 67.27 L 35.563 66.875 C 35.986 66.444 36.016 66.343 36.289 64.402 C 36.811 60.688 38.387 55.48 40.058 51.947 C 43.979 43.661 49.557 38.576 57.055 36.455 C 58.544 36.033 61.755 35.43 61.876 35.549 C 61.899 35.571 61.707 36.062 61.451 36.64 C 59.116 41.899 58.454 49.071 59.666 55.988 C 60.407 60.22 62.2 65.941 63.06 66.82 L 63.501 67.27 L 83.985 67.27 L 104.468 67.27 L 104.426 75.824 L 104.385 84.378 L 78.516 99.584 C 64.288 107.947 52.574 114.787 52.486 114.785 C 52.397 114.782 40.683 107.936 26.456 99.57 L 26.456 99.57 Z " fill="rgb(22,121,168)"/><path d=" M 9.383 84.256 L 6.547 72.483 L 7.998 72.483 L 9.624 80.2 C 9.799 81.009 9.95 81.812 10.076 82.609 C 10.348 81.351 10.508 80.626 10.557 80.433 L 12.591 72.483 L 14.297 72.483 L 15.828 78.441 C 16.212 79.919 16.489 81.308 16.659 82.609 C 16.795 81.865 16.973 81.011 17.192 80.048 L 18.868 72.483 L 20.29 72.483 L 17.359 84.256 L 15.996 84.256 L 13.743 75.285 C 13.553 74.536 13.442 74.075 13.408 73.904 C 13.296 74.445 13.191 74.905 13.094 75.285 L 10.827 84.256 L 9.383 84.256 L 9.383 84.256 Z  M 21.843 84.256 L 21.843 72.483 L 23.257 72.483 L 23.257 84.256 L 21.843 84.256 Z  M 25.765 84.256 L 25.765 72.483 L 30.504 72.483 C 31.457 72.483 32.181 72.588 32.677 72.8 C 33.173 73.011 33.569 73.385 33.865 73.92 C 34.162 74.456 34.31 75.047 34.31 75.695 C 34.31 76.53 34.064 77.234 33.574 77.807 C 33.083 78.38 32.324 78.744 31.299 78.899 C 31.673 79.097 31.957 79.293 32.152 79.485 C 32.565 79.903 32.956 80.425 33.326 81.051 L 35.185 84.256 L 33.406 84.256 L 31.991 81.806 C 31.578 81.1 31.238 80.559 30.971 80.184 C 30.703 79.809 30.464 79.547 30.253 79.397 C 30.041 79.247 29.826 79.143 29.607 79.084 C 29.447 79.046 29.185 79.028 28.82 79.028 L 27.18 79.028 L 27.18 84.256 L 25.765 84.256 L 25.765 84.256 Z  M 27.18 77.679 L 30.22 77.679 C 30.866 77.679 31.372 77.605 31.736 77.458 C 32.101 77.31 32.378 77.075 32.567 76.751 C 32.757 76.427 32.852 76.075 32.852 75.695 C 32.852 75.138 32.668 74.68 32.301 74.322 C 31.934 73.963 31.355 73.784 30.563 73.784 L 27.18 73.784 L 27.18 77.679 L 27.18 77.679 Z  M 36.563 84.256 L 36.563 72.483 L 44.291 72.483 L 44.291 73.872 L 37.977 73.872 L 37.977 77.478 L 43.89 77.478 L 43.89 78.859 L 37.977 78.859 L 37.977 82.866 L 44.539 82.866 L 44.539 84.256 L 36.563 84.256 L 36.563 84.256 Z  M 45.895 80.425 L 47.994 80.2 C 48.121 80.977 48.377 81.547 48.764 81.911 C 49.15 82.275 49.671 82.457 50.327 82.457 C 51.022 82.457 51.546 82.295 51.899 81.971 C 52.251 81.647 52.427 81.268 52.427 80.835 C 52.427 80.556 52.353 80.319 52.205 80.124 C 52.056 79.929 51.798 79.759 51.428 79.614 C 51.176 79.518 50.6 79.346 49.7 79.1 C 48.544 78.784 47.732 78.396 47.265 77.936 C 46.609 77.288 46.281 76.498 46.281 75.566 C 46.281 74.967 46.435 74.406 46.744 73.884 C 47.053 73.362 47.497 72.964 48.078 72.691 C 48.659 72.418 49.36 72.282 50.182 72.282 C 51.523 72.282 52.533 72.606 53.211 73.254 C 53.889 73.901 54.245 74.766 54.279 75.848 L 52.121 75.952 C 52.029 75.347 51.83 74.912 51.527 74.647 C 51.223 74.382 50.767 74.249 50.16 74.249 C 49.533 74.249 49.042 74.391 48.687 74.675 C 48.459 74.857 48.344 75.101 48.344 75.406 C 48.344 75.684 48.451 75.922 48.665 76.121 C 48.937 76.372 49.598 76.635 50.648 76.908 C 51.698 77.181 52.474 77.463 52.978 77.755 C 53.481 78.047 53.874 78.445 54.159 78.951 C 54.443 79.457 54.585 80.082 54.585 80.827 C 54.585 81.501 54.415 82.133 54.075 82.722 C 53.735 83.311 53.253 83.749 52.631 84.035 C 52.009 84.321 51.234 84.465 50.306 84.465 C 48.954 84.465 47.917 84.121 47.192 83.433 C 46.468 82.745 46.036 81.742 45.895 80.425 L 45.895 80.425 L 45.895 80.425 Z  M 56.422 84.256 L 56.422 72.483 L 58.58 72.483 L 58.58 77.116 L 62.809 77.116 L 62.809 72.483 L 64.967 72.483 L 64.967 84.256 L 62.809 84.256 L 62.809 79.108 L 58.58 79.108 L 58.58 84.256 L 56.422 84.256 Z  M 76.843 84.256 L 74.496 84.256 L 73.563 81.582 L 69.29 81.582 L 68.408 84.256 L 66.119 84.256 L 70.282 72.483 L 72.564 72.483 L 76.843 84.256 Z  M 72.87 79.598 L 71.397 75.229 L 69.954 79.598 L 72.87 79.598 L 72.87 79.598 Z  M 78.003 84.256 L 78.003 72.483 L 82.545 72.483 C 83.687 72.483 84.517 72.588 85.034 72.8 C 85.552 73.011 85.966 73.387 86.277 73.928 C 86.588 74.469 86.744 75.087 86.744 75.783 C 86.744 76.667 86.508 77.396 86.037 77.972 C 85.565 78.547 84.861 78.91 83.923 79.06 C 84.389 79.36 84.774 79.689 85.078 80.048 C 85.382 80.406 85.791 81.043 86.307 81.959 L 87.612 84.256 L 85.031 84.256 L 83.471 81.694 C 82.916 80.778 82.537 80.202 82.333 79.963 C 82.129 79.725 81.913 79.562 81.684 79.473 C 81.456 79.385 81.094 79.341 80.598 79.341 L 80.161 79.341 L 80.161 84.256 L 78.003 84.256 L 78.003 84.256 Z  M 80.161 77.462 L 81.757 77.462 C 82.793 77.462 83.439 77.414 83.697 77.317 C 83.954 77.221 84.156 77.055 84.302 76.819 C 84.447 76.584 84.52 76.289 84.52 75.936 C 84.52 75.54 84.424 75.22 84.232 74.976 C 84.04 74.733 83.769 74.579 83.42 74.514 C 83.245 74.488 82.72 74.474 81.845 74.474 L 80.161 74.474 L 80.161 77.462 L 80.161 77.462 Z  M 88.815 84.256 L 88.815 72.483 L 90.973 72.483 L 90.973 77.711 L 95.332 72.483 L 98.234 72.483 L 94.21 77.068 L 98.453 84.256 L 95.66 84.256 L 92.722 78.731 L 90.973 80.698 L 90.973 84.256 L 88.815 84.256 L 88.815 84.256 Z " fill="rgb(0,0,0)"/></g></g></svg>