<?xml version="1.0" standalone="no"?><!-- Generator: Gravit.io --><svg xmlns="http://www.w3.org/2000/svg" xmlns:xlink="http://www.w3.org/1999/xlink" style="isolation:isolate" viewBox="0 0 105 120" width="105" height="120"><defs><clipPath id="_clipPath_2YnAsKyJnxRZ1pxgSd5javkwD5APqD84"><rect width="105" height="120"/></clipPath></defs><g clip-path="url(#_clipPath_2YnAsKyJnxRZ1pxgSd5javkwD5APqD84)"><path d=" M 52.5 0 L 105 30 L 105 90 L 52.5 120 L 0 90 L 0 30 L 52.5 0 Z " fill="rgb(97,152,181)"/><g><g><ellipse vector-effect="non-scaling-stroke" cx="0" cy="0" rx="1" ry="1" transform="matrix(1.82,0,0,0.854,63.479,81.175)" fill="rgb(51,30,9)" stroke-width="0.083" stroke="rgb(0,0,0)" stroke-linejoin="miter" stroke-linecap="butt" stroke-miterlimit="10"/><path d=" M 49.858 77.794 C 49.858 77.794 50.583 80.885 50.679 81.803 C 50.776 82.721 52.612 83.156 52.805 82.093 C 52.998 81.03 53.674 78.422 53.674 78.422 L 49.858 77.794 Z " fill="rgb(249,200,154)" vector-effect="non-scaling-stroke" stroke-width="0.083" stroke="rgb(0,0,0)" stroke-linejoin="miter" stroke-linecap="butt" stroke-miterlimit="10"/><path d=" M 61.403 78.47 C 61.403 78.47 62.368 80.789 62.368 82.093 C 62.368 83.397 64.687 83.59 64.88 82.721 C 65.073 81.851 65.363 78.422 65.363 78.422 L 61.403 78.47 Z " fill="rgb(249,200,154)" vector-effect="non-scaling-stroke" stroke-width="0.083" stroke="rgb(0,0,0)" stroke-linejoin="miter" stroke-linecap="butt" stroke-miterlimit="10"/><path d=" M 52.692 80.547 C 52.306 80.708 51.211 80.837 50.792 80.676 C 50.374 80.515 50.825 82.189 50.953 82.705 C 51.082 83.22 52.434 83.124 52.434 83.124 L 52.692 80.547 Z " fill="rgb(161,88,19)" vector-effect="non-scaling-stroke" stroke-width="0.083" stroke="rgb(0,0,0)" stroke-linejoin="miter" stroke-linecap="butt" stroke-miterlimit="10"/><ellipse vector-effect="non-scaling-stroke" cx="0" cy="0" rx="1" ry="1" transform="matrix(0.809,0,0,1.932,50.402,81.875)" fill="rgb(79,46,14)" stroke-width="0.083" stroke="rgb(0,0,0)" stroke-linejoin="miter" stroke-linecap="butt" stroke-miterlimit="10"/><ellipse vector-effect="non-scaling-stroke" cx="0" cy="0" rx="1" ry="1" transform="matrix(0.833,0,0,1.896,52.938,82.081)" fill="rgb(79,46,14)" stroke-width="0.083" stroke="rgb(0,0,0)" stroke-linejoin="miter" stroke-linecap="butt" stroke-miterlimit="10"/><path d=" M 47.274 87.478 C 47.274 87.478 47.274 86.464 47.25 85.208 C 47.226 83.953 48.554 82.359 51.259 82.431 C 53.964 82.503 55.22 84.001 55.22 85.45 C 55.22 86.899 55.099 88.058 54.954 88.348 C 54.809 88.638 47.878 88.734 47.612 88.469 C 47.347 88.203 47.274 87.478 47.274 87.478 Z " fill="rgb(158,86,19)" vector-effect="non-scaling-stroke" stroke-width="0.083" stroke="rgb(0,0,0)" stroke-linejoin="miter" stroke-linecap="butt" stroke-miterlimit="10"/><path d=" M 47.274 89.435 C 46.816 89.314 46.646 88.831 46.622 88.372 C 46.598 87.913 46.985 87.527 47.274 87.478 C 47.492 87.768 47.926 87.889 48.313 87.962 C 48.699 88.034 53.65 88.082 54.229 88.034 C 54.809 87.986 54.954 87.648 55.051 87.503 C 55.461 87.648 55.63 88.082 55.654 88.493 C 55.679 88.904 55.485 89.29 55.075 89.435 C 54.664 89.58 52.491 89.918 50.993 89.894 C 49.496 89.869 47.274 89.435 47.274 89.435 Z " fill="rgb(79,46,14)" vector-effect="non-scaling-stroke" stroke-width="0.083" stroke="rgb(0,0,0)" stroke-linejoin="miter" stroke-linecap="butt" stroke-miterlimit="10"/><path d=" M 65.291 81.61 C 65.291 81.61 63.986 82.383 62.32 81.803 C 61.233 81.658 60.944 81.658 60.967 82.19 C 60.992 82.721 61.137 84.17 60.63 84.774 C 60.122 85.377 59.591 86.947 60.364 87.672 C 61.137 88.396 72.318 88.324 72.753 88.203 C 73.187 88.082 73.453 87.309 73.453 87.309 C 73.453 87.309 73.598 85.667 73.55 84.798 C 73.501 83.928 72.294 82.334 70.241 82.407 C 68.188 82.48 67.343 83.928 66.425 84.122 C 65.652 83.397 65.363 82.552 65.363 82.383 C 65.363 82.214 65.291 81.61 65.291 81.61 Z " fill="rgb(158,86,19)" vector-effect="non-scaling-stroke" stroke-width="0.083" stroke="rgb(0,0,0)" stroke-linejoin="miter" stroke-linecap="butt" stroke-miterlimit="10"/><path d=" M 62.791 84.254 C 63.515 84.254 64.035 83.928 64.095 83.18 C 64.155 82.431 63.974 82.02 63.443 81.984 C 62.912 81.948 62.26 81.839 61.946 81.634 C 61.632 81.429 61.595 81.054 61.728 80.897 C 61.861 80.74 62.091 80.596 62.091 80.596 L 62.006 80.366 C 62.006 80.366 60.811 80.825 60.919 82.105 C 61.028 83.385 61.668 84.254 62.791 84.254 Z " fill="rgb(79,46,14)" vector-effect="non-scaling-stroke" stroke-width="0.083" stroke="rgb(0,0,0)" stroke-linejoin="miter" stroke-linecap="butt" stroke-miterlimit="10"/><path d=" M 64.107 81.984 C 64.506 82.141 64.59 82.443 64.53 82.769 C 64.469 83.095 64.337 84.037 65.025 84.001 C 65.713 83.965 65.894 82.624 65.834 82.009 C 65.773 81.393 65.375 80.801 65.194 80.656 C 65.17 80.753 65.158 80.837 65.158 80.837 C 65.158 80.837 65.295 80.934 65.299 81.175 C 65.302 81.417 64.892 81.875 64.107 81.984 Z " fill="rgb(79,46,14)" vector-effect="non-scaling-stroke" stroke-width="0.083" stroke="rgb(0,0,0)" stroke-linejoin="miter" stroke-linecap="butt" stroke-miterlimit="10"/><path d=" M 66.426 84.122 C 66.056 84.927 65.701 87.503 66.023 88.211" fill="none" vector-effect="non-scaling-stroke" stroke-width="0.083" stroke="rgb(0,0,0)" stroke-linejoin="miter" stroke-linecap="butt" stroke-miterlimit="10"/><path d=" M 60.364 87.672 C 60.364 87.672 59.808 88.01 59.857 88.541 C 59.905 89.072 60.316 89.193 60.919 89.338 C 61.523 89.483 67.247 89.652 68.285 89.7 C 69.323 89.749 72.874 89.483 73.477 89.242 C 74.081 89 74.613 87.937 73.453 87.309 C 72.994 87.817 72.632 87.913 71.883 88.01 C 71.135 88.106 67.633 88.131 66.184 88.082 C 64.735 88.034 61.233 87.986 60.871 87.962 C 60.509 87.937 60.364 87.672 60.364 87.672 Z " fill="rgb(79,46,14)" vector-effect="non-scaling-stroke" stroke-width="0.083" stroke="rgb(0,0,0)" stroke-linejoin="miter" stroke-linecap="butt" stroke-miterlimit="10"/></g><g><path d=" M 57.804 43.911 C 57.635 44.104 56.838 45.022 57.224 45.795 C 57.611 46.568 59.808 49.949 59.808 49.949 C 59.808 49.949 64.663 47.486 64.518 46.326 C 64.373 45.167 63.383 43.791 63.383 43.791 L 57.804 43.911 Z " fill="rgb(249,200,154)" vector-effect="non-scaling-stroke" stroke-width="0.083" stroke="rgb(0,0,0)" stroke-linejoin="miter" stroke-linecap="butt" stroke-miterlimit="10"/><path d=" M 69.742 61.452 C 69.903 61.291 70.257 60.502 69.307 60.212 C 68.551 60.116 68.003 60.47 67.842 60.647 C 67.681 60.824 68.18 61.774 68.486 61.806 C 68.792 61.839 69.742 61.452 69.742 61.452 Z " fill="rgb(249,200,154)" vector-effect="non-scaling-stroke" stroke-width="0.083" stroke="rgb(0,0,0)" stroke-linejoin="miter" stroke-linecap="butt" stroke-miterlimit="10"/><path d=" M 70.402 62.322 C 70.547 62.113 70.853 61.581 70.145 61.227 C 69.436 60.873 68.486 61.243 68.245 61.613 C 68.003 61.984 68.647 62.805 68.776 62.805 C 68.905 62.805 70.402 62.322 70.402 62.322 Z " fill="rgb(249,200,154)" vector-effect="non-scaling-stroke" stroke-width="0.083" stroke="rgb(0,0,0)" stroke-linejoin="miter" stroke-linecap="butt" stroke-miterlimit="10"/><path d=" M 68.816 58.426 L 67.923 59.995 C 67.923 59.995 68.422 60.648 68.615 61.469 C 68.808 62.29 68.486 62.579 68.76 62.531 C 69.034 62.483 70.628 62.048 70.934 62.241 C 71.239 62.435 71.658 63.223 71.368 63.755 C 71.078 64.286 70.241 65.381 69.066 65.671 C 67.891 65.96 66.474 65.429 65.942 64.688 C 65.411 63.948 64.574 61.565 64.542 61.146 C 64.51 60.728 65.073 59.456 65.073 59.456 L 67.263 58.474 L 68.816 58.426 Z " fill="rgb(249,200,154)" vector-effect="non-scaling-stroke" stroke-width="0.083" stroke="rgb(0,0,0)" stroke-linejoin="miter" stroke-linecap="butt" stroke-miterlimit="10"/><path d=" M 67.681 59.875 C 68.084 60.1 68.728 60.599 68.889 61.452 C 69.05 62.306 68.712 63.385 68.164 63.835" fill="rgb(249,200,154)" vector-effect="non-scaling-stroke" stroke-width="0.083" stroke="rgb(0,0,0)" stroke-linejoin="miter" stroke-linecap="butt" stroke-miterlimit="10"/><path d=" M 70.451 63.674 C 70.451 63.674 70.064 64.222 69.162 64.093 C 68.261 63.964 68.325 62.837 68.76 62.531 C 69.195 62.225 69.887 61.984 70.354 62.064 C 70.821 62.145 71.046 62.354 71.046 62.354" fill="rgb(249,200,154)" vector-effect="non-scaling-stroke" stroke-width="0.083" stroke="rgb(0,0,0)" stroke-linejoin="miter" stroke-linecap="butt" stroke-miterlimit="10"/><path d=" M 69.227 62.757 L 69.662 63.562 C 69.662 63.562 69.388 63.787 69.066 63.642 C 68.744 63.497 68.744 63.256 68.824 63.046 C 68.905 62.837 69.227 62.757 69.227 62.757 Z " fill="rgb(249,200,154)" vector-effect="non-scaling-stroke" stroke-width="0.083" stroke="rgb(0,0,0)" stroke-linejoin="miter" stroke-linecap="butt" stroke-miterlimit="10"/><path d=" M 65.926 45.336 C 65.926 45.336 67.714 46.278 68.004 47.437 C 68.873 47.727 69.895 49.003 69.799 49.937 C 70.733 50.323 71.147 50.865 71.147 51.476 C 71.663 51.927 72.433 53.083 71.499 54.758 C 70.566 56.432 70.017 57.59 70.017 57.59 L 66.281 57.267 L 65.959 56.14 L 67.698 52.919 C 67.698 52.919 66.925 51.664 66.023 51.631 C 65.798 52.597 65.573 53.982 65.573 53.982 L 65.669 59.295 L 65.186 59.585 L 65.09 60.776 L 66.281 63.256 L 66.7 63.642 L 65.605 65.349 L 65.863 65.832 L 67.344 69.47 L 67.311 69.921 L 68.181 71.048 L 68.149 71.531 L 68.632 72.723 L 67.698 74.848 L 67.118 76.007 L 67.666 77.681 C 67.666 77.681 66.152 79.066 63.641 79.034 C 61.129 79.002 59.422 77.713 59.422 77.713 L 58.94 77.424 C 58.94 77.424 59.487 74.268 59.358 72.497 C 59.229 70.726 58.843 68.053 58.843 67.442 C 58.843 66.83 58.682 65.091 58.682 65.091 C 58.682 65.091 58.456 68.794 58.424 70.662 C 58.392 72.529 58.134 75.073 57.812 75.588 C 57.49 76.104 57.136 76.264 57.136 76.264 L 57.49 76.877 L 57.587 77.617 L 57.2 78.1 L 56.492 77.907 C 56.492 77.907 55.107 79.517 52.596 79.227 C 50.084 78.937 48.539 77.682 48.377 76.651 C 47.798 76.232 47.734 75.943 47.734 75.943 L 49.376 74.043 L 48.442 73.495 L 49.215 72.111 C 49.215 72.111 49.762 70.758 49.859 70.307 C 49.955 69.856 50.245 68.762 50.245 68.762 L 49.44 68.794 L 50.76 66.733 L 50.664 65.316 L 53.079 60.197 L 52.982 59.359 L 52.658 58.908 L 52.394 57.121 L 52.564 56.155 C 52.564 56.155 53.399 55.141 53.495 54.304 C 53.592 53.466 53.094 52.629 53.094 52.629 L 47.451 56.332 L 46.643 56.397 L 44.322 57.427 L 43.774 57.202 C 43.774 57.202 43.58 56.88 43.516 56.365 C 43.451 55.849 43.515 53.531 43.709 53.209 C 43.902 52.887 44.352 52.887 44.352 52.887 C 44.352 52.887 45.093 52.758 45.673 52.372 C 46.252 51.985 49.827 49.345 50.696 48.669 C 51.565 47.992 54.592 45.384 54.592 45.384 C 54.592 45.384 55.623 44.579 56.202 44.386 C 56.782 44.193 57.168 44.225 57.168 44.225 L 57.2 46.994 L 59.808 49.949 L 62.642 48.25 L 64.896 46.157 L 65.926 45.336 Z " fill="rgb(109,151,88)" vector-effect="non-scaling-stroke" stroke-width="0.083" stroke="rgb(0,0,0)" stroke-linejoin="miter" stroke-linecap="butt" stroke-miterlimit="10"/><path d=" M 57.369 44.008 L 56.983 44.249 L 55.316 47.027 L 57.128 47.196 L 56.476 48.451 L 59.905 50.263 L 60.195 49.925 C 60.195 49.925 58.287 47.582 57.707 46.858 C 57.128 46.133 56.958 44.515 57.611 44.08 C 58.263 43.646 57.369 44.008 57.369 44.008 Z " fill="rgb(109,151,88)" vector-effect="non-scaling-stroke" stroke-width="0.083" stroke="rgb(0,0,0)" stroke-linejoin="miter" stroke-linecap="butt" stroke-miterlimit="10"/><path d=" M 58.915 50.637 L 64.095 49.774 L 63.485 47.567 L 65.701 47.848 L 65.894 45.288 L 63.6 43.815 L 63.383 43.791 C 63.383 43.791 63.938 44.515 63.962 45.409 C 63.986 46.302 63.165 46.978 62.489 47.558 C 61.813 48.137 58.915 50.637 58.915 50.637 Z " fill="rgb(109,151,88)" vector-effect="non-scaling-stroke" stroke-width="0.083" stroke="rgb(0,0,0)" stroke-linejoin="miter" stroke-linecap="butt" stroke-miterlimit="10"/><path d=" M 65.942 51.277 L 66.305 53.112 L 63.093 55.165 L 62.513 52.412 L 65.942 51.277 Z " fill="rgb(109,151,88)" vector-effect="non-scaling-stroke" stroke-width="0.083" stroke="rgb(0,0,0)" stroke-linejoin="miter" stroke-linecap="butt" stroke-miterlimit="10"/><path d=" M 58.81 50.697 L 58.939 58.2 L 58.359 60.325 L 58.327 62.386 L 58.231 64.415 L 58.681 65.091 L 59.905 64.801" fill="rgb(109,151,88)" vector-effect="non-scaling-stroke" stroke-width="0.083" stroke="rgb(0,0,0)" stroke-linejoin="miter" stroke-linecap="butt" stroke-miterlimit="10"/><path d=" M 60.259 59.875 L 60.388 60.776 L 62.288 61.13 L 62.159 60.036 L 60.259 59.875 Z " fill="rgb(109,151,88)" vector-effect="non-scaling-stroke" stroke-width="0.083" stroke="rgb(0,0,0)" stroke-linejoin="miter" stroke-linecap="butt" stroke-miterlimit="10"/><path d=" M 65.186 59.585 L 63.511 60.003 L 63.737 61.13 L 65.089 60.776" fill="rgb(109,151,88)" vector-effect="non-scaling-stroke" stroke-width="0.083" stroke="rgb(0,0,0)" stroke-linejoin="miter" stroke-linecap="butt" stroke-miterlimit="10"/><path d=" M 58.005 59.778 L 58.069 60.937 L 56.363 60.776 L 56.556 59.649 L 58.005 59.778 Z " fill="rgb(109,151,88)" vector-effect="non-scaling-stroke" stroke-width="0.083" stroke="rgb(0,0,0)" stroke-linejoin="miter" stroke-linecap="butt" stroke-miterlimit="10"/><path d=" M 52.982 59.359 L 55.075 59.424 L 54.978 60.615 L 53.078 60.325" fill="rgb(109,151,88)" vector-effect="non-scaling-stroke" stroke-width="0.083" stroke="rgb(0,0,0)" stroke-linejoin="miter" stroke-linecap="butt" stroke-miterlimit="10"/><path d=" M 53.078 52.63 L 56.588 55.367 L 57.651 52.758 L 53.884 51.181 L 53.078 52.63 Z " fill="rgb(109,151,88)" vector-effect="non-scaling-stroke" stroke-width="0.083" stroke="rgb(0,0,0)" stroke-linejoin="miter" stroke-linecap="butt" stroke-miterlimit="10"/><path d=" M 70.048 58.401 C 70.048 58.401 70.048 57.363 70.362 56.952 C 69.589 56.614 67.73 55.866 66.715 55.986 C 66.232 56.566 65.371 58.256 65.669 59.295 C 66.788 58.909 70.048 58.401 70.048 58.401 Z " fill="rgb(109,151,88)" vector-effect="non-scaling-stroke" stroke-width="0.083" stroke="rgb(0,0,0)" stroke-linejoin="miter" stroke-linecap="butt" stroke-miterlimit="10"/><path d=" M 45.632 52.243 L 46.743 53.861 L 47.443 55.672 C 47.443 55.672 47.008 56.276 46.526 56.493 C 46.042 56.711 44.32 57.427 44.32 57.427 L 43.772 57.202 C 43.772 57.202 44.28 56.88 44.352 55.045 C 44.424 53.209 43.966 52.968 43.966 52.968 L 45.052 52.557 L 45.632 52.243 Z " fill="rgb(109,151,88)" vector-effect="non-scaling-stroke" stroke-width="0.083" stroke="rgb(0,0,0)" stroke-linejoin="miter" stroke-linecap="butt" stroke-miterlimit="10"/><path d=" M 62.03 69.269 C 62.03 69.269 62.731 71.708 63.745 73.278 C 64.252 72.94 67.778 72.698 68.631 72.723" fill="rgb(109,151,88)" vector-effect="non-scaling-stroke" stroke-width="0.083" stroke="rgb(0,0,0)" stroke-linejoin="miter" stroke-linecap="butt" stroke-miterlimit="10"/><path d=" M 48.442 73.495 C 49.086 73.664 51.815 74.051 51.815 74.051 C 51.815 74.051 53.288 74.413 54.085 74.075 C 54.495 73.157 55.727 68.907 55.727 68.907 C 55.727 68.907 54.544 67.53 53.481 67.313 C 52.418 67.095 50.752 66.516 50.752 66.516" fill="none" vector-effect="non-scaling-stroke" stroke-width="0.083" stroke="rgb(0,0,0)" stroke-linejoin="miter" stroke-linecap="butt" stroke-miterlimit="10"/><path d=" M 50.245 68.762 C 50.824 68.689 53.698 68.762 55.341 69.945" fill="rgb(109,151,88)" vector-effect="non-scaling-stroke" stroke-width="0.083" stroke="rgb(0,0,0)" stroke-linejoin="miter" stroke-linecap="butt" stroke-miterlimit="10"/><line x1="49.375" y1="74.043" x2="49.834" y2="75.645" vector-effect="non-scaling-stroke" stroke-width="0.083" stroke="rgb(0,0,0)" stroke-linejoin="miter" stroke-linecap="butt" stroke-miterlimit="10"/><path d=" M 48.482 76.635 C 49.568 77.408 52.418 78.954 56.258 77.239" fill="rgb(109,151,88)" vector-effect="non-scaling-stroke" stroke-width="0.083" stroke="rgb(0,0,0)" stroke-linejoin="miter" stroke-linecap="butt" stroke-miterlimit="10"/><path d=" M 59.543 77.77 C 60.871 78.301 64.155 78.446 65.87 77.48" fill="none" vector-effect="non-scaling-stroke" stroke-width="0.083" stroke="rgb(0,0,0)" stroke-linejoin="miter" stroke-linecap="butt" stroke-miterlimit="10"/><path d=" M 65.194 77.215 C 66.908 77.77 69.396 77.867 69.686 77.263 C 69.976 76.659 67.118 76.007 67.118 76.007" fill="rgb(109,151,88)" vector-effect="non-scaling-stroke" stroke-width="0.083" stroke="rgb(0,0,0)" stroke-linejoin="miter" stroke-linecap="butt" stroke-miterlimit="10"/><path d=" M 63.89 76.128 C 65.991 76.442 68.358 76.031 68.358 75.307 C 68.358 74.582 65.121 74.679 65.121 74.679" fill="rgb(109,151,88)" vector-effect="non-scaling-stroke" stroke-width="0.083" stroke="rgb(0,0,0)" stroke-linejoin="miter" stroke-linecap="butt" stroke-miterlimit="10"/><path d=" M 65.773 65.767 C 66.474 66.613 67.005 67.41 67.609 67.603 C 66.16 67.844 62.682 68.569 62.151 69.172 C 61.91 68.617 61.716 68.327 61.403 68.11 C 62.03 67.265 65.773 65.767 65.773 65.767 Z " fill="rgb(109,151,88)" vector-effect="non-scaling-stroke" stroke-width="0.083" stroke="rgb(0,0,0)" stroke-linejoin="miter" stroke-linecap="butt" stroke-miterlimit="10"/><path d=" M 44.111 53.426 C 43.241 53.33 41.454 52.967 40.802 51.277 C 40.392 50.432 39.715 50.287 39.401 50.069 C 38.991 49.707 38.411 49.442 37.59 49.562 C 36.769 49.683 35.465 49.49 34.644 49.007 C 33.823 48.524 32.953 48.838 32.663 49.248 C 32.374 49.659 32.349 50.238 32.639 50.552 C 32.929 50.866 33.122 51.06 33.122 51.06 C 33.122 51.06 31.987 51.229 31.89 52.074 C 31.794 52.919 32.398 53.33 32.784 53.499 C 33.17 53.668 33.508 53.692 33.508 53.692 C 33.508 53.692 33.074 54.272 33.388 54.827 C 33.701 55.383 34.474 55.624 34.474 55.624 C 34.474 55.624 34.837 56.131 35.223 56.204 C 35.61 56.276 37.952 56.397 37.952 56.397 C 37.952 56.397 38.918 56.035 39.474 55.987 C 40.029 55.938 41.333 55.914 41.768 56.107 C 42.203 56.3 44.11 56.349 44.11 56.349 C 44.11 56.349 44.352 55.31 44.328 54.755 C 44.304 54.199 44.111 53.426 44.111 53.426 Z " fill="rgb(249,200,154)" vector-effect="non-scaling-stroke" stroke-width="0.083" stroke="rgb(0,0,0)" stroke-linejoin="miter" stroke-linecap="butt" stroke-miterlimit="10"/><linearGradient id="_lgradient_9" x1="-0.000009183500711218429" y1="0.4999985909737781" x2="0.9999900804876023" y2="0.4999985909737781" gradientTransform="matrix(12.658,0,0,11.785,30.86,78.196)" gradientUnits="userSpaceOnUse"><stop offset="0%" stop-opacity="1" style="stop-color:rgb(68,43,31)"/><stop offset="100%" stop-opacity="1" style="stop-color:rgb(68,43,31)"/></linearGradient><path d=" M 40.617 79.13 C 39.297 79.259 32.277 79.034 30.86 78.196 C 30.957 83.027 32.309 87.309 33.179 88.243 C 34.048 89.177 36.753 89.982 39.555 89.982 C 42.356 89.982 44.073 89.14 43.354 88.018 C 41.229 84.701 40.617 79.13 40.617 79.13 Z " fill="url(#_lgradient_9)"/><linearGradient id="_lgradient_10" x1="-0.000016037206318486597" y1="0.5" x2="1" y2="0.5" gradientTransform="matrix(2.071,0,0,42.988,35.465,42.099)" gradientUnits="userSpaceOnUse"><stop offset="0%" stop-opacity="1" style="stop-color:rgb(200,176,145)"/><stop offset="19.869999999999997%" stop-opacity="1" style="stop-color:rgb(197,167,136)"/><stop offset="52.900000000000006%" stop-opacity="1" style="stop-color:rgb(188,142,110)"/><stop offset="94.78999999999999%" stop-opacity="1" style="stop-color:rgb(173,103,69)"/><stop offset="99.44%" stop-opacity="1" style="stop-color:rgb(171,98,64)"/></linearGradient><path d=" M 37.536 85.088 L 37.536 42.099 L 35.465 42.099 C 35.465 42.099 35.517 77.214 35.517 79.05 C 35.517 80.885 35.569 82.237 35.777 83.011 C 35.986 83.783 36.656 84.798 36.969 84.943 C 37.282 85.087 37.536 85.088 37.536 85.088 Z " fill="url(#_lgradient_10)" vector-effect="non-scaling-stroke" stroke-width="0.166" stroke="rgb(0,0,0)" stroke-linejoin="miter" stroke-linecap="butt" stroke-miterlimit="10"/><linearGradient id="_lgradient_11" x1="-3.552713678800501e-15" y1="0.5000270855904638" x2="1.0000278758595034" y2="0.5000270855904638" gradientTransform="matrix(1.787,0,0,3.065,35.626,79.878)" gradientUnits="userSpaceOnUse"><stop offset="0%" stop-opacity="1" style="stop-color:rgb(136,120,111)"/><stop offset="10.54%" stop-opacity="1" style="stop-color:rgb(128,111,102)"/><stop offset="28.060000000000002%" stop-opacity="1" style="stop-color:rgb(107,87,76)"/><stop offset="50.27%" stop-opacity="1" style="stop-color:rgb(73,48,35)"/><stop offset="62.19%" stop-opacity="1" style="stop-color:rgb(52,24,10)"/><stop offset="100%" stop-opacity="1" style="stop-color:rgb(62,35,22)"/></linearGradient><path d=" M 37.397 79.878 L 35.626 79.878 C 35.626 79.878 35.626 82.515 35.851 82.901 C 36.157 82.917 37.413 82.943 37.413 82.943 L 37.397 79.878 Z " fill="url(#_lgradient_11)"/><path d=" M 34.853 51.969 C 34.853 51.969 34.322 52.887 34.354 53.177 C 34.386 53.467 35.385 53.258 35.449 52.887 C 35.513 52.517 34.853 51.969 34.853 51.969 Z " fill="rgb(249,200,154)" vector-effect="non-scaling-stroke" stroke-width="0.083" stroke="rgb(0,0,0)" stroke-linejoin="miter" stroke-linecap="butt" stroke-miterlimit="10"/><path d=" M 35.368 56.252 C 35.803 56.276 36.6 56.325 36.89 55.938 C 37.179 55.552 37.88 55.189 37.88 54.755 C 37.88 54.32 37.759 54.079 37.324 53.74 C 36.89 53.402 34.764 54.224 34.644 54.441 C 34.523 54.658 34.354 55.262 34.426 55.431 C 34.499 55.6 34.644 55.914 34.861 56.059 C 35.078 56.204 35.368 56.252 35.368 56.252 Z " fill="rgb(249,200,154)" vector-effect="non-scaling-stroke" stroke-width="0.083" stroke="rgb(0,0,0)" stroke-linejoin="miter" stroke-linecap="butt" stroke-miterlimit="10"/><path d=" M 36.624 54.465 L 37.204 54.875 C 37.204 54.875 37.783 54.417 37.252 54.078 C 36.721 53.74 36.576 54.247 36.576 54.247 L 36.624 54.465 Z " fill="rgb(249,200,154)" vector-effect="non-scaling-stroke" stroke-width="0.083" stroke="rgb(0,0,0)" stroke-linejoin="miter" stroke-linecap="butt" stroke-miterlimit="10"/><path d=" M 34.145 55.511 C 34.434 55.592 34.402 55.785 35.143 55.592 C 35.883 55.399 36.721 54.755 36.962 54.175 C 37.204 53.595 35.851 52.645 35.288 52.774 C 34.724 52.903 33.758 53.37 33.509 53.692 C 33.259 54.014 33.211 54.642 33.372 54.883 C 33.533 55.125 34.145 55.511 34.145 55.511 Z " fill="rgb(249,200,154)" vector-effect="non-scaling-stroke" stroke-width="0.083" stroke="rgb(0,0,0)" stroke-linejoin="miter" stroke-linecap="butt" stroke-miterlimit="10"/><path d=" M 36.769 51.019 C 36.592 50.762 36.415 50.247 36.189 50.102 C 35.964 49.957 35.223 49.377 34.998 49.232 C 34.772 49.087 34.08 48.556 33.484 48.717 C 32.889 48.878 32.341 49.216 32.422 50.021 C 32.502 50.826 33.017 50.907 33.291 51.18 C 33.565 51.454 33.951 51.841 34.177 51.969 C 34.402 52.098 35.046 52.404 35.529 52.452 C 36.012 52.501 36.479 52.195 36.656 51.889 C 36.833 51.583 36.769 51.019 36.769 51.019 Z " fill="rgb(249,200,154)" vector-effect="non-scaling-stroke" stroke-width="0.083" stroke="rgb(0,0,0)" stroke-linejoin="miter" stroke-linecap="butt" stroke-miterlimit="10"/><path d=" M 35.819 50.537 L 34.998 51.889 C 34.998 51.889 35.894 52.219 36.222 51.728 C 36.672 51.052 35.819 50.537 35.819 50.537 Z " fill="rgb(249,200,154)" vector-effect="non-scaling-stroke" stroke-width="0.083" stroke="rgb(0,0,0)" stroke-linejoin="miter" stroke-linecap="butt" stroke-miterlimit="10"/><path d=" M 37.952 49.804 C 37.228 50.021 35.416 51.687 35.054 52.581 C 34.692 53.475 34.813 54.248 35.537 54.537 C 36.262 54.827 37.324 54.175 37.614 53.644 C 37.904 53.113 38.363 51.398 38.363 51.398" fill="rgb(249,200,154)" vector-effect="non-scaling-stroke" stroke-width="0.083" stroke="rgb(0,0,0)" stroke-linejoin="miter" stroke-linecap="butt" stroke-miterlimit="10"/><path d=" M 35.529 52.775 L 37.155 53.596 C 37.155 53.596 36.914 54.046 36.415 54.111 C 35.916 54.175 35.352 53.773 35.336 53.435 C 35.32 53.097 35.529 52.775 35.529 52.775 Z " fill="rgb(249,200,154)" vector-effect="non-scaling-stroke" stroke-width="0.083" stroke="rgb(0,0,0)" stroke-linejoin="miter" stroke-linecap="butt" stroke-miterlimit="10"/><path d=" M 38.009 52.63 C 38.17 52.919 39.055 53.757 39.538 53.805" fill="rgb(249,200,154)" vector-effect="non-scaling-stroke" stroke-width="0.083" stroke="rgb(0,0,0)" stroke-linejoin="miter" stroke-linecap="butt" stroke-miterlimit="10"/><path d=" M 39.393 55.994 C 39.731 55.914 39.957 55.721 40.166 55.56" fill="rgb(249,200,154)" vector-effect="non-scaling-stroke" stroke-width="0.083" stroke="rgb(0,0,0)" stroke-linejoin="miter" stroke-linecap="butt" stroke-miterlimit="10"/><linearGradient id="_lgradient_12" x1="-0.00006742179071750343" y1="0.49998651564185437" x2="1.0000674217907246" y2="0.49998651564185437" gradientTransform="matrix(2,0,0,2,-1,-1)" gradientUnits="userSpaceOnUse"><stop offset="0%" stop-opacity="1" style="stop-color:rgb(248,251,155)"/><stop offset="12.55%" stop-opacity="1" style="stop-color:rgb(245,248,146)"/><stop offset="33.43%" stop-opacity="1" style="stop-color:rgb(239,239,120)"/><stop offset="60.050000000000004%" stop-opacity="1" style="stop-color:rgb(227,225,79)"/><stop offset="91.08000000000001%" stop-opacity="1" style="stop-color:rgb(212,206,22)"/><stop offset="100%" stop-opacity="1" style="stop-color:rgb(207,200,4)"/></linearGradient><circle vector-effect="non-scaling-stroke" cx="0" cy="0" r="1" transform="matrix(0.616,0,0,0.616,60.352,51.555)" fill="url(#_lgradient_12)" stroke-width="0.083" stroke="rgb(0,0,0)" stroke-linejoin="miter" stroke-linecap="butt" stroke-miterlimit="10"/><circle vector-effect="non-scaling-stroke" cx="0" cy="0" r="1" transform="matrix(0.483,0,0,0.483,60.348,51.551)" fill="none" stroke-width="0.017" stroke="rgb(0,0,0)" stroke-linejoin="miter" stroke-linecap="butt" stroke-miterlimit="10"/><linearGradient id="_lgradient_13" x1="0.00005393743257542383" y1="0.49997303128370874" x2="0.9999190938511333" y2="0.49997303128370874" gradientTransform="matrix(2,0,0,2,-1,-1)" gradientUnits="userSpaceOnUse"><stop offset="0%" stop-opacity="1" style="stop-color:rgb(248,251,155)"/><stop offset="12.55%" stop-opacity="1" style="stop-color:rgb(245,248,146)"/><stop offset="33.43%" stop-opacity="1" style="stop-color:rgb(239,239,120)"/><stop offset="60.050000000000004%" stop-opacity="1" style="stop-color:rgb(227,225,79)"/><stop offset="91.08000000000001%" stop-opacity="1" style="stop-color:rgb(212,206,22)"/><stop offset="100%" stop-opacity="1" style="stop-color:rgb(207,200,4)"/></linearGradient><circle vector-effect="non-scaling-stroke" cx="0" cy="0" r="1" transform="matrix(0.616,0,0,0.616,60.159,55.032)" fill="url(#_lgradient_13)" stroke-width="0.083" stroke="rgb(0,0,0)" stroke-linejoin="miter" stroke-linecap="butt" stroke-miterlimit="10"/><circle vector-effect="non-scaling-stroke" cx="0" cy="0" r="1" transform="matrix(0.483,0,0,0.483,60.154,55.028)" fill="none" stroke-width="0.017" stroke="rgb(0,0,0)" stroke-linejoin="miter" stroke-linecap="butt" stroke-miterlimit="10"/><linearGradient id="_lgradient_14" x1="0.00005392289026673325" y1="0.5000269614451334" x2="1.0000404421676947" y2="0.5000269614451334" gradientTransform="matrix(2,0,0,2,-1,-1)" gradientUnits="userSpaceOnUse"><stop offset="0%" stop-opacity="1" style="stop-color:rgb(248,251,155)"/><stop offset="12.55%" stop-opacity="1" style="stop-color:rgb(245,248,146)"/><stop offset="33.43%" stop-opacity="1" style="stop-color:rgb(239,239,120)"/><stop offset="60.050000000000004%" stop-opacity="1" style="stop-color:rgb(227,225,79)"/><stop offset="91.08000000000001%" stop-opacity="1" style="stop-color:rgb(212,206,22)"/><stop offset="100%" stop-opacity="1" style="stop-color:rgb(207,200,4)"/></linearGradient><circle vector-effect="non-scaling-stroke" cx="0" cy="0" r="1" transform="matrix(0.616,0,0,0.616,59.965,58.51)" fill="url(#_lgradient_14)" stroke-width="0.083" stroke="rgb(0,0,0)" stroke-linejoin="miter" stroke-linecap="butt" stroke-miterlimit="10"/><circle vector-effect="non-scaling-stroke" cx="0" cy="0" r="1" transform="matrix(0.483,0,0,0.483,59.961,58.506)" fill="none" stroke-width="0.017" stroke="rgb(0,0,0)" stroke-linejoin="miter" stroke-linecap="butt" stroke-miterlimit="10"/></g><g><path d=" M 55.477 37.608 L 54.946 37.463 C 54.946 37.463 54.656 37.527 54.688 37.673 C 54.721 37.817 54.93 37.995 54.914 38.252 C 54.898 38.51 54.865 39.009 55.059 39.331 C 55.252 39.653 55.719 40.136 55.96 40.265 C 56.202 40.393 56.266 40.2 56.266 40.2 C 56.266 40.2 56.491 42.519 56.556 42.76 C 56.621 43.002 56.959 43.597 57.506 44.064 C 58.053 44.531 58.988 45.594 59.422 45.916 C 59.857 46.238 61.29 46.512 61.902 45.884 C 62.513 45.256 63.834 43.807 63.978 43.597 C 64.123 43.388 64.542 42.889 64.526 42.696 C 64.51 42.502 64.446 40.441 64.446 40.361 C 64.542 40.393 64.751 40.281 64.864 40.184 C 64.977 40.087 65.685 39.314 65.669 38.976 C 65.653 38.638 65.444 37.704 65.524 37.64 C 65.605 37.576 65.717 37.318 65.573 37.254 C 65.428 37.189 64.574 37.817 64.574 37.817 C 64.574 37.817 64.401 35.615 63.609 35.048 C 62.816 34.48 56.396 34.082 56.009 34.597 C 55.622 35.113 55.477 37.608 55.477 37.608 Z " fill="rgb(249,200,154)" vector-effect="non-scaling-stroke" stroke-width="0.083" stroke="rgb(0,0,0)" stroke-linejoin="miter" stroke-linecap="butt" stroke-miterlimit="10"/><path d=" M 56.626 40.281 L 56.438 39.87 L 56.159 38.763 L 55.32 37.542 L 55.221 35.773 L 55.221 35.434 L 57.547 34.678 L 56.874 35.692 L 56.361 37.286 L 56.335 38.027 L 56.55 38.413 L 56.55 39.492 L 56.626 40.281 Z " fill="rgb(0,0,0)"/><path d=" M 65.073 36.618 C 66.74 37.704 64.566 37.391 62.779 36.787 C 60.992 36.183 57.418 35.144 56.596 35.12 C 55.775 35.096 62.03 34.613 62.996 34.927 C 63.962 35.241 65.073 36.618 65.073 36.618 Z " fill="rgb(22,22,22)" vector-effect="non-scaling-stroke" stroke-width="0.083" stroke="rgb(0,0,0)" stroke-linejoin="miter" stroke-linecap="butt" stroke-miterlimit="10"/><linearGradient id="_lgradient_15" x1="0.5000013046032388" y1="0.9999865848091916" x2="0.5000013046032389" y2="-0.000021983623866406177" gradientTransform="matrix(14.15,0,0,6.189,53.287,30.018)" gradientUnits="userSpaceOnUse"><stop offset="37.24%" stop-opacity="1" style="stop-color:rgb(29,39,57)"/><stop offset="99.44%" stop-opacity="1" style="stop-color:rgb(29,39,57)"/></linearGradient><path d=" M 54.817 34.919 C 52.756 33.921 52.756 32.633 54.946 31.249 C 57.136 29.864 61.129 29.8 62.996 30.315 C 64.864 30.83 67.762 32.665 67.408 34.469 C 67.054 35.853 65.443 36.207 65.443 36.207 L 54.817 34.919 Z " fill="url(#_lgradient_15)" vector-effect="non-scaling-stroke" stroke-width="0.083" stroke="rgb(0,0,0)" stroke-linejoin="miter" stroke-linecap="butt" stroke-miterlimit="10"/><path d=" M 55.003 35.603 C 55.003 35.603 54.857 34.855 54.761 34.517 C 57.731 32.754 63.213 32.705 65.677 35.7 C 65.604 35.917 65.29 36.449 65.073 36.618 C 60.847 33.478 55.003 35.603 55.003 35.603 Z " fill="rgb(3,70,139)" vector-effect="non-scaling-stroke" stroke-width="0.083" stroke="rgb(0,0,0)" stroke-linejoin="miter" stroke-linecap="butt" stroke-miterlimit="10"/><path d=" M 60.484 34.299 L 60.436 34.589 L 58.456 34.42 L 59.905 33.116 L 58.915 33.068 L 58.939 32.754 L 60.75 32.971 L 59.374 34.154 L 60.484 34.299 Z " fill="rgb(255,255,255)"/><path d=" M 62.284 33.225 C 62.827 33.539 63.008 34.046 62.815 34.48 C 62.622 34.915 61.921 34.951 61.62 34.855 C 61.318 34.758 60.617 34.299 60.944 33.575 C 61.161 33.152 61.74 32.911 62.284 33.225 Z  M 61.297 33.771 C 61.097 34.215 61.527 34.497 61.712 34.556 C 61.897 34.615 62.327 34.593 62.446 34.326 C 62.564 34.06 62.453 33.749 62.119 33.556 C 61.786 33.363 61.43 33.511 61.297 33.771 Z " fill="rgb(255,255,255)"/><path d=" M 64.117 33.769 C 64.617 34.036 64.857 34.56 64.778 35.058 C 64.698 35.555 64.133 35.689 63.869 35.626 C 63.605 35.562 62.951 35.16 63.086 34.331 C 63.188 33.843 63.617 33.503 64.117 33.769 Z  M 63.411 34.495 C 63.327 35.004 63.729 35.25 63.89 35.29 C 64.053 35.328 64.399 35.246 64.448 34.941 C 64.497 34.636 64.35 34.314 64.043 34.15 C 63.736 33.987 63.472 34.196 63.411 34.495 Z " fill="rgb(255,255,255)"/><path d=" M 64.022 40.264 L 64.29 39.878 L 64.4 38.526 L 64.906 37.608 L 64.949 37.077 L 64.053 36.948 L 64.265 38.075 L 63.966 38.896 L 64.022 39.798 L 64.022 40.264 Z " fill="rgb(0,0,0)"/><path d=" M 63.64 38.3 C 63.479 38.204 63.077 37.817 62.884 37.817 C 62.69 37.817 62.159 37.978 61.918 37.994 C 61.676 38.011 60.936 38.3 60.871 38.365" fill="none" vector-effect="non-scaling-stroke" stroke-width="0.166" stroke="rgb(0,0,0)" stroke-linejoin="miter" stroke-linecap="butt" stroke-miterlimit="10"/><path d=" M 59.213 38.397 C 59.052 38.397 58.569 38.236 58.472 38.188 C 58.376 38.139 57.893 38.155 57.893 38.155 L 57.522 37.914 L 57.023 38.381" fill="none" vector-effect="non-scaling-stroke" stroke-width="0.166" stroke="rgb(0,0,0)" stroke-linejoin="miter" stroke-linecap="butt" stroke-miterlimit="10"/><path d=" M 59.502 38.864 C 59.615 38.928 59.873 39.282 59.857 39.475 C 59.841 39.669 59.567 41.52 59.599 41.568 C 59.631 41.617 60.227 41.713 60.308 41.649" fill="none" vector-effect="non-scaling-stroke" stroke-width="0.083" stroke="rgb(0,0,0)" stroke-linejoin="miter" stroke-linecap="butt" stroke-miterlimit="10"/><path d=" M 60.742 41.456 C 60.855 41.44 61 41.408 61.112 41.553" fill="none" vector-effect="non-scaling-stroke" stroke-width="0.083" stroke="rgb(0,0,0)" stroke-linejoin="miter" stroke-linecap="butt" stroke-miterlimit="10"/><path d=" M 59.148 39.153 C 58.875 38.574 57.763 38.574 57.345 39.17" fill="none" vector-effect="non-scaling-stroke" stroke-width="0.083" stroke="rgb(0,0,0)" stroke-linejoin="miter" stroke-linecap="butt" stroke-miterlimit="10"/><path d=" M 61.225 39.202 C 61.354 38.494 62.98 38.349 63.334 39.057" fill="none" vector-effect="non-scaling-stroke" stroke-width="0.083" stroke="rgb(0,0,0)" stroke-linejoin="miter" stroke-linecap="butt" stroke-miterlimit="10"/><ellipse vector-effect="non-scaling-stroke" cx="0" cy="0" rx="1" ry="1" transform="matrix(0.499,0,0,0.394,58.279,39.146)" fill="rgb(0,0,0)"/><ellipse vector-effect="non-scaling-stroke" cx="0" cy="0" rx="1" ry="1" transform="matrix(0.523,0,0,0.41,62.215,38.985)" fill="rgb(0,0,0)"/><path d=" M 58.52 42.68 C 59.293 43.662 61.595 43.629 62.123 42.519 C 61.946 42.567 61.666 42.671 61.666 42.671 C 61.666 42.671 60.71 42.712 60.5 42.825 C 60.356 42.825 60.163 42.857 60.163 42.857 C 60.163 42.857 59.213 42.728 59.068 42.825 C 58.923 42.921 58.52 42.68 58.52 42.68 Z " fill="rgb(216,216,216)" vector-effect="non-scaling-stroke" stroke-width="0.083" stroke="rgb(0,0,0)" stroke-linejoin="miter" stroke-linecap="butt" stroke-miterlimit="10"/><path d=" M 61.58 43.452 C 61.064 44.064 59.744 44.048 59.213 43.581" fill="none" vector-effect="non-scaling-stroke" stroke-width="0.083" stroke="rgb(0,0,0)" stroke-linejoin="miter" stroke-linecap="butt" stroke-miterlimit="10"/><path d=" M 61.7 38.92 L 62.296 38.993 C 62.296 38.993 61.933 39.154 61.789 39.218 C 61.692 39.121 61.7 38.92 61.7 38.92 Z " fill="rgb(252,252,252)"/><path d=" M 57.836 39.113 L 58.432 39.186 C 58.432 39.186 58.069 39.347 57.925 39.411 C 57.828 39.315 57.836 39.113 57.836 39.113 Z " fill="rgb(252,252,252)"/><path d=" M 65.17 37.898 C 65.061 38.091 64.747 38.489 64.723 38.683 C 64.699 38.876 64.856 39.371 64.844 39.468" fill="none" vector-effect="non-scaling-stroke" stroke-width="0.083" stroke="rgb(0,0,0)" stroke-linejoin="miter" stroke-linecap="butt" stroke-miterlimit="10"/><path d=" M 65.037 39.105 C 65.013 38.972 64.928 38.61 64.795 38.538" fill="none" vector-effect="non-scaling-stroke" stroke-width="0.083" stroke="rgb(0,0,0)" stroke-linejoin="miter" stroke-linecap="butt" stroke-miterlimit="10"/><path d=" M 55.147 37.886 C 55.268 38.055 55.884 38.562 55.908 38.767 C 55.932 38.972 55.775 39.287 55.823 39.468 C 55.872 39.649 55.993 39.926 55.993 39.926" fill="none" vector-effect="non-scaling-stroke" stroke-width="0.083" stroke="rgb(0,0,0)" stroke-linejoin="miter" stroke-linecap="butt" stroke-miterlimit="10"/><path d=" M 55.594 39.287 C 55.558 39.093 55.606 38.671 55.787 38.622" fill="none" vector-effect="non-scaling-stroke" stroke-width="0.083" stroke="rgb(0,0,0)" stroke-linejoin="miter" stroke-linecap="butt" stroke-miterlimit="10"/></g></g></g></svg>